<?xml version="1.0" encoding="utf-8" standalone="no"?>
<!DOCTYPE svg PUBLIC "-//W3C//DTD SVG 1.1//EN"
  "http://www.w3.org/Graphics/SVG/1.1/DTD/svg11.dtd">
<svg xmlns:xlink="http://www.w3.org/1999/xlink" width="460.8pt" height="345.6pt" viewBox="0 0 460.8 345.6" xmlns="http://www.w3.org/2000/svg" version="1.1">
 <metadata>
  <rdf:RDF xmlns:dc="http://purl.org/dc/elements/1.1/" xmlns:cc="http://creativecommons.org/ns#" xmlns:rdf="http://www.w3.org/1999/02/22-rdf-syntax-ns#">
   <cc:Work>
    <dc:type rdf:resource="http://purl.org/dc/dcmitype/StillImage"/>
    <dc:date>2024-05-21T16:20:09.131582</dc:date>
    <dc:format>image/svg+xml</dc:format>
    <dc:creator>
     <cc:Agent>
      <dc:title>Matplotlib v3.7.1, https://matplotlib.org/</dc:title>
     </cc:Agent>
    </dc:creator>
   </cc:Work>
  </rdf:RDF>
 </metadata>
 <defs>
  <style type="text/css">*{stroke-linejoin: round; stroke-linecap: butt}</style>
 </defs>
 <g id="figure_1">
  <g id="patch_1">
   <path d="M 0 345.6 
L 460.8 345.6 
L 460.8 0 
L 0 0 
z
" style="fill: #ffffff"/>
  </g>
  <g id="axes_1">
   <g id="patch_2">
    <path d="M 57.6 307.584 
L 414.72 307.584 
L 414.72 41.472 
L 57.6 41.472 
z
" style="fill: #ffffff"/>
   </g>
   <g id="matplotlib.axis_1">
    <g id="xtick_1">
     <g id="line2d_1">
      <path d="M 73.832727 307.584 
L 73.832727 41.472 
" clip-path="url(#pd62ca89c37)" style="fill: none; stroke: #b0b0b0; stroke-width: 0.8; stroke-linecap: square"/>
     </g>
     <g id="line2d_2">
      <defs>
       <path id="mca50b32cf6" d="M 0 0 
L 0 3.5 
" style="stroke: #000000; stroke-width: 0.8"/>
      </defs>
      <g>
       <use xlink:href="#mca50b32cf6" x="73.832727" y="307.584" style="stroke: #000000; stroke-width: 0.8"/>
      </g>
     </g>
     <g id="text_1">
      <!-- 0 -->
      <g transform="translate(70.651477 322.182437) scale(0.1 -0.1)">
       <defs>
        <path id="DejaVuSans-30" d="M 2034 4250 
Q 1547 4250 1301 3770 
Q 1056 3291 1056 2328 
Q 1056 1369 1301 889 
Q 1547 409 2034 409 
Q 2525 409 2770 889 
Q 3016 1369 3016 2328 
Q 3016 3291 2770 3770 
Q 2525 4250 2034 4250 
z
M 2034 4750 
Q 2819 4750 3233 4129 
Q 3647 3509 3647 2328 
Q 3647 1150 3233 529 
Q 2819 -91 2034 -91 
Q 1250 -91 836 529 
Q 422 1150 422 2328 
Q 422 3509 836 4129 
Q 1250 4750 2034 4750 
z
" transform="scale(0.015625)"/>
       </defs>
       <use xlink:href="#DejaVuSans-30"/>
      </g>
     </g>
    </g>
    <g id="xtick_2">
     <g id="line2d_3">
      <path d="M 139.419504 307.584 
L 139.419504 41.472 
" clip-path="url(#pd62ca89c37)" style="fill: none; stroke: #b0b0b0; stroke-width: 0.8; stroke-linecap: square"/>
     </g>
     <g id="line2d_4">
      <g>
       <use xlink:href="#mca50b32cf6" x="139.419504" y="307.584" style="stroke: #000000; stroke-width: 0.8"/>
      </g>
     </g>
     <g id="text_2">
      <!-- 20 -->
      <g transform="translate(133.057004 322.182437) scale(0.1 -0.1)">
       <defs>
        <path id="DejaVuSans-32" d="M 1228 531 
L 3431 531 
L 3431 0 
L 469 0 
L 469 531 
Q 828 903 1448 1529 
Q 2069 2156 2228 2338 
Q 2531 2678 2651 2914 
Q 2772 3150 2772 3378 
Q 2772 3750 2511 3984 
Q 2250 4219 1831 4219 
Q 1534 4219 1204 4116 
Q 875 4013 500 3803 
L 500 4441 
Q 881 4594 1212 4672 
Q 1544 4750 1819 4750 
Q 2544 4750 2975 4387 
Q 3406 4025 3406 3419 
Q 3406 3131 3298 2873 
Q 3191 2616 2906 2266 
Q 2828 2175 2409 1742 
Q 1991 1309 1228 531 
z
" transform="scale(0.015625)"/>
       </defs>
       <use xlink:href="#DejaVuSans-32"/>
       <use xlink:href="#DejaVuSans-30" x="63.623047"/>
      </g>
     </g>
    </g>
    <g id="xtick_3">
     <g id="line2d_5">
      <path d="M 205.006281 307.584 
L 205.006281 41.472 
" clip-path="url(#pd62ca89c37)" style="fill: none; stroke: #b0b0b0; stroke-width: 0.8; stroke-linecap: square"/>
     </g>
     <g id="line2d_6">
      <g>
       <use xlink:href="#mca50b32cf6" x="205.006281" y="307.584" style="stroke: #000000; stroke-width: 0.8"/>
      </g>
     </g>
     <g id="text_3">
      <!-- 40 -->
      <g transform="translate(198.643781 322.182437) scale(0.1 -0.1)">
       <defs>
        <path id="DejaVuSans-34" d="M 2419 4116 
L 825 1625 
L 2419 1625 
L 2419 4116 
z
M 2253 4666 
L 3047 4666 
L 3047 1625 
L 3713 1625 
L 3713 1100 
L 3047 1100 
L 3047 0 
L 2419 0 
L 2419 1100 
L 313 1100 
L 313 1709 
L 2253 4666 
z
" transform="scale(0.015625)"/>
       </defs>
       <use xlink:href="#DejaVuSans-34"/>
       <use xlink:href="#DejaVuSans-30" x="63.623047"/>
      </g>
     </g>
    </g>
    <g id="xtick_4">
     <g id="line2d_7">
      <path d="M 270.593058 307.584 
L 270.593058 41.472 
" clip-path="url(#pd62ca89c37)" style="fill: none; stroke: #b0b0b0; stroke-width: 0.8; stroke-linecap: square"/>
     </g>
     <g id="line2d_8">
      <g>
       <use xlink:href="#mca50b32cf6" x="270.593058" y="307.584" style="stroke: #000000; stroke-width: 0.8"/>
      </g>
     </g>
     <g id="text_4">
      <!-- 60 -->
      <g transform="translate(264.230558 322.182437) scale(0.1 -0.1)">
       <defs>
        <path id="DejaVuSans-36" d="M 2113 2584 
Q 1688 2584 1439 2293 
Q 1191 2003 1191 1497 
Q 1191 994 1439 701 
Q 1688 409 2113 409 
Q 2538 409 2786 701 
Q 3034 994 3034 1497 
Q 3034 2003 2786 2293 
Q 2538 2584 2113 2584 
z
M 3366 4563 
L 3366 3988 
Q 3128 4100 2886 4159 
Q 2644 4219 2406 4219 
Q 1781 4219 1451 3797 
Q 1122 3375 1075 2522 
Q 1259 2794 1537 2939 
Q 1816 3084 2150 3084 
Q 2853 3084 3261 2657 
Q 3669 2231 3669 1497 
Q 3669 778 3244 343 
Q 2819 -91 2113 -91 
Q 1303 -91 875 529 
Q 447 1150 447 2328 
Q 447 3434 972 4092 
Q 1497 4750 2381 4750 
Q 2619 4750 2861 4703 
Q 3103 4656 3366 4563 
z
" transform="scale(0.015625)"/>
       </defs>
       <use xlink:href="#DejaVuSans-36"/>
       <use xlink:href="#DejaVuSans-30" x="63.623047"/>
      </g>
     </g>
    </g>
    <g id="xtick_5">
     <g id="line2d_9">
      <path d="M 336.179835 307.584 
L 336.179835 41.472 
" clip-path="url(#pd62ca89c37)" style="fill: none; stroke: #b0b0b0; stroke-width: 0.8; stroke-linecap: square"/>
     </g>
     <g id="line2d_10">
      <g>
       <use xlink:href="#mca50b32cf6" x="336.179835" y="307.584" style="stroke: #000000; stroke-width: 0.8"/>
      </g>
     </g>
     <g id="text_5">
      <!-- 80 -->
      <g transform="translate(329.817335 322.182437) scale(0.1 -0.1)">
       <defs>
        <path id="DejaVuSans-38" d="M 2034 2216 
Q 1584 2216 1326 1975 
Q 1069 1734 1069 1313 
Q 1069 891 1326 650 
Q 1584 409 2034 409 
Q 2484 409 2743 651 
Q 3003 894 3003 1313 
Q 3003 1734 2745 1975 
Q 2488 2216 2034 2216 
z
M 1403 2484 
Q 997 2584 770 2862 
Q 544 3141 544 3541 
Q 544 4100 942 4425 
Q 1341 4750 2034 4750 
Q 2731 4750 3128 4425 
Q 3525 4100 3525 3541 
Q 3525 3141 3298 2862 
Q 3072 2584 2669 2484 
Q 3125 2378 3379 2068 
Q 3634 1759 3634 1313 
Q 3634 634 3220 271 
Q 2806 -91 2034 -91 
Q 1263 -91 848 271 
Q 434 634 434 1313 
Q 434 1759 690 2068 
Q 947 2378 1403 2484 
z
M 1172 3481 
Q 1172 3119 1398 2916 
Q 1625 2713 2034 2713 
Q 2441 2713 2670 2916 
Q 2900 3119 2900 3481 
Q 2900 3844 2670 4047 
Q 2441 4250 2034 4250 
Q 1625 4250 1398 4047 
Q 1172 3844 1172 3481 
z
" transform="scale(0.015625)"/>
       </defs>
       <use xlink:href="#DejaVuSans-38"/>
       <use xlink:href="#DejaVuSans-30" x="63.623047"/>
      </g>
     </g>
    </g>
    <g id="xtick_6">
     <g id="line2d_11">
      <path d="M 401.766612 307.584 
L 401.766612 41.472 
" clip-path="url(#pd62ca89c37)" style="fill: none; stroke: #b0b0b0; stroke-width: 0.8; stroke-linecap: square"/>
     </g>
     <g id="line2d_12">
      <g>
       <use xlink:href="#mca50b32cf6" x="401.766612" y="307.584" style="stroke: #000000; stroke-width: 0.8"/>
      </g>
     </g>
     <g id="text_6">
      <!-- 100 -->
      <g transform="translate(392.222862 322.182437) scale(0.1 -0.1)">
       <defs>
        <path id="DejaVuSans-31" d="M 794 531 
L 1825 531 
L 1825 4091 
L 703 3866 
L 703 4441 
L 1819 4666 
L 2450 4666 
L 2450 531 
L 3481 531 
L 3481 0 
L 794 0 
L 794 531 
z
" transform="scale(0.015625)"/>
       </defs>
       <use xlink:href="#DejaVuSans-31"/>
       <use xlink:href="#DejaVuSans-30" x="63.623047"/>
       <use xlink:href="#DejaVuSans-30" x="127.246094"/>
      </g>
     </g>
    </g>
    <g id="text_7">
     <!-- T -->
     <g transform="translate(233.106094 335.860562) scale(0.1 -0.1)">
      <defs>
       <path id="DejaVuSans-54" d="M -19 4666 
L 3928 4666 
L 3928 4134 
L 2272 4134 
L 2272 0 
L 1638 0 
L 1638 4134 
L -19 4134 
L -19 4666 
z
" transform="scale(0.015625)"/>
      </defs>
      <use xlink:href="#DejaVuSans-54"/>
     </g>
    </g>
   </g>
   <g id="matplotlib.axis_2">
    <g id="ytick_1">
     <g id="line2d_13">
      <path d="M 57.6 302.388712 
L 414.72 302.388712 
" clip-path="url(#pd62ca89c37)" style="fill: none; stroke: #b0b0b0; stroke-width: 0.8; stroke-linecap: square"/>
     </g>
     <g id="line2d_14">
      <defs>
       <path id="mffb5ec033c" d="M 0 0 
L -3.5 0 
" style="stroke: #000000; stroke-width: 0.8"/>
      </defs>
      <g>
       <use xlink:href="#mffb5ec033c" x="57.6" y="302.388712" style="stroke: #000000; stroke-width: 0.8"/>
      </g>
     </g>
     <g id="text_8">
      <!-- −2 -->
      <g transform="translate(35.857813 306.187931) scale(0.1 -0.1)">
       <defs>
        <path id="DejaVuSans-2212" d="M 678 2272 
L 4684 2272 
L 4684 1741 
L 678 1741 
L 678 2272 
z
" transform="scale(0.015625)"/>
       </defs>
       <use xlink:href="#DejaVuSans-2212"/>
       <use xlink:href="#DejaVuSans-32" x="83.789062"/>
      </g>
     </g>
    </g>
    <g id="ytick_2">
     <g id="line2d_15">
      <path d="M 57.6 257.148583 
L 414.72 257.148583 
" clip-path="url(#pd62ca89c37)" style="fill: none; stroke: #b0b0b0; stroke-width: 0.8; stroke-linecap: square"/>
     </g>
     <g id="line2d_16">
      <g>
       <use xlink:href="#mffb5ec033c" x="57.6" y="257.148583" style="stroke: #000000; stroke-width: 0.8"/>
      </g>
     </g>
     <g id="text_9">
      <!-- 0 -->
      <g transform="translate(44.2375 260.947801) scale(0.1 -0.1)">
       <use xlink:href="#DejaVuSans-30"/>
      </g>
     </g>
    </g>
    <g id="ytick_3">
     <g id="line2d_17">
      <path d="M 57.6 211.908453 
L 414.72 211.908453 
" clip-path="url(#pd62ca89c37)" style="fill: none; stroke: #b0b0b0; stroke-width: 0.8; stroke-linecap: square"/>
     </g>
     <g id="line2d_18">
      <g>
       <use xlink:href="#mffb5ec033c" x="57.6" y="211.908453" style="stroke: #000000; stroke-width: 0.8"/>
      </g>
     </g>
     <g id="text_10">
      <!-- 2 -->
      <g transform="translate(44.2375 215.707672) scale(0.1 -0.1)">
       <use xlink:href="#DejaVuSans-32"/>
      </g>
     </g>
    </g>
    <g id="ytick_4">
     <g id="line2d_19">
      <path d="M 57.6 166.668324 
L 414.72 166.668324 
" clip-path="url(#pd62ca89c37)" style="fill: none; stroke: #b0b0b0; stroke-width: 0.8; stroke-linecap: square"/>
     </g>
     <g id="line2d_20">
      <g>
       <use xlink:href="#mffb5ec033c" x="57.6" y="166.668324" style="stroke: #000000; stroke-width: 0.8"/>
      </g>
     </g>
     <g id="text_11">
      <!-- 4 -->
      <g transform="translate(44.2375 170.467542) scale(0.1 -0.1)">
       <use xlink:href="#DejaVuSans-34"/>
      </g>
     </g>
    </g>
    <g id="ytick_5">
     <g id="line2d_21">
      <path d="M 57.6 121.428194 
L 414.72 121.428194 
" clip-path="url(#pd62ca89c37)" style="fill: none; stroke: #b0b0b0; stroke-width: 0.8; stroke-linecap: square"/>
     </g>
     <g id="line2d_22">
      <g>
       <use xlink:href="#mffb5ec033c" x="57.6" y="121.428194" style="stroke: #000000; stroke-width: 0.8"/>
      </g>
     </g>
     <g id="text_12">
      <!-- 6 -->
      <g transform="translate(44.2375 125.227413) scale(0.1 -0.1)">
       <use xlink:href="#DejaVuSans-36"/>
      </g>
     </g>
    </g>
    <g id="ytick_6">
     <g id="line2d_23">
      <path d="M 57.6 76.188065 
L 414.72 76.188065 
" clip-path="url(#pd62ca89c37)" style="fill: none; stroke: #b0b0b0; stroke-width: 0.8; stroke-linecap: square"/>
     </g>
     <g id="line2d_24">
      <g>
       <use xlink:href="#mffb5ec033c" x="57.6" y="76.188065" style="stroke: #000000; stroke-width: 0.8"/>
      </g>
     </g>
     <g id="text_13">
      <!-- 8 -->
      <g transform="translate(44.2375 79.987283) scale(0.1 -0.1)">
       <use xlink:href="#DejaVuSans-38"/>
      </g>
     </g>
    </g>
    <g id="text_14">
     <!-- X -->
     <g transform="translate(29.778125 177.953) rotate(-90) scale(0.1 -0.1)">
      <defs>
       <path id="DejaVuSans-58" d="M 403 4666 
L 1081 4666 
L 2241 2931 
L 3406 4666 
L 4084 4666 
L 2584 2425 
L 4184 0 
L 3506 0 
L 2194 1984 
L 872 0 
L 191 0 
L 1856 2491 
L 403 4666 
z
" transform="scale(0.015625)"/>
      </defs>
      <use xlink:href="#DejaVuSans-58"/>
     </g>
    </g>
   </g>
   <g id="line2d_25">
    <path d="M 73.832727 53.568 
L 77.112066 90.270772 
L 80.391405 124.195176 
L 83.670744 145.542626 
L 86.950083 146.135686 
L 90.229421 138.278573 
L 93.50876 154.858919 
L 96.788099 168.926425 
L 100.067438 177.132782 
L 103.346777 175.214284 
L 106.626116 189.775993 
L 109.905455 193.311496 
L 113.184793 205.912239 
L 116.464132 219.368202 
L 119.743471 226.211458 
L 123.02281 230.056167 
L 126.302149 226.048443 
L 129.581488 235.1052 
L 132.860826 237.867302 
L 136.140165 234.967887 
L 139.419504 243.64391 
L 142.698843 247.550911 
L 145.978182 249.094029 
L 149.257521 258.445723 
L 152.53686 264.485223 
L 155.816198 270.477744 
L 159.095537 272.12009 
L 162.374876 265.572191 
L 165.654215 262.582874 
L 168.933554 264.97619 
L 172.212893 264.273695 
L 175.492231 252.291059 
L 178.77157 255.56445 
L 182.050909 262.553732 
L 185.330248 265.140021 
L 188.609587 260.318314 
L 191.888926 269.749627 
L 195.168264 279.834937 
L 198.447603 285.776652 
L 201.726942 292.379391 
L 205.006281 285.110053 
L 208.28562 277.270681 
L 211.564959 284.065455 
L 214.844298 268.365986 
L 218.123636 261.588955 
L 221.402975 251.197627 
L 224.682314 252.645932 
L 227.961653 245.345364 
L 231.240992 250.5754 
L 234.520331 245.051264 
L 237.799669 236.368883 
L 241.079008 243.00834 
L 244.358347 253.172796 
L 247.637686 246.789969 
L 250.917025 242.085391 
L 254.196364 246.193842 
L 257.475702 258.221299 
L 260.755041 260.795369 
L 264.03438 263.960335 
L 267.313719 253.879395 
L 270.593058 252.366281 
L 273.872397 251.225408 
L 277.151736 250.657571 
L 280.431074 258.413502 
L 283.710413 254.656551 
L 286.989752 261.576718 
L 290.269091 262.501839 
L 293.54843 261.295038 
L 296.827769 255.674713 
L 300.107107 246.226217 
L 303.386446 244.859462 
L 306.665785 236.851389 
L 309.945124 232.722874 
L 313.224463 241.277935 
L 316.503802 244.597096 
L 319.78314 247.78411 
L 323.062479 241.035854 
L 326.341818 250.177357 
L 329.621157 251.697609 
L 332.900496 263.950348 
L 336.179835 271.471229 
L 339.459174 258.189437 
L 342.738512 255.196383 
L 346.017851 253.517083 
L 349.29719 244.923262 
L 352.576529 243.367641 
L 355.855868 245.785874 
L 359.135207 243.239644 
L 362.414545 237.399267 
L 365.693884 248.186914 
L 368.973223 256.4938 
L 372.252562 258.918813 
L 375.531901 260.063351 
L 378.81124 270.310031 
L 382.090579 267.231942 
L 385.369917 262.814924 
L 388.649256 264.735996 
L 391.928595 265.075753 
L 395.207934 274.295169 
L 398.487273 262.648209 
" clip-path="url(#pd62ca89c37)" style="fill: none; stroke: #0000ff; stroke-width: 1.5; stroke-linecap: square"/>
   </g>
   <g id="line2d_26">
    <path d="M 73.832727 53.568 
L 77.112066 90.270772 
L 80.391405 124.195176 
L 83.670744 149.212903 
L 86.950083 149.461963 
L 90.229421 141.006478 
L 93.50876 156.901758 
L 96.788099 170.811097 
L 100.067438 180.634928 
L 103.346777 178.955709 
L 106.626116 194.433936 
L 109.905455 198.874944 
L 113.184793 211.711529 
L 116.464132 225.850539 
L 119.743471 232.56927 
L 123.02281 235.778901 
L 126.302149 231.63542 
L 129.581488 240.957959 
L 132.860826 242.971116 
L 136.140165 238.563355 
L 139.419504 246.326212 
L 142.698843 248.989332 
L 145.978182 250.441941 
L 149.257521 260.192798 
L 152.53686 265.813519 
L 155.816198 272.410863 
L 159.095537 273.738504 
L 162.374876 266.910678 
L 165.654215 263.641465 
L 168.933554 265.07587 
L 172.212893 264.258907 
L 175.492231 252.419119 
L 178.77157 255.731495 
L 182.050909 262.680014 
L 185.330248 265.572934 
L 188.609587 260.700848 
L 191.888926 270.35037 
L 195.168264 280.184243 
L 198.447603 286.069073 
L 201.726942 292.631481 
L 205.006281 285.32795 
L 208.28562 277.45269 
L 211.564959 284.206947 
L 214.844298 268.471498 
L 218.123636 261.658371 
L 221.402975 251.245705 
L 224.682314 252.683865 
L 227.961653 245.375486 
L 231.240992 250.746694 
L 234.520331 244.622112 
L 237.799669 235.957338 
L 241.079008 242.048815 
L 244.358347 252.325466 
L 247.637686 246.071571 
L 250.917025 241.48056 
L 254.196364 245.704139 
L 257.475702 257.833219 
L 260.755041 260.917258 
L 264.03438 264.10873 
L 267.313719 253.99978 
L 270.593058 252.791847 
L 273.872397 251.615676 
L 277.151736 250.976022 
L 280.431074 258.546737 
L 283.710413 254.747991 
L 286.989752 261.646716 
L 290.269091 262.553182 
L 293.54843 261.334876 
L 296.827769 255.70699 
L 300.107107 246.255523 
L 303.386446 244.887664 
L 306.665785 236.87824 
L 309.945124 232.612533 
L 313.224463 241.172966 
L 316.503802 244.084557 
L 319.78314 247.323001 
L 323.062479 240.671166 
L 326.341818 250.221388 
L 329.621157 251.436277 
L 332.900496 263.732495 
L 336.179835 271.430075 
L 339.459174 258.1689 
L 342.738512 255.952703 
L 346.017851 253.610629 
L 349.29719 244.933709 
L 352.576529 243.3713 
L 355.855868 245.791422 
L 359.135207 243.090825 
L 362.414545 237.250853 
L 365.693884 248.056149 
L 368.973223 256.382084 
L 372.252562 258.823748 
L 375.531901 259.985495 
L 378.81124 270.248989 
L 382.090579 267.181453 
L 385.369917 262.775482 
L 388.649256 264.705711 
L 391.928595 264.611785 
L 395.207934 273.642655 
L 398.487273 261.860292 
" clip-path="url(#pd62ca89c37)" style="fill: none; stroke-dasharray: 5.55,2.4; stroke-dashoffset: 0; stroke: #000000; stroke-width: 1.5"/>
   </g>
   <g id="line2d_27">
    <path d="M 73.832727 53.568 
L 77.112066 86.892746 
L 80.391405 118.204233 
L 83.670744 143.397922 
L 86.950083 147.592075 
L 90.229421 145.021428 
L 93.50876 166.349663 
L 96.788099 186.155068 
L 100.067438 203.694017 
L 103.346777 214.040324 
L 106.626116 242.508488 
L 109.905455 242.288845 
L 113.184793 252.352876 
L 116.464132 260.655296 
L 119.743471 261.058427 
L 123.02281 258.872018 
L 126.302149 250.496777 
L 129.581488 256.136306 
L 132.860826 253.975109 
L 136.140165 247.386358 
L 139.419504 253.609454 
L 142.698843 254.818819 
L 145.978182 255.300655 
L 149.257521 264.578831 
L 152.53686 270.902847 
L 155.816198 278.151738 
L 159.095537 279.335235 
L 162.374876 273.175806 
L 165.654215 270.428496 
L 168.933554 272.015118 
L 172.212893 270.098767 
L 175.492231 257.259356 
L 178.77157 259.906182 
L 182.050909 265.119123 
L 185.330248 266.675747 
L 188.609587 261.600439 
L 191.888926 271.104482 
L 195.168264 280.807261 
L 198.447603 287.330625 
L 201.726942 295.488 
L 205.006281 288.563616 
L 208.28562 281.658057 
L 211.564959 288.444288 
L 214.844298 271.949861 
L 218.123636 264.756012 
L 221.402975 252.5805 
L 224.682314 251.915712 
L 227.961653 241.747485 
L 231.240992 244.582021 
L 234.520331 235.983351 
L 237.799669 224.983129 
L 241.079008 233.460396 
L 244.358347 244.934621 
L 247.637686 240.163256 
L 250.917025 238.066422 
L 254.196364 244.203469 
L 257.475702 257.626387 
L 260.755041 261.666183 
L 264.03438 267.295974 
L 267.313719 259.719491 
L 270.593058 261.144235 
L 273.872397 261.508282 
L 277.151736 261.956084 
L 280.431074 270.332859 
L 283.710413 267.470246 
L 286.989752 275.552102 
L 290.269091 277.080848 
L 293.54843 274.450174 
L 296.827769 267.776218 
L 300.107107 257.732335 
L 303.386446 254.885394 
L 306.665785 244.395262 
L 309.945124 237.877596 
L 313.224463 243.364534 
L 316.503802 243.299699 
L 319.78314 244.129202 
L 323.062479 235.573037 
L 326.341818 243.342797 
L 329.621157 243.369373 
L 332.900496 255.43734 
L 336.179835 262.863684 
L 339.459174 250.623524 
L 342.738512 249.279243 
L 346.017851 247.702603 
L 349.29719 238.628798 
L 352.576529 236.30719 
L 355.855868 237.114671 
L 359.135207 232.733622 
L 362.414545 225.126225 
L 365.693884 237.010703 
L 368.973223 245.999167 
L 372.252562 250.222996 
L 375.531901 254.176767 
L 378.81124 267.387679 
L 382.090579 266.738822 
L 385.369917 265.616299 
L 388.649256 270.16547 
L 391.928595 272.315389 
L 395.207934 283.326769 
L 398.487273 273.359818 
" clip-path="url(#pd62ca89c37)" style="fill: none; stroke: #ff0000; stroke-width: 1.5; stroke-linecap: square"/>
   </g>
   <g id="patch_3">
    <path d="M 57.6 307.584 
L 57.6 41.472 
" style="fill: none; stroke: #000000; stroke-width: 0.8; stroke-linejoin: miter; stroke-linecap: square"/>
   </g>
   <g id="patch_4">
    <path d="M 414.72 307.584 
L 414.72 41.472 
" style="fill: none; stroke: #000000; stroke-width: 0.8; stroke-linejoin: miter; stroke-linecap: square"/>
   </g>
   <g id="patch_5">
    <path d="M 57.6 307.584 
L 414.72 307.584 
" style="fill: none; stroke: #000000; stroke-width: 0.8; stroke-linejoin: miter; stroke-linecap: square"/>
   </g>
   <g id="patch_6">
    <path d="M 57.6 41.472 
L 414.72 41.472 
" style="fill: none; stroke: #000000; stroke-width: 0.8; stroke-linejoin: miter; stroke-linecap: square"/>
   </g>
   <g id="legend_1">
    <g id="patch_7">
     <path d="M 392.72 67.472 
L 400.72 67.472 
Q 404.72 67.472 404.72 63.472 
L 404.72 55.472 
Q 404.72 51.472 400.72 51.472 
L 392.72 51.472 
Q 388.72 51.472 388.72 55.472 
L 388.72 63.472 
Q 388.72 67.472 392.72 67.472 
z
" style="fill: #ffffff; opacity: 0.8; stroke: #cccccc; stroke-linejoin: miter"/>
    </g>
   </g>
  </g>
 </g>
 <defs>
  <clipPath id="pd62ca89c37">
   <rect x="57.6" y="41.472" width="357.12" height="266.112"/>
  </clipPath>
 </defs>
</svg>
