<?xml version="1.0" encoding="utf-8" standalone="no"?>
<!DOCTYPE svg PUBLIC "-//W3C//DTD SVG 1.1//EN"
  "http://www.w3.org/Graphics/SVG/1.1/DTD/svg11.dtd">
<svg xmlns:xlink="http://www.w3.org/1999/xlink" width="460.8pt" height="345.6pt" viewBox="0 0 460.8 345.6" xmlns="http://www.w3.org/2000/svg" version="1.1">
 <metadata>
  <rdf:RDF xmlns:dc="http://purl.org/dc/elements/1.1/" xmlns:cc="http://creativecommons.org/ns#" xmlns:rdf="http://www.w3.org/1999/02/22-rdf-syntax-ns#">
   <cc:Work>
    <dc:type rdf:resource="http://purl.org/dc/dcmitype/StillImage"/>
    <dc:date>2024-05-21T16:20:09.012304</dc:date>
    <dc:format>image/svg+xml</dc:format>
    <dc:creator>
     <cc:Agent>
      <dc:title>Matplotlib v3.7.1, https://matplotlib.org/</dc:title>
     </cc:Agent>
    </dc:creator>
   </cc:Work>
  </rdf:RDF>
 </metadata>
 <defs>
  <style type="text/css">*{stroke-linejoin: round; stroke-linecap: butt}</style>
 </defs>
 <g id="figure_1">
  <g id="patch_1">
   <path d="M 0 345.6 
L 460.8 345.6 
L 460.8 0 
L 0 0 
z
" style="fill: #ffffff"/>
  </g>
  <g id="axes_1">
   <g id="patch_2">
    <path d="M 57.6 307.584 
L 414.72 307.584 
L 414.72 41.472 
L 57.6 41.472 
z
" style="fill: #ffffff"/>
   </g>
   <g id="matplotlib.axis_1">
    <g id="xtick_1">
     <g id="line2d_1">
      <path d="M 73.832727 307.584 
L 73.832727 41.472 
" clip-path="url(#p752c4584bf)" style="fill: none; stroke: #b0b0b0; stroke-width: 0.8; stroke-linecap: square"/>
     </g>
     <g id="line2d_2">
      <defs>
       <path id="m676c6ed94b" d="M 0 0 
L 0 3.5 
" style="stroke: #000000; stroke-width: 0.8"/>
      </defs>
      <g>
       <use xlink:href="#m676c6ed94b" x="73.832727" y="307.584" style="stroke: #000000; stroke-width: 0.8"/>
      </g>
     </g>
     <g id="text_1">
      <!-- 0 -->
      <g transform="translate(70.651477 322.182437) scale(0.1 -0.1)">
       <defs>
        <path id="DejaVuSans-30" d="M 2034 4250 
Q 1547 4250 1301 3770 
Q 1056 3291 1056 2328 
Q 1056 1369 1301 889 
Q 1547 409 2034 409 
Q 2525 409 2770 889 
Q 3016 1369 3016 2328 
Q 3016 3291 2770 3770 
Q 2525 4250 2034 4250 
z
M 2034 4750 
Q 2819 4750 3233 4129 
Q 3647 3509 3647 2328 
Q 3647 1150 3233 529 
Q 2819 -91 2034 -91 
Q 1250 -91 836 529 
Q 422 1150 422 2328 
Q 422 3509 836 4129 
Q 1250 4750 2034 4750 
z
" transform="scale(0.015625)"/>
       </defs>
       <use xlink:href="#DejaVuSans-30"/>
      </g>
     </g>
    </g>
    <g id="xtick_2">
     <g id="line2d_3">
      <path d="M 139.419504 307.584 
L 139.419504 41.472 
" clip-path="url(#p752c4584bf)" style="fill: none; stroke: #b0b0b0; stroke-width: 0.8; stroke-linecap: square"/>
     </g>
     <g id="line2d_4">
      <g>
       <use xlink:href="#m676c6ed94b" x="139.419504" y="307.584" style="stroke: #000000; stroke-width: 0.8"/>
      </g>
     </g>
     <g id="text_2">
      <!-- 20 -->
      <g transform="translate(133.057004 322.182437) scale(0.1 -0.1)">
       <defs>
        <path id="DejaVuSans-32" d="M 1228 531 
L 3431 531 
L 3431 0 
L 469 0 
L 469 531 
Q 828 903 1448 1529 
Q 2069 2156 2228 2338 
Q 2531 2678 2651 2914 
Q 2772 3150 2772 3378 
Q 2772 3750 2511 3984 
Q 2250 4219 1831 4219 
Q 1534 4219 1204 4116 
Q 875 4013 500 3803 
L 500 4441 
Q 881 4594 1212 4672 
Q 1544 4750 1819 4750 
Q 2544 4750 2975 4387 
Q 3406 4025 3406 3419 
Q 3406 3131 3298 2873 
Q 3191 2616 2906 2266 
Q 2828 2175 2409 1742 
Q 1991 1309 1228 531 
z
" transform="scale(0.015625)"/>
       </defs>
       <use xlink:href="#DejaVuSans-32"/>
       <use xlink:href="#DejaVuSans-30" x="63.623047"/>
      </g>
     </g>
    </g>
    <g id="xtick_3">
     <g id="line2d_5">
      <path d="M 205.006281 307.584 
L 205.006281 41.472 
" clip-path="url(#p752c4584bf)" style="fill: none; stroke: #b0b0b0; stroke-width: 0.8; stroke-linecap: square"/>
     </g>
     <g id="line2d_6">
      <g>
       <use xlink:href="#m676c6ed94b" x="205.006281" y="307.584" style="stroke: #000000; stroke-width: 0.8"/>
      </g>
     </g>
     <g id="text_3">
      <!-- 40 -->
      <g transform="translate(198.643781 322.182437) scale(0.1 -0.1)">
       <defs>
        <path id="DejaVuSans-34" d="M 2419 4116 
L 825 1625 
L 2419 1625 
L 2419 4116 
z
M 2253 4666 
L 3047 4666 
L 3047 1625 
L 3713 1625 
L 3713 1100 
L 3047 1100 
L 3047 0 
L 2419 0 
L 2419 1100 
L 313 1100 
L 313 1709 
L 2253 4666 
z
" transform="scale(0.015625)"/>
       </defs>
       <use xlink:href="#DejaVuSans-34"/>
       <use xlink:href="#DejaVuSans-30" x="63.623047"/>
      </g>
     </g>
    </g>
    <g id="xtick_4">
     <g id="line2d_7">
      <path d="M 270.593058 307.584 
L 270.593058 41.472 
" clip-path="url(#p752c4584bf)" style="fill: none; stroke: #b0b0b0; stroke-width: 0.8; stroke-linecap: square"/>
     </g>
     <g id="line2d_8">
      <g>
       <use xlink:href="#m676c6ed94b" x="270.593058" y="307.584" style="stroke: #000000; stroke-width: 0.8"/>
      </g>
     </g>
     <g id="text_4">
      <!-- 60 -->
      <g transform="translate(264.230558 322.182437) scale(0.1 -0.1)">
       <defs>
        <path id="DejaVuSans-36" d="M 2113 2584 
Q 1688 2584 1439 2293 
Q 1191 2003 1191 1497 
Q 1191 994 1439 701 
Q 1688 409 2113 409 
Q 2538 409 2786 701 
Q 3034 994 3034 1497 
Q 3034 2003 2786 2293 
Q 2538 2584 2113 2584 
z
M 3366 4563 
L 3366 3988 
Q 3128 4100 2886 4159 
Q 2644 4219 2406 4219 
Q 1781 4219 1451 3797 
Q 1122 3375 1075 2522 
Q 1259 2794 1537 2939 
Q 1816 3084 2150 3084 
Q 2853 3084 3261 2657 
Q 3669 2231 3669 1497 
Q 3669 778 3244 343 
Q 2819 -91 2113 -91 
Q 1303 -91 875 529 
Q 447 1150 447 2328 
Q 447 3434 972 4092 
Q 1497 4750 2381 4750 
Q 2619 4750 2861 4703 
Q 3103 4656 3366 4563 
z
" transform="scale(0.015625)"/>
       </defs>
       <use xlink:href="#DejaVuSans-36"/>
       <use xlink:href="#DejaVuSans-30" x="63.623047"/>
      </g>
     </g>
    </g>
    <g id="xtick_5">
     <g id="line2d_9">
      <path d="M 336.179835 307.584 
L 336.179835 41.472 
" clip-path="url(#p752c4584bf)" style="fill: none; stroke: #b0b0b0; stroke-width: 0.8; stroke-linecap: square"/>
     </g>
     <g id="line2d_10">
      <g>
       <use xlink:href="#m676c6ed94b" x="336.179835" y="307.584" style="stroke: #000000; stroke-width: 0.8"/>
      </g>
     </g>
     <g id="text_5">
      <!-- 80 -->
      <g transform="translate(329.817335 322.182437) scale(0.1 -0.1)">
       <defs>
        <path id="DejaVuSans-38" d="M 2034 2216 
Q 1584 2216 1326 1975 
Q 1069 1734 1069 1313 
Q 1069 891 1326 650 
Q 1584 409 2034 409 
Q 2484 409 2743 651 
Q 3003 894 3003 1313 
Q 3003 1734 2745 1975 
Q 2488 2216 2034 2216 
z
M 1403 2484 
Q 997 2584 770 2862 
Q 544 3141 544 3541 
Q 544 4100 942 4425 
Q 1341 4750 2034 4750 
Q 2731 4750 3128 4425 
Q 3525 4100 3525 3541 
Q 3525 3141 3298 2862 
Q 3072 2584 2669 2484 
Q 3125 2378 3379 2068 
Q 3634 1759 3634 1313 
Q 3634 634 3220 271 
Q 2806 -91 2034 -91 
Q 1263 -91 848 271 
Q 434 634 434 1313 
Q 434 1759 690 2068 
Q 947 2378 1403 2484 
z
M 1172 3481 
Q 1172 3119 1398 2916 
Q 1625 2713 2034 2713 
Q 2441 2713 2670 2916 
Q 2900 3119 2900 3481 
Q 2900 3844 2670 4047 
Q 2441 4250 2034 4250 
Q 1625 4250 1398 4047 
Q 1172 3844 1172 3481 
z
" transform="scale(0.015625)"/>
       </defs>
       <use xlink:href="#DejaVuSans-38"/>
       <use xlink:href="#DejaVuSans-30" x="63.623047"/>
      </g>
     </g>
    </g>
    <g id="xtick_6">
     <g id="line2d_11">
      <path d="M 401.766612 307.584 
L 401.766612 41.472 
" clip-path="url(#p752c4584bf)" style="fill: none; stroke: #b0b0b0; stroke-width: 0.8; stroke-linecap: square"/>
     </g>
     <g id="line2d_12">
      <g>
       <use xlink:href="#m676c6ed94b" x="401.766612" y="307.584" style="stroke: #000000; stroke-width: 0.8"/>
      </g>
     </g>
     <g id="text_6">
      <!-- 100 -->
      <g transform="translate(392.222862 322.182437) scale(0.1 -0.1)">
       <defs>
        <path id="DejaVuSans-31" d="M 794 531 
L 1825 531 
L 1825 4091 
L 703 3866 
L 703 4441 
L 1819 4666 
L 2450 4666 
L 2450 531 
L 3481 531 
L 3481 0 
L 794 0 
L 794 531 
z
" transform="scale(0.015625)"/>
       </defs>
       <use xlink:href="#DejaVuSans-31"/>
       <use xlink:href="#DejaVuSans-30" x="63.623047"/>
       <use xlink:href="#DejaVuSans-30" x="127.246094"/>
      </g>
     </g>
    </g>
    <g id="text_7">
     <!-- T -->
     <g transform="translate(233.106094 335.860562) scale(0.1 -0.1)">
      <defs>
       <path id="DejaVuSans-54" d="M -19 4666 
L 3928 4666 
L 3928 4134 
L 2272 4134 
L 2272 0 
L 1638 0 
L 1638 4134 
L -19 4134 
L -19 4666 
z
" transform="scale(0.015625)"/>
      </defs>
      <use xlink:href="#DejaVuSans-54"/>
     </g>
    </g>
   </g>
   <g id="matplotlib.axis_2">
    <g id="ytick_1">
     <g id="line2d_13">
      <path d="M 57.6 289.806739 
L 414.72 289.806739 
" clip-path="url(#p752c4584bf)" style="fill: none; stroke: #b0b0b0; stroke-width: 0.8; stroke-linecap: square"/>
     </g>
     <g id="line2d_14">
      <defs>
       <path id="md094a81747" d="M 0 0 
L -3.5 0 
" style="stroke: #000000; stroke-width: 0.8"/>
      </defs>
      <g>
       <use xlink:href="#md094a81747" x="57.6" y="289.806739" style="stroke: #000000; stroke-width: 0.8"/>
      </g>
     </g>
     <g id="text_8">
      <!-- 0 -->
      <g transform="translate(44.2375 293.605958) scale(0.1 -0.1)">
       <use xlink:href="#DejaVuSans-30"/>
      </g>
     </g>
    </g>
    <g id="ytick_2">
     <g id="line2d_15">
      <path d="M 57.6 256.058348 
L 414.72 256.058348 
" clip-path="url(#p752c4584bf)" style="fill: none; stroke: #b0b0b0; stroke-width: 0.8; stroke-linecap: square"/>
     </g>
     <g id="line2d_16">
      <g>
       <use xlink:href="#md094a81747" x="57.6" y="256.058348" style="stroke: #000000; stroke-width: 0.8"/>
      </g>
     </g>
     <g id="text_9">
      <!-- 1 -->
      <g transform="translate(44.2375 259.857567) scale(0.1 -0.1)">
       <use xlink:href="#DejaVuSans-31"/>
      </g>
     </g>
    </g>
    <g id="ytick_3">
     <g id="line2d_17">
      <path d="M 57.6 222.309957 
L 414.72 222.309957 
" clip-path="url(#p752c4584bf)" style="fill: none; stroke: #b0b0b0; stroke-width: 0.8; stroke-linecap: square"/>
     </g>
     <g id="line2d_18">
      <g>
       <use xlink:href="#md094a81747" x="57.6" y="222.309957" style="stroke: #000000; stroke-width: 0.8"/>
      </g>
     </g>
     <g id="text_10">
      <!-- 2 -->
      <g transform="translate(44.2375 226.109175) scale(0.1 -0.1)">
       <use xlink:href="#DejaVuSans-32"/>
      </g>
     </g>
    </g>
    <g id="ytick_4">
     <g id="line2d_19">
      <path d="M 57.6 188.561565 
L 414.72 188.561565 
" clip-path="url(#p752c4584bf)" style="fill: none; stroke: #b0b0b0; stroke-width: 0.8; stroke-linecap: square"/>
     </g>
     <g id="line2d_20">
      <g>
       <use xlink:href="#md094a81747" x="57.6" y="188.561565" style="stroke: #000000; stroke-width: 0.8"/>
      </g>
     </g>
     <g id="text_11">
      <!-- 3 -->
      <g transform="translate(44.2375 192.360784) scale(0.1 -0.1)">
       <defs>
        <path id="DejaVuSans-33" d="M 2597 2516 
Q 3050 2419 3304 2112 
Q 3559 1806 3559 1356 
Q 3559 666 3084 287 
Q 2609 -91 1734 -91 
Q 1441 -91 1130 -33 
Q 819 25 488 141 
L 488 750 
Q 750 597 1062 519 
Q 1375 441 1716 441 
Q 2309 441 2620 675 
Q 2931 909 2931 1356 
Q 2931 1769 2642 2001 
Q 2353 2234 1838 2234 
L 1294 2234 
L 1294 2753 
L 1863 2753 
Q 2328 2753 2575 2939 
Q 2822 3125 2822 3475 
Q 2822 3834 2567 4026 
Q 2313 4219 1838 4219 
Q 1578 4219 1281 4162 
Q 984 4106 628 3988 
L 628 4550 
Q 988 4650 1302 4700 
Q 1616 4750 1894 4750 
Q 2613 4750 3031 4423 
Q 3450 4097 3450 3541 
Q 3450 3153 3228 2886 
Q 3006 2619 2597 2516 
z
" transform="scale(0.015625)"/>
       </defs>
       <use xlink:href="#DejaVuSans-33"/>
      </g>
     </g>
    </g>
    <g id="ytick_5">
     <g id="line2d_21">
      <path d="M 57.6 154.813174 
L 414.72 154.813174 
" clip-path="url(#p752c4584bf)" style="fill: none; stroke: #b0b0b0; stroke-width: 0.8; stroke-linecap: square"/>
     </g>
     <g id="line2d_22">
      <g>
       <use xlink:href="#md094a81747" x="57.6" y="154.813174" style="stroke: #000000; stroke-width: 0.8"/>
      </g>
     </g>
     <g id="text_12">
      <!-- 4 -->
      <g transform="translate(44.2375 158.612393) scale(0.1 -0.1)">
       <use xlink:href="#DejaVuSans-34"/>
      </g>
     </g>
    </g>
    <g id="ytick_6">
     <g id="line2d_23">
      <path d="M 57.6 121.064783 
L 414.72 121.064783 
" clip-path="url(#p752c4584bf)" style="fill: none; stroke: #b0b0b0; stroke-width: 0.8; stroke-linecap: square"/>
     </g>
     <g id="line2d_24">
      <g>
       <use xlink:href="#md094a81747" x="57.6" y="121.064783" style="stroke: #000000; stroke-width: 0.8"/>
      </g>
     </g>
     <g id="text_13">
      <!-- 5 -->
      <g transform="translate(44.2375 124.864001) scale(0.1 -0.1)">
       <defs>
        <path id="DejaVuSans-35" d="M 691 4666 
L 3169 4666 
L 3169 4134 
L 1269 4134 
L 1269 2991 
Q 1406 3038 1543 3061 
Q 1681 3084 1819 3084 
Q 2600 3084 3056 2656 
Q 3513 2228 3513 1497 
Q 3513 744 3044 326 
Q 2575 -91 1722 -91 
Q 1428 -91 1123 -41 
Q 819 9 494 109 
L 494 744 
Q 775 591 1075 516 
Q 1375 441 1709 441 
Q 2250 441 2565 725 
Q 2881 1009 2881 1497 
Q 2881 1984 2565 2268 
Q 2250 2553 1709 2553 
Q 1456 2553 1204 2497 
Q 953 2441 691 2322 
L 691 4666 
z
" transform="scale(0.015625)"/>
       </defs>
       <use xlink:href="#DejaVuSans-35"/>
      </g>
     </g>
    </g>
    <g id="ytick_7">
     <g id="line2d_25">
      <path d="M 57.6 87.316391 
L 414.72 87.316391 
" clip-path="url(#p752c4584bf)" style="fill: none; stroke: #b0b0b0; stroke-width: 0.8; stroke-linecap: square"/>
     </g>
     <g id="line2d_26">
      <g>
       <use xlink:href="#md094a81747" x="57.6" y="87.316391" style="stroke: #000000; stroke-width: 0.8"/>
      </g>
     </g>
     <g id="text_14">
      <!-- 6 -->
      <g transform="translate(44.2375 91.11561) scale(0.1 -0.1)">
       <use xlink:href="#DejaVuSans-36"/>
      </g>
     </g>
    </g>
    <g id="ytick_8">
     <g id="line2d_27">
      <path d="M 57.6 53.568 
L 414.72 53.568 
" clip-path="url(#p752c4584bf)" style="fill: none; stroke: #b0b0b0; stroke-width: 0.8; stroke-linecap: square"/>
     </g>
     <g id="line2d_28">
      <g>
       <use xlink:href="#md094a81747" x="57.6" y="53.568" style="stroke: #000000; stroke-width: 0.8"/>
      </g>
     </g>
     <g id="text_15">
      <!-- 7 -->
      <g transform="translate(44.2375 57.367219) scale(0.1 -0.1)">
       <defs>
        <path id="DejaVuSans-37" d="M 525 4666 
L 3525 4666 
L 3525 4397 
L 1831 0 
L 1172 0 
L 2766 4134 
L 525 4134 
L 525 4666 
z
" transform="scale(0.015625)"/>
       </defs>
       <use xlink:href="#DejaVuSans-37"/>
      </g>
     </g>
    </g>
    <g id="text_16">
     <!-- X -->
     <g transform="translate(38.157812 177.953) rotate(-90) scale(0.1 -0.1)">
      <defs>
       <path id="DejaVuSans-58" d="M 403 4666 
L 1081 4666 
L 2241 2931 
L 3406 4666 
L 4084 4666 
L 2584 2425 
L 4184 0 
L 3506 0 
L 2194 1984 
L 872 0 
L 191 0 
L 1856 2491 
L 403 4666 
z
" transform="scale(0.015625)"/>
      </defs>
      <use xlink:href="#DejaVuSans-58"/>
     </g>
    </g>
   </g>
   <g id="line2d_29">
    <path d="M 73.832727 53.568 
L 77.112066 67.735595 
L 80.391405 83.204868 
L 83.670744 122.432232 
L 86.950083 153.434526 
L 90.229421 199.17263 
L 93.50876 224.720789 
L 96.788099 232.309521 
L 100.067438 243.648812 
L 103.346777 254.684716 
L 106.626116 262.300029 
L 109.905455 256.456723 
L 113.184793 251.947265 
L 116.464132 246.946074 
L 119.743471 234.489567 
L 123.02281 240.432729 
L 126.302149 228.073087 
L 129.581488 216.088324 
L 132.860826 205.330335 
L 136.140165 204.578444 
L 139.419504 202.902314 
L 142.698843 212.493477 
L 145.978182 233.504501 
L 149.257521 232.48193 
L 152.53686 226.473968 
L 155.816198 238.523939 
L 159.095537 254.345385 
L 162.374876 252.911186 
L 165.654215 240.497943 
L 168.933554 228.620599 
L 172.212893 227.184915 
L 175.492231 239.907575 
L 178.77157 237.855963 
L 182.050909 257.854618 
L 185.330248 254.35532 
L 188.609587 263.925854 
L 191.888926 276.309765 
L 195.168264 289.400647 
L 198.447603 274.845451 
L 201.726942 288.306406 
L 205.006281 272.93103 
L 208.28562 257.221572 
L 211.564959 244.356374 
L 214.844298 229.991337 
L 218.123636 245.125898 
L 221.402975 242.494509 
L 224.682314 241.670173 
L 227.961653 247.217659 
L 231.240992 263.327689 
L 234.520331 259.590114 
L 237.799669 269.334609 
L 241.079008 261.405842 
L 244.358347 278.799912 
L 247.637686 281.249249 
L 250.917025 272.44928 
L 254.196364 271.130552 
L 257.475702 256.796164 
L 260.755041 265.892541 
L 264.03438 270.040364 
L 267.313719 277.838769 
L 270.593058 266.073502 
L 273.872397 258.204884 
L 277.151736 252.426919 
L 280.431074 264.9369 
L 283.710413 253.398803 
L 286.989752 249.998862 
L 290.269091 270.193494 
L 293.54843 277.957321 
L 296.827769 292.026581 
L 300.107107 275.590804 
L 303.386446 269.31501 
L 306.665785 262.508762 
L 309.945124 256.05919 
L 313.224463 269.420607 
L 316.503802 259.458929 
L 319.78314 256.713008 
L 323.062479 252.143625 
L 326.341818 237.780998 
L 329.621157 231.088108 
L 332.900496 237.681478 
L 336.179835 234.833459 
L 339.459174 241.606108 
L 342.738512 240.592452 
L 346.017851 257.087697 
L 349.29719 264.766623 
L 352.576529 268.611383 
L 355.855868 279.936129 
L 359.135207 294.272409 
L 362.414545 295.488 
L 365.693884 286.261601 
L 368.973223 280.799995 
L 372.252562 267.787184 
L 375.531901 256.071686 
L 378.81124 255.088153 
L 382.090579 242.526161 
L 385.369917 248.165459 
L 388.649256 246.017316 
L 391.928595 246.774162 
L 395.207934 239.418861 
L 398.487273 255.428207 
" clip-path="url(#p752c4584bf)" style="fill: none; stroke: #0000ff; stroke-width: 1.5; stroke-linecap: square"/>
   </g>
   <g id="line2d_30">
    <path d="M 73.832727 53.568 
L 77.112066 67.735595 
L 80.391405 83.204868 
L 83.670744 122.432232 
L 86.950083 153.406642 
L 90.229421 199.074342 
L 93.50876 225.365123 
L 96.788099 232.336303 
L 100.067438 242.687414 
L 103.346777 251.923568 
L 106.626116 257.771149 
L 109.905455 250.547335 
L 113.184793 244.841164 
L 116.464132 240.160105 
L 119.743471 229.328891 
L 123.02281 237.035354 
L 126.302149 226.192071 
L 129.581488 215.47965 
L 132.860826 205.944634 
L 136.140165 206.09018 
L 139.419504 204.993522 
L 142.698843 214.792334 
L 145.978182 235.750974 
L 149.257521 234.647869 
L 152.53686 228.399401 
L 155.816198 240.140262 
L 159.095537 255.501759 
L 162.374876 253.681885 
L 165.654215 241.056897 
L 168.933554 229.057264 
L 172.212893 227.569311 
L 175.492231 240.254672 
L 178.77157 238.178122 
L 182.050909 258.15033 
L 185.330248 254.614329 
L 188.609587 264.11989 
L 191.888926 276.473191 
L 195.168264 289.46278 
L 198.447603 274.83004 
L 201.726942 288.233375 
L 205.006281 272.82452 
L 208.28562 257.081208 
L 211.564959 244.194564 
L 214.844298 229.816519 
L 218.123636 244.955391 
L 221.402975 242.338016 
L 224.682314 241.533657 
L 227.961653 247.097545 
L 231.240992 263.224171 
L 234.520331 259.513504 
L 237.799669 269.198342 
L 241.079008 261.198813 
L 244.358347 278.445458 
L 247.637686 280.869707 
L 250.917025 272.00556 
L 254.196364 270.622105 
L 257.475702 256.266687 
L 260.755041 265.414722 
L 264.03438 269.606205 
L 267.313719 277.437011 
L 270.593058 265.718722 
L 273.872397 257.916882 
L 277.151736 252.201925 
L 280.431074 264.764601 
L 283.710413 253.243382 
L 286.989752 249.863259 
L 290.269091 270.0684 
L 293.54843 277.841895 
L 296.827769 291.921113 
L 300.107107 275.496979 
L 303.386446 269.234789 
L 306.665785 262.440977 
L 309.945124 256.003646 
L 313.224463 269.34782 
L 316.503802 259.37411 
L 319.78314 256.554096 
L 323.062479 251.940222 
L 326.341818 237.530024 
L 329.621157 230.866723 
L 332.900496 237.459784 
L 336.179835 234.649584 
L 339.459174 241.446978 
L 342.738512 240.449208 
L 346.017851 256.985612 
L 349.29719 264.680477 
L 352.576529 268.535482 
L 355.855868 279.868436 
L 359.135207 294.212308 
L 362.414545 295.40853 
L 365.693884 286.16008 
L 368.973223 280.692278 
L 372.252562 267.687533 
L 375.531901 255.982742 
L 378.81124 255.00989 
L 382.090579 242.464492 
L 385.369917 248.115593 
L 388.649256 245.974753 
L 391.928595 246.738357 
L 395.207934 239.425658 
L 398.487273 255.548378 
" clip-path="url(#p752c4584bf)" style="fill: none; stroke-dasharray: 5.55,2.4; stroke-dashoffset: 0; stroke: #000000; stroke-width: 1.5"/>
   </g>
   <g id="line2d_31">
    <path d="M 73.832727 53.568 
L 77.112066 67.735595 
L 80.391405 81.432226 
L 83.670744 115.767778 
L 86.950083 147.235204 
L 90.229421 193.607499 
L 93.50876 221.031986 
L 96.788099 224.647215 
L 100.067438 227.619639 
L 103.346777 229.620821 
L 106.626116 227.357457 
L 109.905455 224.646755 
L 113.184793 224.343741 
L 116.464132 227.613984 
L 119.743471 222.788702 
L 123.02281 234.575325 
L 126.302149 226.788509 
L 129.581488 219.294149 
L 132.860826 211.137091 
L 136.140165 212.071198 
L 139.419504 211.873793 
L 142.698843 221.740275 
L 145.978182 242.478436 
L 149.257521 241.04105 
L 152.53686 233.91922 
L 155.816198 244.478822 
L 159.095537 258.358164 
L 162.374876 255.190161 
L 165.654215 241.534551 
L 168.933554 228.748258 
L 172.212893 226.422722 
L 175.492231 238.576339 
L 178.77157 236.884585 
L 182.050909 257.011423 
L 185.330248 253.412511 
L 188.609587 262.928779 
L 191.888926 275.367335 
L 195.168264 288.356004 
L 198.447603 273.706072 
L 201.726942 286.970016 
L 205.006281 271.270122 
L 208.28562 255.040706 
L 211.564959 241.506897 
L 214.844298 226.548884 
L 218.123636 241.518211 
L 221.402975 239.046849 
L 224.682314 238.680642 
L 227.961653 244.470697 
L 231.240992 260.253786 
L 234.520331 256.044964 
L 237.799669 264.461821 
L 241.079008 254.773134 
L 244.358347 270.960751 
L 247.637686 273.257689 
L 250.917025 264.150964 
L 254.196364 262.898225 
L 257.475702 249.081417 
L 260.755041 258.94648 
L 264.03438 263.755233 
L 267.313719 271.870915 
L 270.593058 260.815574 
L 273.872397 253.646639 
L 277.151736 248.578682 
L 280.431074 261.760457 
L 283.710413 249.627358 
L 286.989752 246.149223 
L 290.269091 265.019681 
L 293.54843 271.347289 
L 296.827769 284.557127 
L 300.107107 268.335873 
L 303.386446 263.696378 
L 306.665785 258.494832 
L 309.945124 253.847757 
L 313.224463 268.489503 
L 316.503802 258.989402 
L 319.78314 256.077248 
L 323.062479 251.036441 
L 326.341818 235.704558 
L 329.621157 228.276974 
L 332.900496 234.071675 
L 336.179835 231.741251 
L 339.459174 239.768491 
L 342.738512 238.559695 
L 346.017851 254.800795 
L 349.29719 262.146095 
L 352.576529 265.12485 
L 355.855868 275.455492 
L 359.135207 288.677243 
L 362.414545 288.392664 
L 365.693884 277.443488 
L 368.973223 270.952076 
L 372.252562 257.999299 
L 375.531901 246.846506 
L 378.81124 246.69611 
L 382.090579 235.350745 
L 385.369917 241.761403 
L 388.649256 240.039767 
L 391.928595 240.776598 
L 395.207934 233.104317 
L 398.487273 247.958011 
" clip-path="url(#p752c4584bf)" style="fill: none; stroke: #ff0000; stroke-width: 1.5; stroke-linecap: square"/>
   </g>
   <g id="patch_3">
    <path d="M 57.6 307.584 
L 57.6 41.472 
" style="fill: none; stroke: #000000; stroke-width: 0.8; stroke-linejoin: miter; stroke-linecap: square"/>
   </g>
   <g id="patch_4">
    <path d="M 414.72 307.584 
L 414.72 41.472 
" style="fill: none; stroke: #000000; stroke-width: 0.8; stroke-linejoin: miter; stroke-linecap: square"/>
   </g>
   <g id="patch_5">
    <path d="M 57.6 307.584 
L 414.72 307.584 
" style="fill: none; stroke: #000000; stroke-width: 0.8; stroke-linejoin: miter; stroke-linecap: square"/>
   </g>
   <g id="patch_6">
    <path d="M 57.6 41.472 
L 414.72 41.472 
" style="fill: none; stroke: #000000; stroke-width: 0.8; stroke-linejoin: miter; stroke-linecap: square"/>
   </g>
   <g id="legend_1">
    <g id="patch_7">
     <path d="M 392.72 67.472 
L 400.72 67.472 
Q 404.72 67.472 404.72 63.472 
L 404.72 55.472 
Q 404.72 51.472 400.72 51.472 
L 392.72 51.472 
Q 388.72 51.472 388.72 55.472 
L 388.72 63.472 
Q 388.72 67.472 392.72 67.472 
z
" style="fill: #ffffff; opacity: 0.8; stroke: #cccccc; stroke-linejoin: miter"/>
    </g>
   </g>
  </g>
 </g>
 <defs>
  <clipPath id="p752c4584bf">
   <rect x="57.6" y="41.472" width="357.12" height="266.112"/>
  </clipPath>
 </defs>
</svg>
