<?xml version="1.0" encoding="utf-8" standalone="no"?>
<!DOCTYPE svg PUBLIC "-//W3C//DTD SVG 1.1//EN"
  "http://www.w3.org/Graphics/SVG/1.1/DTD/svg11.dtd">
<svg xmlns:xlink="http://www.w3.org/1999/xlink" width="460.8pt" height="345.6pt" viewBox="0 0 460.8 345.6" xmlns="http://www.w3.org/2000/svg" version="1.1">
 <metadata>
  <rdf:RDF xmlns:dc="http://purl.org/dc/elements/1.1/" xmlns:cc="http://creativecommons.org/ns#" xmlns:rdf="http://www.w3.org/1999/02/22-rdf-syntax-ns#">
   <cc:Work>
    <dc:type rdf:resource="http://purl.org/dc/dcmitype/StillImage"/>
    <dc:date>2024-05-21T16:20:10.137322</dc:date>
    <dc:format>image/svg+xml</dc:format>
    <dc:creator>
     <cc:Agent>
      <dc:title>Matplotlib v3.7.1, https://matplotlib.org/</dc:title>
     </cc:Agent>
    </dc:creator>
   </cc:Work>
  </rdf:RDF>
 </metadata>
 <defs>
  <style type="text/css">*{stroke-linejoin: round; stroke-linecap: butt}</style>
 </defs>
 <g id="figure_1">
  <g id="patch_1">
   <path d="M 0 345.6 
L 460.8 345.6 
L 460.8 0 
L 0 0 
z
" style="fill: #ffffff"/>
  </g>
  <g id="axes_1">
   <g id="patch_2">
    <path d="M 57.6 307.584 
L 414.72 307.584 
L 414.72 41.472 
L 57.6 41.472 
z
" style="fill: #ffffff"/>
   </g>
   <g id="matplotlib.axis_1">
    <g id="xtick_1">
     <g id="line2d_1">
      <path d="M 73.832727 307.584 
L 73.832727 41.472 
" clip-path="url(#p42fc018946)" style="fill: none; stroke: #b0b0b0; stroke-width: 0.8; stroke-linecap: square"/>
     </g>
     <g id="line2d_2">
      <defs>
       <path id="mec48defda9" d="M 0 0 
L 0 3.5 
" style="stroke: #000000; stroke-width: 0.8"/>
      </defs>
      <g>
       <use xlink:href="#mec48defda9" x="73.832727" y="307.584" style="stroke: #000000; stroke-width: 0.8"/>
      </g>
     </g>
     <g id="text_1">
      <!-- 0 -->
      <g transform="translate(70.651477 322.182437) scale(0.1 -0.1)">
       <defs>
        <path id="DejaVuSans-30" d="M 2034 4250 
Q 1547 4250 1301 3770 
Q 1056 3291 1056 2328 
Q 1056 1369 1301 889 
Q 1547 409 2034 409 
Q 2525 409 2770 889 
Q 3016 1369 3016 2328 
Q 3016 3291 2770 3770 
Q 2525 4250 2034 4250 
z
M 2034 4750 
Q 2819 4750 3233 4129 
Q 3647 3509 3647 2328 
Q 3647 1150 3233 529 
Q 2819 -91 2034 -91 
Q 1250 -91 836 529 
Q 422 1150 422 2328 
Q 422 3509 836 4129 
Q 1250 4750 2034 4750 
z
" transform="scale(0.015625)"/>
       </defs>
       <use xlink:href="#DejaVuSans-30"/>
      </g>
     </g>
    </g>
    <g id="xtick_2">
     <g id="line2d_3">
      <path d="M 139.419504 307.584 
L 139.419504 41.472 
" clip-path="url(#p42fc018946)" style="fill: none; stroke: #b0b0b0; stroke-width: 0.8; stroke-linecap: square"/>
     </g>
     <g id="line2d_4">
      <g>
       <use xlink:href="#mec48defda9" x="139.419504" y="307.584" style="stroke: #000000; stroke-width: 0.8"/>
      </g>
     </g>
     <g id="text_2">
      <!-- 20 -->
      <g transform="translate(133.057004 322.182437) scale(0.1 -0.1)">
       <defs>
        <path id="DejaVuSans-32" d="M 1228 531 
L 3431 531 
L 3431 0 
L 469 0 
L 469 531 
Q 828 903 1448 1529 
Q 2069 2156 2228 2338 
Q 2531 2678 2651 2914 
Q 2772 3150 2772 3378 
Q 2772 3750 2511 3984 
Q 2250 4219 1831 4219 
Q 1534 4219 1204 4116 
Q 875 4013 500 3803 
L 500 4441 
Q 881 4594 1212 4672 
Q 1544 4750 1819 4750 
Q 2544 4750 2975 4387 
Q 3406 4025 3406 3419 
Q 3406 3131 3298 2873 
Q 3191 2616 2906 2266 
Q 2828 2175 2409 1742 
Q 1991 1309 1228 531 
z
" transform="scale(0.015625)"/>
       </defs>
       <use xlink:href="#DejaVuSans-32"/>
       <use xlink:href="#DejaVuSans-30" x="63.623047"/>
      </g>
     </g>
    </g>
    <g id="xtick_3">
     <g id="line2d_5">
      <path d="M 205.006281 307.584 
L 205.006281 41.472 
" clip-path="url(#p42fc018946)" style="fill: none; stroke: #b0b0b0; stroke-width: 0.8; stroke-linecap: square"/>
     </g>
     <g id="line2d_6">
      <g>
       <use xlink:href="#mec48defda9" x="205.006281" y="307.584" style="stroke: #000000; stroke-width: 0.8"/>
      </g>
     </g>
     <g id="text_3">
      <!-- 40 -->
      <g transform="translate(198.643781 322.182437) scale(0.1 -0.1)">
       <defs>
        <path id="DejaVuSans-34" d="M 2419 4116 
L 825 1625 
L 2419 1625 
L 2419 4116 
z
M 2253 4666 
L 3047 4666 
L 3047 1625 
L 3713 1625 
L 3713 1100 
L 3047 1100 
L 3047 0 
L 2419 0 
L 2419 1100 
L 313 1100 
L 313 1709 
L 2253 4666 
z
" transform="scale(0.015625)"/>
       </defs>
       <use xlink:href="#DejaVuSans-34"/>
       <use xlink:href="#DejaVuSans-30" x="63.623047"/>
      </g>
     </g>
    </g>
    <g id="xtick_4">
     <g id="line2d_7">
      <path d="M 270.593058 307.584 
L 270.593058 41.472 
" clip-path="url(#p42fc018946)" style="fill: none; stroke: #b0b0b0; stroke-width: 0.8; stroke-linecap: square"/>
     </g>
     <g id="line2d_8">
      <g>
       <use xlink:href="#mec48defda9" x="270.593058" y="307.584" style="stroke: #000000; stroke-width: 0.8"/>
      </g>
     </g>
     <g id="text_4">
      <!-- 60 -->
      <g transform="translate(264.230558 322.182437) scale(0.1 -0.1)">
       <defs>
        <path id="DejaVuSans-36" d="M 2113 2584 
Q 1688 2584 1439 2293 
Q 1191 2003 1191 1497 
Q 1191 994 1439 701 
Q 1688 409 2113 409 
Q 2538 409 2786 701 
Q 3034 994 3034 1497 
Q 3034 2003 2786 2293 
Q 2538 2584 2113 2584 
z
M 3366 4563 
L 3366 3988 
Q 3128 4100 2886 4159 
Q 2644 4219 2406 4219 
Q 1781 4219 1451 3797 
Q 1122 3375 1075 2522 
Q 1259 2794 1537 2939 
Q 1816 3084 2150 3084 
Q 2853 3084 3261 2657 
Q 3669 2231 3669 1497 
Q 3669 778 3244 343 
Q 2819 -91 2113 -91 
Q 1303 -91 875 529 
Q 447 1150 447 2328 
Q 447 3434 972 4092 
Q 1497 4750 2381 4750 
Q 2619 4750 2861 4703 
Q 3103 4656 3366 4563 
z
" transform="scale(0.015625)"/>
       </defs>
       <use xlink:href="#DejaVuSans-36"/>
       <use xlink:href="#DejaVuSans-30" x="63.623047"/>
      </g>
     </g>
    </g>
    <g id="xtick_5">
     <g id="line2d_9">
      <path d="M 336.179835 307.584 
L 336.179835 41.472 
" clip-path="url(#p42fc018946)" style="fill: none; stroke: #b0b0b0; stroke-width: 0.8; stroke-linecap: square"/>
     </g>
     <g id="line2d_10">
      <g>
       <use xlink:href="#mec48defda9" x="336.179835" y="307.584" style="stroke: #000000; stroke-width: 0.8"/>
      </g>
     </g>
     <g id="text_5">
      <!-- 80 -->
      <g transform="translate(329.817335 322.182437) scale(0.1 -0.1)">
       <defs>
        <path id="DejaVuSans-38" d="M 2034 2216 
Q 1584 2216 1326 1975 
Q 1069 1734 1069 1313 
Q 1069 891 1326 650 
Q 1584 409 2034 409 
Q 2484 409 2743 651 
Q 3003 894 3003 1313 
Q 3003 1734 2745 1975 
Q 2488 2216 2034 2216 
z
M 1403 2484 
Q 997 2584 770 2862 
Q 544 3141 544 3541 
Q 544 4100 942 4425 
Q 1341 4750 2034 4750 
Q 2731 4750 3128 4425 
Q 3525 4100 3525 3541 
Q 3525 3141 3298 2862 
Q 3072 2584 2669 2484 
Q 3125 2378 3379 2068 
Q 3634 1759 3634 1313 
Q 3634 634 3220 271 
Q 2806 -91 2034 -91 
Q 1263 -91 848 271 
Q 434 634 434 1313 
Q 434 1759 690 2068 
Q 947 2378 1403 2484 
z
M 1172 3481 
Q 1172 3119 1398 2916 
Q 1625 2713 2034 2713 
Q 2441 2713 2670 2916 
Q 2900 3119 2900 3481 
Q 2900 3844 2670 4047 
Q 2441 4250 2034 4250 
Q 1625 4250 1398 4047 
Q 1172 3844 1172 3481 
z
" transform="scale(0.015625)"/>
       </defs>
       <use xlink:href="#DejaVuSans-38"/>
       <use xlink:href="#DejaVuSans-30" x="63.623047"/>
      </g>
     </g>
    </g>
    <g id="xtick_6">
     <g id="line2d_11">
      <path d="M 401.766612 307.584 
L 401.766612 41.472 
" clip-path="url(#p42fc018946)" style="fill: none; stroke: #b0b0b0; stroke-width: 0.8; stroke-linecap: square"/>
     </g>
     <g id="line2d_12">
      <g>
       <use xlink:href="#mec48defda9" x="401.766612" y="307.584" style="stroke: #000000; stroke-width: 0.8"/>
      </g>
     </g>
     <g id="text_6">
      <!-- 100 -->
      <g transform="translate(392.222862 322.182437) scale(0.1 -0.1)">
       <defs>
        <path id="DejaVuSans-31" d="M 794 531 
L 1825 531 
L 1825 4091 
L 703 3866 
L 703 4441 
L 1819 4666 
L 2450 4666 
L 2450 531 
L 3481 531 
L 3481 0 
L 794 0 
L 794 531 
z
" transform="scale(0.015625)"/>
       </defs>
       <use xlink:href="#DejaVuSans-31"/>
       <use xlink:href="#DejaVuSans-30" x="63.623047"/>
       <use xlink:href="#DejaVuSans-30" x="127.246094"/>
      </g>
     </g>
    </g>
    <g id="text_7">
     <!-- T -->
     <g transform="translate(233.106094 335.860562) scale(0.1 -0.1)">
      <defs>
       <path id="DejaVuSans-54" d="M -19 4666 
L 3928 4666 
L 3928 4134 
L 2272 4134 
L 2272 0 
L 1638 0 
L 1638 4134 
L -19 4134 
L -19 4666 
z
" transform="scale(0.015625)"/>
      </defs>
      <use xlink:href="#DejaVuSans-54"/>
     </g>
    </g>
   </g>
   <g id="matplotlib.axis_2">
    <g id="ytick_1">
     <g id="line2d_13">
      <path d="M 57.6 269.203688 
L 414.72 269.203688 
" clip-path="url(#p42fc018946)" style="fill: none; stroke: #b0b0b0; stroke-width: 0.8; stroke-linecap: square"/>
     </g>
     <g id="line2d_14">
      <defs>
       <path id="ma6df77a787" d="M 0 0 
L -3.5 0 
" style="stroke: #000000; stroke-width: 0.8"/>
      </defs>
      <g>
       <use xlink:href="#ma6df77a787" x="57.6" y="269.203688" style="stroke: #000000; stroke-width: 0.8"/>
      </g>
     </g>
     <g id="text_8">
      <!-- 0 -->
      <g transform="translate(44.2375 273.002907) scale(0.1 -0.1)">
       <use xlink:href="#DejaVuSans-30"/>
      </g>
     </g>
    </g>
    <g id="ytick_2">
     <g id="line2d_15">
      <path d="M 57.6 221.284647 
L 414.72 221.284647 
" clip-path="url(#p42fc018946)" style="fill: none; stroke: #b0b0b0; stroke-width: 0.8; stroke-linecap: square"/>
     </g>
     <g id="line2d_16">
      <g>
       <use xlink:href="#ma6df77a787" x="57.6" y="221.284647" style="stroke: #000000; stroke-width: 0.8"/>
      </g>
     </g>
     <g id="text_9">
      <!-- 2 -->
      <g transform="translate(44.2375 225.083865) scale(0.1 -0.1)">
       <use xlink:href="#DejaVuSans-32"/>
      </g>
     </g>
    </g>
    <g id="ytick_3">
     <g id="line2d_17">
      <path d="M 57.6 173.365605 
L 414.72 173.365605 
" clip-path="url(#p42fc018946)" style="fill: none; stroke: #b0b0b0; stroke-width: 0.8; stroke-linecap: square"/>
     </g>
     <g id="line2d_18">
      <g>
       <use xlink:href="#ma6df77a787" x="57.6" y="173.365605" style="stroke: #000000; stroke-width: 0.8"/>
      </g>
     </g>
     <g id="text_10">
      <!-- 4 -->
      <g transform="translate(44.2375 177.164823) scale(0.1 -0.1)">
       <use xlink:href="#DejaVuSans-34"/>
      </g>
     </g>
    </g>
    <g id="ytick_4">
     <g id="line2d_19">
      <path d="M 57.6 125.446563 
L 414.72 125.446563 
" clip-path="url(#p42fc018946)" style="fill: none; stroke: #b0b0b0; stroke-width: 0.8; stroke-linecap: square"/>
     </g>
     <g id="line2d_20">
      <g>
       <use xlink:href="#ma6df77a787" x="57.6" y="125.446563" style="stroke: #000000; stroke-width: 0.8"/>
      </g>
     </g>
     <g id="text_11">
      <!-- 6 -->
      <g transform="translate(44.2375 129.245782) scale(0.1 -0.1)">
       <use xlink:href="#DejaVuSans-36"/>
      </g>
     </g>
    </g>
    <g id="ytick_5">
     <g id="line2d_21">
      <path d="M 57.6 77.527521 
L 414.72 77.527521 
" clip-path="url(#p42fc018946)" style="fill: none; stroke: #b0b0b0; stroke-width: 0.8; stroke-linecap: square"/>
     </g>
     <g id="line2d_22">
      <g>
       <use xlink:href="#ma6df77a787" x="57.6" y="77.527521" style="stroke: #000000; stroke-width: 0.8"/>
      </g>
     </g>
     <g id="text_12">
      <!-- 8 -->
      <g transform="translate(44.2375 81.32674) scale(0.1 -0.1)">
       <use xlink:href="#DejaVuSans-38"/>
      </g>
     </g>
    </g>
    <g id="text_13">
     <!-- X -->
     <g transform="translate(38.157812 177.953) rotate(-90) scale(0.1 -0.1)">
      <defs>
       <path id="DejaVuSans-58" d="M 403 4666 
L 1081 4666 
L 2241 2931 
L 3406 4666 
L 4084 4666 
L 2584 2425 
L 4184 0 
L 3506 0 
L 2194 1984 
L 872 0 
L 191 0 
L 1856 2491 
L 403 4666 
z
" transform="scale(0.015625)"/>
      </defs>
      <use xlink:href="#DejaVuSans-58"/>
     </g>
    </g>
   </g>
   <g id="line2d_23">
    <path d="M 73.832727 53.568 
L 77.112066 74.036986 
L 80.391405 120.565333 
L 83.670744 139.59951 
L 86.950083 144.57871 
L 90.229421 137.130924 
L 93.50876 135.913808 
L 96.788099 133.916198 
L 100.067438 133.069608 
L 103.346777 145.258394 
L 106.626116 163.849357 
L 109.905455 174.787649 
L 113.184793 196.060231 
L 116.464132 208.8308 
L 119.743471 211.255905 
L 123.02281 216.55397 
L 126.302149 210.217271 
L 129.581488 226.314049 
L 132.860826 220.687475 
L 136.140165 220.660152 
L 139.419504 221.305531 
L 142.698843 231.372059 
L 145.978182 233.383905 
L 149.257521 231.080302 
L 152.53686 231.631464 
L 155.816198 241.785585 
L 159.095537 239.361494 
L 162.374876 230.429697 
L 165.654215 231.55614 
L 168.933554 234.80328 
L 172.212893 249.553601 
L 175.492231 252.67467 
L 178.77157 245.141027 
L 182.050909 250.942249 
L 185.330248 259.538723 
L 188.609587 253.26753 
L 191.888926 265.383006 
L 195.168264 255.677416 
L 198.447603 245.387885 
L 201.726942 251.91842 
L 205.006281 261.570937 
L 208.28562 256.946225 
L 211.564959 257.968278 
L 214.844298 264.778787 
L 218.123636 273.390622 
L 221.402975 279.496478 
L 224.682314 280.432012 
L 227.961653 278.700234 
L 231.240992 284.952106 
L 234.520331 290.0058 
L 237.799669 280.470973 
L 241.079008 267.781001 
L 244.358347 265.063549 
L 247.637686 275.364209 
L 250.917025 277.946227 
L 254.196364 270.802501 
L 257.475702 264.40652 
L 260.755041 260.326192 
L 264.03438 253.92054 
L 267.313719 244.328295 
L 270.593058 234.555624 
L 273.872397 227.946207 
L 277.151736 235.880242 
L 280.431074 244.495896 
L 283.710413 239.075723 
L 286.989752 229.007088 
L 290.269091 219.219602 
L 293.54843 235.01409 
L 296.827769 244.618583 
L 300.107107 246.215898 
L 303.386446 254.243986 
L 306.665785 254.007986 
L 309.945124 256.688072 
L 313.224463 263.845261 
L 316.503802 269.556176 
L 319.78314 262.202122 
L 323.062479 252.826845 
L 326.341818 249.674631 
L 329.621157 240.717981 
L 332.900496 255.072972 
L 336.179835 251.466496 
L 339.459174 255.462978 
L 342.738512 251.907978 
L 346.017851 244.709748 
L 349.29719 241.229703 
L 352.576529 242.109557 
L 355.855868 244.28638 
L 359.135207 248.834964 
L 362.414545 258.240214 
L 365.693884 266.311418 
L 368.973223 261.768062 
L 372.252562 274.141959 
L 375.531901 266.946812 
L 378.81124 261.74433 
L 382.090579 257.122699 
L 385.369917 252.171479 
L 388.649256 252.983307 
L 391.928595 245.937881 
L 395.207934 246.037094 
L 398.487273 253.328107 
" clip-path="url(#p42fc018946)" style="fill: none; stroke: #0000ff; stroke-width: 1.5; stroke-linecap: square"/>
   </g>
   <g id="line2d_24">
    <path d="M 73.832727 53.568 
L 77.112066 74.036986 
L 80.391405 120.565333 
L 83.670744 141.646409 
L 86.950083 145.884633 
L 90.229421 140.098458 
L 93.50876 138.134064 
L 96.788099 135.543005 
L 100.067438 134.181081 
L 103.346777 146.221387 
L 106.626116 164.788688 
L 109.905455 176.950718 
L 113.184793 198.131563 
L 116.464132 211.674449 
L 119.743471 213.540996 
L 123.02281 219.704403 
L 126.302149 214.608554 
L 129.581488 230.423043 
L 132.860826 223.917052 
L 136.140165 223.472058 
L 139.419504 223.119878 
L 142.698843 232.236891 
L 145.978182 233.367152 
L 149.257521 231.176692 
L 152.53686 232.040474 
L 155.816198 242.273829 
L 159.095537 239.980695 
L 162.374876 231.008397 
L 165.654215 231.837148 
L 168.933554 235.015407 
L 172.212893 249.807923 
L 175.492231 253.299548 
L 178.77157 245.709155 
L 182.050909 251.407538 
L 185.330248 259.908116 
L 188.609587 253.564221 
L 191.888926 265.620319 
L 195.168264 255.864269 
L 198.447603 245.522131 
L 201.726942 252.006292 
L 205.006281 261.62461 
L 208.28562 256.98119 
L 211.564959 257.983852 
L 214.844298 264.780083 
L 218.123636 273.385824 
L 221.402975 279.493936 
L 224.682314 280.435784 
L 227.961653 278.709904 
L 231.240992 284.965057 
L 234.520331 290.023857 
L 237.799669 280.494256 
L 241.079008 267.80559 
L 244.358347 265.084531 
L 247.637686 275.380685 
L 250.917025 277.962043 
L 254.196364 270.819251 
L 257.475702 264.421757 
L 260.755041 260.338841 
L 264.03438 253.930521 
L 267.313719 244.335253 
L 270.593058 234.55857 
L 273.872397 227.945159 
L 277.151736 235.875958 
L 280.431074 243.827633 
L 283.710413 238.516132 
L 286.989752 228.514636 
L 290.269091 218.269361 
L 293.54843 234.128852 
L 296.827769 243.842199 
L 300.107107 245.577348 
L 303.386446 253.729181 
L 306.665785 253.783608 
L 309.945124 256.5543 
L 313.224463 263.770715 
L 316.503802 269.792113 
L 319.78314 262.423547 
L 323.062479 253.011402 
L 326.341818 249.838869 
L 329.621157 240.871098 
L 332.900496 255.221979 
L 336.179835 251.60454 
L 339.459174 255.585422 
L 342.738512 252.016998 
L 346.017851 244.803238 
L 349.29719 241.310823 
L 352.576529 241.457967 
L 355.855868 243.652765 
L 359.135207 248.32888 
L 362.414545 257.866115 
L 365.693884 266.510568 
L 368.973223 261.992117 
L 372.252562 274.331304 
L 375.531901 266.6419 
L 378.81124 261.436075 
L 382.090579 256.873651 
L 385.369917 251.967567 
L 388.649256 252.819246 
L 391.928595 245.314316 
L 395.207934 245.433367 
L 398.487273 252.804775 
" clip-path="url(#p42fc018946)" style="fill: none; stroke-dasharray: 5.55,2.4; stroke-dashoffset: 0; stroke: #000000; stroke-width: 1.5"/>
   </g>
   <g id="line2d_25">
    <path d="M 73.832727 53.568 
L 77.112066 70.458929 
L 80.391405 112.523114 
L 83.670744 135.074876 
L 86.950083 144.797813 
L 90.229421 141.846076 
L 93.50876 144.733337 
L 96.788099 145.850488 
L 100.067438 148.246021 
L 103.346777 163.790326 
L 106.626116 187.275484 
L 109.905455 203.517259 
L 113.184793 229.661471 
L 116.464132 249.793981 
L 119.743471 246.063226 
L 123.02281 246.429766 
L 126.302149 235.723869 
L 129.581488 249.422926 
L 132.860826 240.627016 
L 136.140165 238.710625 
L 139.419504 236.693563 
L 142.698843 244.067655 
L 145.978182 243.327973 
L 149.257521 239.246704 
L 152.53686 238.097006 
L 155.816198 246.285284 
L 159.095537 241.996963 
L 162.374876 232.177256 
L 165.654215 232.118881 
L 168.933554 233.322613 
L 172.212893 246.183434 
L 175.492231 247.837446 
L 178.77157 240.556736 
L 182.050909 246.966699 
L 185.330248 255.519073 
L 188.609587 249.836487 
L 191.888926 263.316513 
L 195.168264 254.462047 
L 198.447603 246.204122 
L 201.726942 253.71301 
L 205.006281 263.274507 
L 208.28562 259.207407 
L 211.564959 261.665966 
L 214.844298 269.501178 
L 218.123636 279.172516 
L 221.402975 286.907925 
L 224.682314 287.125476 
L 227.961653 285.098333 
L 231.240992 290.887926 
L 234.520331 295.488 
L 237.799669 286.00887 
L 241.079008 274.014792 
L 244.358347 271.15952 
L 247.637686 280.053756 
L 250.917025 281.05285 
L 254.196364 273.469433 
L 257.475702 266.805256 
L 260.755041 261.84017 
L 264.03438 253.975935 
L 267.313719 242.486068 
L 270.593058 232.737301 
L 273.872397 225.250159 
L 277.151736 231.400794 
L 280.431074 237.492873 
L 283.710413 230.222123 
L 286.989752 219.373451 
L 290.269091 210.02988 
L 293.54843 225.040584 
L 296.827769 232.806577 
L 300.107107 234.521259 
L 303.386446 243.728513 
L 306.665785 245.16802 
L 309.945124 250.389622 
L 313.224463 260.02453 
L 316.503802 268.044833 
L 319.78314 263.376435 
L 323.062479 257.094002 
L 326.341818 256.180388 
L 329.621157 248.515608 
L 332.900496 264.043317 
L 336.179835 260.491766 
L 339.459174 265.610967 
L 342.738512 263.013206 
L 346.017851 256.699797 
L 349.29719 253.789862 
L 352.576529 254.364305 
L 355.855868 255.653827 
L 359.135207 259.127529 
L 362.414545 267.332991 
L 365.693884 275.122511 
L 368.973223 271.914355 
L 372.252562 286.027779 
L 375.531901 276.758825 
L 378.81124 271.050132 
L 382.090579 264.780811 
L 385.369917 258.098678 
L 388.649256 256.695809 
L 391.928595 247.042132 
L 395.207934 244.493388 
L 398.487273 248.403066 
" clip-path="url(#p42fc018946)" style="fill: none; stroke: #ff0000; stroke-width: 1.5; stroke-linecap: square"/>
   </g>
   <g id="patch_3">
    <path d="M 57.6 307.584 
L 57.6 41.472 
" style="fill: none; stroke: #000000; stroke-width: 0.8; stroke-linejoin: miter; stroke-linecap: square"/>
   </g>
   <g id="patch_4">
    <path d="M 414.72 307.584 
L 414.72 41.472 
" style="fill: none; stroke: #000000; stroke-width: 0.8; stroke-linejoin: miter; stroke-linecap: square"/>
   </g>
   <g id="patch_5">
    <path d="M 57.6 307.584 
L 414.72 307.584 
" style="fill: none; stroke: #000000; stroke-width: 0.8; stroke-linejoin: miter; stroke-linecap: square"/>
   </g>
   <g id="patch_6">
    <path d="M 57.6 41.472 
L 414.72 41.472 
" style="fill: none; stroke: #000000; stroke-width: 0.8; stroke-linejoin: miter; stroke-linecap: square"/>
   </g>
   <g id="legend_1">
    <g id="patch_7">
     <path d="M 392.72 67.472 
L 400.72 67.472 
Q 404.72 67.472 404.72 63.472 
L 404.72 55.472 
Q 404.72 51.472 400.72 51.472 
L 392.72 51.472 
Q 388.72 51.472 388.72 55.472 
L 388.72 63.472 
Q 388.72 67.472 392.72 67.472 
z
" style="fill: #ffffff; opacity: 0.8; stroke: #cccccc; stroke-linejoin: miter"/>
    </g>
   </g>
  </g>
 </g>
 <defs>
  <clipPath id="p42fc018946">
   <rect x="57.6" y="41.472" width="357.12" height="266.112"/>
  </clipPath>
 </defs>
</svg>
