<?xml version="1.0" encoding="utf-8" standalone="no"?>
<!DOCTYPE svg PUBLIC "-//W3C//DTD SVG 1.1//EN"
  "http://www.w3.org/Graphics/SVG/1.1/DTD/svg11.dtd">
<svg xmlns:xlink="http://www.w3.org/1999/xlink" width="460.8pt" height="345.6pt" viewBox="0 0 460.8 345.6" xmlns="http://www.w3.org/2000/svg" version="1.1">
 <metadata>
  <rdf:RDF xmlns:dc="http://purl.org/dc/elements/1.1/" xmlns:cc="http://creativecommons.org/ns#" xmlns:rdf="http://www.w3.org/1999/02/22-rdf-syntax-ns#">
   <cc:Work>
    <dc:type rdf:resource="http://purl.org/dc/dcmitype/StillImage"/>
    <dc:date>2024-05-21T16:20:10.065283</dc:date>
    <dc:format>image/svg+xml</dc:format>
    <dc:creator>
     <cc:Agent>
      <dc:title>Matplotlib v3.7.1, https://matplotlib.org/</dc:title>
     </cc:Agent>
    </dc:creator>
   </cc:Work>
  </rdf:RDF>
 </metadata>
 <defs>
  <style type="text/css">*{stroke-linejoin: round; stroke-linecap: butt}</style>
 </defs>
 <g id="figure_1">
  <g id="patch_1">
   <path d="M 0 345.6 
L 460.8 345.6 
L 460.8 0 
L 0 0 
z
" style="fill: #ffffff"/>
  </g>
  <g id="axes_1">
   <g id="patch_2">
    <path d="M 57.6 307.584 
L 414.72 307.584 
L 414.72 41.472 
L 57.6 41.472 
z
" style="fill: #ffffff"/>
   </g>
   <g id="matplotlib.axis_1">
    <g id="xtick_1">
     <g id="line2d_1">
      <path d="M 73.832727 307.584 
L 73.832727 41.472 
" clip-path="url(#p676a1bbdcb)" style="fill: none; stroke: #b0b0b0; stroke-width: 0.8; stroke-linecap: square"/>
     </g>
     <g id="line2d_2">
      <defs>
       <path id="m42f17e3279" d="M 0 0 
L 0 3.5 
" style="stroke: #000000; stroke-width: 0.8"/>
      </defs>
      <g>
       <use xlink:href="#m42f17e3279" x="73.832727" y="307.584" style="stroke: #000000; stroke-width: 0.8"/>
      </g>
     </g>
     <g id="text_1">
      <!-- 0 -->
      <g transform="translate(70.651477 322.182437) scale(0.1 -0.1)">
       <defs>
        <path id="DejaVuSans-30" d="M 2034 4250 
Q 1547 4250 1301 3770 
Q 1056 3291 1056 2328 
Q 1056 1369 1301 889 
Q 1547 409 2034 409 
Q 2525 409 2770 889 
Q 3016 1369 3016 2328 
Q 3016 3291 2770 3770 
Q 2525 4250 2034 4250 
z
M 2034 4750 
Q 2819 4750 3233 4129 
Q 3647 3509 3647 2328 
Q 3647 1150 3233 529 
Q 2819 -91 2034 -91 
Q 1250 -91 836 529 
Q 422 1150 422 2328 
Q 422 3509 836 4129 
Q 1250 4750 2034 4750 
z
" transform="scale(0.015625)"/>
       </defs>
       <use xlink:href="#DejaVuSans-30"/>
      </g>
     </g>
    </g>
    <g id="xtick_2">
     <g id="line2d_3">
      <path d="M 139.419504 307.584 
L 139.419504 41.472 
" clip-path="url(#p676a1bbdcb)" style="fill: none; stroke: #b0b0b0; stroke-width: 0.8; stroke-linecap: square"/>
     </g>
     <g id="line2d_4">
      <g>
       <use xlink:href="#m42f17e3279" x="139.419504" y="307.584" style="stroke: #000000; stroke-width: 0.8"/>
      </g>
     </g>
     <g id="text_2">
      <!-- 20 -->
      <g transform="translate(133.057004 322.182437) scale(0.1 -0.1)">
       <defs>
        <path id="DejaVuSans-32" d="M 1228 531 
L 3431 531 
L 3431 0 
L 469 0 
L 469 531 
Q 828 903 1448 1529 
Q 2069 2156 2228 2338 
Q 2531 2678 2651 2914 
Q 2772 3150 2772 3378 
Q 2772 3750 2511 3984 
Q 2250 4219 1831 4219 
Q 1534 4219 1204 4116 
Q 875 4013 500 3803 
L 500 4441 
Q 881 4594 1212 4672 
Q 1544 4750 1819 4750 
Q 2544 4750 2975 4387 
Q 3406 4025 3406 3419 
Q 3406 3131 3298 2873 
Q 3191 2616 2906 2266 
Q 2828 2175 2409 1742 
Q 1991 1309 1228 531 
z
" transform="scale(0.015625)"/>
       </defs>
       <use xlink:href="#DejaVuSans-32"/>
       <use xlink:href="#DejaVuSans-30" x="63.623047"/>
      </g>
     </g>
    </g>
    <g id="xtick_3">
     <g id="line2d_5">
      <path d="M 205.006281 307.584 
L 205.006281 41.472 
" clip-path="url(#p676a1bbdcb)" style="fill: none; stroke: #b0b0b0; stroke-width: 0.8; stroke-linecap: square"/>
     </g>
     <g id="line2d_6">
      <g>
       <use xlink:href="#m42f17e3279" x="205.006281" y="307.584" style="stroke: #000000; stroke-width: 0.8"/>
      </g>
     </g>
     <g id="text_3">
      <!-- 40 -->
      <g transform="translate(198.643781 322.182437) scale(0.1 -0.1)">
       <defs>
        <path id="DejaVuSans-34" d="M 2419 4116 
L 825 1625 
L 2419 1625 
L 2419 4116 
z
M 2253 4666 
L 3047 4666 
L 3047 1625 
L 3713 1625 
L 3713 1100 
L 3047 1100 
L 3047 0 
L 2419 0 
L 2419 1100 
L 313 1100 
L 313 1709 
L 2253 4666 
z
" transform="scale(0.015625)"/>
       </defs>
       <use xlink:href="#DejaVuSans-34"/>
       <use xlink:href="#DejaVuSans-30" x="63.623047"/>
      </g>
     </g>
    </g>
    <g id="xtick_4">
     <g id="line2d_7">
      <path d="M 270.593058 307.584 
L 270.593058 41.472 
" clip-path="url(#p676a1bbdcb)" style="fill: none; stroke: #b0b0b0; stroke-width: 0.8; stroke-linecap: square"/>
     </g>
     <g id="line2d_8">
      <g>
       <use xlink:href="#m42f17e3279" x="270.593058" y="307.584" style="stroke: #000000; stroke-width: 0.8"/>
      </g>
     </g>
     <g id="text_4">
      <!-- 60 -->
      <g transform="translate(264.230558 322.182437) scale(0.1 -0.1)">
       <defs>
        <path id="DejaVuSans-36" d="M 2113 2584 
Q 1688 2584 1439 2293 
Q 1191 2003 1191 1497 
Q 1191 994 1439 701 
Q 1688 409 2113 409 
Q 2538 409 2786 701 
Q 3034 994 3034 1497 
Q 3034 2003 2786 2293 
Q 2538 2584 2113 2584 
z
M 3366 4563 
L 3366 3988 
Q 3128 4100 2886 4159 
Q 2644 4219 2406 4219 
Q 1781 4219 1451 3797 
Q 1122 3375 1075 2522 
Q 1259 2794 1537 2939 
Q 1816 3084 2150 3084 
Q 2853 3084 3261 2657 
Q 3669 2231 3669 1497 
Q 3669 778 3244 343 
Q 2819 -91 2113 -91 
Q 1303 -91 875 529 
Q 447 1150 447 2328 
Q 447 3434 972 4092 
Q 1497 4750 2381 4750 
Q 2619 4750 2861 4703 
Q 3103 4656 3366 4563 
z
" transform="scale(0.015625)"/>
       </defs>
       <use xlink:href="#DejaVuSans-36"/>
       <use xlink:href="#DejaVuSans-30" x="63.623047"/>
      </g>
     </g>
    </g>
    <g id="xtick_5">
     <g id="line2d_9">
      <path d="M 336.179835 307.584 
L 336.179835 41.472 
" clip-path="url(#p676a1bbdcb)" style="fill: none; stroke: #b0b0b0; stroke-width: 0.8; stroke-linecap: square"/>
     </g>
     <g id="line2d_10">
      <g>
       <use xlink:href="#m42f17e3279" x="336.179835" y="307.584" style="stroke: #000000; stroke-width: 0.8"/>
      </g>
     </g>
     <g id="text_5">
      <!-- 80 -->
      <g transform="translate(329.817335 322.182437) scale(0.1 -0.1)">
       <defs>
        <path id="DejaVuSans-38" d="M 2034 2216 
Q 1584 2216 1326 1975 
Q 1069 1734 1069 1313 
Q 1069 891 1326 650 
Q 1584 409 2034 409 
Q 2484 409 2743 651 
Q 3003 894 3003 1313 
Q 3003 1734 2745 1975 
Q 2488 2216 2034 2216 
z
M 1403 2484 
Q 997 2584 770 2862 
Q 544 3141 544 3541 
Q 544 4100 942 4425 
Q 1341 4750 2034 4750 
Q 2731 4750 3128 4425 
Q 3525 4100 3525 3541 
Q 3525 3141 3298 2862 
Q 3072 2584 2669 2484 
Q 3125 2378 3379 2068 
Q 3634 1759 3634 1313 
Q 3634 634 3220 271 
Q 2806 -91 2034 -91 
Q 1263 -91 848 271 
Q 434 634 434 1313 
Q 434 1759 690 2068 
Q 947 2378 1403 2484 
z
M 1172 3481 
Q 1172 3119 1398 2916 
Q 1625 2713 2034 2713 
Q 2441 2713 2670 2916 
Q 2900 3119 2900 3481 
Q 2900 3844 2670 4047 
Q 2441 4250 2034 4250 
Q 1625 4250 1398 4047 
Q 1172 3844 1172 3481 
z
" transform="scale(0.015625)"/>
       </defs>
       <use xlink:href="#DejaVuSans-38"/>
       <use xlink:href="#DejaVuSans-30" x="63.623047"/>
      </g>
     </g>
    </g>
    <g id="xtick_6">
     <g id="line2d_11">
      <path d="M 401.766612 307.584 
L 401.766612 41.472 
" clip-path="url(#p676a1bbdcb)" style="fill: none; stroke: #b0b0b0; stroke-width: 0.8; stroke-linecap: square"/>
     </g>
     <g id="line2d_12">
      <g>
       <use xlink:href="#m42f17e3279" x="401.766612" y="307.584" style="stroke: #000000; stroke-width: 0.8"/>
      </g>
     </g>
     <g id="text_6">
      <!-- 100 -->
      <g transform="translate(392.222862 322.182437) scale(0.1 -0.1)">
       <defs>
        <path id="DejaVuSans-31" d="M 794 531 
L 1825 531 
L 1825 4091 
L 703 3866 
L 703 4441 
L 1819 4666 
L 2450 4666 
L 2450 531 
L 3481 531 
L 3481 0 
L 794 0 
L 794 531 
z
" transform="scale(0.015625)"/>
       </defs>
       <use xlink:href="#DejaVuSans-31"/>
       <use xlink:href="#DejaVuSans-30" x="63.623047"/>
       <use xlink:href="#DejaVuSans-30" x="127.246094"/>
      </g>
     </g>
    </g>
    <g id="text_7">
     <!-- T -->
     <g transform="translate(233.106094 335.860562) scale(0.1 -0.1)">
      <defs>
       <path id="DejaVuSans-54" d="M -19 4666 
L 3928 4666 
L 3928 4134 
L 2272 4134 
L 2272 0 
L 1638 0 
L 1638 4134 
L -19 4134 
L -19 4666 
z
" transform="scale(0.015625)"/>
      </defs>
      <use xlink:href="#DejaVuSans-54"/>
     </g>
    </g>
   </g>
   <g id="matplotlib.axis_2">
    <g id="ytick_1">
     <g id="line2d_13">
      <path d="M 57.6 255.024856 
L 414.72 255.024856 
" clip-path="url(#p676a1bbdcb)" style="fill: none; stroke: #b0b0b0; stroke-width: 0.8; stroke-linecap: square"/>
     </g>
     <g id="line2d_14">
      <defs>
       <path id="mf06aa462e5" d="M 0 0 
L -3.5 0 
" style="stroke: #000000; stroke-width: 0.8"/>
      </defs>
      <g>
       <use xlink:href="#mf06aa462e5" x="57.6" y="255.024856" style="stroke: #000000; stroke-width: 0.8"/>
      </g>
     </g>
     <g id="text_8">
      <!-- 0 -->
      <g transform="translate(44.2375 258.824075) scale(0.1 -0.1)">
       <use xlink:href="#DejaVuSans-30"/>
      </g>
     </g>
    </g>
    <g id="ytick_2">
     <g id="line2d_15">
      <path d="M 57.6 197.465755 
L 414.72 197.465755 
" clip-path="url(#p676a1bbdcb)" style="fill: none; stroke: #b0b0b0; stroke-width: 0.8; stroke-linecap: square"/>
     </g>
     <g id="line2d_16">
      <g>
       <use xlink:href="#mf06aa462e5" x="57.6" y="197.465755" style="stroke: #000000; stroke-width: 0.8"/>
      </g>
     </g>
     <g id="text_9">
      <!-- 2 -->
      <g transform="translate(44.2375 201.264973) scale(0.1 -0.1)">
       <use xlink:href="#DejaVuSans-32"/>
      </g>
     </g>
    </g>
    <g id="ytick_3">
     <g id="line2d_17">
      <path d="M 57.6 139.906653 
L 414.72 139.906653 
" clip-path="url(#p676a1bbdcb)" style="fill: none; stroke: #b0b0b0; stroke-width: 0.8; stroke-linecap: square"/>
     </g>
     <g id="line2d_18">
      <g>
       <use xlink:href="#mf06aa462e5" x="57.6" y="139.906653" style="stroke: #000000; stroke-width: 0.8"/>
      </g>
     </g>
     <g id="text_10">
      <!-- 4 -->
      <g transform="translate(44.2375 143.705871) scale(0.1 -0.1)">
       <use xlink:href="#DejaVuSans-34"/>
      </g>
     </g>
    </g>
    <g id="ytick_4">
     <g id="line2d_19">
      <path d="M 57.6 82.347551 
L 414.72 82.347551 
" clip-path="url(#p676a1bbdcb)" style="fill: none; stroke: #b0b0b0; stroke-width: 0.8; stroke-linecap: square"/>
     </g>
     <g id="line2d_20">
      <g>
       <use xlink:href="#mf06aa462e5" x="57.6" y="82.347551" style="stroke: #000000; stroke-width: 0.8"/>
      </g>
     </g>
     <g id="text_11">
      <!-- 6 -->
      <g transform="translate(44.2375 86.14677) scale(0.1 -0.1)">
       <use xlink:href="#DejaVuSans-36"/>
      </g>
     </g>
    </g>
    <g id="text_12">
     <!-- X -->
     <g transform="translate(38.157812 177.953) rotate(-90) scale(0.1 -0.1)">
      <defs>
       <path id="DejaVuSans-58" d="M 403 4666 
L 1081 4666 
L 2241 2931 
L 3406 4666 
L 4084 4666 
L 2584 2425 
L 4184 0 
L 3506 0 
L 2194 1984 
L 872 0 
L 191 0 
L 1856 2491 
L 403 4666 
z
" transform="scale(0.015625)"/>
      </defs>
      <use xlink:href="#DejaVuSans-58"/>
     </g>
    </g>
   </g>
   <g id="line2d_21">
    <path d="M 73.832727 53.568 
L 77.112066 78.564413 
L 80.391405 70.722293 
L 83.670744 93.990306 
L 86.950083 123.801187 
L 90.229421 163.147288 
L 93.50876 184.979199 
L 96.788099 204.463599 
L 100.067438 213.25719 
L 103.346777 235.010532 
L 106.626116 263.823849 
L 109.905455 284.290041 
L 113.184793 284.549707 
L 116.464132 294.844859 
L 119.743471 288.49031 
L 123.02281 269.147366 
L 126.302149 254.164054 
L 129.581488 258.683173 
L 132.860826 265.151114 
L 136.140165 269.068817 
L 139.419504 256.501893 
L 142.698843 247.30562 
L 145.978182 257.655974 
L 149.257521 256.327761 
L 152.53686 265.396188 
L 155.816198 258.07243 
L 159.095537 266.649015 
L 162.374876 251.788684 
L 165.654215 249.312517 
L 168.933554 256.647952 
L 172.212893 257.756676 
L 175.492231 242.104497 
L 178.77157 233.239342 
L 182.050909 237.655768 
L 185.330248 243.652181 
L 188.609587 251.685753 
L 191.888926 236.910548 
L 195.168264 231.78913 
L 198.447603 240.191292 
L 201.726942 246.226517 
L 205.006281 250.538092 
L 208.28562 239.261296 
L 211.564959 250.742981 
L 214.844298 247.436416 
L 218.123636 241.807857 
L 221.402975 253.097865 
L 224.682314 245.695715 
L 227.961653 234.084339 
L 231.240992 243.543807 
L 234.520331 235.068713 
L 237.799669 248.117356 
L 241.079008 249.889331 
L 244.358347 248.08389 
L 247.637686 256.956586 
L 250.917025 270.389346 
L 254.196364 254.693556 
L 257.475702 259.136376 
L 260.755041 268.925846 
L 264.03438 280.695437 
L 267.313719 269.431379 
L 270.593058 276.33386 
L 273.872397 284.288775 
L 277.151736 281.337168 
L 280.431074 275.116693 
L 283.710413 268.67793 
L 286.989752 268.930578 
L 290.269091 256.577066 
L 293.54843 241.621823 
L 296.827769 229.350338 
L 300.107107 236.203208 
L 303.386446 232.594192 
L 306.665785 229.167018 
L 309.945124 224.789095 
L 313.224463 233.289842 
L 316.503802 227.254626 
L 319.78314 224.379281 
L 323.062479 226.550155 
L 326.341818 236.69962 
L 329.621157 246.383706 
L 332.900496 249.647808 
L 336.179835 235.490763 
L 339.459174 246.427985 
L 342.738512 233.041391 
L 346.017851 233.616069 
L 349.29719 228.821865 
L 352.576529 223.050291 
L 355.855868 214.603984 
L 359.135207 203.450801 
L 362.414545 215.873038 
L 365.693884 231.26208 
L 368.973223 225.334925 
L 372.252562 228.34368 
L 375.531901 242.431839 
L 378.81124 231.684437 
L 382.090579 246.784354 
L 385.369917 248.111659 
L 388.649256 257.084906 
L 391.928595 265.65304 
L 395.207934 257.865286 
L 398.487273 263.278845 
" clip-path="url(#p676a1bbdcb)" style="fill: none; stroke: #0000ff; stroke-width: 1.5; stroke-linecap: square"/>
   </g>
   <g id="line2d_22">
    <path d="M 73.832727 53.568 
L 77.112066 78.564413 
L 80.391405 70.722293 
L 83.670744 93.990306 
L 86.950083 124.475796 
L 90.229421 164.019052 
L 93.50876 186.90172 
L 96.788099 207.137949 
L 100.067438 216.450281 
L 103.346777 238.451321 
L 106.626116 267.102119 
L 109.905455 286.992057 
L 113.184793 286.084061 
L 116.464132 295.488 
L 119.743471 288.578476 
L 123.02281 268.908564 
L 126.302149 253.785019 
L 129.581488 257.731543 
L 132.860826 264.619756 
L 136.140165 268.611855 
L 139.419504 256.100362 
L 142.698843 246.954224 
L 145.978182 257.436657 
L 149.257521 256.128288 
L 152.53686 265.226903 
L 155.816198 257.966034 
L 159.095537 266.633681 
L 162.374876 251.873199 
L 165.654215 249.447928 
L 168.933554 256.801067 
L 172.212893 257.923196 
L 175.492231 242.294715 
L 178.77157 233.501099 
L 182.050909 237.986054 
L 185.330248 244.020729 
L 188.609587 252.054384 
L 191.888926 237.284657 
L 195.168264 232.137315 
L 198.447603 240.528736 
L 201.726942 246.552594 
L 205.006281 250.844728 
L 208.28562 239.541791 
L 211.564959 250.999652 
L 214.844298 247.669189 
L 218.123636 242.017424 
L 221.402975 253.286618 
L 224.682314 245.865813 
L 227.961653 234.237071 
L 231.240992 243.680493 
L 234.520331 235.190067 
L 237.799669 248.223781 
L 241.079008 249.982899 
L 244.358347 248.168741 
L 247.637686 257.034054 
L 250.917025 270.458258 
L 254.196364 254.75442 
L 257.475702 259.191085 
L 260.755041 268.975978 
L 264.03438 280.741758 
L 267.313719 269.474465 
L 270.593058 276.373799 
L 273.872397 284.325112 
L 277.151736 281.369792 
L 280.431074 275.14545 
L 283.710413 268.592312 
L 286.989752 268.766437 
L 290.269091 256.388187 
L 293.54843 241.492693 
L 296.827769 229.116277 
L 300.107107 235.863002 
L 303.386446 232.181772 
L 306.665785 228.723973 
L 309.945124 224.358915 
L 313.224463 232.886199 
L 316.503802 226.886547 
L 319.78314 224.049729 
L 323.062479 226.270826 
L 326.341818 236.475035 
L 329.621157 246.207598 
L 332.900496 249.514129 
L 336.179835 235.390237 
L 339.459174 246.358456 
L 342.738512 232.994786 
L 346.017851 233.59046 
L 349.29719 228.814422 
L 352.576529 223.056833 
L 355.855868 214.502836 
L 359.135207 203.254091 
L 362.414545 215.614111 
L 365.693884 230.986783 
L 368.973223 225.095047 
L 372.252562 228.146118 
L 375.531901 242.246821 
L 378.81124 231.506985 
L 382.090579 246.59865 
L 385.369917 247.914492 
L 388.649256 256.877001 
L 391.928595 265.442076 
L 395.207934 257.571549 
L 398.487273 262.913964 
" clip-path="url(#p676a1bbdcb)" style="fill: none; stroke-dasharray: 5.55,2.4; stroke-dashoffset: 0; stroke: #000000; stroke-width: 1.5"/>
   </g>
   <g id="line2d_23">
    <path d="M 73.832727 53.568 
L 77.112066 78.564413 
L 80.391405 71.766473 
L 83.670744 88.686213 
L 86.950083 117.141643 
L 90.229421 157.201396 
L 93.50876 181.325214 
L 96.788099 204.145954 
L 100.067438 217.122907 
L 103.346777 243.440816 
L 106.626116 270.665915 
L 109.905455 281.317255 
L 113.184793 270.503295 
L 116.464132 277.696683 
L 119.743471 275.178609 
L 123.02281 259.106765 
L 126.302149 247.742835 
L 129.581488 253.025214 
L 132.860826 263.225192 
L 136.140165 269.175762 
L 139.419504 258.133906 
L 142.698843 250.013174 
L 145.978182 261.953213 
L 149.257521 261.697553 
L 152.53686 271.333029 
L 155.816198 264.281637 
L 159.095537 272.985424 
L 162.374876 257.917319 
L 165.654215 255.016525 
L 168.933554 261.8448 
L 172.212893 262.241968 
L 175.492231 245.591333 
L 178.77157 235.622158 
L 182.050909 239.042434 
L 185.330248 244.26239 
L 188.609587 251.766501 
L 191.888926 236.463856 
L 195.168264 231.264544 
L 198.447603 239.557233 
L 201.726942 245.79172 
L 205.006281 250.408287 
L 208.28562 239.275598 
L 211.564959 251.010711 
L 214.844298 248.043592 
L 218.123636 242.507179 
L 221.402975 253.395096 
L 224.682314 245.108343 
L 227.961653 232.755123 
L 231.240992 241.670274 
L 234.520331 232.523766 
L 237.799669 244.937205 
L 241.079008 246.384594 
L 244.358347 244.898815 
L 247.637686 254.228703 
L 250.917025 267.602585 
L 254.196364 251.916164 
L 257.475702 256.590514 
L 260.755041 266.748189 
L 264.03438 278.869792 
L 267.313719 267.796043 
L 270.593058 274.555588 
L 273.872397 282.458196 
L 277.151736 279.527957 
L 280.431074 272.923656 
L 283.710413 265.5753 
L 286.989752 264.973561 
L 290.269091 252.731414 
L 293.54843 239.127698 
L 296.827769 226.171114 
L 300.107107 231.55369 
L 303.386446 226.572486 
L 306.665785 222.086488 
L 309.945124 217.028582 
L 313.224463 225.416022 
L 316.503802 219.858134 
L 319.78314 217.698239 
L 323.062479 220.623766 
L 326.341818 231.935813 
L 329.621157 243.035048 
L 332.900496 247.922655 
L 336.179835 234.836297 
L 339.459174 246.975696 
L 342.738512 234.466952 
L 346.017851 236.178003 
L 349.29719 232.945725 
L 352.576529 228.772375 
L 355.855868 221.700043 
L 359.135207 211.594061 
L 362.414545 224.616212 
L 365.693884 239.793344 
L 368.973223 232.985545 
L 372.252562 235.583133 
L 375.531901 247.878924 
L 378.81124 236.446325 
L 382.090579 251.435263 
L 385.369917 252.9794 
L 388.649256 262.249229 
L 391.928595 270.799825 
L 395.207934 262.680401 
L 398.487273 267.355086 
" clip-path="url(#p676a1bbdcb)" style="fill: none; stroke: #ff0000; stroke-width: 1.5; stroke-linecap: square"/>
   </g>
   <g id="patch_3">
    <path d="M 57.6 307.584 
L 57.6 41.472 
" style="fill: none; stroke: #000000; stroke-width: 0.8; stroke-linejoin: miter; stroke-linecap: square"/>
   </g>
   <g id="patch_4">
    <path d="M 414.72 307.584 
L 414.72 41.472 
" style="fill: none; stroke: #000000; stroke-width: 0.8; stroke-linejoin: miter; stroke-linecap: square"/>
   </g>
   <g id="patch_5">
    <path d="M 57.6 307.584 
L 414.72 307.584 
" style="fill: none; stroke: #000000; stroke-width: 0.8; stroke-linejoin: miter; stroke-linecap: square"/>
   </g>
   <g id="patch_6">
    <path d="M 57.6 41.472 
L 414.72 41.472 
" style="fill: none; stroke: #000000; stroke-width: 0.8; stroke-linejoin: miter; stroke-linecap: square"/>
   </g>
   <g id="legend_1">
    <g id="patch_7">
     <path d="M 392.72 67.472 
L 400.72 67.472 
Q 404.72 67.472 404.72 63.472 
L 404.72 55.472 
Q 404.72 51.472 400.72 51.472 
L 392.72 51.472 
Q 388.72 51.472 388.72 55.472 
L 388.72 63.472 
Q 388.72 67.472 392.72 67.472 
z
" style="fill: #ffffff; opacity: 0.8; stroke: #cccccc; stroke-linejoin: miter"/>
    </g>
   </g>
  </g>
 </g>
 <defs>
  <clipPath id="p676a1bbdcb">
   <rect x="57.6" y="41.472" width="357.12" height="266.112"/>
  </clipPath>
 </defs>
</svg>
