<?xml version="1.0" encoding="utf-8" standalone="no"?>
<!DOCTYPE svg PUBLIC "-//W3C//DTD SVG 1.1//EN"
  "http://www.w3.org/Graphics/SVG/1.1/DTD/svg11.dtd">
<svg xmlns:xlink="http://www.w3.org/1999/xlink" width="460.8pt" height="345.6pt" viewBox="0 0 460.8 345.6" xmlns="http://www.w3.org/2000/svg" version="1.1">
 <metadata>
  <rdf:RDF xmlns:dc="http://purl.org/dc/elements/1.1/" xmlns:cc="http://creativecommons.org/ns#" xmlns:rdf="http://www.w3.org/1999/02/22-rdf-syntax-ns#">
   <cc:Work>
    <dc:type rdf:resource="http://purl.org/dc/dcmitype/StillImage"/>
    <dc:date>2024-05-21T16:20:11.152932</dc:date>
    <dc:format>image/svg+xml</dc:format>
    <dc:creator>
     <cc:Agent>
      <dc:title>Matplotlib v3.7.1, https://matplotlib.org/</dc:title>
     </cc:Agent>
    </dc:creator>
   </cc:Work>
  </rdf:RDF>
 </metadata>
 <defs>
  <style type="text/css">*{stroke-linejoin: round; stroke-linecap: butt}</style>
 </defs>
 <g id="figure_1">
  <g id="patch_1">
   <path d="M 0 345.6 
L 460.8 345.6 
L 460.8 0 
L 0 0 
z
" style="fill: #ffffff"/>
  </g>
  <g id="axes_1">
   <g id="patch_2">
    <path d="M 57.6 307.584 
L 414.72 307.584 
L 414.72 41.472 
L 57.6 41.472 
z
" style="fill: #ffffff"/>
   </g>
   <g id="matplotlib.axis_1">
    <g id="xtick_1">
     <g id="line2d_1">
      <path d="M 73.832727 307.584 
L 73.832727 41.472 
" clip-path="url(#p4593261b94)" style="fill: none; stroke: #b0b0b0; stroke-width: 0.8; stroke-linecap: square"/>
     </g>
     <g id="line2d_2">
      <defs>
       <path id="md9811e48f1" d="M 0 0 
L 0 3.5 
" style="stroke: #000000; stroke-width: 0.8"/>
      </defs>
      <g>
       <use xlink:href="#md9811e48f1" x="73.832727" y="307.584" style="stroke: #000000; stroke-width: 0.8"/>
      </g>
     </g>
     <g id="text_1">
      <!-- 0 -->
      <g transform="translate(70.651477 322.182437) scale(0.1 -0.1)">
       <defs>
        <path id="DejaVuSans-30" d="M 2034 4250 
Q 1547 4250 1301 3770 
Q 1056 3291 1056 2328 
Q 1056 1369 1301 889 
Q 1547 409 2034 409 
Q 2525 409 2770 889 
Q 3016 1369 3016 2328 
Q 3016 3291 2770 3770 
Q 2525 4250 2034 4250 
z
M 2034 4750 
Q 2819 4750 3233 4129 
Q 3647 3509 3647 2328 
Q 3647 1150 3233 529 
Q 2819 -91 2034 -91 
Q 1250 -91 836 529 
Q 422 1150 422 2328 
Q 422 3509 836 4129 
Q 1250 4750 2034 4750 
z
" transform="scale(0.015625)"/>
       </defs>
       <use xlink:href="#DejaVuSans-30"/>
      </g>
     </g>
    </g>
    <g id="xtick_2">
     <g id="line2d_3">
      <path d="M 139.419504 307.584 
L 139.419504 41.472 
" clip-path="url(#p4593261b94)" style="fill: none; stroke: #b0b0b0; stroke-width: 0.8; stroke-linecap: square"/>
     </g>
     <g id="line2d_4">
      <g>
       <use xlink:href="#md9811e48f1" x="139.419504" y="307.584" style="stroke: #000000; stroke-width: 0.8"/>
      </g>
     </g>
     <g id="text_2">
      <!-- 20 -->
      <g transform="translate(133.057004 322.182437) scale(0.1 -0.1)">
       <defs>
        <path id="DejaVuSans-32" d="M 1228 531 
L 3431 531 
L 3431 0 
L 469 0 
L 469 531 
Q 828 903 1448 1529 
Q 2069 2156 2228 2338 
Q 2531 2678 2651 2914 
Q 2772 3150 2772 3378 
Q 2772 3750 2511 3984 
Q 2250 4219 1831 4219 
Q 1534 4219 1204 4116 
Q 875 4013 500 3803 
L 500 4441 
Q 881 4594 1212 4672 
Q 1544 4750 1819 4750 
Q 2544 4750 2975 4387 
Q 3406 4025 3406 3419 
Q 3406 3131 3298 2873 
Q 3191 2616 2906 2266 
Q 2828 2175 2409 1742 
Q 1991 1309 1228 531 
z
" transform="scale(0.015625)"/>
       </defs>
       <use xlink:href="#DejaVuSans-32"/>
       <use xlink:href="#DejaVuSans-30" x="63.623047"/>
      </g>
     </g>
    </g>
    <g id="xtick_3">
     <g id="line2d_5">
      <path d="M 205.006281 307.584 
L 205.006281 41.472 
" clip-path="url(#p4593261b94)" style="fill: none; stroke: #b0b0b0; stroke-width: 0.8; stroke-linecap: square"/>
     </g>
     <g id="line2d_6">
      <g>
       <use xlink:href="#md9811e48f1" x="205.006281" y="307.584" style="stroke: #000000; stroke-width: 0.8"/>
      </g>
     </g>
     <g id="text_3">
      <!-- 40 -->
      <g transform="translate(198.643781 322.182437) scale(0.1 -0.1)">
       <defs>
        <path id="DejaVuSans-34" d="M 2419 4116 
L 825 1625 
L 2419 1625 
L 2419 4116 
z
M 2253 4666 
L 3047 4666 
L 3047 1625 
L 3713 1625 
L 3713 1100 
L 3047 1100 
L 3047 0 
L 2419 0 
L 2419 1100 
L 313 1100 
L 313 1709 
L 2253 4666 
z
" transform="scale(0.015625)"/>
       </defs>
       <use xlink:href="#DejaVuSans-34"/>
       <use xlink:href="#DejaVuSans-30" x="63.623047"/>
      </g>
     </g>
    </g>
    <g id="xtick_4">
     <g id="line2d_7">
      <path d="M 270.593058 307.584 
L 270.593058 41.472 
" clip-path="url(#p4593261b94)" style="fill: none; stroke: #b0b0b0; stroke-width: 0.8; stroke-linecap: square"/>
     </g>
     <g id="line2d_8">
      <g>
       <use xlink:href="#md9811e48f1" x="270.593058" y="307.584" style="stroke: #000000; stroke-width: 0.8"/>
      </g>
     </g>
     <g id="text_4">
      <!-- 60 -->
      <g transform="translate(264.230558 322.182437) scale(0.1 -0.1)">
       <defs>
        <path id="DejaVuSans-36" d="M 2113 2584 
Q 1688 2584 1439 2293 
Q 1191 2003 1191 1497 
Q 1191 994 1439 701 
Q 1688 409 2113 409 
Q 2538 409 2786 701 
Q 3034 994 3034 1497 
Q 3034 2003 2786 2293 
Q 2538 2584 2113 2584 
z
M 3366 4563 
L 3366 3988 
Q 3128 4100 2886 4159 
Q 2644 4219 2406 4219 
Q 1781 4219 1451 3797 
Q 1122 3375 1075 2522 
Q 1259 2794 1537 2939 
Q 1816 3084 2150 3084 
Q 2853 3084 3261 2657 
Q 3669 2231 3669 1497 
Q 3669 778 3244 343 
Q 2819 -91 2113 -91 
Q 1303 -91 875 529 
Q 447 1150 447 2328 
Q 447 3434 972 4092 
Q 1497 4750 2381 4750 
Q 2619 4750 2861 4703 
Q 3103 4656 3366 4563 
z
" transform="scale(0.015625)"/>
       </defs>
       <use xlink:href="#DejaVuSans-36"/>
       <use xlink:href="#DejaVuSans-30" x="63.623047"/>
      </g>
     </g>
    </g>
    <g id="xtick_5">
     <g id="line2d_9">
      <path d="M 336.179835 307.584 
L 336.179835 41.472 
" clip-path="url(#p4593261b94)" style="fill: none; stroke: #b0b0b0; stroke-width: 0.8; stroke-linecap: square"/>
     </g>
     <g id="line2d_10">
      <g>
       <use xlink:href="#md9811e48f1" x="336.179835" y="307.584" style="stroke: #000000; stroke-width: 0.8"/>
      </g>
     </g>
     <g id="text_5">
      <!-- 80 -->
      <g transform="translate(329.817335 322.182437) scale(0.1 -0.1)">
       <defs>
        <path id="DejaVuSans-38" d="M 2034 2216 
Q 1584 2216 1326 1975 
Q 1069 1734 1069 1313 
Q 1069 891 1326 650 
Q 1584 409 2034 409 
Q 2484 409 2743 651 
Q 3003 894 3003 1313 
Q 3003 1734 2745 1975 
Q 2488 2216 2034 2216 
z
M 1403 2484 
Q 997 2584 770 2862 
Q 544 3141 544 3541 
Q 544 4100 942 4425 
Q 1341 4750 2034 4750 
Q 2731 4750 3128 4425 
Q 3525 4100 3525 3541 
Q 3525 3141 3298 2862 
Q 3072 2584 2669 2484 
Q 3125 2378 3379 2068 
Q 3634 1759 3634 1313 
Q 3634 634 3220 271 
Q 2806 -91 2034 -91 
Q 1263 -91 848 271 
Q 434 634 434 1313 
Q 434 1759 690 2068 
Q 947 2378 1403 2484 
z
M 1172 3481 
Q 1172 3119 1398 2916 
Q 1625 2713 2034 2713 
Q 2441 2713 2670 2916 
Q 2900 3119 2900 3481 
Q 2900 3844 2670 4047 
Q 2441 4250 2034 4250 
Q 1625 4250 1398 4047 
Q 1172 3844 1172 3481 
z
" transform="scale(0.015625)"/>
       </defs>
       <use xlink:href="#DejaVuSans-38"/>
       <use xlink:href="#DejaVuSans-30" x="63.623047"/>
      </g>
     </g>
    </g>
    <g id="xtick_6">
     <g id="line2d_11">
      <path d="M 401.766612 307.584 
L 401.766612 41.472 
" clip-path="url(#p4593261b94)" style="fill: none; stroke: #b0b0b0; stroke-width: 0.8; stroke-linecap: square"/>
     </g>
     <g id="line2d_12">
      <g>
       <use xlink:href="#md9811e48f1" x="401.766612" y="307.584" style="stroke: #000000; stroke-width: 0.8"/>
      </g>
     </g>
     <g id="text_6">
      <!-- 100 -->
      <g transform="translate(392.222862 322.182437) scale(0.1 -0.1)">
       <defs>
        <path id="DejaVuSans-31" d="M 794 531 
L 1825 531 
L 1825 4091 
L 703 3866 
L 703 4441 
L 1819 4666 
L 2450 4666 
L 2450 531 
L 3481 531 
L 3481 0 
L 794 0 
L 794 531 
z
" transform="scale(0.015625)"/>
       </defs>
       <use xlink:href="#DejaVuSans-31"/>
       <use xlink:href="#DejaVuSans-30" x="63.623047"/>
       <use xlink:href="#DejaVuSans-30" x="127.246094"/>
      </g>
     </g>
    </g>
    <g id="text_7">
     <!-- T -->
     <g transform="translate(233.106094 335.860562) scale(0.1 -0.1)">
      <defs>
       <path id="DejaVuSans-54" d="M -19 4666 
L 3928 4666 
L 3928 4134 
L 2272 4134 
L 2272 0 
L 1638 0 
L 1638 4134 
L -19 4134 
L -19 4666 
z
" transform="scale(0.015625)"/>
      </defs>
      <use xlink:href="#DejaVuSans-54"/>
     </g>
    </g>
   </g>
   <g id="matplotlib.axis_2">
    <g id="ytick_1">
     <g id="line2d_13">
      <path d="M 57.6 297.284442 
L 414.72 297.284442 
" clip-path="url(#p4593261b94)" style="fill: none; stroke: #b0b0b0; stroke-width: 0.8; stroke-linecap: square"/>
     </g>
     <g id="line2d_14">
      <defs>
       <path id="mb99bfb06c8" d="M 0 0 
L -3.5 0 
" style="stroke: #000000; stroke-width: 0.8"/>
      </defs>
      <g>
       <use xlink:href="#mb99bfb06c8" x="57.6" y="297.284442" style="stroke: #000000; stroke-width: 0.8"/>
      </g>
     </g>
     <g id="text_8">
      <!-- −1 -->
      <g transform="translate(35.857813 301.08366) scale(0.1 -0.1)">
       <defs>
        <path id="DejaVuSans-2212" d="M 678 2272 
L 4684 2272 
L 4684 1741 
L 678 1741 
L 678 2272 
z
" transform="scale(0.015625)"/>
       </defs>
       <use xlink:href="#DejaVuSans-2212"/>
       <use xlink:href="#DejaVuSans-31" x="83.789062"/>
      </g>
     </g>
    </g>
    <g id="ytick_2">
     <g id="line2d_15">
      <path d="M 57.6 267.606534 
L 414.72 267.606534 
" clip-path="url(#p4593261b94)" style="fill: none; stroke: #b0b0b0; stroke-width: 0.8; stroke-linecap: square"/>
     </g>
     <g id="line2d_16">
      <g>
       <use xlink:href="#mb99bfb06c8" x="57.6" y="267.606534" style="stroke: #000000; stroke-width: 0.8"/>
      </g>
     </g>
     <g id="text_9">
      <!-- 0 -->
      <g transform="translate(44.2375 271.405753) scale(0.1 -0.1)">
       <use xlink:href="#DejaVuSans-30"/>
      </g>
     </g>
    </g>
    <g id="ytick_3">
     <g id="line2d_17">
      <path d="M 57.6 237.928626 
L 414.72 237.928626 
" clip-path="url(#p4593261b94)" style="fill: none; stroke: #b0b0b0; stroke-width: 0.8; stroke-linecap: square"/>
     </g>
     <g id="line2d_18">
      <g>
       <use xlink:href="#mb99bfb06c8" x="57.6" y="237.928626" style="stroke: #000000; stroke-width: 0.8"/>
      </g>
     </g>
     <g id="text_10">
      <!-- 1 -->
      <g transform="translate(44.2375 241.727845) scale(0.1 -0.1)">
       <use xlink:href="#DejaVuSans-31"/>
      </g>
     </g>
    </g>
    <g id="ytick_4">
     <g id="line2d_19">
      <path d="M 57.6 208.250718 
L 414.72 208.250718 
" clip-path="url(#p4593261b94)" style="fill: none; stroke: #b0b0b0; stroke-width: 0.8; stroke-linecap: square"/>
     </g>
     <g id="line2d_20">
      <g>
       <use xlink:href="#mb99bfb06c8" x="57.6" y="208.250718" style="stroke: #000000; stroke-width: 0.8"/>
      </g>
     </g>
     <g id="text_11">
      <!-- 2 -->
      <g transform="translate(44.2375 212.049937) scale(0.1 -0.1)">
       <use xlink:href="#DejaVuSans-32"/>
      </g>
     </g>
    </g>
    <g id="ytick_5">
     <g id="line2d_21">
      <path d="M 57.6 178.57281 
L 414.72 178.57281 
" clip-path="url(#p4593261b94)" style="fill: none; stroke: #b0b0b0; stroke-width: 0.8; stroke-linecap: square"/>
     </g>
     <g id="line2d_22">
      <g>
       <use xlink:href="#mb99bfb06c8" x="57.6" y="178.57281" style="stroke: #000000; stroke-width: 0.8"/>
      </g>
     </g>
     <g id="text_12">
      <!-- 3 -->
      <g transform="translate(44.2375 182.372029) scale(0.1 -0.1)">
       <defs>
        <path id="DejaVuSans-33" d="M 2597 2516 
Q 3050 2419 3304 2112 
Q 3559 1806 3559 1356 
Q 3559 666 3084 287 
Q 2609 -91 1734 -91 
Q 1441 -91 1130 -33 
Q 819 25 488 141 
L 488 750 
Q 750 597 1062 519 
Q 1375 441 1716 441 
Q 2309 441 2620 675 
Q 2931 909 2931 1356 
Q 2931 1769 2642 2001 
Q 2353 2234 1838 2234 
L 1294 2234 
L 1294 2753 
L 1863 2753 
Q 2328 2753 2575 2939 
Q 2822 3125 2822 3475 
Q 2822 3834 2567 4026 
Q 2313 4219 1838 4219 
Q 1578 4219 1281 4162 
Q 984 4106 628 3988 
L 628 4550 
Q 988 4650 1302 4700 
Q 1616 4750 1894 4750 
Q 2613 4750 3031 4423 
Q 3450 4097 3450 3541 
Q 3450 3153 3228 2886 
Q 3006 2619 2597 2516 
z
" transform="scale(0.015625)"/>
       </defs>
       <use xlink:href="#DejaVuSans-33"/>
      </g>
     </g>
    </g>
    <g id="ytick_6">
     <g id="line2d_23">
      <path d="M 57.6 148.894902 
L 414.72 148.894902 
" clip-path="url(#p4593261b94)" style="fill: none; stroke: #b0b0b0; stroke-width: 0.8; stroke-linecap: square"/>
     </g>
     <g id="line2d_24">
      <g>
       <use xlink:href="#mb99bfb06c8" x="57.6" y="148.894902" style="stroke: #000000; stroke-width: 0.8"/>
      </g>
     </g>
     <g id="text_13">
      <!-- 4 -->
      <g transform="translate(44.2375 152.694121) scale(0.1 -0.1)">
       <use xlink:href="#DejaVuSans-34"/>
      </g>
     </g>
    </g>
    <g id="ytick_7">
     <g id="line2d_25">
      <path d="M 57.6 119.216994 
L 414.72 119.216994 
" clip-path="url(#p4593261b94)" style="fill: none; stroke: #b0b0b0; stroke-width: 0.8; stroke-linecap: square"/>
     </g>
     <g id="line2d_26">
      <g>
       <use xlink:href="#mb99bfb06c8" x="57.6" y="119.216994" style="stroke: #000000; stroke-width: 0.8"/>
      </g>
     </g>
     <g id="text_14">
      <!-- 5 -->
      <g transform="translate(44.2375 123.016213) scale(0.1 -0.1)">
       <defs>
        <path id="DejaVuSans-35" d="M 691 4666 
L 3169 4666 
L 3169 4134 
L 1269 4134 
L 1269 2991 
Q 1406 3038 1543 3061 
Q 1681 3084 1819 3084 
Q 2600 3084 3056 2656 
Q 3513 2228 3513 1497 
Q 3513 744 3044 326 
Q 2575 -91 1722 -91 
Q 1428 -91 1123 -41 
Q 819 9 494 109 
L 494 744 
Q 775 591 1075 516 
Q 1375 441 1709 441 
Q 2250 441 2565 725 
Q 2881 1009 2881 1497 
Q 2881 1984 2565 2268 
Q 2250 2553 1709 2553 
Q 1456 2553 1204 2497 
Q 953 2441 691 2322 
L 691 4666 
z
" transform="scale(0.015625)"/>
       </defs>
       <use xlink:href="#DejaVuSans-35"/>
      </g>
     </g>
    </g>
    <g id="ytick_8">
     <g id="line2d_27">
      <path d="M 57.6 89.539086 
L 414.72 89.539086 
" clip-path="url(#p4593261b94)" style="fill: none; stroke: #b0b0b0; stroke-width: 0.8; stroke-linecap: square"/>
     </g>
     <g id="line2d_28">
      <g>
       <use xlink:href="#mb99bfb06c8" x="57.6" y="89.539086" style="stroke: #000000; stroke-width: 0.8"/>
      </g>
     </g>
     <g id="text_15">
      <!-- 6 -->
      <g transform="translate(44.2375 93.338305) scale(0.1 -0.1)">
       <use xlink:href="#DejaVuSans-36"/>
      </g>
     </g>
    </g>
    <g id="ytick_9">
     <g id="line2d_29">
      <path d="M 57.6 59.861179 
L 414.72 59.861179 
" clip-path="url(#p4593261b94)" style="fill: none; stroke: #b0b0b0; stroke-width: 0.8; stroke-linecap: square"/>
     </g>
     <g id="line2d_30">
      <g>
       <use xlink:href="#mb99bfb06c8" x="57.6" y="59.861179" style="stroke: #000000; stroke-width: 0.8"/>
      </g>
     </g>
     <g id="text_16">
      <!-- 7 -->
      <g transform="translate(44.2375 63.660397) scale(0.1 -0.1)">
       <defs>
        <path id="DejaVuSans-37" d="M 525 4666 
L 3525 4666 
L 3525 4397 
L 1831 0 
L 1172 0 
L 2766 4134 
L 525 4134 
L 525 4666 
z
" transform="scale(0.015625)"/>
       </defs>
       <use xlink:href="#DejaVuSans-37"/>
      </g>
     </g>
    </g>
    <g id="text_17">
     <!-- X -->
     <g transform="translate(29.778125 177.953) rotate(-90) scale(0.1 -0.1)">
      <defs>
       <path id="DejaVuSans-58" d="M 403 4666 
L 1081 4666 
L 2241 2931 
L 3406 4666 
L 4084 4666 
L 2584 2425 
L 4184 0 
L 3506 0 
L 2194 1984 
L 872 0 
L 191 0 
L 1856 2491 
L 403 4666 
z
" transform="scale(0.015625)"/>
      </defs>
      <use xlink:href="#DejaVuSans-58"/>
     </g>
    </g>
   </g>
   <g id="line2d_31">
    <path d="M 73.832727 59.861179 
L 77.112066 57.636904 
L 80.391405 54.211467 
L 83.670744 83.572127 
L 86.950083 118.878901 
L 90.229421 142.99603 
L 93.50876 178.285615 
L 96.788099 210.661504 
L 100.067438 217.801751 
L 103.346777 225.187504 
L 106.626116 231.043608 
L 109.905455 253.917599 
L 113.184793 255.857512 
L 116.464132 267.388243 
L 119.743471 261.864882 
L 123.02281 256.417067 
L 126.302149 261.440125 
L 129.581488 255.445454 
L 132.860826 242.571929 
L 136.140165 227.915534 
L 139.419504 218.497385 
L 142.698843 209.163915 
L 145.978182 216.996529 
L 149.257521 210.171046 
L 152.53686 212.464655 
L 155.816198 219.955677 
L 159.095537 210.759615 
L 162.374876 202.755012 
L 165.654215 207.002872 
L 168.933554 216.353155 
L 172.212893 210.066094 
L 175.492231 220.559972 
L 178.77157 214.450945 
L 182.050909 214.552269 
L 185.330248 221.468059 
L 188.609587 217.793534 
L 191.888926 220.602488 
L 195.168264 231.444949 
L 198.447603 248.486615 
L 201.726942 244.834975 
L 205.006281 253.745762 
L 208.28562 256.829565 
L 211.564959 265.890527 
L 214.844298 254.600305 
L 218.123636 240.196135 
L 221.402975 249.811546 
L 224.682314 243.978232 
L 227.961653 249.623266 
L 231.240992 253.105562 
L 234.520331 266.420592 
L 237.799669 258.305325 
L 241.079008 253.687582 
L 244.358347 249.566048 
L 247.637686 251.366711 
L 250.917025 260.829252 
L 254.196364 263.510106 
L 257.475702 270.331584 
L 260.755041 263.884086 
L 264.03438 268.975073 
L 267.313719 254.527547 
L 270.593058 257.90626 
L 273.872397 265.360703 
L 277.151736 271.659008 
L 280.431074 265.763049 
L 283.710413 262.144334 
L 286.989752 257.032705 
L 290.269091 264.718931 
L 293.54843 276.07348 
L 296.827769 266.585483 
L 300.107107 262.350885 
L 303.386446 257.253008 
L 306.665785 263.708777 
L 309.945124 252.279839 
L 313.224463 242.598713 
L 316.503802 254.008478 
L 319.78314 265.670993 
L 323.062479 271.663763 
L 326.341818 282.488214 
L 329.621157 274.948083 
L 332.900496 272.776898 
L 336.179835 267.502517 
L 339.459174 267.722708 
L 342.738512 282.031753 
L 346.017851 293.196761 
L 349.29719 295.488 
L 352.576529 282.128648 
L 355.855868 278.006422 
L 359.135207 286.909693 
L 362.414545 269.170868 
L 365.693884 268.140587 
L 368.973223 271.176704 
L 372.252562 262.727135 
L 375.531901 272.285317 
L 378.81124 275.27467 
L 382.090579 271.145752 
L 385.369917 267.685498 
L 388.649256 261.055183 
L 391.928595 264.614559 
L 395.207934 261.211416 
L 398.487273 276.510575 
" clip-path="url(#p4593261b94)" style="fill: none; stroke: #0000ff; stroke-width: 1.5; stroke-linecap: square"/>
   </g>
   <g id="line2d_32">
    <path d="M 73.832727 59.861179 
L 77.112066 57.636904 
L 80.391405 54.211467 
L 83.670744 83.572127 
L 86.950083 120.388917 
L 90.229421 145.102459 
L 93.50876 180.252502 
L 96.788099 212.458189 
L 100.067438 218.997721 
L 103.346777 225.859098 
L 106.626116 230.815135 
L 109.905455 252.82366 
L 113.184793 253.462651 
L 116.464132 263.261434 
L 119.743471 256.608996 
L 123.02281 251.049524 
L 126.302149 256.605684 
L 129.581488 251.832523 
L 132.860826 240.359915 
L 136.140165 226.839651 
L 139.419504 218.182847 
L 142.698843 209.49607 
L 145.978182 217.863023 
L 149.257521 211.149484 
L 152.53686 213.21483 
L 155.816198 220.469882 
L 159.095537 211.177324 
L 162.374876 203.180257 
L 165.654215 207.471661 
L 168.933554 216.771373 
L 172.212893 210.463298 
L 175.492231 220.90495 
L 178.77157 214.705315 
L 182.050909 214.720522 
L 185.330248 221.553438 
L 188.609587 217.866255 
L 191.888926 220.689236 
L 195.168264 231.498272 
L 198.447603 248.543857 
L 201.726942 244.786429 
L 205.006281 253.633551 
L 208.28562 256.685557 
L 211.564959 265.697804 
L 214.844298 254.369856 
L 218.123636 239.94299 
L 221.402975 249.55889 
L 224.682314 243.735174 
L 227.961653 249.393776 
L 231.240992 252.897975 
L 234.520331 266.232911 
L 237.799669 258.133965 
L 241.079008 253.531339 
L 244.358347 249.426253 
L 247.637686 251.239103 
L 250.917025 260.712536 
L 254.196364 263.404333 
L 257.475702 270.236365 
L 260.755041 263.798739 
L 264.03438 268.897194 
L 267.313719 254.465523 
L 270.593058 257.859264 
L 273.872397 265.308905 
L 277.151736 271.603405 
L 280.431074 265.700989 
L 283.710413 262.075367 
L 286.989752 256.964492 
L 290.269091 264.660896 
L 293.54843 276.023248 
L 296.827769 266.53732 
L 300.107107 262.305849 
L 303.386446 257.212028 
L 306.665785 263.671095 
L 309.945124 252.242907 
L 313.224463 242.564555 
L 316.503802 253.977 
L 319.78314 265.641139 
L 323.062479 271.635172 
L 326.341818 282.461652 
L 329.621157 274.92344 
L 332.900496 272.754221 
L 336.179835 267.481848 
L 339.459174 267.703857 
L 342.738512 282.014746 
L 346.017851 293.181396 
L 349.29719 295.47409 
L 352.576529 282.116096 
L 355.855868 277.995082 
L 359.135207 286.924371 
L 362.414545 269.228104 
L 365.693884 268.241048 
L 368.973223 271.326831 
L 372.252562 262.885741 
L 375.531901 272.463265 
L 378.81124 275.475717 
L 382.090579 271.350619 
L 385.369917 267.869565 
L 388.649256 261.204877 
L 391.928595 264.735682 
L 395.207934 261.311243 
L 398.487273 276.597467 
" clip-path="url(#p4593261b94)" style="fill: none; stroke-dasharray: 5.55,2.4; stroke-dashoffset: 0; stroke: #000000; stroke-width: 1.5"/>
   </g>
   <g id="line2d_33">
    <path d="M 73.832727 59.861179 
L 77.112066 57.636904 
L 80.391405 53.568 
L 83.670744 78.928255 
L 86.950083 113.069321 
L 90.229421 139.089517 
L 93.50876 174.787018 
L 96.788099 206.680031 
L 100.067438 209.468077 
L 103.346777 210.059639 
L 106.626116 204.621931 
L 109.905455 215.516837 
L 113.184793 211.399998 
L 116.464132 215.769525 
L 119.743471 212.753991 
L 123.02281 215.655427 
L 126.302149 230.06179 
L 129.581488 231.384342 
L 132.860826 223.131627 
L 136.140165 214.59466 
L 139.419504 210.939816 
L 142.698843 206.232255 
L 145.978182 216.522134 
L 149.257521 210.107338 
L 152.53686 211.629606 
L 155.816198 218.424539 
L 159.095537 209.022002 
L 162.374876 201.278 
L 165.654215 206.182819 
L 168.933554 215.563905 
L 172.212893 209.307526 
L 175.492231 219.864061 
L 178.77157 213.753213 
L 182.050909 213.822808 
L 185.330248 220.718014 
L 188.609587 217.07964 
L 191.888926 219.781945 
L 195.168264 230.805602 
L 198.447603 248.173132 
L 201.726942 244.767847 
L 205.006281 253.654682 
L 208.28562 256.488544 
L 211.564959 264.947656 
L 214.844298 252.933661 
L 218.123636 237.549194 
L 221.402975 246.15847 
L 224.682314 239.31628 
L 227.961653 244.037994 
L 231.240992 247.354956 
L 234.520331 260.874579 
L 237.799669 253.365425 
L 241.079008 249.308421 
L 244.358347 244.86195 
L 247.637686 247.459878 
L 250.917025 258.090574 
L 254.196364 261.66151 
L 257.475702 269.31965 
L 260.755041 263.187298 
L 264.03438 268.28875 
L 267.313719 253.719418 
L 270.593058 256.954674 
L 273.872397 264.668203 
L 277.151736 271.245337 
L 280.431074 265.738875 
L 283.710413 262.525811 
L 286.989752 257.518347 
L 290.269091 265.11277 
L 293.54843 276.421303 
L 296.827769 266.940245 
L 300.107107 262.707339 
L 303.386446 257.579123 
L 306.665785 264.014455 
L 309.945124 252.61881 
L 313.224463 242.92277 
L 316.503802 254.286009 
L 319.78314 265.864197 
L 323.062479 271.724416 
L 326.341818 282.37492 
L 329.621157 274.458642 
L 332.900496 271.866708 
L 336.179835 266.204095 
L 339.459174 265.867413 
L 342.738512 279.99873 
L 346.017851 290.822298 
L 349.29719 292.543182 
L 352.576529 278.760959 
L 355.855868 273.675401 
L 359.135207 281.698731 
L 362.414545 262.625116 
L 365.693884 260.770272 
L 368.973223 263.002931 
L 372.252562 254.548158 
L 375.531901 263.8674 
L 378.81124 266.809032 
L 382.090579 263.035543 
L 385.369917 260.327246 
L 388.649256 254.652174 
L 391.928595 258.892962 
L 395.207934 255.855018 
L 398.487273 271.406496 
" clip-path="url(#p4593261b94)" style="fill: none; stroke: #ff0000; stroke-width: 1.5; stroke-linecap: square"/>
   </g>
   <g id="patch_3">
    <path d="M 57.6 307.584 
L 57.6 41.472 
" style="fill: none; stroke: #000000; stroke-width: 0.8; stroke-linejoin: miter; stroke-linecap: square"/>
   </g>
   <g id="patch_4">
    <path d="M 414.72 307.584 
L 414.72 41.472 
" style="fill: none; stroke: #000000; stroke-width: 0.8; stroke-linejoin: miter; stroke-linecap: square"/>
   </g>
   <g id="patch_5">
    <path d="M 57.6 307.584 
L 414.72 307.584 
" style="fill: none; stroke: #000000; stroke-width: 0.8; stroke-linejoin: miter; stroke-linecap: square"/>
   </g>
   <g id="patch_6">
    <path d="M 57.6 41.472 
L 414.72 41.472 
" style="fill: none; stroke: #000000; stroke-width: 0.8; stroke-linejoin: miter; stroke-linecap: square"/>
   </g>
   <g id="legend_1">
    <g id="patch_7">
     <path d="M 392.72 67.472 
L 400.72 67.472 
Q 404.72 67.472 404.72 63.472 
L 404.72 55.472 
Q 404.72 51.472 400.72 51.472 
L 392.72 51.472 
Q 388.72 51.472 388.72 55.472 
L 388.72 63.472 
Q 388.72 67.472 392.72 67.472 
z
" style="fill: #ffffff; opacity: 0.8; stroke: #cccccc; stroke-linejoin: miter"/>
    </g>
   </g>
  </g>
 </g>
 <defs>
  <clipPath id="p4593261b94">
   <rect x="57.6" y="41.472" width="357.12" height="266.112"/>
  </clipPath>
 </defs>
</svg>
