<?xml version="1.0" encoding="utf-8" standalone="no"?>
<!DOCTYPE svg PUBLIC "-//W3C//DTD SVG 1.1//EN"
  "http://www.w3.org/Graphics/SVG/1.1/DTD/svg11.dtd">
<svg xmlns:xlink="http://www.w3.org/1999/xlink" width="460.8pt" height="345.6pt" viewBox="0 0 460.8 345.6" xmlns="http://www.w3.org/2000/svg" version="1.1">
 <metadata>
  <rdf:RDF xmlns:dc="http://purl.org/dc/elements/1.1/" xmlns:cc="http://creativecommons.org/ns#" xmlns:rdf="http://www.w3.org/1999/02/22-rdf-syntax-ns#">
   <cc:Work>
    <dc:type rdf:resource="http://purl.org/dc/dcmitype/StillImage"/>
    <dc:date>2024-05-21T16:20:12.500278</dc:date>
    <dc:format>image/svg+xml</dc:format>
    <dc:creator>
     <cc:Agent>
      <dc:title>Matplotlib v3.7.1, https://matplotlib.org/</dc:title>
     </cc:Agent>
    </dc:creator>
   </cc:Work>
  </rdf:RDF>
 </metadata>
 <defs>
  <style type="text/css">*{stroke-linejoin: round; stroke-linecap: butt}</style>
 </defs>
 <g id="figure_1">
  <g id="patch_1">
   <path d="M 0 345.6 
L 460.8 345.6 
L 460.8 0 
L 0 0 
z
" style="fill: #ffffff"/>
  </g>
  <g id="axes_1">
   <g id="patch_2">
    <path d="M 57.6 307.584 
L 414.72 307.584 
L 414.72 41.472 
L 57.6 41.472 
z
" style="fill: #ffffff"/>
   </g>
   <g id="matplotlib.axis_1">
    <g id="xtick_1">
     <g id="line2d_1">
      <path d="M 73.832727 307.584 
L 73.832727 41.472 
" clip-path="url(#p337042ccf5)" style="fill: none; stroke: #b0b0b0; stroke-width: 0.8; stroke-linecap: square"/>
     </g>
     <g id="line2d_2">
      <defs>
       <path id="m3fe52103d3" d="M 0 0 
L 0 3.5 
" style="stroke: #000000; stroke-width: 0.8"/>
      </defs>
      <g>
       <use xlink:href="#m3fe52103d3" x="73.832727" y="307.584" style="stroke: #000000; stroke-width: 0.8"/>
      </g>
     </g>
     <g id="text_1">
      <!-- 0 -->
      <g transform="translate(70.651477 322.182437) scale(0.1 -0.1)">
       <defs>
        <path id="DejaVuSans-30" d="M 2034 4250 
Q 1547 4250 1301 3770 
Q 1056 3291 1056 2328 
Q 1056 1369 1301 889 
Q 1547 409 2034 409 
Q 2525 409 2770 889 
Q 3016 1369 3016 2328 
Q 3016 3291 2770 3770 
Q 2525 4250 2034 4250 
z
M 2034 4750 
Q 2819 4750 3233 4129 
Q 3647 3509 3647 2328 
Q 3647 1150 3233 529 
Q 2819 -91 2034 -91 
Q 1250 -91 836 529 
Q 422 1150 422 2328 
Q 422 3509 836 4129 
Q 1250 4750 2034 4750 
z
" transform="scale(0.015625)"/>
       </defs>
       <use xlink:href="#DejaVuSans-30"/>
      </g>
     </g>
    </g>
    <g id="xtick_2">
     <g id="line2d_3">
      <path d="M 139.419504 307.584 
L 139.419504 41.472 
" clip-path="url(#p337042ccf5)" style="fill: none; stroke: #b0b0b0; stroke-width: 0.8; stroke-linecap: square"/>
     </g>
     <g id="line2d_4">
      <g>
       <use xlink:href="#m3fe52103d3" x="139.419504" y="307.584" style="stroke: #000000; stroke-width: 0.8"/>
      </g>
     </g>
     <g id="text_2">
      <!-- 20 -->
      <g transform="translate(133.057004 322.182437) scale(0.1 -0.1)">
       <defs>
        <path id="DejaVuSans-32" d="M 1228 531 
L 3431 531 
L 3431 0 
L 469 0 
L 469 531 
Q 828 903 1448 1529 
Q 2069 2156 2228 2338 
Q 2531 2678 2651 2914 
Q 2772 3150 2772 3378 
Q 2772 3750 2511 3984 
Q 2250 4219 1831 4219 
Q 1534 4219 1204 4116 
Q 875 4013 500 3803 
L 500 4441 
Q 881 4594 1212 4672 
Q 1544 4750 1819 4750 
Q 2544 4750 2975 4387 
Q 3406 4025 3406 3419 
Q 3406 3131 3298 2873 
Q 3191 2616 2906 2266 
Q 2828 2175 2409 1742 
Q 1991 1309 1228 531 
z
" transform="scale(0.015625)"/>
       </defs>
       <use xlink:href="#DejaVuSans-32"/>
       <use xlink:href="#DejaVuSans-30" x="63.623047"/>
      </g>
     </g>
    </g>
    <g id="xtick_3">
     <g id="line2d_5">
      <path d="M 205.006281 307.584 
L 205.006281 41.472 
" clip-path="url(#p337042ccf5)" style="fill: none; stroke: #b0b0b0; stroke-width: 0.8; stroke-linecap: square"/>
     </g>
     <g id="line2d_6">
      <g>
       <use xlink:href="#m3fe52103d3" x="205.006281" y="307.584" style="stroke: #000000; stroke-width: 0.8"/>
      </g>
     </g>
     <g id="text_3">
      <!-- 40 -->
      <g transform="translate(198.643781 322.182437) scale(0.1 -0.1)">
       <defs>
        <path id="DejaVuSans-34" d="M 2419 4116 
L 825 1625 
L 2419 1625 
L 2419 4116 
z
M 2253 4666 
L 3047 4666 
L 3047 1625 
L 3713 1625 
L 3713 1100 
L 3047 1100 
L 3047 0 
L 2419 0 
L 2419 1100 
L 313 1100 
L 313 1709 
L 2253 4666 
z
" transform="scale(0.015625)"/>
       </defs>
       <use xlink:href="#DejaVuSans-34"/>
       <use xlink:href="#DejaVuSans-30" x="63.623047"/>
      </g>
     </g>
    </g>
    <g id="xtick_4">
     <g id="line2d_7">
      <path d="M 270.593058 307.584 
L 270.593058 41.472 
" clip-path="url(#p337042ccf5)" style="fill: none; stroke: #b0b0b0; stroke-width: 0.8; stroke-linecap: square"/>
     </g>
     <g id="line2d_8">
      <g>
       <use xlink:href="#m3fe52103d3" x="270.593058" y="307.584" style="stroke: #000000; stroke-width: 0.8"/>
      </g>
     </g>
     <g id="text_4">
      <!-- 60 -->
      <g transform="translate(264.230558 322.182437) scale(0.1 -0.1)">
       <defs>
        <path id="DejaVuSans-36" d="M 2113 2584 
Q 1688 2584 1439 2293 
Q 1191 2003 1191 1497 
Q 1191 994 1439 701 
Q 1688 409 2113 409 
Q 2538 409 2786 701 
Q 3034 994 3034 1497 
Q 3034 2003 2786 2293 
Q 2538 2584 2113 2584 
z
M 3366 4563 
L 3366 3988 
Q 3128 4100 2886 4159 
Q 2644 4219 2406 4219 
Q 1781 4219 1451 3797 
Q 1122 3375 1075 2522 
Q 1259 2794 1537 2939 
Q 1816 3084 2150 3084 
Q 2853 3084 3261 2657 
Q 3669 2231 3669 1497 
Q 3669 778 3244 343 
Q 2819 -91 2113 -91 
Q 1303 -91 875 529 
Q 447 1150 447 2328 
Q 447 3434 972 4092 
Q 1497 4750 2381 4750 
Q 2619 4750 2861 4703 
Q 3103 4656 3366 4563 
z
" transform="scale(0.015625)"/>
       </defs>
       <use xlink:href="#DejaVuSans-36"/>
       <use xlink:href="#DejaVuSans-30" x="63.623047"/>
      </g>
     </g>
    </g>
    <g id="xtick_5">
     <g id="line2d_9">
      <path d="M 336.179835 307.584 
L 336.179835 41.472 
" clip-path="url(#p337042ccf5)" style="fill: none; stroke: #b0b0b0; stroke-width: 0.8; stroke-linecap: square"/>
     </g>
     <g id="line2d_10">
      <g>
       <use xlink:href="#m3fe52103d3" x="336.179835" y="307.584" style="stroke: #000000; stroke-width: 0.8"/>
      </g>
     </g>
     <g id="text_5">
      <!-- 80 -->
      <g transform="translate(329.817335 322.182437) scale(0.1 -0.1)">
       <defs>
        <path id="DejaVuSans-38" d="M 2034 2216 
Q 1584 2216 1326 1975 
Q 1069 1734 1069 1313 
Q 1069 891 1326 650 
Q 1584 409 2034 409 
Q 2484 409 2743 651 
Q 3003 894 3003 1313 
Q 3003 1734 2745 1975 
Q 2488 2216 2034 2216 
z
M 1403 2484 
Q 997 2584 770 2862 
Q 544 3141 544 3541 
Q 544 4100 942 4425 
Q 1341 4750 2034 4750 
Q 2731 4750 3128 4425 
Q 3525 4100 3525 3541 
Q 3525 3141 3298 2862 
Q 3072 2584 2669 2484 
Q 3125 2378 3379 2068 
Q 3634 1759 3634 1313 
Q 3634 634 3220 271 
Q 2806 -91 2034 -91 
Q 1263 -91 848 271 
Q 434 634 434 1313 
Q 434 1759 690 2068 
Q 947 2378 1403 2484 
z
M 1172 3481 
Q 1172 3119 1398 2916 
Q 1625 2713 2034 2713 
Q 2441 2713 2670 2916 
Q 2900 3119 2900 3481 
Q 2900 3844 2670 4047 
Q 2441 4250 2034 4250 
Q 1625 4250 1398 4047 
Q 1172 3844 1172 3481 
z
" transform="scale(0.015625)"/>
       </defs>
       <use xlink:href="#DejaVuSans-38"/>
       <use xlink:href="#DejaVuSans-30" x="63.623047"/>
      </g>
     </g>
    </g>
    <g id="xtick_6">
     <g id="line2d_11">
      <path d="M 401.766612 307.584 
L 401.766612 41.472 
" clip-path="url(#p337042ccf5)" style="fill: none; stroke: #b0b0b0; stroke-width: 0.8; stroke-linecap: square"/>
     </g>
     <g id="line2d_12">
      <g>
       <use xlink:href="#m3fe52103d3" x="401.766612" y="307.584" style="stroke: #000000; stroke-width: 0.8"/>
      </g>
     </g>
     <g id="text_6">
      <!-- 100 -->
      <g transform="translate(392.222862 322.182437) scale(0.1 -0.1)">
       <defs>
        <path id="DejaVuSans-31" d="M 794 531 
L 1825 531 
L 1825 4091 
L 703 3866 
L 703 4441 
L 1819 4666 
L 2450 4666 
L 2450 531 
L 3481 531 
L 3481 0 
L 794 0 
L 794 531 
z
" transform="scale(0.015625)"/>
       </defs>
       <use xlink:href="#DejaVuSans-31"/>
       <use xlink:href="#DejaVuSans-30" x="63.623047"/>
       <use xlink:href="#DejaVuSans-30" x="127.246094"/>
      </g>
     </g>
    </g>
    <g id="text_7">
     <!-- T -->
     <g transform="translate(233.106094 335.860562) scale(0.1 -0.1)">
      <defs>
       <path id="DejaVuSans-54" d="M -19 4666 
L 3928 4666 
L 3928 4134 
L 2272 4134 
L 2272 0 
L 1638 0 
L 1638 4134 
L -19 4134 
L -19 4666 
z
" transform="scale(0.015625)"/>
      </defs>
      <use xlink:href="#DejaVuSans-54"/>
     </g>
    </g>
   </g>
   <g id="matplotlib.axis_2">
    <g id="ytick_1">
     <g id="line2d_13">
      <path d="M 57.6 299.507677 
L 414.72 299.507677 
" clip-path="url(#p337042ccf5)" style="fill: none; stroke: #b0b0b0; stroke-width: 0.8; stroke-linecap: square"/>
     </g>
     <g id="line2d_14">
      <defs>
       <path id="m0cc5fba98b" d="M 0 0 
L -3.5 0 
" style="stroke: #000000; stroke-width: 0.8"/>
      </defs>
      <g>
       <use xlink:href="#m0cc5fba98b" x="57.6" y="299.507677" style="stroke: #000000; stroke-width: 0.8"/>
      </g>
     </g>
     <g id="text_8">
      <!-- −1 -->
      <g transform="translate(35.857813 303.306896) scale(0.1 -0.1)">
       <defs>
        <path id="DejaVuSans-2212" d="M 678 2272 
L 4684 2272 
L 4684 1741 
L 678 1741 
L 678 2272 
z
" transform="scale(0.015625)"/>
       </defs>
       <use xlink:href="#DejaVuSans-2212"/>
       <use xlink:href="#DejaVuSans-31" x="83.789062"/>
      </g>
     </g>
    </g>
    <g id="ytick_2">
     <g id="line2d_15">
      <path d="M 57.6 268.765218 
L 414.72 268.765218 
" clip-path="url(#p337042ccf5)" style="fill: none; stroke: #b0b0b0; stroke-width: 0.8; stroke-linecap: square"/>
     </g>
     <g id="line2d_16">
      <g>
       <use xlink:href="#m0cc5fba98b" x="57.6" y="268.765218" style="stroke: #000000; stroke-width: 0.8"/>
      </g>
     </g>
     <g id="text_9">
      <!-- 0 -->
      <g transform="translate(44.2375 272.564436) scale(0.1 -0.1)">
       <use xlink:href="#DejaVuSans-30"/>
      </g>
     </g>
    </g>
    <g id="ytick_3">
     <g id="line2d_17">
      <path d="M 57.6 238.022758 
L 414.72 238.022758 
" clip-path="url(#p337042ccf5)" style="fill: none; stroke: #b0b0b0; stroke-width: 0.8; stroke-linecap: square"/>
     </g>
     <g id="line2d_18">
      <g>
       <use xlink:href="#m0cc5fba98b" x="57.6" y="238.022758" style="stroke: #000000; stroke-width: 0.8"/>
      </g>
     </g>
     <g id="text_10">
      <!-- 1 -->
      <g transform="translate(44.2375 241.821977) scale(0.1 -0.1)">
       <use xlink:href="#DejaVuSans-31"/>
      </g>
     </g>
    </g>
    <g id="ytick_4">
     <g id="line2d_19">
      <path d="M 57.6 207.280298 
L 414.72 207.280298 
" clip-path="url(#p337042ccf5)" style="fill: none; stroke: #b0b0b0; stroke-width: 0.8; stroke-linecap: square"/>
     </g>
     <g id="line2d_20">
      <g>
       <use xlink:href="#m0cc5fba98b" x="57.6" y="207.280298" style="stroke: #000000; stroke-width: 0.8"/>
      </g>
     </g>
     <g id="text_11">
      <!-- 2 -->
      <g transform="translate(44.2375 211.079517) scale(0.1 -0.1)">
       <use xlink:href="#DejaVuSans-32"/>
      </g>
     </g>
    </g>
    <g id="ytick_5">
     <g id="line2d_21">
      <path d="M 57.6 176.537839 
L 414.72 176.537839 
" clip-path="url(#p337042ccf5)" style="fill: none; stroke: #b0b0b0; stroke-width: 0.8; stroke-linecap: square"/>
     </g>
     <g id="line2d_22">
      <g>
       <use xlink:href="#m0cc5fba98b" x="57.6" y="176.537839" style="stroke: #000000; stroke-width: 0.8"/>
      </g>
     </g>
     <g id="text_12">
      <!-- 3 -->
      <g transform="translate(44.2375 180.337057) scale(0.1 -0.1)">
       <defs>
        <path id="DejaVuSans-33" d="M 2597 2516 
Q 3050 2419 3304 2112 
Q 3559 1806 3559 1356 
Q 3559 666 3084 287 
Q 2609 -91 1734 -91 
Q 1441 -91 1130 -33 
Q 819 25 488 141 
L 488 750 
Q 750 597 1062 519 
Q 1375 441 1716 441 
Q 2309 441 2620 675 
Q 2931 909 2931 1356 
Q 2931 1769 2642 2001 
Q 2353 2234 1838 2234 
L 1294 2234 
L 1294 2753 
L 1863 2753 
Q 2328 2753 2575 2939 
Q 2822 3125 2822 3475 
Q 2822 3834 2567 4026 
Q 2313 4219 1838 4219 
Q 1578 4219 1281 4162 
Q 984 4106 628 3988 
L 628 4550 
Q 988 4650 1302 4700 
Q 1616 4750 1894 4750 
Q 2613 4750 3031 4423 
Q 3450 4097 3450 3541 
Q 3450 3153 3228 2886 
Q 3006 2619 2597 2516 
z
" transform="scale(0.015625)"/>
       </defs>
       <use xlink:href="#DejaVuSans-33"/>
      </g>
     </g>
    </g>
    <g id="ytick_6">
     <g id="line2d_23">
      <path d="M 57.6 145.795379 
L 414.72 145.795379 
" clip-path="url(#p337042ccf5)" style="fill: none; stroke: #b0b0b0; stroke-width: 0.8; stroke-linecap: square"/>
     </g>
     <g id="line2d_24">
      <g>
       <use xlink:href="#m0cc5fba98b" x="57.6" y="145.795379" style="stroke: #000000; stroke-width: 0.8"/>
      </g>
     </g>
     <g id="text_13">
      <!-- 4 -->
      <g transform="translate(44.2375 149.594598) scale(0.1 -0.1)">
       <use xlink:href="#DejaVuSans-34"/>
      </g>
     </g>
    </g>
    <g id="ytick_7">
     <g id="line2d_25">
      <path d="M 57.6 115.052919 
L 414.72 115.052919 
" clip-path="url(#p337042ccf5)" style="fill: none; stroke: #b0b0b0; stroke-width: 0.8; stroke-linecap: square"/>
     </g>
     <g id="line2d_26">
      <g>
       <use xlink:href="#m0cc5fba98b" x="57.6" y="115.052919" style="stroke: #000000; stroke-width: 0.8"/>
      </g>
     </g>
     <g id="text_14">
      <!-- 5 -->
      <g transform="translate(44.2375 118.852138) scale(0.1 -0.1)">
       <defs>
        <path id="DejaVuSans-35" d="M 691 4666 
L 3169 4666 
L 3169 4134 
L 1269 4134 
L 1269 2991 
Q 1406 3038 1543 3061 
Q 1681 3084 1819 3084 
Q 2600 3084 3056 2656 
Q 3513 2228 3513 1497 
Q 3513 744 3044 326 
Q 2575 -91 1722 -91 
Q 1428 -91 1123 -41 
Q 819 9 494 109 
L 494 744 
Q 775 591 1075 516 
Q 1375 441 1709 441 
Q 2250 441 2565 725 
Q 2881 1009 2881 1497 
Q 2881 1984 2565 2268 
Q 2250 2553 1709 2553 
Q 1456 2553 1204 2497 
Q 953 2441 691 2322 
L 691 4666 
z
" transform="scale(0.015625)"/>
       </defs>
       <use xlink:href="#DejaVuSans-35"/>
      </g>
     </g>
    </g>
    <g id="ytick_8">
     <g id="line2d_27">
      <path d="M 57.6 84.31046 
L 414.72 84.31046 
" clip-path="url(#p337042ccf5)" style="fill: none; stroke: #b0b0b0; stroke-width: 0.8; stroke-linecap: square"/>
     </g>
     <g id="line2d_28">
      <g>
       <use xlink:href="#m0cc5fba98b" x="57.6" y="84.31046" style="stroke: #000000; stroke-width: 0.8"/>
      </g>
     </g>
     <g id="text_15">
      <!-- 6 -->
      <g transform="translate(44.2375 88.109678) scale(0.1 -0.1)">
       <use xlink:href="#DejaVuSans-36"/>
      </g>
     </g>
    </g>
    <g id="ytick_9">
     <g id="line2d_29">
      <path d="M 57.6 53.568 
L 414.72 53.568 
" clip-path="url(#p337042ccf5)" style="fill: none; stroke: #b0b0b0; stroke-width: 0.8; stroke-linecap: square"/>
     </g>
     <g id="line2d_30">
      <g>
       <use xlink:href="#m0cc5fba98b" x="57.6" y="53.568" style="stroke: #000000; stroke-width: 0.8"/>
      </g>
     </g>
     <g id="text_16">
      <!-- 7 -->
      <g transform="translate(44.2375 57.367219) scale(0.1 -0.1)">
       <defs>
        <path id="DejaVuSans-37" d="M 525 4666 
L 3525 4666 
L 3525 4397 
L 1831 0 
L 1172 0 
L 2766 4134 
L 525 4134 
L 525 4666 
z
" transform="scale(0.015625)"/>
       </defs>
       <use xlink:href="#DejaVuSans-37"/>
      </g>
     </g>
    </g>
    <g id="text_17">
     <!-- X -->
     <g transform="translate(29.778125 177.953) rotate(-90) scale(0.1 -0.1)">
      <defs>
       <path id="DejaVuSans-58" d="M 403 4666 
L 1081 4666 
L 2241 2931 
L 3406 4666 
L 4084 4666 
L 2584 2425 
L 4184 0 
L 3506 0 
L 2194 1984 
L 872 0 
L 191 0 
L 1856 2491 
L 403 4666 
z
" transform="scale(0.015625)"/>
      </defs>
      <use xlink:href="#DejaVuSans-58"/>
     </g>
    </g>
   </g>
   <g id="line2d_31">
    <path d="M 73.832727 53.568 
L 77.112066 69.126165 
L 80.391405 69.535344 
L 83.670744 104.432917 
L 86.950083 147.937569 
L 90.229421 168.493824 
L 93.50876 206.786414 
L 96.788099 227.112669 
L 100.067438 240.122478 
L 103.346777 233.638868 
L 106.626116 229.456071 
L 109.905455 218.644325 
L 113.184793 215.736525 
L 116.464132 217.875762 
L 119.743471 222.489156 
L 123.02281 221.251756 
L 126.302149 228.427374 
L 129.581488 232.264628 
L 132.860826 224.682015 
L 136.140165 226.876563 
L 139.419504 234.634046 
L 142.698843 240.17453 
L 145.978182 251.305037 
L 149.257521 239.706272 
L 152.53686 248.905448 
L 155.816198 246.915979 
L 159.095537 258.64505 
L 162.374876 252.634739 
L 165.654215 249.564398 
L 168.933554 242.637871 
L 172.212893 251.22069 
L 175.492231 259.302262 
L 178.77157 255.824591 
L 182.050909 251.481294 
L 185.330248 262.06019 
L 188.609587 251.034738 
L 191.888926 240.540566 
L 195.168264 251.88467 
L 198.447603 259.814874 
L 201.726942 259.075408 
L 205.006281 261.839235 
L 208.28562 250.237273 
L 211.564959 239.785944 
L 214.844298 231.624482 
L 218.123636 237.533803 
L 221.402975 241.65687 
L 224.682314 230.431393 
L 227.961653 235.712224 
L 231.240992 226.61703 
L 234.520331 232.155822 
L 237.799669 227.578205 
L 241.079008 218.151228 
L 244.358347 209.420716 
L 247.637686 214.826661 
L 250.917025 207.902676 
L 254.196364 219.298373 
L 257.475702 219.175413 
L 260.755041 214.525585 
L 264.03438 222.127973 
L 267.313719 231.821265 
L 270.593058 250.065339 
L 273.872397 244.47243 
L 277.151736 234.010235 
L 280.431074 236.09218 
L 283.710413 229.192738 
L 286.989752 235.47873 
L 290.269091 247.257061 
L 293.54843 261.046819 
L 296.827769 276.140995 
L 300.107107 262.427457 
L 303.386446 276.97254 
L 306.665785 263.87355 
L 309.945124 253.267711 
L 313.224463 253.085255 
L 316.503802 264.651888 
L 319.78314 271.899251 
L 323.062479 266.680998 
L 326.341818 267.145961 
L 329.621157 255.403944 
L 332.900496 247.244359 
L 336.179835 234.21627 
L 339.459174 236.298696 
L 342.738512 230.292795 
L 346.017851 238.728958 
L 349.29719 251.896544 
L 352.576529 253.548949 
L 355.855868 263.278443 
L 359.135207 269.095528 
L 362.414545 275.182084 
L 365.693884 258.302121 
L 368.973223 262.633134 
L 372.252562 262.939471 
L 375.531901 277.244353 
L 378.81124 284.917728 
L 382.090579 283.202284 
L 385.369917 295.488 
L 388.649256 294.165446 
L 391.928595 279.102948 
L 395.207934 276.800736 
L 398.487273 279.265076 
" clip-path="url(#p337042ccf5)" style="fill: none; stroke: #0000ff; stroke-width: 1.5; stroke-linecap: square"/>
   </g>
   <g id="line2d_32">
    <path d="M 73.832727 53.568 
L 77.112066 69.126165 
L 80.391405 69.535344 
L 83.670744 104.432917 
L 86.950083 148.648007 
L 90.229421 169.293402 
L 93.50876 206.557628 
L 96.788099 225.11515 
L 100.067438 235.937243 
L 103.346777 228.163187 
L 106.626116 224.181476 
L 109.905455 214.689834 
L 113.184793 213.39261 
L 116.464132 216.852978 
L 119.743471 222.298019 
L 123.02281 221.499124 
L 126.302149 229.217292 
L 129.581488 233.013981 
L 132.860826 225.516992 
L 136.140165 227.59594 
L 139.419504 235.330293 
L 142.698843 240.837079 
L 145.978182 251.84402 
L 149.257521 240.123088 
L 152.53686 249.223497 
L 155.816198 247.154922 
L 159.095537 258.861207 
L 162.374876 252.830949 
L 165.654215 249.764205 
L 168.933554 242.845825 
L 172.212893 251.432669 
L 175.492231 259.508841 
L 178.77157 256.022177 
L 182.050909 251.666283 
L 185.330248 262.263019 
L 188.609587 251.274245 
L 191.888926 240.776559 
L 195.168264 252.09704 
L 198.447603 260.009974 
L 201.726942 259.239741 
L 205.006281 261.960155 
L 208.28562 250.319659 
L 211.564959 239.834445 
L 214.844298 231.625715 
L 218.123636 237.541021 
L 221.402975 241.680539 
L 224.682314 230.483245 
L 227.961653 235.706226 
L 231.240992 226.561151 
L 234.520331 232.088044 
L 237.799669 227.516594 
L 241.079008 218.101081 
L 244.358347 209.281719 
L 247.637686 214.625998 
L 250.917025 207.679266 
L 254.196364 219.113556 
L 257.475702 219.152713 
L 260.755041 214.647544 
L 264.03438 222.437589 
L 267.313719 232.086695 
L 270.593058 250.266244 
L 273.872397 244.624751 
L 277.151736 234.08873 
L 280.431074 236.142818 
L 283.710413 229.209662 
L 286.989752 235.462315 
L 290.269091 247.141508 
L 293.54843 260.870532 
L 296.827769 275.88419 
L 300.107107 262.224519 
L 303.386446 276.765552 
L 306.665785 263.602702 
L 309.945124 252.999373 
L 313.224463 252.885907 
L 316.503802 264.538453 
L 319.78314 271.848103 
L 323.062479 266.675512 
L 326.341818 267.182307 
L 329.621157 255.445577 
L 332.900496 247.282709 
L 336.179835 234.265656 
L 339.459174 236.36909 
L 342.738512 230.378741 
L 346.017851 238.822094 
L 349.29719 251.993902 
L 352.576529 253.542408 
L 355.855868 263.153445 
L 359.135207 268.844513 
L 362.414545 274.743171 
L 365.693884 257.741107 
L 368.973223 262.009951 
L 372.252562 262.198955 
L 375.531901 276.463703 
L 378.81124 284.175614 
L 382.090579 282.565525 
L 385.369917 295.014056 
L 388.649256 293.815351 
L 391.928595 278.897988 
L 395.207934 276.733981 
L 398.487273 279.30026 
" clip-path="url(#p337042ccf5)" style="fill: none; stroke-dasharray: 5.55,2.4; stroke-dashoffset: 0; stroke: #000000; stroke-width: 1.5"/>
   </g>
   <g id="line2d_33">
    <path d="M 73.832727 53.568 
L 77.112066 69.126165 
L 80.391405 68.768172 
L 83.670744 98.168051 
L 86.950083 141.444696 
L 90.229421 162.747294 
L 93.50876 200.159899 
L 96.788099 215.818737 
L 100.067438 223.060706 
L 103.346777 215.469745 
L 106.626116 217.767235 
L 109.905455 213.438755 
L 113.184793 215.3868 
L 116.464132 221.579091 
L 119.743471 226.61049 
L 123.02281 225.188931 
L 126.302149 233.24505 
L 129.581488 236.032862 
L 132.860826 228.289016 
L 136.140165 229.241159 
L 139.419504 237.04872 
L 142.698843 242.45868 
L 145.978182 254.22743 
L 149.257521 243.362078 
L 152.53686 253.042267 
L 155.816198 251.433091 
L 159.095537 262.101398 
L 162.374876 255.121839 
L 165.654215 250.074789 
L 168.933554 241.290941 
L 172.212893 248.349725 
L 175.492231 255.541236 
L 178.77157 250.978148 
L 182.050909 245.630002 
L 185.330248 255.381193 
L 188.609587 242.180815 
L 191.888926 230.137577 
L 195.168264 240.913084 
L 198.447603 248.532459 
L 201.726942 248.742935 
L 205.006281 253.793921 
L 208.28562 244.301684 
L 211.564959 235.543203 
L 214.844298 228.152287 
L 218.123636 234.407369 
L 221.402975 238.969503 
L 224.682314 228.450171 
L 227.961653 234.460023 
L 231.240992 225.882458 
L 234.520331 231.587981 
L 237.799669 227.06944 
L 241.079008 217.562482 
L 244.358347 208.544057 
L 247.637686 213.381919 
L 250.917025 205.669194 
L 254.196364 215.975905 
L 257.475702 214.622564 
L 260.755041 208.96954 
L 264.03438 215.345345 
L 267.313719 225.004078 
L 270.593058 243.645401 
L 273.872397 238.492386 
L 277.151736 229.398574 
L 280.431074 231.806349 
L 283.710413 225.767264 
L 286.989752 233.287618 
L 290.269091 246.443731 
L 293.54843 261.061659 
L 296.827769 276.614409 
L 300.107107 262.423777 
L 303.386446 276.919684 
L 306.665785 264.516631 
L 309.945124 253.756058 
L 313.224463 252.481706 
L 316.503802 262.569579 
L 319.78314 268.286848 
L 323.062479 261.327627 
L 326.341818 259.706726 
L 329.621157 246.724868 
L 332.900496 237.51491 
L 336.179835 222.597264 
L 339.459174 222.639329 
L 342.738512 215.61062 
L 346.017851 224.163772 
L 349.29719 236.980569 
L 352.576529 238.530753 
L 355.855868 248.781949 
L 359.135207 254.488875 
L 362.414545 260.759675 
L 365.693884 244.601886 
L 368.973223 250.089702 
L 372.252562 251.726603 
L 375.531901 267.544293 
L 378.81124 276.24059 
L 382.090579 274.5078 
L 385.369917 286.304288 
L 388.649256 284.851349 
L 391.928595 269.331572 
L 395.207934 266.778132 
L 398.487273 268.881933 
" clip-path="url(#p337042ccf5)" style="fill: none; stroke: #ff0000; stroke-width: 1.5; stroke-linecap: square"/>
   </g>
   <g id="patch_3">
    <path d="M 57.6 307.584 
L 57.6 41.472 
" style="fill: none; stroke: #000000; stroke-width: 0.8; stroke-linejoin: miter; stroke-linecap: square"/>
   </g>
   <g id="patch_4">
    <path d="M 414.72 307.584 
L 414.72 41.472 
" style="fill: none; stroke: #000000; stroke-width: 0.8; stroke-linejoin: miter; stroke-linecap: square"/>
   </g>
   <g id="patch_5">
    <path d="M 57.6 307.584 
L 414.72 307.584 
" style="fill: none; stroke: #000000; stroke-width: 0.8; stroke-linejoin: miter; stroke-linecap: square"/>
   </g>
   <g id="patch_6">
    <path d="M 57.6 41.472 
L 414.72 41.472 
" style="fill: none; stroke: #000000; stroke-width: 0.8; stroke-linejoin: miter; stroke-linecap: square"/>
   </g>
   <g id="legend_1">
    <g id="patch_7">
     <path d="M 392.72 67.472 
L 400.72 67.472 
Q 404.72 67.472 404.72 63.472 
L 404.72 55.472 
Q 404.72 51.472 400.72 51.472 
L 392.72 51.472 
Q 388.72 51.472 388.72 55.472 
L 388.72 63.472 
Q 388.72 67.472 392.72 67.472 
z
" style="fill: #ffffff; opacity: 0.8; stroke: #cccccc; stroke-linejoin: miter"/>
    </g>
   </g>
  </g>
 </g>
 <defs>
  <clipPath id="p337042ccf5">
   <rect x="57.6" y="41.472" width="357.12" height="266.112"/>
  </clipPath>
 </defs>
</svg>
