<?xml version="1.0" encoding="utf-8" standalone="no"?>
<!DOCTYPE svg PUBLIC "-//W3C//DTD SVG 1.1//EN"
  "http://www.w3.org/Graphics/SVG/1.1/DTD/svg11.dtd">
<svg xmlns:xlink="http://www.w3.org/1999/xlink" width="460.8pt" height="345.6pt" viewBox="0 0 460.8 345.6" xmlns="http://www.w3.org/2000/svg" version="1.1">
 <metadata>
  <rdf:RDF xmlns:dc="http://purl.org/dc/elements/1.1/" xmlns:cc="http://creativecommons.org/ns#" xmlns:rdf="http://www.w3.org/1999/02/22-rdf-syntax-ns#">
   <cc:Work>
    <dc:type rdf:resource="http://purl.org/dc/dcmitype/StillImage"/>
    <dc:date>2024-05-21T18:18:38.867368</dc:date>
    <dc:format>image/svg+xml</dc:format>
    <dc:creator>
     <cc:Agent>
      <dc:title>Matplotlib v3.7.1, https://matplotlib.org/</dc:title>
     </cc:Agent>
    </dc:creator>
   </cc:Work>
  </rdf:RDF>
 </metadata>
 <defs>
  <style type="text/css">*{stroke-linejoin: round; stroke-linecap: butt}</style>
 </defs>
 <g id="figure_1">
  <g id="patch_1">
   <path d="M 0 345.6 
L 460.8 345.6 
L 460.8 0 
L 0 0 
z
" style="fill: #ffffff"/>
  </g>
  <g id="axes_1">
   <g id="patch_2">
    <path d="M 57.6 307.584 
L 414.72 307.584 
L 414.72 41.472 
L 57.6 41.472 
z
" style="fill: #ffffff"/>
   </g>
   <g id="matplotlib.axis_1">
    <g id="xtick_1">
     <g id="line2d_1">
      <path d="M 73.832727 307.584 
L 73.832727 41.472 
" clip-path="url(#pe31ba382df)" style="fill: none; stroke: #b0b0b0; stroke-width: 0.8; stroke-linecap: square"/>
     </g>
     <g id="line2d_2">
      <defs>
       <path id="m0ee924476a" d="M 0 0 
L 0 3.5 
" style="stroke: #000000; stroke-width: 0.8"/>
      </defs>
      <g>
       <use xlink:href="#m0ee924476a" x="73.832727" y="307.584" style="stroke: #000000; stroke-width: 0.8"/>
      </g>
     </g>
     <g id="text_1">
      <!-- 0 -->
      <g transform="translate(70.651477 322.182437) scale(0.1 -0.1)">
       <defs>
        <path id="DejaVuSans-30" d="M 2034 4250 
Q 1547 4250 1301 3770 
Q 1056 3291 1056 2328 
Q 1056 1369 1301 889 
Q 1547 409 2034 409 
Q 2525 409 2770 889 
Q 3016 1369 3016 2328 
Q 3016 3291 2770 3770 
Q 2525 4250 2034 4250 
z
M 2034 4750 
Q 2819 4750 3233 4129 
Q 3647 3509 3647 2328 
Q 3647 1150 3233 529 
Q 2819 -91 2034 -91 
Q 1250 -91 836 529 
Q 422 1150 422 2328 
Q 422 3509 836 4129 
Q 1250 4750 2034 4750 
z
" transform="scale(0.015625)"/>
       </defs>
       <use xlink:href="#DejaVuSans-30"/>
      </g>
     </g>
    </g>
    <g id="xtick_2">
     <g id="line2d_3">
      <path d="M 139.419504 307.584 
L 139.419504 41.472 
" clip-path="url(#pe31ba382df)" style="fill: none; stroke: #b0b0b0; stroke-width: 0.8; stroke-linecap: square"/>
     </g>
     <g id="line2d_4">
      <g>
       <use xlink:href="#m0ee924476a" x="139.419504" y="307.584" style="stroke: #000000; stroke-width: 0.8"/>
      </g>
     </g>
     <g id="text_2">
      <!-- 20 -->
      <g transform="translate(133.057004 322.182437) scale(0.1 -0.1)">
       <defs>
        <path id="DejaVuSans-32" d="M 1228 531 
L 3431 531 
L 3431 0 
L 469 0 
L 469 531 
Q 828 903 1448 1529 
Q 2069 2156 2228 2338 
Q 2531 2678 2651 2914 
Q 2772 3150 2772 3378 
Q 2772 3750 2511 3984 
Q 2250 4219 1831 4219 
Q 1534 4219 1204 4116 
Q 875 4013 500 3803 
L 500 4441 
Q 881 4594 1212 4672 
Q 1544 4750 1819 4750 
Q 2544 4750 2975 4387 
Q 3406 4025 3406 3419 
Q 3406 3131 3298 2873 
Q 3191 2616 2906 2266 
Q 2828 2175 2409 1742 
Q 1991 1309 1228 531 
z
" transform="scale(0.015625)"/>
       </defs>
       <use xlink:href="#DejaVuSans-32"/>
       <use xlink:href="#DejaVuSans-30" x="63.623047"/>
      </g>
     </g>
    </g>
    <g id="xtick_3">
     <g id="line2d_5">
      <path d="M 205.006281 307.584 
L 205.006281 41.472 
" clip-path="url(#pe31ba382df)" style="fill: none; stroke: #b0b0b0; stroke-width: 0.8; stroke-linecap: square"/>
     </g>
     <g id="line2d_6">
      <g>
       <use xlink:href="#m0ee924476a" x="205.006281" y="307.584" style="stroke: #000000; stroke-width: 0.8"/>
      </g>
     </g>
     <g id="text_3">
      <!-- 40 -->
      <g transform="translate(198.643781 322.182437) scale(0.1 -0.1)">
       <defs>
        <path id="DejaVuSans-34" d="M 2419 4116 
L 825 1625 
L 2419 1625 
L 2419 4116 
z
M 2253 4666 
L 3047 4666 
L 3047 1625 
L 3713 1625 
L 3713 1100 
L 3047 1100 
L 3047 0 
L 2419 0 
L 2419 1100 
L 313 1100 
L 313 1709 
L 2253 4666 
z
" transform="scale(0.015625)"/>
       </defs>
       <use xlink:href="#DejaVuSans-34"/>
       <use xlink:href="#DejaVuSans-30" x="63.623047"/>
      </g>
     </g>
    </g>
    <g id="xtick_4">
     <g id="line2d_7">
      <path d="M 270.593058 307.584 
L 270.593058 41.472 
" clip-path="url(#pe31ba382df)" style="fill: none; stroke: #b0b0b0; stroke-width: 0.8; stroke-linecap: square"/>
     </g>
     <g id="line2d_8">
      <g>
       <use xlink:href="#m0ee924476a" x="270.593058" y="307.584" style="stroke: #000000; stroke-width: 0.8"/>
      </g>
     </g>
     <g id="text_4">
      <!-- 60 -->
      <g transform="translate(264.230558 322.182437) scale(0.1 -0.1)">
       <defs>
        <path id="DejaVuSans-36" d="M 2113 2584 
Q 1688 2584 1439 2293 
Q 1191 2003 1191 1497 
Q 1191 994 1439 701 
Q 1688 409 2113 409 
Q 2538 409 2786 701 
Q 3034 994 3034 1497 
Q 3034 2003 2786 2293 
Q 2538 2584 2113 2584 
z
M 3366 4563 
L 3366 3988 
Q 3128 4100 2886 4159 
Q 2644 4219 2406 4219 
Q 1781 4219 1451 3797 
Q 1122 3375 1075 2522 
Q 1259 2794 1537 2939 
Q 1816 3084 2150 3084 
Q 2853 3084 3261 2657 
Q 3669 2231 3669 1497 
Q 3669 778 3244 343 
Q 2819 -91 2113 -91 
Q 1303 -91 875 529 
Q 447 1150 447 2328 
Q 447 3434 972 4092 
Q 1497 4750 2381 4750 
Q 2619 4750 2861 4703 
Q 3103 4656 3366 4563 
z
" transform="scale(0.015625)"/>
       </defs>
       <use xlink:href="#DejaVuSans-36"/>
       <use xlink:href="#DejaVuSans-30" x="63.623047"/>
      </g>
     </g>
    </g>
    <g id="xtick_5">
     <g id="line2d_9">
      <path d="M 336.179835 307.584 
L 336.179835 41.472 
" clip-path="url(#pe31ba382df)" style="fill: none; stroke: #b0b0b0; stroke-width: 0.8; stroke-linecap: square"/>
     </g>
     <g id="line2d_10">
      <g>
       <use xlink:href="#m0ee924476a" x="336.179835" y="307.584" style="stroke: #000000; stroke-width: 0.8"/>
      </g>
     </g>
     <g id="text_5">
      <!-- 80 -->
      <g transform="translate(329.817335 322.182437) scale(0.1 -0.1)">
       <defs>
        <path id="DejaVuSans-38" d="M 2034 2216 
Q 1584 2216 1326 1975 
Q 1069 1734 1069 1313 
Q 1069 891 1326 650 
Q 1584 409 2034 409 
Q 2484 409 2743 651 
Q 3003 894 3003 1313 
Q 3003 1734 2745 1975 
Q 2488 2216 2034 2216 
z
M 1403 2484 
Q 997 2584 770 2862 
Q 544 3141 544 3541 
Q 544 4100 942 4425 
Q 1341 4750 2034 4750 
Q 2731 4750 3128 4425 
Q 3525 4100 3525 3541 
Q 3525 3141 3298 2862 
Q 3072 2584 2669 2484 
Q 3125 2378 3379 2068 
Q 3634 1759 3634 1313 
Q 3634 634 3220 271 
Q 2806 -91 2034 -91 
Q 1263 -91 848 271 
Q 434 634 434 1313 
Q 434 1759 690 2068 
Q 947 2378 1403 2484 
z
M 1172 3481 
Q 1172 3119 1398 2916 
Q 1625 2713 2034 2713 
Q 2441 2713 2670 2916 
Q 2900 3119 2900 3481 
Q 2900 3844 2670 4047 
Q 2441 4250 2034 4250 
Q 1625 4250 1398 4047 
Q 1172 3844 1172 3481 
z
" transform="scale(0.015625)"/>
       </defs>
       <use xlink:href="#DejaVuSans-38"/>
       <use xlink:href="#DejaVuSans-30" x="63.623047"/>
      </g>
     </g>
    </g>
    <g id="xtick_6">
     <g id="line2d_11">
      <path d="M 401.766612 307.584 
L 401.766612 41.472 
" clip-path="url(#pe31ba382df)" style="fill: none; stroke: #b0b0b0; stroke-width: 0.8; stroke-linecap: square"/>
     </g>
     <g id="line2d_12">
      <g>
       <use xlink:href="#m0ee924476a" x="401.766612" y="307.584" style="stroke: #000000; stroke-width: 0.8"/>
      </g>
     </g>
     <g id="text_6">
      <!-- 100 -->
      <g transform="translate(392.222862 322.182437) scale(0.1 -0.1)">
       <defs>
        <path id="DejaVuSans-31" d="M 794 531 
L 1825 531 
L 1825 4091 
L 703 3866 
L 703 4441 
L 1819 4666 
L 2450 4666 
L 2450 531 
L 3481 531 
L 3481 0 
L 794 0 
L 794 531 
z
" transform="scale(0.015625)"/>
       </defs>
       <use xlink:href="#DejaVuSans-31"/>
       <use xlink:href="#DejaVuSans-30" x="63.623047"/>
       <use xlink:href="#DejaVuSans-30" x="127.246094"/>
      </g>
     </g>
    </g>
    <g id="text_7">
     <!-- T -->
     <g transform="translate(233.106094 335.860562) scale(0.1 -0.1)">
      <defs>
       <path id="DejaVuSans-54" d="M -19 4666 
L 3928 4666 
L 3928 4134 
L 2272 4134 
L 2272 0 
L 1638 0 
L 1638 4134 
L -19 4134 
L -19 4666 
z
" transform="scale(0.015625)"/>
      </defs>
      <use xlink:href="#DejaVuSans-54"/>
     </g>
    </g>
   </g>
   <g id="matplotlib.axis_2">
    <g id="ytick_1">
     <g id="line2d_13">
      <path d="M 57.6 266.927203 
L 414.72 266.927203 
" clip-path="url(#pe31ba382df)" style="fill: none; stroke: #b0b0b0; stroke-width: 0.8; stroke-linecap: square"/>
     </g>
     <g id="line2d_14">
      <defs>
       <path id="mb7300d132d" d="M 0 0 
L -3.5 0 
" style="stroke: #000000; stroke-width: 0.8"/>
      </defs>
      <g>
       <use xlink:href="#mb7300d132d" x="57.6" y="266.927203" style="stroke: #000000; stroke-width: 0.8"/>
      </g>
     </g>
     <g id="text_8">
      <!-- 0 -->
      <g transform="translate(44.2375 270.726421) scale(0.1 -0.1)">
       <use xlink:href="#DejaVuSans-30"/>
      </g>
     </g>
    </g>
    <g id="ytick_2">
     <g id="line2d_15">
      <path d="M 57.6 219.514047 
L 414.72 219.514047 
" clip-path="url(#pe31ba382df)" style="fill: none; stroke: #b0b0b0; stroke-width: 0.8; stroke-linecap: square"/>
     </g>
     <g id="line2d_16">
      <g>
       <use xlink:href="#mb7300d132d" x="57.6" y="219.514047" style="stroke: #000000; stroke-width: 0.8"/>
      </g>
     </g>
     <g id="text_9">
      <!-- 2 -->
      <g transform="translate(44.2375 223.313265) scale(0.1 -0.1)">
       <use xlink:href="#DejaVuSans-32"/>
      </g>
     </g>
    </g>
    <g id="ytick_3">
     <g id="line2d_17">
      <path d="M 57.6 172.10089 
L 414.72 172.10089 
" clip-path="url(#pe31ba382df)" style="fill: none; stroke: #b0b0b0; stroke-width: 0.8; stroke-linecap: square"/>
     </g>
     <g id="line2d_18">
      <g>
       <use xlink:href="#mb7300d132d" x="57.6" y="172.10089" style="stroke: #000000; stroke-width: 0.8"/>
      </g>
     </g>
     <g id="text_10">
      <!-- 4 -->
      <g transform="translate(44.2375 175.900109) scale(0.1 -0.1)">
       <use xlink:href="#DejaVuSans-34"/>
      </g>
     </g>
    </g>
    <g id="ytick_4">
     <g id="line2d_19">
      <path d="M 57.6 124.687734 
L 414.72 124.687734 
" clip-path="url(#pe31ba382df)" style="fill: none; stroke: #b0b0b0; stroke-width: 0.8; stroke-linecap: square"/>
     </g>
     <g id="line2d_20">
      <g>
       <use xlink:href="#mb7300d132d" x="57.6" y="124.687734" style="stroke: #000000; stroke-width: 0.8"/>
      </g>
     </g>
     <g id="text_11">
      <!-- 6 -->
      <g transform="translate(44.2375 128.486953) scale(0.1 -0.1)">
       <use xlink:href="#DejaVuSans-36"/>
      </g>
     </g>
    </g>
    <g id="ytick_5">
     <g id="line2d_21">
      <path d="M 57.6 77.274578 
L 414.72 77.274578 
" clip-path="url(#pe31ba382df)" style="fill: none; stroke: #b0b0b0; stroke-width: 0.8; stroke-linecap: square"/>
     </g>
     <g id="line2d_22">
      <g>
       <use xlink:href="#mb7300d132d" x="57.6" y="77.274578" style="stroke: #000000; stroke-width: 0.8"/>
      </g>
     </g>
     <g id="text_12">
      <!-- 8 -->
      <g transform="translate(44.2375 81.073797) scale(0.1 -0.1)">
       <use xlink:href="#DejaVuSans-38"/>
      </g>
     </g>
    </g>
    <g id="text_13">
     <!-- X -->
     <g transform="translate(38.157812 177.953) rotate(-90) scale(0.1 -0.1)">
      <defs>
       <path id="DejaVuSans-58" d="M 403 4666 
L 1081 4666 
L 2241 2931 
L 3406 4666 
L 4084 4666 
L 2584 2425 
L 4184 0 
L 3506 0 
L 2194 1984 
L 872 0 
L 191 0 
L 1856 2491 
L 403 4666 
z
" transform="scale(0.015625)"/>
      </defs>
      <use xlink:href="#DejaVuSans-58"/>
     </g>
    </g>
   </g>
   <g id="line2d_23">
    <path d="M 73.832727 53.568 
L 77.112066 82.08187 
L 80.391405 119.121062 
L 83.670744 138.624759 
L 86.950083 142.805862 
L 90.229421 144.611541 
L 93.50876 149.769371 
L 96.788099 155.511061 
L 100.067438 161.63308 
L 103.346777 167.872097 
L 106.626116 176.942388 
L 109.905455 185.406825 
L 113.184793 194.700042 
L 116.464132 203.417329 
L 119.743471 210.701971 
L 123.02281 217.163111 
L 126.302149 222.555692 
L 129.581488 229.107317 
L 132.860826 234.865342 
L 136.140165 239.736311 
L 139.419504 245.26159 
L 142.698843 249.73594 
L 145.978182 253.287413 
L 149.257521 256.961622 
L 152.53686 259.794188 
L 155.816198 262.224583 
L 159.095537 263.800922 
L 162.374876 264.139705 
L 165.654215 264.609597 
L 168.933554 265.494168 
L 172.212893 265.983698 
L 175.492231 265.182402 
L 178.77157 265.738353 
L 182.050909 266.654831 
L 185.330248 267.121632 
L 188.609587 266.807915 
L 191.888926 267.914152 
L 195.168264 269.066812 
L 198.447603 269.709218 
L 201.726942 270.493723 
L 205.006281 269.735291 
L 208.28562 269.013159 
L 211.564959 269.892648 
L 214.844298 268.505161 
L 218.123636 267.952943 
L 221.402975 266.872103 
L 224.682314 266.887026 
L 227.961653 266.002782 
L 231.240992 266.377979 
L 234.520331 265.722936 
L 237.799669 264.707686 
L 241.079008 265.304227 
L 244.358347 266.274643 
L 247.637686 265.609191 
L 250.917025 265.117733 
L 254.196364 265.507504 
L 257.475702 266.738376 
L 260.755041 267.047785 
L 264.03438 267.435582 
L 267.313719 266.443575 
L 270.593058 266.294902 
L 273.872397 266.158859 
L 277.151736 266.062376 
L 280.431074 266.825584 
L 283.710413 266.460604 
L 286.989752 267.186135 
L 290.269091 267.355092 
L 293.54843 267.279045 
L 296.827769 266.717258 
L 300.107107 265.736089 
L 303.386446 265.557623 
L 306.665785 264.657555 
L 309.945124 264.103976 
L 313.224463 264.836871 
L 316.503802 265.128056 
L 319.78314 265.405324 
L 323.062479 264.664358 
L 326.341818 265.526671 
L 329.621157 265.650612 
L 332.900496 266.922329 
L 336.179835 267.888594 
L 339.459174 266.784315 
L 342.738512 266.540268 
L 346.017851 266.363414 
L 349.29719 265.447963 
L 352.576529 265.222465 
L 355.855868 265.419528 
L 359.135207 265.146934 
L 362.414545 264.578257 
L 365.693884 265.762149 
L 368.973223 266.648288 
L 372.252562 266.921516 
L 375.531901 267.072904 
L 378.81124 268.193633 
L 382.090579 268.009901 
L 385.369917 267.687569 
L 388.649256 267.949235 
L 391.928595 268.056689 
L 395.207934 269.0903 
L 398.487273 268.056379 
" clip-path="url(#pe31ba382df)" style="fill: none; stroke: #0000ff; stroke-width: 1.5; stroke-linecap: square"/>
   </g>
   <g id="line2d_24">
    <path d="M 73.832727 53.568 
L 77.112066 82.08187 
L 80.391405 119.121062 
L 83.670744 141.476146 
L 86.950083 144.570485 
L 90.229421 147.942509 
L 93.50876 152.465326 
L 96.788099 158.152986 
L 100.067438 164.137694 
L 103.346777 170.871935 
L 106.626116 179.875587 
L 109.905455 188.815267 
L 113.184793 197.884868 
L 116.464132 207.262863 
L 119.743471 214.478325 
L 123.02281 221.866129 
L 126.302149 227.321432 
L 129.581488 234.549161 
L 132.860826 240.092682 
L 136.140165 245.19591 
L 139.419504 250.041402 
L 142.698843 254.185463 
L 145.978182 256.899777 
L 149.257521 260.229282 
L 152.53686 262.406029 
L 155.816198 264.605846 
L 159.095537 266.280378 
L 162.374876 266.215248 
L 165.654215 266.474365 
L 168.933554 267.197564 
L 172.212893 267.586437 
L 175.492231 266.78597 
L 178.77157 267.10252 
L 182.050909 267.715251 
L 185.330248 267.958607 
L 188.609587 267.51019 
L 191.888926 268.535447 
L 195.168264 269.584275 
L 198.447603 270.159145 
L 201.726942 270.992446 
L 205.006281 270.350376 
L 208.28562 269.573103 
L 211.564959 270.319396 
L 214.844298 268.728344 
L 218.123636 268.061862 
L 221.402975 266.956812 
L 224.682314 266.891772 
L 227.961653 265.998061 
L 231.240992 266.364927 
L 234.520331 265.613552 
L 237.799669 264.599424 
L 241.079008 265.130887 
L 244.358347 266.112455 
L 247.637686 265.517352 
L 250.917025 265.041567 
L 254.196364 265.380578 
L 257.475702 266.619099 
L 260.755041 266.975934 
L 264.03438 267.375953 
L 267.313719 266.42704 
L 270.593058 266.284152 
L 273.872397 266.149611 
L 277.151736 266.054071 
L 280.431074 266.804637 
L 283.710413 266.440523 
L 286.989752 267.168231 
L 290.269091 267.302929 
L 293.54843 267.228922 
L 296.827769 266.672476 
L 300.107107 265.69622 
L 303.386446 265.5223 
L 306.665785 264.626341 
L 309.945124 264.059048 
L 313.224463 264.795387 
L 316.503802 265.034483 
L 319.78314 265.31656 
L 323.062479 264.609589 
L 326.341818 265.481342 
L 329.621157 265.540727 
L 332.900496 266.818759 
L 336.179835 267.803442 
L 339.459174 266.710808 
L 342.738512 266.476256 
L 346.017851 266.307649 
L 349.29719 265.375675 
L 352.576529 265.156297 
L 355.855868 265.361031 
L 359.135207 265.073318 
L 362.414545 264.510422 
L 365.693884 265.701625 
L 368.973223 266.538331 
L 372.252562 266.817798 
L 375.531901 266.98077 
L 378.81124 268.112728 
L 382.090579 267.938951 
L 385.369917 267.62562 
L 388.649256 267.895084 
L 391.928595 267.978044 
L 395.207934 269.013601 
L 398.487273 267.992486 
" clip-path="url(#pe31ba382df)" style="fill: none; stroke-dasharray: 5.55,2.4; stroke-dashoffset: 0; stroke: #000000; stroke-width: 1.5"/>
   </g>
   <g id="line2d_25">
    <path d="M 73.832727 53.568 
L 77.112066 78.374881 
L 80.391405 111.532059 
L 83.670744 135.180104 
L 86.950083 143.404345 
L 90.229421 149.36128 
L 93.50876 158.519477 
L 96.788099 168.997517 
L 100.067438 181.459957 
L 103.346777 195.817248 
L 106.626116 214.603299 
L 109.905455 234.398001 
L 113.184793 256.118456 
L 116.464132 259.930272 
L 119.743471 262.459145 
L 123.02281 264.336945 
L 126.302149 265.226588 
L 129.581488 267.301914 
L 132.860826 268.431663 
L 136.140165 268.926323 
L 139.419504 270.573928 
L 142.698843 271.707405 
L 145.978182 272.74309 
L 149.257521 274.706839 
L 152.53686 276.406451 
L 155.816198 278.235525 
L 159.095537 279.70181 
L 162.374876 280.339105 
L 165.654215 281.292186 
L 168.933554 282.652279 
L 172.212893 283.61944 
L 175.492231 283.369741 
L 178.77157 284.556866 
L 182.050909 285.994011 
L 185.330248 287.115434 
L 188.609587 287.483824 
L 191.888926 289.315744 
L 195.168264 291.168302 
L 198.447603 292.615597 
L 201.726942 294.151853 
L 205.006281 294.188393 
L 208.28562 294.164832 
L 211.564959 295.488 
L 214.844298 294.293463 
L 218.123636 293.867134 
L 221.402975 292.80081 
L 224.682314 292.720675 
L 227.961653 291.591856 
L 231.240992 291.761498 
L 234.520331 290.900852 
L 237.799669 289.708938 
L 241.079008 290.174565 
L 244.358347 290.865245 
L 247.637686 290.071608 
L 250.917025 289.588646 
L 254.196364 289.889459 
L 257.475702 290.975291 
L 260.755041 291.051783 
L 264.03438 291.371484 
L 267.313719 290.343128 
L 270.593058 290.272872 
L 273.872397 290.044699 
L 277.151736 289.802935 
L 280.431074 290.386194 
L 283.710413 289.891557 
L 286.989752 290.511936 
L 290.269091 290.498173 
L 293.54843 290.42981 
L 296.827769 289.938008 
L 300.107107 289.122069 
L 303.386446 288.992532 
L 306.665785 288.02638 
L 309.945124 287.40797 
L 313.224463 288.007995 
L 316.503802 288.208282 
L 319.78314 288.418888 
L 323.062479 287.628478 
L 326.341818 288.482407 
L 329.621157 288.421256 
L 332.900496 289.560901 
L 336.179835 290.408527 
L 339.459174 289.258347 
L 342.738512 289.132485 
L 346.017851 288.954664 
L 349.29719 288.114648 
L 352.576529 288.026101 
L 355.855868 288.307707 
L 359.135207 288.167432 
L 362.414545 287.852064 
L 365.693884 289.29492 
L 368.973223 290.283477 
L 372.252562 290.696436 
L 375.531901 290.959075 
L 378.81124 292.112344 
L 382.090579 291.906034 
L 385.369917 291.574048 
L 388.649256 291.824553 
L 391.928595 291.843792 
L 395.207934 292.796872 
L 398.487273 291.59855 
" clip-path="url(#pe31ba382df)" style="fill: none; stroke: #ff0000; stroke-width: 1.5; stroke-linecap: square"/>
   </g>
   <g id="patch_3">
    <path d="M 57.6 307.584 
L 57.6 41.472 
" style="fill: none; stroke: #000000; stroke-width: 0.8; stroke-linejoin: miter; stroke-linecap: square"/>
   </g>
   <g id="patch_4">
    <path d="M 414.72 307.584 
L 414.72 41.472 
" style="fill: none; stroke: #000000; stroke-width: 0.8; stroke-linejoin: miter; stroke-linecap: square"/>
   </g>
   <g id="patch_5">
    <path d="M 57.6 307.584 
L 414.72 307.584 
" style="fill: none; stroke: #000000; stroke-width: 0.8; stroke-linejoin: miter; stroke-linecap: square"/>
   </g>
   <g id="patch_6">
    <path d="M 57.6 41.472 
L 414.72 41.472 
" style="fill: none; stroke: #000000; stroke-width: 0.8; stroke-linejoin: miter; stroke-linecap: square"/>
   </g>
   <g id="legend_1">
    <g id="patch_7">
     <path d="M 392.72 67.472 
L 400.72 67.472 
Q 404.72 67.472 404.72 63.472 
L 404.72 55.472 
Q 404.72 51.472 400.72 51.472 
L 392.72 51.472 
Q 388.72 51.472 388.72 55.472 
L 388.72 63.472 
Q 388.72 67.472 392.72 67.472 
z
" style="fill: #ffffff; opacity: 0.8; stroke: #cccccc; stroke-linejoin: miter"/>
    </g>
   </g>
  </g>
 </g>
 <defs>
  <clipPath id="pe31ba382df">
   <rect x="57.6" y="41.472" width="357.12" height="266.112"/>
  </clipPath>
 </defs>
</svg>
