<?xml version="1.0" encoding="utf-8" standalone="no"?>
<!DOCTYPE svg PUBLIC "-//W3C//DTD SVG 1.1//EN"
  "http://www.w3.org/Graphics/SVG/1.1/DTD/svg11.dtd">
<svg xmlns:xlink="http://www.w3.org/1999/xlink" width="460.8pt" height="345.6pt" viewBox="0 0 460.8 345.6" xmlns="http://www.w3.org/2000/svg" version="1.1">
 <metadata>
  <rdf:RDF xmlns:dc="http://purl.org/dc/elements/1.1/" xmlns:cc="http://creativecommons.org/ns#" xmlns:rdf="http://www.w3.org/1999/02/22-rdf-syntax-ns#">
   <cc:Work>
    <dc:type rdf:resource="http://purl.org/dc/dcmitype/StillImage"/>
    <dc:date>2024-05-21T18:18:38.767249</dc:date>
    <dc:format>image/svg+xml</dc:format>
    <dc:creator>
     <cc:Agent>
      <dc:title>Matplotlib v3.7.1, https://matplotlib.org/</dc:title>
     </cc:Agent>
    </dc:creator>
   </cc:Work>
  </rdf:RDF>
 </metadata>
 <defs>
  <style type="text/css">*{stroke-linejoin: round; stroke-linecap: butt}</style>
 </defs>
 <g id="figure_1">
  <g id="patch_1">
   <path d="M 0 345.6 
L 460.8 345.6 
L 460.8 0 
L 0 0 
z
" style="fill: #ffffff"/>
  </g>
  <g id="axes_1">
   <g id="patch_2">
    <path d="M 57.6 307.584 
L 414.72 307.584 
L 414.72 41.472 
L 57.6 41.472 
z
" style="fill: #ffffff"/>
   </g>
   <g id="matplotlib.axis_1">
    <g id="xtick_1">
     <g id="line2d_1">
      <path d="M 73.832727 307.584 
L 73.832727 41.472 
" clip-path="url(#p3d315ceed8)" style="fill: none; stroke: #b0b0b0; stroke-width: 0.8; stroke-linecap: square"/>
     </g>
     <g id="line2d_2">
      <defs>
       <path id="m8df9ff5521" d="M 0 0 
L 0 3.5 
" style="stroke: #000000; stroke-width: 0.8"/>
      </defs>
      <g>
       <use xlink:href="#m8df9ff5521" x="73.832727" y="307.584" style="stroke: #000000; stroke-width: 0.8"/>
      </g>
     </g>
     <g id="text_1">
      <!-- 0 -->
      <g transform="translate(70.651477 322.182437) scale(0.1 -0.1)">
       <defs>
        <path id="DejaVuSans-30" d="M 2034 4250 
Q 1547 4250 1301 3770 
Q 1056 3291 1056 2328 
Q 1056 1369 1301 889 
Q 1547 409 2034 409 
Q 2525 409 2770 889 
Q 3016 1369 3016 2328 
Q 3016 3291 2770 3770 
Q 2525 4250 2034 4250 
z
M 2034 4750 
Q 2819 4750 3233 4129 
Q 3647 3509 3647 2328 
Q 3647 1150 3233 529 
Q 2819 -91 2034 -91 
Q 1250 -91 836 529 
Q 422 1150 422 2328 
Q 422 3509 836 4129 
Q 1250 4750 2034 4750 
z
" transform="scale(0.015625)"/>
       </defs>
       <use xlink:href="#DejaVuSans-30"/>
      </g>
     </g>
    </g>
    <g id="xtick_2">
     <g id="line2d_3">
      <path d="M 139.419504 307.584 
L 139.419504 41.472 
" clip-path="url(#p3d315ceed8)" style="fill: none; stroke: #b0b0b0; stroke-width: 0.8; stroke-linecap: square"/>
     </g>
     <g id="line2d_4">
      <g>
       <use xlink:href="#m8df9ff5521" x="139.419504" y="307.584" style="stroke: #000000; stroke-width: 0.8"/>
      </g>
     </g>
     <g id="text_2">
      <!-- 20 -->
      <g transform="translate(133.057004 322.182437) scale(0.1 -0.1)">
       <defs>
        <path id="DejaVuSans-32" d="M 1228 531 
L 3431 531 
L 3431 0 
L 469 0 
L 469 531 
Q 828 903 1448 1529 
Q 2069 2156 2228 2338 
Q 2531 2678 2651 2914 
Q 2772 3150 2772 3378 
Q 2772 3750 2511 3984 
Q 2250 4219 1831 4219 
Q 1534 4219 1204 4116 
Q 875 4013 500 3803 
L 500 4441 
Q 881 4594 1212 4672 
Q 1544 4750 1819 4750 
Q 2544 4750 2975 4387 
Q 3406 4025 3406 3419 
Q 3406 3131 3298 2873 
Q 3191 2616 2906 2266 
Q 2828 2175 2409 1742 
Q 1991 1309 1228 531 
z
" transform="scale(0.015625)"/>
       </defs>
       <use xlink:href="#DejaVuSans-32"/>
       <use xlink:href="#DejaVuSans-30" x="63.623047"/>
      </g>
     </g>
    </g>
    <g id="xtick_3">
     <g id="line2d_5">
      <path d="M 205.006281 307.584 
L 205.006281 41.472 
" clip-path="url(#p3d315ceed8)" style="fill: none; stroke: #b0b0b0; stroke-width: 0.8; stroke-linecap: square"/>
     </g>
     <g id="line2d_6">
      <g>
       <use xlink:href="#m8df9ff5521" x="205.006281" y="307.584" style="stroke: #000000; stroke-width: 0.8"/>
      </g>
     </g>
     <g id="text_3">
      <!-- 40 -->
      <g transform="translate(198.643781 322.182437) scale(0.1 -0.1)">
       <defs>
        <path id="DejaVuSans-34" d="M 2419 4116 
L 825 1625 
L 2419 1625 
L 2419 4116 
z
M 2253 4666 
L 3047 4666 
L 3047 1625 
L 3713 1625 
L 3713 1100 
L 3047 1100 
L 3047 0 
L 2419 0 
L 2419 1100 
L 313 1100 
L 313 1709 
L 2253 4666 
z
" transform="scale(0.015625)"/>
       </defs>
       <use xlink:href="#DejaVuSans-34"/>
       <use xlink:href="#DejaVuSans-30" x="63.623047"/>
      </g>
     </g>
    </g>
    <g id="xtick_4">
     <g id="line2d_7">
      <path d="M 270.593058 307.584 
L 270.593058 41.472 
" clip-path="url(#p3d315ceed8)" style="fill: none; stroke: #b0b0b0; stroke-width: 0.8; stroke-linecap: square"/>
     </g>
     <g id="line2d_8">
      <g>
       <use xlink:href="#m8df9ff5521" x="270.593058" y="307.584" style="stroke: #000000; stroke-width: 0.8"/>
      </g>
     </g>
     <g id="text_4">
      <!-- 60 -->
      <g transform="translate(264.230558 322.182437) scale(0.1 -0.1)">
       <defs>
        <path id="DejaVuSans-36" d="M 2113 2584 
Q 1688 2584 1439 2293 
Q 1191 2003 1191 1497 
Q 1191 994 1439 701 
Q 1688 409 2113 409 
Q 2538 409 2786 701 
Q 3034 994 3034 1497 
Q 3034 2003 2786 2293 
Q 2538 2584 2113 2584 
z
M 3366 4563 
L 3366 3988 
Q 3128 4100 2886 4159 
Q 2644 4219 2406 4219 
Q 1781 4219 1451 3797 
Q 1122 3375 1075 2522 
Q 1259 2794 1537 2939 
Q 1816 3084 2150 3084 
Q 2853 3084 3261 2657 
Q 3669 2231 3669 1497 
Q 3669 778 3244 343 
Q 2819 -91 2113 -91 
Q 1303 -91 875 529 
Q 447 1150 447 2328 
Q 447 3434 972 4092 
Q 1497 4750 2381 4750 
Q 2619 4750 2861 4703 
Q 3103 4656 3366 4563 
z
" transform="scale(0.015625)"/>
       </defs>
       <use xlink:href="#DejaVuSans-36"/>
       <use xlink:href="#DejaVuSans-30" x="63.623047"/>
      </g>
     </g>
    </g>
    <g id="xtick_5">
     <g id="line2d_9">
      <path d="M 336.179835 307.584 
L 336.179835 41.472 
" clip-path="url(#p3d315ceed8)" style="fill: none; stroke: #b0b0b0; stroke-width: 0.8; stroke-linecap: square"/>
     </g>
     <g id="line2d_10">
      <g>
       <use xlink:href="#m8df9ff5521" x="336.179835" y="307.584" style="stroke: #000000; stroke-width: 0.8"/>
      </g>
     </g>
     <g id="text_5">
      <!-- 80 -->
      <g transform="translate(329.817335 322.182437) scale(0.1 -0.1)">
       <defs>
        <path id="DejaVuSans-38" d="M 2034 2216 
Q 1584 2216 1326 1975 
Q 1069 1734 1069 1313 
Q 1069 891 1326 650 
Q 1584 409 2034 409 
Q 2484 409 2743 651 
Q 3003 894 3003 1313 
Q 3003 1734 2745 1975 
Q 2488 2216 2034 2216 
z
M 1403 2484 
Q 997 2584 770 2862 
Q 544 3141 544 3541 
Q 544 4100 942 4425 
Q 1341 4750 2034 4750 
Q 2731 4750 3128 4425 
Q 3525 4100 3525 3541 
Q 3525 3141 3298 2862 
Q 3072 2584 2669 2484 
Q 3125 2378 3379 2068 
Q 3634 1759 3634 1313 
Q 3634 634 3220 271 
Q 2806 -91 2034 -91 
Q 1263 -91 848 271 
Q 434 634 434 1313 
Q 434 1759 690 2068 
Q 947 2378 1403 2484 
z
M 1172 3481 
Q 1172 3119 1398 2916 
Q 1625 2713 2034 2713 
Q 2441 2713 2670 2916 
Q 2900 3119 2900 3481 
Q 2900 3844 2670 4047 
Q 2441 4250 2034 4250 
Q 1625 4250 1398 4047 
Q 1172 3844 1172 3481 
z
" transform="scale(0.015625)"/>
       </defs>
       <use xlink:href="#DejaVuSans-38"/>
       <use xlink:href="#DejaVuSans-30" x="63.623047"/>
      </g>
     </g>
    </g>
    <g id="xtick_6">
     <g id="line2d_11">
      <path d="M 401.766612 307.584 
L 401.766612 41.472 
" clip-path="url(#p3d315ceed8)" style="fill: none; stroke: #b0b0b0; stroke-width: 0.8; stroke-linecap: square"/>
     </g>
     <g id="line2d_12">
      <g>
       <use xlink:href="#m8df9ff5521" x="401.766612" y="307.584" style="stroke: #000000; stroke-width: 0.8"/>
      </g>
     </g>
     <g id="text_6">
      <!-- 100 -->
      <g transform="translate(392.222862 322.182437) scale(0.1 -0.1)">
       <defs>
        <path id="DejaVuSans-31" d="M 794 531 
L 1825 531 
L 1825 4091 
L 703 3866 
L 703 4441 
L 1819 4666 
L 2450 4666 
L 2450 531 
L 3481 531 
L 3481 0 
L 794 0 
L 794 531 
z
" transform="scale(0.015625)"/>
       </defs>
       <use xlink:href="#DejaVuSans-31"/>
       <use xlink:href="#DejaVuSans-30" x="63.623047"/>
       <use xlink:href="#DejaVuSans-30" x="127.246094"/>
      </g>
     </g>
    </g>
    <g id="text_7">
     <!-- T -->
     <g transform="translate(233.106094 335.860562) scale(0.1 -0.1)">
      <defs>
       <path id="DejaVuSans-54" d="M -19 4666 
L 3928 4666 
L 3928 4134 
L 2272 4134 
L 2272 0 
L 1638 0 
L 1638 4134 
L -19 4134 
L -19 4666 
z
" transform="scale(0.015625)"/>
      </defs>
      <use xlink:href="#DejaVuSans-54"/>
     </g>
    </g>
   </g>
   <g id="matplotlib.axis_2">
    <g id="ytick_1">
     <g id="line2d_13">
      <path d="M 57.6 294.436218 
L 414.72 294.436218 
" clip-path="url(#p3d315ceed8)" style="fill: none; stroke: #b0b0b0; stroke-width: 0.8; stroke-linecap: square"/>
     </g>
     <g id="line2d_14">
      <defs>
       <path id="mbcbfad6f83" d="M 0 0 
L -3.5 0 
" style="stroke: #000000; stroke-width: 0.8"/>
      </defs>
      <g>
       <use xlink:href="#mbcbfad6f83" x="57.6" y="294.436218" style="stroke: #000000; stroke-width: 0.8"/>
      </g>
     </g>
     <g id="text_8">
      <!-- 0 -->
      <g transform="translate(44.2375 298.235436) scale(0.1 -0.1)">
       <use xlink:href="#DejaVuSans-30"/>
      </g>
     </g>
    </g>
    <g id="ytick_2">
     <g id="line2d_15">
      <path d="M 57.6 260.026472 
L 414.72 260.026472 
" clip-path="url(#p3d315ceed8)" style="fill: none; stroke: #b0b0b0; stroke-width: 0.8; stroke-linecap: square"/>
     </g>
     <g id="line2d_16">
      <g>
       <use xlink:href="#mbcbfad6f83" x="57.6" y="260.026472" style="stroke: #000000; stroke-width: 0.8"/>
      </g>
     </g>
     <g id="text_9">
      <!-- 1 -->
      <g transform="translate(44.2375 263.825691) scale(0.1 -0.1)">
       <use xlink:href="#DejaVuSans-31"/>
      </g>
     </g>
    </g>
    <g id="ytick_3">
     <g id="line2d_17">
      <path d="M 57.6 225.616727 
L 414.72 225.616727 
" clip-path="url(#p3d315ceed8)" style="fill: none; stroke: #b0b0b0; stroke-width: 0.8; stroke-linecap: square"/>
     </g>
     <g id="line2d_18">
      <g>
       <use xlink:href="#mbcbfad6f83" x="57.6" y="225.616727" style="stroke: #000000; stroke-width: 0.8"/>
      </g>
     </g>
     <g id="text_10">
      <!-- 2 -->
      <g transform="translate(44.2375 229.415946) scale(0.1 -0.1)">
       <use xlink:href="#DejaVuSans-32"/>
      </g>
     </g>
    </g>
    <g id="ytick_4">
     <g id="line2d_19">
      <path d="M 57.6 191.206981 
L 414.72 191.206981 
" clip-path="url(#p3d315ceed8)" style="fill: none; stroke: #b0b0b0; stroke-width: 0.8; stroke-linecap: square"/>
     </g>
     <g id="line2d_20">
      <g>
       <use xlink:href="#mbcbfad6f83" x="57.6" y="191.206981" style="stroke: #000000; stroke-width: 0.8"/>
      </g>
     </g>
     <g id="text_11">
      <!-- 3 -->
      <g transform="translate(44.2375 195.0062) scale(0.1 -0.1)">
       <defs>
        <path id="DejaVuSans-33" d="M 2597 2516 
Q 3050 2419 3304 2112 
Q 3559 1806 3559 1356 
Q 3559 666 3084 287 
Q 2609 -91 1734 -91 
Q 1441 -91 1130 -33 
Q 819 25 488 141 
L 488 750 
Q 750 597 1062 519 
Q 1375 441 1716 441 
Q 2309 441 2620 675 
Q 2931 909 2931 1356 
Q 2931 1769 2642 2001 
Q 2353 2234 1838 2234 
L 1294 2234 
L 1294 2753 
L 1863 2753 
Q 2328 2753 2575 2939 
Q 2822 3125 2822 3475 
Q 2822 3834 2567 4026 
Q 2313 4219 1838 4219 
Q 1578 4219 1281 4162 
Q 984 4106 628 3988 
L 628 4550 
Q 988 4650 1302 4700 
Q 1616 4750 1894 4750 
Q 2613 4750 3031 4423 
Q 3450 4097 3450 3541 
Q 3450 3153 3228 2886 
Q 3006 2619 2597 2516 
z
" transform="scale(0.015625)"/>
       </defs>
       <use xlink:href="#DejaVuSans-33"/>
      </g>
     </g>
    </g>
    <g id="ytick_5">
     <g id="line2d_21">
      <path d="M 57.6 156.797236 
L 414.72 156.797236 
" clip-path="url(#p3d315ceed8)" style="fill: none; stroke: #b0b0b0; stroke-width: 0.8; stroke-linecap: square"/>
     </g>
     <g id="line2d_22">
      <g>
       <use xlink:href="#mbcbfad6f83" x="57.6" y="156.797236" style="stroke: #000000; stroke-width: 0.8"/>
      </g>
     </g>
     <g id="text_12">
      <!-- 4 -->
      <g transform="translate(44.2375 160.596455) scale(0.1 -0.1)">
       <use xlink:href="#DejaVuSans-34"/>
      </g>
     </g>
    </g>
    <g id="ytick_6">
     <g id="line2d_23">
      <path d="M 57.6 122.387491 
L 414.72 122.387491 
" clip-path="url(#p3d315ceed8)" style="fill: none; stroke: #b0b0b0; stroke-width: 0.8; stroke-linecap: square"/>
     </g>
     <g id="line2d_24">
      <g>
       <use xlink:href="#mbcbfad6f83" x="57.6" y="122.387491" style="stroke: #000000; stroke-width: 0.8"/>
      </g>
     </g>
     <g id="text_13">
      <!-- 5 -->
      <g transform="translate(44.2375 126.186709) scale(0.1 -0.1)">
       <defs>
        <path id="DejaVuSans-35" d="M 691 4666 
L 3169 4666 
L 3169 4134 
L 1269 4134 
L 1269 2991 
Q 1406 3038 1543 3061 
Q 1681 3084 1819 3084 
Q 2600 3084 3056 2656 
Q 3513 2228 3513 1497 
Q 3513 744 3044 326 
Q 2575 -91 1722 -91 
Q 1428 -91 1123 -41 
Q 819 9 494 109 
L 494 744 
Q 775 591 1075 516 
Q 1375 441 1709 441 
Q 2250 441 2565 725 
Q 2881 1009 2881 1497 
Q 2881 1984 2565 2268 
Q 2250 2553 1709 2553 
Q 1456 2553 1204 2497 
Q 953 2441 691 2322 
L 691 4666 
z
" transform="scale(0.015625)"/>
       </defs>
       <use xlink:href="#DejaVuSans-35"/>
      </g>
     </g>
    </g>
    <g id="ytick_7">
     <g id="line2d_25">
      <path d="M 57.6 87.977745 
L 414.72 87.977745 
" clip-path="url(#p3d315ceed8)" style="fill: none; stroke: #b0b0b0; stroke-width: 0.8; stroke-linecap: square"/>
     </g>
     <g id="line2d_26">
      <g>
       <use xlink:href="#mbcbfad6f83" x="57.6" y="87.977745" style="stroke: #000000; stroke-width: 0.8"/>
      </g>
     </g>
     <g id="text_14">
      <!-- 6 -->
      <g transform="translate(44.2375 91.776964) scale(0.1 -0.1)">
       <use xlink:href="#DejaVuSans-36"/>
      </g>
     </g>
    </g>
    <g id="ytick_8">
     <g id="line2d_27">
      <path d="M 57.6 53.568 
L 414.72 53.568 
" clip-path="url(#p3d315ceed8)" style="fill: none; stroke: #b0b0b0; stroke-width: 0.8; stroke-linecap: square"/>
     </g>
     <g id="line2d_28">
      <g>
       <use xlink:href="#mbcbfad6f83" x="57.6" y="53.568" style="stroke: #000000; stroke-width: 0.8"/>
      </g>
     </g>
     <g id="text_15">
      <!-- 7 -->
      <g transform="translate(44.2375 57.367219) scale(0.1 -0.1)">
       <defs>
        <path id="DejaVuSans-37" d="M 525 4666 
L 3525 4666 
L 3525 4397 
L 1831 0 
L 1172 0 
L 2766 4134 
L 525 4134 
L 525 4666 
z
" transform="scale(0.015625)"/>
       </defs>
       <use xlink:href="#DejaVuSans-37"/>
      </g>
     </g>
    </g>
    <g id="text_16">
     <!-- X -->
     <g transform="translate(38.157812 177.953) rotate(-90) scale(0.1 -0.1)">
      <defs>
       <path id="DejaVuSans-58" d="M 403 4666 
L 1081 4666 
L 2241 2931 
L 3406 4666 
L 4084 4666 
L 2584 2425 
L 4184 0 
L 3506 0 
L 2194 1984 
L 872 0 
L 191 0 
L 1856 2491 
L 403 4666 
z
" transform="scale(0.015625)"/>
      </defs>
      <use xlink:href="#DejaVuSans-58"/>
     </g>
    </g>
   </g>
   <g id="line2d_29">
    <path d="M 73.832727 53.568 
L 77.112066 66.437704 
L 80.391405 63.88624 
L 83.670744 88.086845 
L 86.950083 122.272908 
L 90.229421 156.379856 
L 93.50876 186.100737 
L 96.788099 211.989808 
L 100.067438 236.147009 
L 103.346777 257.172602 
L 106.626116 273.552377 
L 109.905455 283.447778 
L 113.184793 288.094483 
L 116.464132 287.943259 
L 119.743471 283.709282 
L 123.02281 279.8164 
L 126.302149 273.733546 
L 129.581488 268.231354 
L 132.860826 263.66131 
L 136.140165 261.288537 
L 139.419504 260.033792 
L 142.698843 260.975264 
L 145.978182 263.882147 
L 149.257521 265.05321 
L 152.53686 266.058964 
L 155.816198 269.087863 
L 159.095537 272.595684 
L 162.374876 274.277097 
L 165.654215 274.587608 
L 168.933554 274.793704 
L 172.212893 275.97298 
L 175.492231 278.471606 
L 178.77157 279.318962 
L 182.050909 282.307992 
L 185.330248 282.834876 
L 188.609587 284.631915 
L 191.888926 286.600927 
L 195.168264 288.663424 
L 198.447603 288.011416 
L 201.726942 290.247489 
L 205.006281 289.563392 
L 208.28562 288.636187 
L 211.564959 287.779536 
L 214.844298 286.851286 
L 218.123636 288.605613 
L 221.402975 288.469411 
L 224.682314 288.520813 
L 227.961653 289.196517 
L 231.240992 291.005435 
L 234.520331 290.715598 
L 237.799669 291.846657 
L 241.079008 291.289653 
L 244.358347 293.182581 
L 247.637686 293.439605 
L 250.917025 292.598864 
L 254.196364 292.575408 
L 257.475702 291.159069 
L 260.755041 292.06355 
L 264.03438 292.474631 
L 267.313719 293.280449 
L 270.593058 292.06774 
L 273.872397 291.260781 
L 277.151736 290.673988 
L 280.431074 291.954642 
L 283.710413 290.760113 
L 286.989752 290.399374 
L 290.269091 292.455667 
L 293.54843 293.251164 
L 296.827769 294.682613 
L 300.107107 292.994888 
L 303.386446 292.410193 
L 306.665785 291.781504 
L 309.945124 291.30011 
L 313.224463 292.882813 
L 316.503802 291.923042 
L 319.78314 291.646297 
L 323.062479 291.146045 
L 326.341818 289.732579 
L 329.621157 288.989854 
L 332.900496 289.597163 
L 336.179835 289.269359 
L 339.459174 290.023603 
L 342.738512 289.856699 
L 346.017851 291.48339 
L 349.29719 292.22186 
L 352.576529 292.647098 
L 355.855868 293.849845 
L 359.135207 295.322345 
L 362.414545 295.488 
L 365.693884 294.674397 
L 368.973223 294.087446 
L 372.252562 292.690162 
L 375.531901 291.43477 
L 378.81124 291.283618 
L 382.090579 290.054182 
L 385.369917 290.635109 
L 388.649256 290.381667 
L 391.928595 290.442703 
L 395.207934 289.681324 
L 398.487273 291.425247 
" clip-path="url(#p3d315ceed8)" style="fill: none; stroke: #0000ff; stroke-width: 1.5; stroke-linecap: square"/>
   </g>
   <g id="line2d_30">
    <path d="M 73.832727 53.568 
L 77.112066 66.437704 
L 80.391405 63.88624 
L 83.670744 88.086845 
L 86.950083 123.375519 
L 90.229421 157.838684 
L 93.50876 188.002832 
L 96.788099 213.74735 
L 100.067438 237.313534 
L 103.346777 257.437672 
L 106.626116 272.47762 
L 109.905455 280.937675 
L 113.184793 284.076742 
L 116.464132 282.988734 
L 119.743471 278.214001 
L 123.02281 274.368413 
L 126.302149 268.788514 
L 129.581488 264.135287 
L 132.860826 260.806417 
L 136.140165 259.712254 
L 139.419504 259.710854 
L 142.698843 261.596915 
L 145.978182 265.187244 
L 149.257521 266.745617 
L 152.53686 267.941851 
L 155.816198 270.999837 
L 159.095537 274.451418 
L 162.374876 276.039843 
L 165.654215 276.248186 
L 168.933554 276.346613 
L 172.212893 277.407335 
L 175.492231 279.788519 
L 178.77157 280.545814 
L 182.050909 283.440346 
L 185.330248 283.86602 
L 188.609587 285.565805 
L 191.888926 287.449615 
L 195.168264 289.42639 
L 198.447603 288.690413 
L 201.726942 290.848577 
L 205.006281 290.088387 
L 208.28562 289.094189 
L 211.564959 288.183656 
L 214.844298 287.20461 
L 218.123636 288.922228 
L 221.402975 288.754504 
L 224.682314 288.778638 
L 227.961653 289.428631 
L 231.240992 291.214215 
L 234.520331 290.903223 
L 237.799669 292.01226 
L 241.079008 291.434146 
L 244.358347 293.306515 
L 247.637686 293.547346 
L 250.917025 292.692978 
L 254.196364 292.657299 
L 257.475702 291.228645 
L 260.755041 292.124078 
L 264.03438 292.528139 
L 267.313719 293.328091 
L 270.593058 292.11028 
L 273.872397 291.298827 
L 277.151736 290.708009 
L 280.431074 291.985052 
L 283.710413 290.787149 
L 286.989752 290.4233 
L 290.269091 292.476995 
L 293.54843 293.26986 
L 296.827769 294.698913 
L 300.107107 293.008782 
L 303.386446 292.421533 
L 306.665785 291.790602 
L 309.945124 291.306982 
L 313.224463 292.886803 
L 316.503802 291.924971 
L 319.78314 291.644581 
L 323.062479 291.141526 
L 326.341818 289.7262 
L 329.621157 288.982671 
L 332.900496 289.587328 
L 336.179835 289.258935 
L 339.459174 290.013943 
L 342.738512 289.84678 
L 346.017851 291.473208 
L 349.29719 292.211486 
L 352.576529 292.635383 
L 355.855868 293.836947 
L 359.135207 295.308797 
L 362.414545 295.473117 
L 365.693884 294.658063 
L 368.973223 294.070989 
L 372.252562 292.673309 
L 375.531901 291.418026 
L 378.81124 291.267326 
L 382.090579 290.03956 
L 385.369917 290.621829 
L 388.649256 290.36937 
L 391.928595 290.431509 
L 395.207934 289.671157 
L 398.487273 291.416978 
" clip-path="url(#p3d315ceed8)" style="fill: none; stroke-dasharray: 5.55,2.4; stroke-dashoffset: 0; stroke: #000000; stroke-width: 1.5"/>
   </g>
   <g id="line2d_31">
    <path d="M 73.832727 53.568 
L 77.112066 66.437704 
L 80.391405 63.655723 
L 83.670744 80.730678 
L 86.950083 113.966135 
L 90.229421 149.073784 
L 93.50876 180.252597 
L 96.788099 206.061187 
L 100.067438 226.883846 
L 103.346777 239.941058 
L 106.626116 244.208655 
L 109.905455 242.468713 
L 113.184793 242.290279 
L 116.464132 246.34861 
L 119.743471 249.630993 
L 123.02281 254.438882 
L 126.302149 256.992355 
L 129.581488 259.316584 
L 132.860826 261.274396 
L 136.140165 263.892878 
L 139.419504 266.204553 
L 142.698843 269.214076 
L 145.978182 273.083423 
L 149.257521 274.462614 
L 152.53686 274.997756 
L 155.816198 277.135157 
L 159.095537 279.44014 
L 162.374876 279.760889 
L 165.654215 278.744625 
L 168.933554 277.601075 
L 172.212893 277.327768 
L 175.492231 278.35024 
L 178.77157 277.934364 
L 182.050909 279.571516 
L 185.330248 278.609265 
L 188.609587 278.854877 
L 191.888926 279.363504 
L 195.168264 279.752025 
L 198.447603 277.233831 
L 201.726942 277.510296 
L 205.006281 274.771879 
L 208.28562 271.969887 
L 211.564959 269.419541 
L 214.844298 266.715316 
L 218.123636 267.092968 
L 221.402975 265.802932 
L 224.682314 265.040145 
L 227.961653 264.998994 
L 231.240992 266.407398 
L 234.520331 265.71434 
L 237.799669 266.670722 
L 241.079008 266.227385 
L 244.358347 268.108689 
L 247.637686 268.191143 
L 250.917025 267.36779 
L 254.196364 267.471059 
L 257.475702 266.09663 
L 260.755041 266.794427 
L 264.03438 266.999662 
L 267.313719 267.552359 
L 270.593058 266.33027 
L 273.872397 265.531894 
L 277.151736 265.000878 
L 280.431074 266.381524 
L 283.710413 265.146715 
L 286.989752 264.853629 
L 290.269091 266.837176 
L 293.54843 267.568183 
L 296.827769 268.955846 
L 300.107107 267.333219 
L 303.386446 266.988786 
L 306.665785 266.606747 
L 309.945124 266.565053 
L 313.224463 268.684758 
L 316.503802 268.063164 
L 319.78314 268.041706 
L 323.062479 267.721483 
L 326.341818 266.647384 
L 329.621157 266.016698 
L 332.900496 266.732715 
L 336.179835 266.254328 
L 339.459174 266.698253 
L 342.738512 266.487857 
L 346.017851 268.104131 
L 349.29719 268.871191 
L 352.576529 269.507572 
L 355.855868 270.924753 
L 359.135207 272.530069 
L 362.414545 272.851329 
L 365.693884 272.259915 
L 368.973223 271.554238 
L 372.252562 269.835936 
L 375.531901 268.205535 
L 378.81124 267.662669 
L 382.090579 265.843594 
L 385.369917 265.935265 
L 388.649256 265.309015 
L 391.928595 264.983432 
L 395.207934 263.870096 
L 398.487273 265.111537 
" clip-path="url(#p3d315ceed8)" style="fill: none; stroke: #ff0000; stroke-width: 1.5; stroke-linecap: square"/>
   </g>
   <g id="patch_3">
    <path d="M 57.6 307.584 
L 57.6 41.472 
" style="fill: none; stroke: #000000; stroke-width: 0.8; stroke-linejoin: miter; stroke-linecap: square"/>
   </g>
   <g id="patch_4">
    <path d="M 414.72 307.584 
L 414.72 41.472 
" style="fill: none; stroke: #000000; stroke-width: 0.8; stroke-linejoin: miter; stroke-linecap: square"/>
   </g>
   <g id="patch_5">
    <path d="M 57.6 307.584 
L 414.72 307.584 
" style="fill: none; stroke: #000000; stroke-width: 0.8; stroke-linejoin: miter; stroke-linecap: square"/>
   </g>
   <g id="patch_6">
    <path d="M 57.6 41.472 
L 414.72 41.472 
" style="fill: none; stroke: #000000; stroke-width: 0.8; stroke-linejoin: miter; stroke-linecap: square"/>
   </g>
   <g id="legend_1">
    <g id="patch_7">
     <path d="M 392.72 67.472 
L 400.72 67.472 
Q 404.72 67.472 404.72 63.472 
L 404.72 55.472 
Q 404.72 51.472 400.72 51.472 
L 392.72 51.472 
Q 388.72 51.472 388.72 55.472 
L 388.72 63.472 
Q 388.72 67.472 392.72 67.472 
z
" style="fill: #ffffff; opacity: 0.8; stroke: #cccccc; stroke-linejoin: miter"/>
    </g>
   </g>
  </g>
 </g>
 <defs>
  <clipPath id="p3d315ceed8">
   <rect x="57.6" y="41.472" width="357.12" height="266.112"/>
  </clipPath>
 </defs>
</svg>
