<?xml version="1.0" encoding="utf-8" standalone="no"?>
<!DOCTYPE svg PUBLIC "-//W3C//DTD SVG 1.1//EN"
  "http://www.w3.org/Graphics/SVG/1.1/DTD/svg11.dtd">
<svg xmlns:xlink="http://www.w3.org/1999/xlink" width="460.8pt" height="345.6pt" viewBox="0 0 460.8 345.6" xmlns="http://www.w3.org/2000/svg" version="1.1">
 <metadata>
  <rdf:RDF xmlns:dc="http://purl.org/dc/elements/1.1/" xmlns:cc="http://creativecommons.org/ns#" xmlns:rdf="http://www.w3.org/1999/02/22-rdf-syntax-ns#">
   <cc:Work>
    <dc:type rdf:resource="http://purl.org/dc/dcmitype/StillImage"/>
    <dc:date>2024-05-21T18:18:39.992464</dc:date>
    <dc:format>image/svg+xml</dc:format>
    <dc:creator>
     <cc:Agent>
      <dc:title>Matplotlib v3.7.1, https://matplotlib.org/</dc:title>
     </cc:Agent>
    </dc:creator>
   </cc:Work>
  </rdf:RDF>
 </metadata>
 <defs>
  <style type="text/css">*{stroke-linejoin: round; stroke-linecap: butt}</style>
 </defs>
 <g id="figure_1">
  <g id="patch_1">
   <path d="M 0 345.6 
L 460.8 345.6 
L 460.8 0 
L 0 0 
z
" style="fill: #ffffff"/>
  </g>
  <g id="axes_1">
   <g id="patch_2">
    <path d="M 57.6 307.584 
L 414.72 307.584 
L 414.72 41.472 
L 57.6 41.472 
z
" style="fill: #ffffff"/>
   </g>
   <g id="matplotlib.axis_1">
    <g id="xtick_1">
     <g id="line2d_1">
      <path d="M 73.832727 307.584 
L 73.832727 41.472 
" clip-path="url(#pf11571d4a7)" style="fill: none; stroke: #b0b0b0; stroke-width: 0.8; stroke-linecap: square"/>
     </g>
     <g id="line2d_2">
      <defs>
       <path id="m0b96b8cb7e" d="M 0 0 
L 0 3.5 
" style="stroke: #000000; stroke-width: 0.8"/>
      </defs>
      <g>
       <use xlink:href="#m0b96b8cb7e" x="73.832727" y="307.584" style="stroke: #000000; stroke-width: 0.8"/>
      </g>
     </g>
     <g id="text_1">
      <!-- 0 -->
      <g transform="translate(70.651477 322.182437) scale(0.1 -0.1)">
       <defs>
        <path id="DejaVuSans-30" d="M 2034 4250 
Q 1547 4250 1301 3770 
Q 1056 3291 1056 2328 
Q 1056 1369 1301 889 
Q 1547 409 2034 409 
Q 2525 409 2770 889 
Q 3016 1369 3016 2328 
Q 3016 3291 2770 3770 
Q 2525 4250 2034 4250 
z
M 2034 4750 
Q 2819 4750 3233 4129 
Q 3647 3509 3647 2328 
Q 3647 1150 3233 529 
Q 2819 -91 2034 -91 
Q 1250 -91 836 529 
Q 422 1150 422 2328 
Q 422 3509 836 4129 
Q 1250 4750 2034 4750 
z
" transform="scale(0.015625)"/>
       </defs>
       <use xlink:href="#DejaVuSans-30"/>
      </g>
     </g>
    </g>
    <g id="xtick_2">
     <g id="line2d_3">
      <path d="M 139.419504 307.584 
L 139.419504 41.472 
" clip-path="url(#pf11571d4a7)" style="fill: none; stroke: #b0b0b0; stroke-width: 0.8; stroke-linecap: square"/>
     </g>
     <g id="line2d_4">
      <g>
       <use xlink:href="#m0b96b8cb7e" x="139.419504" y="307.584" style="stroke: #000000; stroke-width: 0.8"/>
      </g>
     </g>
     <g id="text_2">
      <!-- 20 -->
      <g transform="translate(133.057004 322.182437) scale(0.1 -0.1)">
       <defs>
        <path id="DejaVuSans-32" d="M 1228 531 
L 3431 531 
L 3431 0 
L 469 0 
L 469 531 
Q 828 903 1448 1529 
Q 2069 2156 2228 2338 
Q 2531 2678 2651 2914 
Q 2772 3150 2772 3378 
Q 2772 3750 2511 3984 
Q 2250 4219 1831 4219 
Q 1534 4219 1204 4116 
Q 875 4013 500 3803 
L 500 4441 
Q 881 4594 1212 4672 
Q 1544 4750 1819 4750 
Q 2544 4750 2975 4387 
Q 3406 4025 3406 3419 
Q 3406 3131 3298 2873 
Q 3191 2616 2906 2266 
Q 2828 2175 2409 1742 
Q 1991 1309 1228 531 
z
" transform="scale(0.015625)"/>
       </defs>
       <use xlink:href="#DejaVuSans-32"/>
       <use xlink:href="#DejaVuSans-30" x="63.623047"/>
      </g>
     </g>
    </g>
    <g id="xtick_3">
     <g id="line2d_5">
      <path d="M 205.006281 307.584 
L 205.006281 41.472 
" clip-path="url(#pf11571d4a7)" style="fill: none; stroke: #b0b0b0; stroke-width: 0.8; stroke-linecap: square"/>
     </g>
     <g id="line2d_6">
      <g>
       <use xlink:href="#m0b96b8cb7e" x="205.006281" y="307.584" style="stroke: #000000; stroke-width: 0.8"/>
      </g>
     </g>
     <g id="text_3">
      <!-- 40 -->
      <g transform="translate(198.643781 322.182437) scale(0.1 -0.1)">
       <defs>
        <path id="DejaVuSans-34" d="M 2419 4116 
L 825 1625 
L 2419 1625 
L 2419 4116 
z
M 2253 4666 
L 3047 4666 
L 3047 1625 
L 3713 1625 
L 3713 1100 
L 3047 1100 
L 3047 0 
L 2419 0 
L 2419 1100 
L 313 1100 
L 313 1709 
L 2253 4666 
z
" transform="scale(0.015625)"/>
       </defs>
       <use xlink:href="#DejaVuSans-34"/>
       <use xlink:href="#DejaVuSans-30" x="63.623047"/>
      </g>
     </g>
    </g>
    <g id="xtick_4">
     <g id="line2d_7">
      <path d="M 270.593058 307.584 
L 270.593058 41.472 
" clip-path="url(#pf11571d4a7)" style="fill: none; stroke: #b0b0b0; stroke-width: 0.8; stroke-linecap: square"/>
     </g>
     <g id="line2d_8">
      <g>
       <use xlink:href="#m0b96b8cb7e" x="270.593058" y="307.584" style="stroke: #000000; stroke-width: 0.8"/>
      </g>
     </g>
     <g id="text_4">
      <!-- 60 -->
      <g transform="translate(264.230558 322.182437) scale(0.1 -0.1)">
       <defs>
        <path id="DejaVuSans-36" d="M 2113 2584 
Q 1688 2584 1439 2293 
Q 1191 2003 1191 1497 
Q 1191 994 1439 701 
Q 1688 409 2113 409 
Q 2538 409 2786 701 
Q 3034 994 3034 1497 
Q 3034 2003 2786 2293 
Q 2538 2584 2113 2584 
z
M 3366 4563 
L 3366 3988 
Q 3128 4100 2886 4159 
Q 2644 4219 2406 4219 
Q 1781 4219 1451 3797 
Q 1122 3375 1075 2522 
Q 1259 2794 1537 2939 
Q 1816 3084 2150 3084 
Q 2853 3084 3261 2657 
Q 3669 2231 3669 1497 
Q 3669 778 3244 343 
Q 2819 -91 2113 -91 
Q 1303 -91 875 529 
Q 447 1150 447 2328 
Q 447 3434 972 4092 
Q 1497 4750 2381 4750 
Q 2619 4750 2861 4703 
Q 3103 4656 3366 4563 
z
" transform="scale(0.015625)"/>
       </defs>
       <use xlink:href="#DejaVuSans-36"/>
       <use xlink:href="#DejaVuSans-30" x="63.623047"/>
      </g>
     </g>
    </g>
    <g id="xtick_5">
     <g id="line2d_9">
      <path d="M 336.179835 307.584 
L 336.179835 41.472 
" clip-path="url(#pf11571d4a7)" style="fill: none; stroke: #b0b0b0; stroke-width: 0.8; stroke-linecap: square"/>
     </g>
     <g id="line2d_10">
      <g>
       <use xlink:href="#m0b96b8cb7e" x="336.179835" y="307.584" style="stroke: #000000; stroke-width: 0.8"/>
      </g>
     </g>
     <g id="text_5">
      <!-- 80 -->
      <g transform="translate(329.817335 322.182437) scale(0.1 -0.1)">
       <defs>
        <path id="DejaVuSans-38" d="M 2034 2216 
Q 1584 2216 1326 1975 
Q 1069 1734 1069 1313 
Q 1069 891 1326 650 
Q 1584 409 2034 409 
Q 2484 409 2743 651 
Q 3003 894 3003 1313 
Q 3003 1734 2745 1975 
Q 2488 2216 2034 2216 
z
M 1403 2484 
Q 997 2584 770 2862 
Q 544 3141 544 3541 
Q 544 4100 942 4425 
Q 1341 4750 2034 4750 
Q 2731 4750 3128 4425 
Q 3525 4100 3525 3541 
Q 3525 3141 3298 2862 
Q 3072 2584 2669 2484 
Q 3125 2378 3379 2068 
Q 3634 1759 3634 1313 
Q 3634 634 3220 271 
Q 2806 -91 2034 -91 
Q 1263 -91 848 271 
Q 434 634 434 1313 
Q 434 1759 690 2068 
Q 947 2378 1403 2484 
z
M 1172 3481 
Q 1172 3119 1398 2916 
Q 1625 2713 2034 2713 
Q 2441 2713 2670 2916 
Q 2900 3119 2900 3481 
Q 2900 3844 2670 4047 
Q 2441 4250 2034 4250 
Q 1625 4250 1398 4047 
Q 1172 3844 1172 3481 
z
" transform="scale(0.015625)"/>
       </defs>
       <use xlink:href="#DejaVuSans-38"/>
       <use xlink:href="#DejaVuSans-30" x="63.623047"/>
      </g>
     </g>
    </g>
    <g id="xtick_6">
     <g id="line2d_11">
      <path d="M 401.766612 307.584 
L 401.766612 41.472 
" clip-path="url(#pf11571d4a7)" style="fill: none; stroke: #b0b0b0; stroke-width: 0.8; stroke-linecap: square"/>
     </g>
     <g id="line2d_12">
      <g>
       <use xlink:href="#m0b96b8cb7e" x="401.766612" y="307.584" style="stroke: #000000; stroke-width: 0.8"/>
      </g>
     </g>
     <g id="text_6">
      <!-- 100 -->
      <g transform="translate(392.222862 322.182437) scale(0.1 -0.1)">
       <defs>
        <path id="DejaVuSans-31" d="M 794 531 
L 1825 531 
L 1825 4091 
L 703 3866 
L 703 4441 
L 1819 4666 
L 2450 4666 
L 2450 531 
L 3481 531 
L 3481 0 
L 794 0 
L 794 531 
z
" transform="scale(0.015625)"/>
       </defs>
       <use xlink:href="#DejaVuSans-31"/>
       <use xlink:href="#DejaVuSans-30" x="63.623047"/>
       <use xlink:href="#DejaVuSans-30" x="127.246094"/>
      </g>
     </g>
    </g>
    <g id="text_7">
     <!-- T -->
     <g transform="translate(233.106094 335.860562) scale(0.1 -0.1)">
      <defs>
       <path id="DejaVuSans-54" d="M -19 4666 
L 3928 4666 
L 3928 4134 
L 2272 4134 
L 2272 0 
L 1638 0 
L 1638 4134 
L -19 4134 
L -19 4666 
z
" transform="scale(0.015625)"/>
      </defs>
      <use xlink:href="#DejaVuSans-54"/>
     </g>
    </g>
   </g>
   <g id="matplotlib.axis_2">
    <g id="ytick_1">
     <g id="line2d_13">
      <path d="M 57.6 277.312468 
L 414.72 277.312468 
" clip-path="url(#pf11571d4a7)" style="fill: none; stroke: #b0b0b0; stroke-width: 0.8; stroke-linecap: square"/>
     </g>
     <g id="line2d_14">
      <defs>
       <path id="m61686eedcf" d="M 0 0 
L -3.5 0 
" style="stroke: #000000; stroke-width: 0.8"/>
      </defs>
      <g>
       <use xlink:href="#m61686eedcf" x="57.6" y="277.312468" style="stroke: #000000; stroke-width: 0.8"/>
      </g>
     </g>
     <g id="text_8">
      <!-- 0 -->
      <g transform="translate(44.2375 281.111686) scale(0.1 -0.1)">
       <use xlink:href="#DejaVuSans-30"/>
      </g>
     </g>
    </g>
    <g id="ytick_2">
     <g id="line2d_15">
      <path d="M 57.6 227.591475 
L 414.72 227.591475 
" clip-path="url(#pf11571d4a7)" style="fill: none; stroke: #b0b0b0; stroke-width: 0.8; stroke-linecap: square"/>
     </g>
     <g id="line2d_16">
      <g>
       <use xlink:href="#m61686eedcf" x="57.6" y="227.591475" style="stroke: #000000; stroke-width: 0.8"/>
      </g>
     </g>
     <g id="text_9">
      <!-- 2 -->
      <g transform="translate(44.2375 231.390694) scale(0.1 -0.1)">
       <use xlink:href="#DejaVuSans-32"/>
      </g>
     </g>
    </g>
    <g id="ytick_3">
     <g id="line2d_17">
      <path d="M 57.6 177.870482 
L 414.72 177.870482 
" clip-path="url(#pf11571d4a7)" style="fill: none; stroke: #b0b0b0; stroke-width: 0.8; stroke-linecap: square"/>
     </g>
     <g id="line2d_18">
      <g>
       <use xlink:href="#m61686eedcf" x="57.6" y="177.870482" style="stroke: #000000; stroke-width: 0.8"/>
      </g>
     </g>
     <g id="text_10">
      <!-- 4 -->
      <g transform="translate(44.2375 181.669701) scale(0.1 -0.1)">
       <use xlink:href="#DejaVuSans-34"/>
      </g>
     </g>
    </g>
    <g id="ytick_4">
     <g id="line2d_19">
      <path d="M 57.6 128.149489 
L 414.72 128.149489 
" clip-path="url(#pf11571d4a7)" style="fill: none; stroke: #b0b0b0; stroke-width: 0.8; stroke-linecap: square"/>
     </g>
     <g id="line2d_20">
      <g>
       <use xlink:href="#m61686eedcf" x="57.6" y="128.149489" style="stroke: #000000; stroke-width: 0.8"/>
      </g>
     </g>
     <g id="text_11">
      <!-- 6 -->
      <g transform="translate(44.2375 131.948708) scale(0.1 -0.1)">
       <use xlink:href="#DejaVuSans-36"/>
      </g>
     </g>
    </g>
    <g id="ytick_5">
     <g id="line2d_21">
      <path d="M 57.6 78.428496 
L 414.72 78.428496 
" clip-path="url(#pf11571d4a7)" style="fill: none; stroke: #b0b0b0; stroke-width: 0.8; stroke-linecap: square"/>
     </g>
     <g id="line2d_22">
      <g>
       <use xlink:href="#m61686eedcf" x="57.6" y="78.428496" style="stroke: #000000; stroke-width: 0.8"/>
      </g>
     </g>
     <g id="text_12">
      <!-- 8 -->
      <g transform="translate(44.2375 82.227715) scale(0.1 -0.1)">
       <use xlink:href="#DejaVuSans-38"/>
      </g>
     </g>
    </g>
    <g id="text_13">
     <!-- X -->
     <g transform="translate(38.157812 177.953) rotate(-90) scale(0.1 -0.1)">
      <defs>
       <path id="DejaVuSans-58" d="M 403 4666 
L 1081 4666 
L 2241 2931 
L 3406 4666 
L 4084 4666 
L 2584 2425 
L 4184 0 
L 3506 0 
L 2194 1984 
L 872 0 
L 191 0 
L 1856 2491 
L 403 4666 
z
" transform="scale(0.015625)"/>
      </defs>
      <use xlink:href="#DejaVuSans-58"/>
     </g>
    </g>
   </g>
   <g id="line2d_23">
    <path d="M 73.832727 53.568 
L 77.112066 81.55985 
L 80.391405 121.403102 
L 83.670744 141.613097 
L 86.950083 146.662009 
L 90.229421 148.65404 
L 93.50876 152.00951 
L 96.788099 156.279822 
L 100.067438 161.744292 
L 103.346777 169.681093 
L 106.626116 179.494417 
L 109.905455 189.174981 
L 113.184793 199.785898 
L 116.464132 208.958954 
L 119.743471 216.298842 
L 123.02281 223.221854 
L 126.302149 228.513291 
L 129.581488 235.867527 
L 132.860826 240.768186 
L 136.140165 245.937515 
L 139.419504 250.757632 
L 142.698843 256.029273 
L 145.978182 259.798769 
L 149.257521 262.505625 
L 152.53686 264.952293 
L 155.816198 267.945387 
L 159.095537 269.147432 
L 162.374876 269.41549 
L 165.654215 270.445856 
L 168.933554 271.474604 
L 172.212893 273.573869 
L 175.492231 274.302059 
L 178.77157 273.759401 
L 182.050909 274.489389 
L 185.330248 275.496708 
L 188.609587 274.970774 
L 191.888926 276.360549 
L 195.168264 275.439547 
L 198.447603 274.382875 
L 201.726942 275.072675 
L 205.006281 276.116634 
L 208.28562 275.69499 
L 211.564959 275.809545 
L 214.844298 276.557656 
L 218.123636 277.488565 
L 221.402975 278.177338 
L 224.682314 278.30876 
L 227.961653 278.184127 
L 231.240992 278.915348 
L 234.520331 279.504902 
L 237.799669 278.635052 
L 241.079008 277.338911 
L 244.358347 277.041036 
L 247.637686 278.085227 
L 250.917025 278.334244 
L 254.196364 277.53766 
L 257.475702 276.863759 
L 260.755041 276.442438 
L 264.03438 275.81348 
L 267.313719 274.931243 
L 270.593058 274.001737 
L 273.872397 273.443766 
L 277.151736 274.426555 
L 280.431074 275.455811 
L 283.710413 274.956641 
L 286.989752 273.923577 
L 290.269091 272.905837 
L 293.54843 274.443661 
L 296.827769 275.240368 
L 300.107107 275.149974 
L 303.386446 275.796206 
L 306.665785 275.630996 
L 309.945124 275.771632 
L 313.224463 276.39549 
L 316.503802 276.965568 
L 319.78314 276.237348 
L 323.062479 275.228207 
L 326.341818 274.790531 
L 329.621157 273.788068 
L 332.900496 275.251676 
L 336.179835 274.898188 
L 339.459174 275.261955 
L 342.738512 274.903465 
L 346.017851 274.100346 
L 349.29719 273.654438 
L 352.576529 273.625177 
L 355.855868 273.704172 
L 359.135207 273.999623 
L 362.414545 274.788561 
L 365.693884 275.61527 
L 368.973223 275.259557 
L 372.252562 276.614692 
L 375.531901 276.043785 
L 378.81124 275.613158 
L 382.090579 275.182316 
L 385.369917 274.725824 
L 388.649256 274.857719 
L 391.928595 274.209819 
L 395.207934 274.350035 
L 398.487273 275.181494 
" clip-path="url(#pf11571d4a7)" style="fill: none; stroke: #0000ff; stroke-width: 1.5; stroke-linecap: square"/>
   </g>
   <g id="line2d_24">
    <path d="M 73.832727 53.568 
L 77.112066 81.55985 
L 80.391405 121.403102 
L 83.670744 144.412282 
L 86.950083 148.318551 
L 90.229421 151.957659 
L 93.50876 154.666278 
L 96.788099 158.833586 
L 100.067438 164.0802 
L 103.346777 172.324287 
L 106.626116 182.078986 
L 109.905455 192.407003 
L 113.184793 202.758518 
L 116.464132 212.641359 
L 119.743471 219.772342 
L 123.02281 227.534372 
L 126.302149 232.809305 
L 129.581488 240.859443 
L 132.860826 245.606249 
L 136.140165 251.228301 
L 139.419504 255.550391 
L 142.698843 260.704372 
L 145.978182 263.729231 
L 149.257521 266.218052 
L 152.53686 268.001995 
L 155.816198 270.650025 
L 159.095537 271.779956 
L 162.374876 271.611198 
L 165.654215 272.343822 
L 168.933554 273.127585 
L 172.212893 275.11271 
L 175.492231 275.605858 
L 178.77157 275.047139 
L 182.050909 275.832993 
L 185.330248 276.851176 
L 188.609587 276.149992 
L 191.888926 277.472994 
L 195.168264 276.43635 
L 198.447603 275.402193 
L 201.726942 276.023832 
L 205.006281 276.944582 
L 208.28562 276.476028 
L 211.564959 276.49125 
L 214.844298 277.103132 
L 218.123636 277.912133 
L 221.402975 278.556346 
L 224.682314 278.739812 
L 227.961653 278.574094 
L 231.240992 279.276104 
L 234.520331 279.824873 
L 237.799669 278.987525 
L 241.079008 277.783345 
L 244.358347 277.447909 
L 247.637686 278.445051 
L 250.917025 278.619478 
L 254.196364 277.788126 
L 257.475702 277.084904 
L 260.755041 276.63775 
L 264.03438 275.986385 
L 267.313719 275.084714 
L 270.593058 274.136981 
L 273.872397 273.562743 
L 277.151736 274.531283 
L 280.431074 275.490845 
L 283.710413 275.019861 
L 286.989752 273.982648 
L 290.269091 272.910618 
L 293.54843 274.440942 
L 296.827769 275.236095 
L 300.107107 275.145204 
L 303.386446 275.791143 
L 306.665785 275.616803 
L 309.945124 275.812986 
L 313.224463 276.475739 
L 316.503802 277.041242 
L 319.78314 276.304455 
L 323.062479 275.287065 
L 326.341818 274.841966 
L 329.621157 273.833092 
L 332.900496 275.291109 
L 336.179835 274.932889 
L 339.459174 275.292279 
L 342.738512 274.93006 
L 346.017851 274.123506 
L 349.29719 273.674509 
L 352.576529 273.561816 
L 355.855868 273.638876 
L 359.135207 273.929738 
L 362.414545 274.722374 
L 365.693884 275.556568 
L 368.973223 275.207672 
L 372.252562 276.568999 
L 375.531901 275.968667 
L 378.81124 275.542729 
L 382.090579 275.119818 
L 385.369917 274.670459 
L 388.649256 274.808698 
L 391.928595 274.121352 
L 395.207934 274.266081 
L 398.487273 275.106256 
" clip-path="url(#pf11571d4a7)" style="fill: none; stroke-dasharray: 5.55,2.4; stroke-dashoffset: 0; stroke: #000000; stroke-width: 1.5"/>
   </g>
   <g id="line2d_25">
    <path d="M 73.832727 53.568 
L 77.112066 77.672423 
L 80.391405 113.250911 
L 83.670744 137.714014 
L 86.950083 147.165711 
L 90.229421 153.418554 
L 93.50876 160.897691 
L 96.788099 169.797367 
L 100.067438 181.062083 
L 103.346777 196.267276 
L 106.626116 214.83471 
L 109.905455 234.679905 
L 113.184793 256.91273 
L 116.464132 278.098752 
L 119.743471 278.423719 
L 123.02281 279.135111 
L 126.302149 278.511031 
L 129.581488 280.229152 
L 132.860826 279.530292 
L 136.140165 279.690449 
L 139.419504 279.892533 
L 142.698843 280.97055 
L 145.978182 281.095452 
L 149.257521 280.984741 
L 152.53686 281.195626 
L 155.816198 282.471486 
L 159.095537 282.358279 
L 162.374876 281.773676 
L 165.654215 282.086463 
L 168.933554 282.507768 
L 172.212893 284.211969 
L 175.492231 284.744083 
L 178.77157 284.199438 
L 182.050909 284.975984 
L 185.330248 286.024775 
L 188.609587 285.663836 
L 191.888926 287.346215 
L 195.168264 286.632334 
L 198.447603 285.889538 
L 201.726942 286.827168 
L 205.006281 288.051941 
L 208.28562 287.906028 
L 211.564959 288.346248 
L 214.844298 289.422181 
L 218.123636 290.672387 
L 221.402975 291.716334 
L 224.682314 292.324576 
L 227.961653 292.686663 
L 231.240992 293.835593 
L 234.520331 294.841627 
L 237.799669 294.382094 
L 241.079008 293.595831 
L 244.358347 293.712685 
L 247.637686 295.008816 
L 250.917025 295.488 
L 254.196364 295.064554 
L 257.475702 294.682698 
L 260.755041 294.484768 
L 264.03438 294.057895 
L 267.313719 293.406005 
L 270.593058 292.59121 
L 273.872397 292.134933 
L 277.151736 293.212485 
L 280.431074 294.262828 
L 283.710413 293.831778 
L 286.989752 292.93947 
L 290.269091 292.0453 
L 293.54843 293.568033 
L 296.827769 294.136793 
L 300.107107 293.888503 
L 303.386446 294.498367 
L 306.665785 294.24458 
L 309.945124 294.329635 
L 313.224463 294.839382 
L 316.503802 295.333752 
L 319.78314 294.523242 
L 323.062479 293.469149 
L 326.341818 292.941555 
L 329.621157 291.825123 
L 332.900496 293.227416 
L 336.179835 292.712362 
L 339.459174 292.988418 
L 342.738512 292.567716 
L 346.017851 291.669869 
L 349.29719 291.124448 
L 352.576529 290.915728 
L 355.855868 290.760958 
L 359.135207 290.792274 
L 362.414545 291.276297 
L 365.693884 291.8969 
L 368.973223 291.483818 
L 372.252562 292.833642 
L 375.531901 292.205529 
L 378.81124 291.931263 
L 382.090579 291.539979 
L 385.369917 291.167635 
L 388.649256 291.357507 
L 391.928595 290.773391 
L 395.207934 291.055987 
L 398.487273 291.92771 
" clip-path="url(#pf11571d4a7)" style="fill: none; stroke: #ff0000; stroke-width: 1.5; stroke-linecap: square"/>
   </g>
   <g id="patch_3">
    <path d="M 57.6 307.584 
L 57.6 41.472 
" style="fill: none; stroke: #000000; stroke-width: 0.8; stroke-linejoin: miter; stroke-linecap: square"/>
   </g>
   <g id="patch_4">
    <path d="M 414.72 307.584 
L 414.72 41.472 
" style="fill: none; stroke: #000000; stroke-width: 0.8; stroke-linejoin: miter; stroke-linecap: square"/>
   </g>
   <g id="patch_5">
    <path d="M 57.6 307.584 
L 414.72 307.584 
" style="fill: none; stroke: #000000; stroke-width: 0.8; stroke-linejoin: miter; stroke-linecap: square"/>
   </g>
   <g id="patch_6">
    <path d="M 57.6 41.472 
L 414.72 41.472 
" style="fill: none; stroke: #000000; stroke-width: 0.8; stroke-linejoin: miter; stroke-linecap: square"/>
   </g>
   <g id="legend_1">
    <g id="patch_7">
     <path d="M 392.72 67.472 
L 400.72 67.472 
Q 404.72 67.472 404.72 63.472 
L 404.72 55.472 
Q 404.72 51.472 400.72 51.472 
L 392.72 51.472 
Q 388.72 51.472 388.72 55.472 
L 388.72 63.472 
Q 388.72 67.472 392.72 67.472 
z
" style="fill: #ffffff; opacity: 0.8; stroke: #cccccc; stroke-linejoin: miter"/>
    </g>
   </g>
  </g>
 </g>
 <defs>
  <clipPath id="pf11571d4a7">
   <rect x="57.6" y="41.472" width="357.12" height="266.112"/>
  </clipPath>
 </defs>
</svg>
