<?xml version="1.0" encoding="utf-8" standalone="no"?>
<!DOCTYPE svg PUBLIC "-//W3C//DTD SVG 1.1//EN"
  "http://www.w3.org/Graphics/SVG/1.1/DTD/svg11.dtd">
<svg xmlns:xlink="http://www.w3.org/1999/xlink" width="460.8pt" height="345.6pt" viewBox="0 0 460.8 345.6" xmlns="http://www.w3.org/2000/svg" version="1.1">
 <metadata>
  <rdf:RDF xmlns:dc="http://purl.org/dc/elements/1.1/" xmlns:cc="http://creativecommons.org/ns#" xmlns:rdf="http://www.w3.org/1999/02/22-rdf-syntax-ns#">
   <cc:Work>
    <dc:type rdf:resource="http://purl.org/dc/dcmitype/StillImage"/>
    <dc:date>2024-05-21T18:18:39.922080</dc:date>
    <dc:format>image/svg+xml</dc:format>
    <dc:creator>
     <cc:Agent>
      <dc:title>Matplotlib v3.7.1, https://matplotlib.org/</dc:title>
     </cc:Agent>
    </dc:creator>
   </cc:Work>
  </rdf:RDF>
 </metadata>
 <defs>
  <style type="text/css">*{stroke-linejoin: round; stroke-linecap: butt}</style>
 </defs>
 <g id="figure_1">
  <g id="patch_1">
   <path d="M 0 345.6 
L 460.8 345.6 
L 460.8 0 
L 0 0 
z
" style="fill: #ffffff"/>
  </g>
  <g id="axes_1">
   <g id="patch_2">
    <path d="M 57.6 307.584 
L 414.72 307.584 
L 414.72 41.472 
L 57.6 41.472 
z
" style="fill: #ffffff"/>
   </g>
   <g id="matplotlib.axis_1">
    <g id="xtick_1">
     <g id="line2d_1">
      <path d="M 73.832727 307.584 
L 73.832727 41.472 
" clip-path="url(#p3b1ded7f15)" style="fill: none; stroke: #b0b0b0; stroke-width: 0.8; stroke-linecap: square"/>
     </g>
     <g id="line2d_2">
      <defs>
       <path id="m26b48019b8" d="M 0 0 
L 0 3.5 
" style="stroke: #000000; stroke-width: 0.8"/>
      </defs>
      <g>
       <use xlink:href="#m26b48019b8" x="73.832727" y="307.584" style="stroke: #000000; stroke-width: 0.8"/>
      </g>
     </g>
     <g id="text_1">
      <!-- 0 -->
      <g transform="translate(70.651477 322.182437) scale(0.1 -0.1)">
       <defs>
        <path id="DejaVuSans-30" d="M 2034 4250 
Q 1547 4250 1301 3770 
Q 1056 3291 1056 2328 
Q 1056 1369 1301 889 
Q 1547 409 2034 409 
Q 2525 409 2770 889 
Q 3016 1369 3016 2328 
Q 3016 3291 2770 3770 
Q 2525 4250 2034 4250 
z
M 2034 4750 
Q 2819 4750 3233 4129 
Q 3647 3509 3647 2328 
Q 3647 1150 3233 529 
Q 2819 -91 2034 -91 
Q 1250 -91 836 529 
Q 422 1150 422 2328 
Q 422 3509 836 4129 
Q 1250 4750 2034 4750 
z
" transform="scale(0.015625)"/>
       </defs>
       <use xlink:href="#DejaVuSans-30"/>
      </g>
     </g>
    </g>
    <g id="xtick_2">
     <g id="line2d_3">
      <path d="M 139.419504 307.584 
L 139.419504 41.472 
" clip-path="url(#p3b1ded7f15)" style="fill: none; stroke: #b0b0b0; stroke-width: 0.8; stroke-linecap: square"/>
     </g>
     <g id="line2d_4">
      <g>
       <use xlink:href="#m26b48019b8" x="139.419504" y="307.584" style="stroke: #000000; stroke-width: 0.8"/>
      </g>
     </g>
     <g id="text_2">
      <!-- 20 -->
      <g transform="translate(133.057004 322.182437) scale(0.1 -0.1)">
       <defs>
        <path id="DejaVuSans-32" d="M 1228 531 
L 3431 531 
L 3431 0 
L 469 0 
L 469 531 
Q 828 903 1448 1529 
Q 2069 2156 2228 2338 
Q 2531 2678 2651 2914 
Q 2772 3150 2772 3378 
Q 2772 3750 2511 3984 
Q 2250 4219 1831 4219 
Q 1534 4219 1204 4116 
Q 875 4013 500 3803 
L 500 4441 
Q 881 4594 1212 4672 
Q 1544 4750 1819 4750 
Q 2544 4750 2975 4387 
Q 3406 4025 3406 3419 
Q 3406 3131 3298 2873 
Q 3191 2616 2906 2266 
Q 2828 2175 2409 1742 
Q 1991 1309 1228 531 
z
" transform="scale(0.015625)"/>
       </defs>
       <use xlink:href="#DejaVuSans-32"/>
       <use xlink:href="#DejaVuSans-30" x="63.623047"/>
      </g>
     </g>
    </g>
    <g id="xtick_3">
     <g id="line2d_5">
      <path d="M 205.006281 307.584 
L 205.006281 41.472 
" clip-path="url(#p3b1ded7f15)" style="fill: none; stroke: #b0b0b0; stroke-width: 0.8; stroke-linecap: square"/>
     </g>
     <g id="line2d_6">
      <g>
       <use xlink:href="#m26b48019b8" x="205.006281" y="307.584" style="stroke: #000000; stroke-width: 0.8"/>
      </g>
     </g>
     <g id="text_3">
      <!-- 40 -->
      <g transform="translate(198.643781 322.182437) scale(0.1 -0.1)">
       <defs>
        <path id="DejaVuSans-34" d="M 2419 4116 
L 825 1625 
L 2419 1625 
L 2419 4116 
z
M 2253 4666 
L 3047 4666 
L 3047 1625 
L 3713 1625 
L 3713 1100 
L 3047 1100 
L 3047 0 
L 2419 0 
L 2419 1100 
L 313 1100 
L 313 1709 
L 2253 4666 
z
" transform="scale(0.015625)"/>
       </defs>
       <use xlink:href="#DejaVuSans-34"/>
       <use xlink:href="#DejaVuSans-30" x="63.623047"/>
      </g>
     </g>
    </g>
    <g id="xtick_4">
     <g id="line2d_7">
      <path d="M 270.593058 307.584 
L 270.593058 41.472 
" clip-path="url(#p3b1ded7f15)" style="fill: none; stroke: #b0b0b0; stroke-width: 0.8; stroke-linecap: square"/>
     </g>
     <g id="line2d_8">
      <g>
       <use xlink:href="#m26b48019b8" x="270.593058" y="307.584" style="stroke: #000000; stroke-width: 0.8"/>
      </g>
     </g>
     <g id="text_4">
      <!-- 60 -->
      <g transform="translate(264.230558 322.182437) scale(0.1 -0.1)">
       <defs>
        <path id="DejaVuSans-36" d="M 2113 2584 
Q 1688 2584 1439 2293 
Q 1191 2003 1191 1497 
Q 1191 994 1439 701 
Q 1688 409 2113 409 
Q 2538 409 2786 701 
Q 3034 994 3034 1497 
Q 3034 2003 2786 2293 
Q 2538 2584 2113 2584 
z
M 3366 4563 
L 3366 3988 
Q 3128 4100 2886 4159 
Q 2644 4219 2406 4219 
Q 1781 4219 1451 3797 
Q 1122 3375 1075 2522 
Q 1259 2794 1537 2939 
Q 1816 3084 2150 3084 
Q 2853 3084 3261 2657 
Q 3669 2231 3669 1497 
Q 3669 778 3244 343 
Q 2819 -91 2113 -91 
Q 1303 -91 875 529 
Q 447 1150 447 2328 
Q 447 3434 972 4092 
Q 1497 4750 2381 4750 
Q 2619 4750 2861 4703 
Q 3103 4656 3366 4563 
z
" transform="scale(0.015625)"/>
       </defs>
       <use xlink:href="#DejaVuSans-36"/>
       <use xlink:href="#DejaVuSans-30" x="63.623047"/>
      </g>
     </g>
    </g>
    <g id="xtick_5">
     <g id="line2d_9">
      <path d="M 336.179835 307.584 
L 336.179835 41.472 
" clip-path="url(#p3b1ded7f15)" style="fill: none; stroke: #b0b0b0; stroke-width: 0.8; stroke-linecap: square"/>
     </g>
     <g id="line2d_10">
      <g>
       <use xlink:href="#m26b48019b8" x="336.179835" y="307.584" style="stroke: #000000; stroke-width: 0.8"/>
      </g>
     </g>
     <g id="text_5">
      <!-- 80 -->
      <g transform="translate(329.817335 322.182437) scale(0.1 -0.1)">
       <defs>
        <path id="DejaVuSans-38" d="M 2034 2216 
Q 1584 2216 1326 1975 
Q 1069 1734 1069 1313 
Q 1069 891 1326 650 
Q 1584 409 2034 409 
Q 2484 409 2743 651 
Q 3003 894 3003 1313 
Q 3003 1734 2745 1975 
Q 2488 2216 2034 2216 
z
M 1403 2484 
Q 997 2584 770 2862 
Q 544 3141 544 3541 
Q 544 4100 942 4425 
Q 1341 4750 2034 4750 
Q 2731 4750 3128 4425 
Q 3525 4100 3525 3541 
Q 3525 3141 3298 2862 
Q 3072 2584 2669 2484 
Q 3125 2378 3379 2068 
Q 3634 1759 3634 1313 
Q 3634 634 3220 271 
Q 2806 -91 2034 -91 
Q 1263 -91 848 271 
Q 434 634 434 1313 
Q 434 1759 690 2068 
Q 947 2378 1403 2484 
z
M 1172 3481 
Q 1172 3119 1398 2916 
Q 1625 2713 2034 2713 
Q 2441 2713 2670 2916 
Q 2900 3119 2900 3481 
Q 2900 3844 2670 4047 
Q 2441 4250 2034 4250 
Q 1625 4250 1398 4047 
Q 1172 3844 1172 3481 
z
" transform="scale(0.015625)"/>
       </defs>
       <use xlink:href="#DejaVuSans-38"/>
       <use xlink:href="#DejaVuSans-30" x="63.623047"/>
      </g>
     </g>
    </g>
    <g id="xtick_6">
     <g id="line2d_11">
      <path d="M 401.766612 307.584 
L 401.766612 41.472 
" clip-path="url(#p3b1ded7f15)" style="fill: none; stroke: #b0b0b0; stroke-width: 0.8; stroke-linecap: square"/>
     </g>
     <g id="line2d_12">
      <g>
       <use xlink:href="#m26b48019b8" x="401.766612" y="307.584" style="stroke: #000000; stroke-width: 0.8"/>
      </g>
     </g>
     <g id="text_6">
      <!-- 100 -->
      <g transform="translate(392.222862 322.182437) scale(0.1 -0.1)">
       <defs>
        <path id="DejaVuSans-31" d="M 794 531 
L 1825 531 
L 1825 4091 
L 703 3866 
L 703 4441 
L 1819 4666 
L 2450 4666 
L 2450 531 
L 3481 531 
L 3481 0 
L 794 0 
L 794 531 
z
" transform="scale(0.015625)"/>
       </defs>
       <use xlink:href="#DejaVuSans-31"/>
       <use xlink:href="#DejaVuSans-30" x="63.623047"/>
       <use xlink:href="#DejaVuSans-30" x="127.246094"/>
      </g>
     </g>
    </g>
    <g id="text_7">
     <!-- T -->
     <g transform="translate(233.106094 335.860562) scale(0.1 -0.1)">
      <defs>
       <path id="DejaVuSans-54" d="M -19 4666 
L 3928 4666 
L 3928 4134 
L 2272 4134 
L 2272 0 
L 1638 0 
L 1638 4134 
L -19 4134 
L -19 4666 
z
" transform="scale(0.015625)"/>
      </defs>
      <use xlink:href="#DejaVuSans-54"/>
     </g>
    </g>
   </g>
   <g id="matplotlib.axis_2">
    <g id="ytick_1">
     <g id="line2d_13">
      <path d="M 57.6 291.320402 
L 414.72 291.320402 
" clip-path="url(#p3b1ded7f15)" style="fill: none; stroke: #b0b0b0; stroke-width: 0.8; stroke-linecap: square"/>
     </g>
     <g id="line2d_14">
      <defs>
       <path id="mb4df7e3c08" d="M 0 0 
L -3.5 0 
" style="stroke: #000000; stroke-width: 0.8"/>
      </defs>
      <g>
       <use xlink:href="#mb4df7e3c08" x="57.6" y="291.320402" style="stroke: #000000; stroke-width: 0.8"/>
      </g>
     </g>
     <g id="text_8">
      <!-- 0 -->
      <g transform="translate(44.2375 295.119621) scale(0.1 -0.1)">
       <use xlink:href="#DejaVuSans-30"/>
      </g>
     </g>
    </g>
    <g id="ytick_2">
     <g id="line2d_15">
      <path d="M 57.6 257.355773 
L 414.72 257.355773 
" clip-path="url(#p3b1ded7f15)" style="fill: none; stroke: #b0b0b0; stroke-width: 0.8; stroke-linecap: square"/>
     </g>
     <g id="line2d_16">
      <g>
       <use xlink:href="#mb4df7e3c08" x="57.6" y="257.355773" style="stroke: #000000; stroke-width: 0.8"/>
      </g>
     </g>
     <g id="text_9">
      <!-- 1 -->
      <g transform="translate(44.2375 261.154992) scale(0.1 -0.1)">
       <use xlink:href="#DejaVuSans-31"/>
      </g>
     </g>
    </g>
    <g id="ytick_3">
     <g id="line2d_17">
      <path d="M 57.6 223.391145 
L 414.72 223.391145 
" clip-path="url(#p3b1ded7f15)" style="fill: none; stroke: #b0b0b0; stroke-width: 0.8; stroke-linecap: square"/>
     </g>
     <g id="line2d_18">
      <g>
       <use xlink:href="#mb4df7e3c08" x="57.6" y="223.391145" style="stroke: #000000; stroke-width: 0.8"/>
      </g>
     </g>
     <g id="text_10">
      <!-- 2 -->
      <g transform="translate(44.2375 227.190363) scale(0.1 -0.1)">
       <use xlink:href="#DejaVuSans-32"/>
      </g>
     </g>
    </g>
    <g id="ytick_4">
     <g id="line2d_19">
      <path d="M 57.6 189.426516 
L 414.72 189.426516 
" clip-path="url(#p3b1ded7f15)" style="fill: none; stroke: #b0b0b0; stroke-width: 0.8; stroke-linecap: square"/>
     </g>
     <g id="line2d_20">
      <g>
       <use xlink:href="#mb4df7e3c08" x="57.6" y="189.426516" style="stroke: #000000; stroke-width: 0.8"/>
      </g>
     </g>
     <g id="text_11">
      <!-- 3 -->
      <g transform="translate(44.2375 193.225734) scale(0.1 -0.1)">
       <defs>
        <path id="DejaVuSans-33" d="M 2597 2516 
Q 3050 2419 3304 2112 
Q 3559 1806 3559 1356 
Q 3559 666 3084 287 
Q 2609 -91 1734 -91 
Q 1441 -91 1130 -33 
Q 819 25 488 141 
L 488 750 
Q 750 597 1062 519 
Q 1375 441 1716 441 
Q 2309 441 2620 675 
Q 2931 909 2931 1356 
Q 2931 1769 2642 2001 
Q 2353 2234 1838 2234 
L 1294 2234 
L 1294 2753 
L 1863 2753 
Q 2328 2753 2575 2939 
Q 2822 3125 2822 3475 
Q 2822 3834 2567 4026 
Q 2313 4219 1838 4219 
Q 1578 4219 1281 4162 
Q 984 4106 628 3988 
L 628 4550 
Q 988 4650 1302 4700 
Q 1616 4750 1894 4750 
Q 2613 4750 3031 4423 
Q 3450 4097 3450 3541 
Q 3450 3153 3228 2886 
Q 3006 2619 2597 2516 
z
" transform="scale(0.015625)"/>
       </defs>
       <use xlink:href="#DejaVuSans-33"/>
      </g>
     </g>
    </g>
    <g id="ytick_5">
     <g id="line2d_21">
      <path d="M 57.6 155.461887 
L 414.72 155.461887 
" clip-path="url(#p3b1ded7f15)" style="fill: none; stroke: #b0b0b0; stroke-width: 0.8; stroke-linecap: square"/>
     </g>
     <g id="line2d_22">
      <g>
       <use xlink:href="#mb4df7e3c08" x="57.6" y="155.461887" style="stroke: #000000; stroke-width: 0.8"/>
      </g>
     </g>
     <g id="text_12">
      <!-- 4 -->
      <g transform="translate(44.2375 159.261105) scale(0.1 -0.1)">
       <use xlink:href="#DejaVuSans-34"/>
      </g>
     </g>
    </g>
    <g id="ytick_6">
     <g id="line2d_23">
      <path d="M 57.6 121.497258 
L 414.72 121.497258 
" clip-path="url(#p3b1ded7f15)" style="fill: none; stroke: #b0b0b0; stroke-width: 0.8; stroke-linecap: square"/>
     </g>
     <g id="line2d_24">
      <g>
       <use xlink:href="#mb4df7e3c08" x="57.6" y="121.497258" style="stroke: #000000; stroke-width: 0.8"/>
      </g>
     </g>
     <g id="text_13">
      <!-- 5 -->
      <g transform="translate(44.2375 125.296477) scale(0.1 -0.1)">
       <defs>
        <path id="DejaVuSans-35" d="M 691 4666 
L 3169 4666 
L 3169 4134 
L 1269 4134 
L 1269 2991 
Q 1406 3038 1543 3061 
Q 1681 3084 1819 3084 
Q 2600 3084 3056 2656 
Q 3513 2228 3513 1497 
Q 3513 744 3044 326 
Q 2575 -91 1722 -91 
Q 1428 -91 1123 -41 
Q 819 9 494 109 
L 494 744 
Q 775 591 1075 516 
Q 1375 441 1709 441 
Q 2250 441 2565 725 
Q 2881 1009 2881 1497 
Q 2881 1984 2565 2268 
Q 2250 2553 1709 2553 
Q 1456 2553 1204 2497 
Q 953 2441 691 2322 
L 691 4666 
z
" transform="scale(0.015625)"/>
       </defs>
       <use xlink:href="#DejaVuSans-35"/>
      </g>
     </g>
    </g>
    <g id="ytick_7">
     <g id="line2d_25">
      <path d="M 57.6 87.532629 
L 414.72 87.532629 
" clip-path="url(#p3b1ded7f15)" style="fill: none; stroke: #b0b0b0; stroke-width: 0.8; stroke-linecap: square"/>
     </g>
     <g id="line2d_26">
      <g>
       <use xlink:href="#mb4df7e3c08" x="57.6" y="87.532629" style="stroke: #000000; stroke-width: 0.8"/>
      </g>
     </g>
     <g id="text_14">
      <!-- 6 -->
      <g transform="translate(44.2375 91.331848) scale(0.1 -0.1)">
       <use xlink:href="#DejaVuSans-36"/>
      </g>
     </g>
    </g>
    <g id="ytick_8">
     <g id="line2d_27">
      <path d="M 57.6 53.568 
L 414.72 53.568 
" clip-path="url(#p3b1ded7f15)" style="fill: none; stroke: #b0b0b0; stroke-width: 0.8; stroke-linecap: square"/>
     </g>
     <g id="line2d_28">
      <g>
       <use xlink:href="#mb4df7e3c08" x="57.6" y="53.568" style="stroke: #000000; stroke-width: 0.8"/>
      </g>
     </g>
     <g id="text_15">
      <!-- 7 -->
      <g transform="translate(44.2375 57.367219) scale(0.1 -0.1)">
       <defs>
        <path id="DejaVuSans-37" d="M 525 4666 
L 3525 4666 
L 3525 4397 
L 1831 0 
L 1172 0 
L 2766 4134 
L 525 4134 
L 525 4666 
z
" transform="scale(0.015625)"/>
       </defs>
       <use xlink:href="#DejaVuSans-37"/>
      </g>
     </g>
    </g>
    <g id="text_16">
     <!-- X -->
     <g transform="translate(38.157812 177.953) rotate(-90) scale(0.1 -0.1)">
      <defs>
       <path id="DejaVuSans-58" d="M 403 4666 
L 1081 4666 
L 2241 2931 
L 3406 4666 
L 4084 4666 
L 2584 2425 
L 4184 0 
L 3506 0 
L 2194 1984 
L 872 0 
L 191 0 
L 1856 2491 
L 403 4666 
z
" transform="scale(0.015625)"/>
      </defs>
      <use xlink:href="#DejaVuSans-58"/>
     </g>
    </g>
   </g>
   <g id="line2d_29">
    <path d="M 73.832727 53.568 
L 77.112066 67.795377 
L 80.391405 62.925058 
L 83.670744 85.451159 
L 86.950083 119.376252 
L 90.229421 153.071163 
L 93.50876 182.598532 
L 96.788099 209.821781 
L 100.067438 233.686831 
L 103.346777 256.456115 
L 106.626116 275.612529 
L 109.905455 288.348737 
L 113.184793 293.357038 
L 116.464132 295.049247 
L 119.743471 291.682437 
L 123.02281 285.223579 
L 126.302149 278.835233 
L 129.581488 274.933265 
L 132.860826 272.213659 
L 136.140165 270.169003 
L 139.419504 267.276532 
L 142.698843 265.815389 
L 145.978182 267.625299 
L 149.257521 268.637031 
L 152.53686 271.225718 
L 155.816198 272.073055 
L 159.095537 274.820766 
L 162.374876 274.800185 
L 165.654215 276.234195 
L 168.933554 278.733251 
L 172.212893 280.370167 
L 175.492231 279.738033 
L 178.77157 279.765428 
L 182.050909 281.36807 
L 185.330248 282.97311 
L 188.609587 284.63532 
L 191.888926 283.606973 
L 195.168264 283.54594 
L 198.447603 285.10529 
L 201.726942 286.472547 
L 205.006281 287.475913 
L 208.28562 286.486471 
L 211.564959 288.192971 
L 214.844298 288.108427 
L 218.123636 287.669886 
L 221.402975 289.207836 
L 224.682314 288.567175 
L 227.961653 287.416937 
L 231.240992 288.713123 
L 234.520331 287.952502 
L 237.799669 289.788915 
L 241.079008 290.125274 
L 244.358347 289.96449 
L 247.637686 291.066865 
L 250.917025 292.710998 
L 254.196364 290.931183 
L 257.475702 291.482383 
L 260.755041 292.672804 
L 264.03438 294.12185 
L 267.313719 292.919776 
L 270.593058 293.997167 
L 273.872397 295.310268 
L 277.151736 295.352411 
L 280.431074 294.914688 
L 283.710413 294.301144 
L 286.989752 294.548974 
L 290.269091 293.391664 
L 293.54843 291.873535 
L 296.827769 290.615824 
L 300.107107 291.450716 
L 303.386446 291.01359 
L 306.665785 290.473722 
L 309.945124 289.833922 
L 313.224463 290.689158 
L 316.503802 289.780482 
L 319.78314 289.251406 
L 323.062479 289.3598 
L 326.341818 290.521115 
L 329.621157 291.671027 
L 332.900496 292.190092 
L 336.179835 290.436215 
L 339.459174 291.699712 
L 342.738512 290.042092 
L 346.017851 290.085483 
L 349.29719 289.599173 
L 352.576529 289.034985 
L 355.855868 288.124847 
L 359.135207 286.848093 
L 362.414545 288.276117 
L 365.693884 289.938214 
L 368.973223 289.056429 
L 372.252562 289.268615 
L 375.531901 290.806576 
L 378.81124 289.410873 
L 382.090579 291.101788 
L 385.369917 291.217194 
L 388.649256 292.300207 
L 391.928595 293.324339 
L 395.207934 292.520016 
L 398.487273 293.266761 
" clip-path="url(#p3b1ded7f15)" style="fill: none; stroke: #0000ff; stroke-width: 1.5; stroke-linecap: square"/>
   </g>
   <g id="line2d_30">
    <path d="M 73.832727 53.568 
L 77.112066 67.795377 
L 80.391405 62.925058 
L 83.670744 85.451159 
L 86.950083 120.49878 
L 90.229421 154.523032 
L 93.50876 184.503519 
L 96.788099 211.775395 
L 100.067438 235.362704 
L 103.346777 257.556617 
L 106.626116 275.681495 
L 109.905455 287.18489 
L 113.184793 290.701855 
L 116.464132 291.412365 
L 119.743471 287.359375 
L 123.02281 280.762905 
L 126.302149 274.637653 
L 129.581488 271.309746 
L 132.860826 269.579003 
L 136.140165 268.586154 
L 139.419504 266.832968 
L 142.698843 266.31991 
L 145.978182 268.896449 
L 149.257521 270.397986 
L 152.53686 273.326888 
L 155.816198 274.336875 
L 159.095537 277.120334 
L 162.374876 277.095319 
L 165.654215 278.4869 
L 168.933554 280.905763 
L 172.212893 282.436537 
L 175.492231 281.668247 
L 178.77157 281.553816 
L 182.050909 283.035781 
L 185.330248 284.52381 
L 188.609587 286.066258 
L 191.888926 284.933409 
L 195.168264 284.75972 
L 198.447603 286.226236 
L 201.726942 287.522099 
L 205.006281 288.451765 
L 208.28562 287.383107 
L 211.564959 289.021057 
L 214.844298 288.871653 
L 218.123636 288.367106 
L 221.402975 289.83931 
L 224.682314 289.136287 
L 227.961653 287.929286 
L 231.240992 289.174992 
L 234.520331 288.366044 
L 237.799669 290.157207 
L 241.079008 290.455747 
L 244.358347 290.266766 
L 247.637686 291.344766 
L 250.917025 292.962256 
L 254.196364 291.157562 
L 257.475702 291.688578 
L 260.755041 292.862215 
L 264.03438 294.296633 
L 267.313719 293.082103 
L 270.593058 294.1492 
L 273.872397 295.453688 
L 277.151736 295.488 
L 280.431074 295.041364 
L 283.710413 294.416332 
L 286.989752 294.655104 
L 290.269091 293.490132 
L 293.54843 291.962447 
L 296.827769 290.695723 
L 300.107107 291.522471 
L 303.386446 291.077993 
L 306.665785 290.531531 
L 309.945124 289.885495 
L 313.224463 290.736824 
L 316.503802 289.825245 
L 319.78314 289.292981 
L 323.062479 289.398896 
L 326.341818 290.558421 
L 329.621157 291.706698 
L 332.900496 292.224514 
L 336.179835 290.468608 
L 339.459174 291.730243 
L 342.738512 290.070656 
L 346.017851 290.112245 
L 349.29719 289.624377 
L 352.576529 289.058733 
L 355.855868 288.142814 
L 359.135207 286.860806 
L 362.414545 288.284075 
L 365.693884 289.942636 
L 368.973223 289.058503 
L 372.252562 289.2686 
L 375.531901 290.80558 
L 378.81124 289.407881 
L 382.090579 291.096803 
L 385.369917 291.210385 
L 388.649256 292.291753 
L 391.928595 293.314742 
L 395.207934 292.507157 
L 398.487273 293.25131 
" clip-path="url(#p3b1ded7f15)" style="fill: none; stroke-dasharray: 5.55,2.4; stroke-dashoffset: 0; stroke: #000000; stroke-width: 1.5"/>
   </g>
   <g id="line2d_31">
    <path d="M 73.832727 53.568 
L 77.112066 67.795377 
L 80.391405 63.028882 
L 83.670744 78.28284 
L 86.950083 110.984995 
L 90.229421 145.662122 
L 93.50876 176.688401 
L 96.788099 204.505599 
L 100.067438 226.572472 
L 103.346777 243.468243 
L 106.626116 251.757196 
L 109.905455 252.020292 
L 113.184793 249.430325 
L 116.464132 252.961379 
L 119.743471 256.985199 
L 123.02281 259.05016 
L 126.302149 261.265631 
L 129.581488 265.293414 
L 132.860826 269.286541 
L 136.140165 272.680416 
L 139.419504 273.833776 
L 142.698843 275.119395 
L 145.978182 278.387198 
L 149.257521 280.041 
L 152.53686 282.775142 
L 155.816198 283.395454 
L 159.095537 285.526608 
L 162.374876 284.830836 
L 165.654215 285.653515 
L 168.933554 287.497155 
L 172.212893 288.443873 
L 175.492231 286.96555 
L 178.77157 286.16092 
L 182.050909 287.076126 
L 185.330248 287.976896 
L 188.609587 288.888221 
L 191.888926 287.231217 
L 195.168264 286.418647 
L 198.447603 287.391966 
L 201.726942 288.334627 
L 205.006281 288.849375 
L 208.28562 287.271968 
L 211.564959 288.475905 
L 214.844298 287.891536 
L 218.123636 286.868637 
L 221.402975 287.718335 
L 224.682314 286.320154 
L 227.961653 284.406364 
L 231.240992 284.965993 
L 234.520331 283.377992 
L 237.799669 284.322381 
L 241.079008 283.921112 
L 244.358347 283.221168 
L 247.637686 283.825704 
L 250.917025 284.814894 
L 254.196364 282.369609 
L 257.475702 282.393722 
L 260.755041 283.178693 
L 264.03438 284.301779 
L 267.313719 282.887199 
L 270.593058 283.89952 
L 273.872397 285.310463 
L 277.151736 285.532136 
L 280.431074 285.057192 
L 283.710413 284.215665 
L 286.989752 284.34067 
L 290.269091 283.247596 
L 293.54843 281.966748 
L 296.827769 280.628473 
L 300.107107 281.274793 
L 303.386446 280.708136 
L 306.665785 279.93861 
L 309.945124 279.135562 
L 313.224463 279.826696 
L 316.503802 278.675775 
L 319.78314 277.840016 
L 323.062479 277.813312 
L 326.341818 279.040567 
L 329.621157 280.342056 
L 332.900496 281.196466 
L 336.179835 279.487149 
L 339.459174 280.876791 
L 342.738512 279.280232 
L 346.017851 279.450874 
L 349.29719 279.235263 
L 352.576529 279.007552 
L 355.855868 278.428023 
L 359.135207 277.463836 
L 362.414545 279.154221 
L 365.693884 280.955867 
L 368.973223 280.088578 
L 372.252562 280.380081 
L 375.531901 281.768693 
L 378.81124 280.338919 
L 382.090579 282.048792 
L 385.369917 282.247559 
L 388.649256 283.471323 
L 391.928595 284.592489 
L 395.207934 283.977456 
L 398.487273 284.852791 
" clip-path="url(#p3b1ded7f15)" style="fill: none; stroke: #ff0000; stroke-width: 1.5; stroke-linecap: square"/>
   </g>
   <g id="patch_3">
    <path d="M 57.6 307.584 
L 57.6 41.472 
" style="fill: none; stroke: #000000; stroke-width: 0.8; stroke-linejoin: miter; stroke-linecap: square"/>
   </g>
   <g id="patch_4">
    <path d="M 414.72 307.584 
L 414.72 41.472 
" style="fill: none; stroke: #000000; stroke-width: 0.8; stroke-linejoin: miter; stroke-linecap: square"/>
   </g>
   <g id="patch_5">
    <path d="M 57.6 307.584 
L 414.72 307.584 
" style="fill: none; stroke: #000000; stroke-width: 0.8; stroke-linejoin: miter; stroke-linecap: square"/>
   </g>
   <g id="patch_6">
    <path d="M 57.6 41.472 
L 414.72 41.472 
" style="fill: none; stroke: #000000; stroke-width: 0.8; stroke-linejoin: miter; stroke-linecap: square"/>
   </g>
   <g id="legend_1">
    <g id="patch_7">
     <path d="M 392.72 67.472 
L 400.72 67.472 
Q 404.72 67.472 404.72 63.472 
L 404.72 55.472 
Q 404.72 51.472 400.72 51.472 
L 392.72 51.472 
Q 388.72 51.472 388.72 55.472 
L 388.72 63.472 
Q 388.72 67.472 392.72 67.472 
z
" style="fill: #ffffff; opacity: 0.8; stroke: #cccccc; stroke-linejoin: miter"/>
    </g>
   </g>
  </g>
 </g>
 <defs>
  <clipPath id="p3b1ded7f15">
   <rect x="57.6" y="41.472" width="357.12" height="266.112"/>
  </clipPath>
 </defs>
</svg>
