<?xml version="1.0" encoding="utf-8" standalone="no"?>
<!DOCTYPE svg PUBLIC "-//W3C//DTD SVG 1.1//EN"
  "http://www.w3.org/Graphics/SVG/1.1/DTD/svg11.dtd">
<svg xmlns:xlink="http://www.w3.org/1999/xlink" width="460.8pt" height="345.6pt" viewBox="0 0 460.8 345.6" xmlns="http://www.w3.org/2000/svg" version="1.1">
 <metadata>
  <rdf:RDF xmlns:dc="http://purl.org/dc/elements/1.1/" xmlns:cc="http://creativecommons.org/ns#" xmlns:rdf="http://www.w3.org/1999/02/22-rdf-syntax-ns#">
   <cc:Work>
    <dc:type rdf:resource="http://purl.org/dc/dcmitype/StillImage"/>
    <dc:date>2024-05-21T18:18:41.091772</dc:date>
    <dc:format>image/svg+xml</dc:format>
    <dc:creator>
     <cc:Agent>
      <dc:title>Matplotlib v3.7.1, https://matplotlib.org/</dc:title>
     </cc:Agent>
    </dc:creator>
   </cc:Work>
  </rdf:RDF>
 </metadata>
 <defs>
  <style type="text/css">*{stroke-linejoin: round; stroke-linecap: butt}</style>
 </defs>
 <g id="figure_1">
  <g id="patch_1">
   <path d="M 0 345.6 
L 460.8 345.6 
L 460.8 0 
L 0 0 
z
" style="fill: #ffffff"/>
  </g>
  <g id="axes_1">
   <g id="patch_2">
    <path d="M 57.6 307.584 
L 414.72 307.584 
L 414.72 41.472 
L 57.6 41.472 
z
" style="fill: #ffffff"/>
   </g>
   <g id="matplotlib.axis_1">
    <g id="xtick_1">
     <g id="line2d_1">
      <path d="M 73.832727 307.584 
L 73.832727 41.472 
" clip-path="url(#p0bc958659f)" style="fill: none; stroke: #b0b0b0; stroke-width: 0.8; stroke-linecap: square"/>
     </g>
     <g id="line2d_2">
      <defs>
       <path id="ma2e0cc7963" d="M 0 0 
L 0 3.5 
" style="stroke: #000000; stroke-width: 0.8"/>
      </defs>
      <g>
       <use xlink:href="#ma2e0cc7963" x="73.832727" y="307.584" style="stroke: #000000; stroke-width: 0.8"/>
      </g>
     </g>
     <g id="text_1">
      <!-- 0 -->
      <g transform="translate(70.651477 322.182437) scale(0.1 -0.1)">
       <defs>
        <path id="DejaVuSans-30" d="M 2034 4250 
Q 1547 4250 1301 3770 
Q 1056 3291 1056 2328 
Q 1056 1369 1301 889 
Q 1547 409 2034 409 
Q 2525 409 2770 889 
Q 3016 1369 3016 2328 
Q 3016 3291 2770 3770 
Q 2525 4250 2034 4250 
z
M 2034 4750 
Q 2819 4750 3233 4129 
Q 3647 3509 3647 2328 
Q 3647 1150 3233 529 
Q 2819 -91 2034 -91 
Q 1250 -91 836 529 
Q 422 1150 422 2328 
Q 422 3509 836 4129 
Q 1250 4750 2034 4750 
z
" transform="scale(0.015625)"/>
       </defs>
       <use xlink:href="#DejaVuSans-30"/>
      </g>
     </g>
    </g>
    <g id="xtick_2">
     <g id="line2d_3">
      <path d="M 139.419504 307.584 
L 139.419504 41.472 
" clip-path="url(#p0bc958659f)" style="fill: none; stroke: #b0b0b0; stroke-width: 0.8; stroke-linecap: square"/>
     </g>
     <g id="line2d_4">
      <g>
       <use xlink:href="#ma2e0cc7963" x="139.419504" y="307.584" style="stroke: #000000; stroke-width: 0.8"/>
      </g>
     </g>
     <g id="text_2">
      <!-- 20 -->
      <g transform="translate(133.057004 322.182437) scale(0.1 -0.1)">
       <defs>
        <path id="DejaVuSans-32" d="M 1228 531 
L 3431 531 
L 3431 0 
L 469 0 
L 469 531 
Q 828 903 1448 1529 
Q 2069 2156 2228 2338 
Q 2531 2678 2651 2914 
Q 2772 3150 2772 3378 
Q 2772 3750 2511 3984 
Q 2250 4219 1831 4219 
Q 1534 4219 1204 4116 
Q 875 4013 500 3803 
L 500 4441 
Q 881 4594 1212 4672 
Q 1544 4750 1819 4750 
Q 2544 4750 2975 4387 
Q 3406 4025 3406 3419 
Q 3406 3131 3298 2873 
Q 3191 2616 2906 2266 
Q 2828 2175 2409 1742 
Q 1991 1309 1228 531 
z
" transform="scale(0.015625)"/>
       </defs>
       <use xlink:href="#DejaVuSans-32"/>
       <use xlink:href="#DejaVuSans-30" x="63.623047"/>
      </g>
     </g>
    </g>
    <g id="xtick_3">
     <g id="line2d_5">
      <path d="M 205.006281 307.584 
L 205.006281 41.472 
" clip-path="url(#p0bc958659f)" style="fill: none; stroke: #b0b0b0; stroke-width: 0.8; stroke-linecap: square"/>
     </g>
     <g id="line2d_6">
      <g>
       <use xlink:href="#ma2e0cc7963" x="205.006281" y="307.584" style="stroke: #000000; stroke-width: 0.8"/>
      </g>
     </g>
     <g id="text_3">
      <!-- 40 -->
      <g transform="translate(198.643781 322.182437) scale(0.1 -0.1)">
       <defs>
        <path id="DejaVuSans-34" d="M 2419 4116 
L 825 1625 
L 2419 1625 
L 2419 4116 
z
M 2253 4666 
L 3047 4666 
L 3047 1625 
L 3713 1625 
L 3713 1100 
L 3047 1100 
L 3047 0 
L 2419 0 
L 2419 1100 
L 313 1100 
L 313 1709 
L 2253 4666 
z
" transform="scale(0.015625)"/>
       </defs>
       <use xlink:href="#DejaVuSans-34"/>
       <use xlink:href="#DejaVuSans-30" x="63.623047"/>
      </g>
     </g>
    </g>
    <g id="xtick_4">
     <g id="line2d_7">
      <path d="M 270.593058 307.584 
L 270.593058 41.472 
" clip-path="url(#p0bc958659f)" style="fill: none; stroke: #b0b0b0; stroke-width: 0.8; stroke-linecap: square"/>
     </g>
     <g id="line2d_8">
      <g>
       <use xlink:href="#ma2e0cc7963" x="270.593058" y="307.584" style="stroke: #000000; stroke-width: 0.8"/>
      </g>
     </g>
     <g id="text_4">
      <!-- 60 -->
      <g transform="translate(264.230558 322.182437) scale(0.1 -0.1)">
       <defs>
        <path id="DejaVuSans-36" d="M 2113 2584 
Q 1688 2584 1439 2293 
Q 1191 2003 1191 1497 
Q 1191 994 1439 701 
Q 1688 409 2113 409 
Q 2538 409 2786 701 
Q 3034 994 3034 1497 
Q 3034 2003 2786 2293 
Q 2538 2584 2113 2584 
z
M 3366 4563 
L 3366 3988 
Q 3128 4100 2886 4159 
Q 2644 4219 2406 4219 
Q 1781 4219 1451 3797 
Q 1122 3375 1075 2522 
Q 1259 2794 1537 2939 
Q 1816 3084 2150 3084 
Q 2853 3084 3261 2657 
Q 3669 2231 3669 1497 
Q 3669 778 3244 343 
Q 2819 -91 2113 -91 
Q 1303 -91 875 529 
Q 447 1150 447 2328 
Q 447 3434 972 4092 
Q 1497 4750 2381 4750 
Q 2619 4750 2861 4703 
Q 3103 4656 3366 4563 
z
" transform="scale(0.015625)"/>
       </defs>
       <use xlink:href="#DejaVuSans-36"/>
       <use xlink:href="#DejaVuSans-30" x="63.623047"/>
      </g>
     </g>
    </g>
    <g id="xtick_5">
     <g id="line2d_9">
      <path d="M 336.179835 307.584 
L 336.179835 41.472 
" clip-path="url(#p0bc958659f)" style="fill: none; stroke: #b0b0b0; stroke-width: 0.8; stroke-linecap: square"/>
     </g>
     <g id="line2d_10">
      <g>
       <use xlink:href="#ma2e0cc7963" x="336.179835" y="307.584" style="stroke: #000000; stroke-width: 0.8"/>
      </g>
     </g>
     <g id="text_5">
      <!-- 80 -->
      <g transform="translate(329.817335 322.182437) scale(0.1 -0.1)">
       <defs>
        <path id="DejaVuSans-38" d="M 2034 2216 
Q 1584 2216 1326 1975 
Q 1069 1734 1069 1313 
Q 1069 891 1326 650 
Q 1584 409 2034 409 
Q 2484 409 2743 651 
Q 3003 894 3003 1313 
Q 3003 1734 2745 1975 
Q 2488 2216 2034 2216 
z
M 1403 2484 
Q 997 2584 770 2862 
Q 544 3141 544 3541 
Q 544 4100 942 4425 
Q 1341 4750 2034 4750 
Q 2731 4750 3128 4425 
Q 3525 4100 3525 3541 
Q 3525 3141 3298 2862 
Q 3072 2584 2669 2484 
Q 3125 2378 3379 2068 
Q 3634 1759 3634 1313 
Q 3634 634 3220 271 
Q 2806 -91 2034 -91 
Q 1263 -91 848 271 
Q 434 634 434 1313 
Q 434 1759 690 2068 
Q 947 2378 1403 2484 
z
M 1172 3481 
Q 1172 3119 1398 2916 
Q 1625 2713 2034 2713 
Q 2441 2713 2670 2916 
Q 2900 3119 2900 3481 
Q 2900 3844 2670 4047 
Q 2441 4250 2034 4250 
Q 1625 4250 1398 4047 
Q 1172 3844 1172 3481 
z
" transform="scale(0.015625)"/>
       </defs>
       <use xlink:href="#DejaVuSans-38"/>
       <use xlink:href="#DejaVuSans-30" x="63.623047"/>
      </g>
     </g>
    </g>
    <g id="xtick_6">
     <g id="line2d_11">
      <path d="M 401.766612 307.584 
L 401.766612 41.472 
" clip-path="url(#p0bc958659f)" style="fill: none; stroke: #b0b0b0; stroke-width: 0.8; stroke-linecap: square"/>
     </g>
     <g id="line2d_12">
      <g>
       <use xlink:href="#ma2e0cc7963" x="401.766612" y="307.584" style="stroke: #000000; stroke-width: 0.8"/>
      </g>
     </g>
     <g id="text_6">
      <!-- 100 -->
      <g transform="translate(392.222862 322.182437) scale(0.1 -0.1)">
       <defs>
        <path id="DejaVuSans-31" d="M 794 531 
L 1825 531 
L 1825 4091 
L 703 3866 
L 703 4441 
L 1819 4666 
L 2450 4666 
L 2450 531 
L 3481 531 
L 3481 0 
L 794 0 
L 794 531 
z
" transform="scale(0.015625)"/>
       </defs>
       <use xlink:href="#DejaVuSans-31"/>
       <use xlink:href="#DejaVuSans-30" x="63.623047"/>
       <use xlink:href="#DejaVuSans-30" x="127.246094"/>
      </g>
     </g>
    </g>
    <g id="text_7">
     <!-- T -->
     <g transform="translate(233.106094 335.860562) scale(0.1 -0.1)">
      <defs>
       <path id="DejaVuSans-54" d="M -19 4666 
L 3928 4666 
L 3928 4134 
L 2272 4134 
L 2272 0 
L 1638 0 
L 1638 4134 
L -19 4134 
L -19 4666 
z
" transform="scale(0.015625)"/>
      </defs>
      <use xlink:href="#DejaVuSans-54"/>
     </g>
    </g>
   </g>
   <g id="matplotlib.axis_2">
    <g id="ytick_1">
     <g id="line2d_13">
      <path d="M 57.6 269.022325 
L 414.72 269.022325 
" clip-path="url(#p0bc958659f)" style="fill: none; stroke: #b0b0b0; stroke-width: 0.8; stroke-linecap: square"/>
     </g>
     <g id="line2d_14">
      <defs>
       <path id="m61eabc5d18" d="M 0 0 
L -3.5 0 
" style="stroke: #000000; stroke-width: 0.8"/>
      </defs>
      <g>
       <use xlink:href="#m61eabc5d18" x="57.6" y="269.022325" style="stroke: #000000; stroke-width: 0.8"/>
      </g>
     </g>
     <g id="text_8">
      <!-- 0 -->
      <g transform="translate(44.2375 272.821544) scale(0.1 -0.1)">
       <use xlink:href="#DejaVuSans-30"/>
      </g>
     </g>
    </g>
    <g id="ytick_2">
     <g id="line2d_15">
      <path d="M 57.6 221.143586 
L 414.72 221.143586 
" clip-path="url(#p0bc958659f)" style="fill: none; stroke: #b0b0b0; stroke-width: 0.8; stroke-linecap: square"/>
     </g>
     <g id="line2d_16">
      <g>
       <use xlink:href="#m61eabc5d18" x="57.6" y="221.143586" style="stroke: #000000; stroke-width: 0.8"/>
      </g>
     </g>
     <g id="text_9">
      <!-- 2 -->
      <g transform="translate(44.2375 224.942805) scale(0.1 -0.1)">
       <use xlink:href="#DejaVuSans-32"/>
      </g>
     </g>
    </g>
    <g id="ytick_3">
     <g id="line2d_17">
      <path d="M 57.6 173.264847 
L 414.72 173.264847 
" clip-path="url(#p0bc958659f)" style="fill: none; stroke: #b0b0b0; stroke-width: 0.8; stroke-linecap: square"/>
     </g>
     <g id="line2d_18">
      <g>
       <use xlink:href="#m61eabc5d18" x="57.6" y="173.264847" style="stroke: #000000; stroke-width: 0.8"/>
      </g>
     </g>
     <g id="text_10">
      <!-- 4 -->
      <g transform="translate(44.2375 177.064066) scale(0.1 -0.1)">
       <use xlink:href="#DejaVuSans-34"/>
      </g>
     </g>
    </g>
    <g id="ytick_4">
     <g id="line2d_19">
      <path d="M 57.6 125.386108 
L 414.72 125.386108 
" clip-path="url(#p0bc958659f)" style="fill: none; stroke: #b0b0b0; stroke-width: 0.8; stroke-linecap: square"/>
     </g>
     <g id="line2d_20">
      <g>
       <use xlink:href="#m61eabc5d18" x="57.6" y="125.386108" style="stroke: #000000; stroke-width: 0.8"/>
      </g>
     </g>
     <g id="text_11">
      <!-- 6 -->
      <g transform="translate(44.2375 129.185327) scale(0.1 -0.1)">
       <use xlink:href="#DejaVuSans-36"/>
      </g>
     </g>
    </g>
    <g id="ytick_5">
     <g id="line2d_21">
      <path d="M 57.6 77.507369 
L 414.72 77.507369 
" clip-path="url(#p0bc958659f)" style="fill: none; stroke: #b0b0b0; stroke-width: 0.8; stroke-linecap: square"/>
     </g>
     <g id="line2d_22">
      <g>
       <use xlink:href="#m61eabc5d18" x="57.6" y="77.507369" style="stroke: #000000; stroke-width: 0.8"/>
      </g>
     </g>
     <g id="text_12">
      <!-- 8 -->
      <g transform="translate(44.2375 81.306588) scale(0.1 -0.1)">
       <use xlink:href="#DejaVuSans-38"/>
      </g>
     </g>
    </g>
    <g id="text_13">
     <!-- X -->
     <g transform="translate(38.157812 177.953) rotate(-90) scale(0.1 -0.1)">
      <defs>
       <path id="DejaVuSans-58" d="M 403 4666 
L 1081 4666 
L 2241 2931 
L 3406 4666 
L 4084 4666 
L 2584 2425 
L 4184 0 
L 3506 0 
L 2194 1984 
L 872 0 
L 191 0 
L 1856 2491 
L 403 4666 
z
" transform="scale(0.015625)"/>
      </defs>
      <use xlink:href="#DejaVuSans-58"/>
     </g>
    </g>
   </g>
   <g id="line2d_23">
    <path d="M 73.832727 53.568 
L 77.112066 81.660274 
L 80.391405 120.27652 
L 83.670744 137.787625 
L 86.950083 142.296559 
L 90.229421 146.358853 
L 93.50876 149.880992 
L 96.788099 155.049381 
L 100.067438 160.405976 
L 103.346777 168.066376 
L 106.626116 176.005492 
L 109.905455 185.028967 
L 113.184793 192.892697 
L 116.464132 201.951702 
L 119.743471 210.149605 
L 123.02281 217.424633 
L 126.302149 224.687273 
L 129.581488 231.168818 
L 132.860826 235.892331 
L 136.140165 240.369936 
L 139.419504 245.019111 
L 142.698843 250.60655 
L 145.978182 255.197714 
L 149.257521 259.467498 
L 152.53686 262.539875 
L 155.816198 263.494308 
L 159.095537 263.971026 
L 162.374876 264.015399 
L 165.654215 265.972583 
L 168.933554 266.985964 
L 172.212893 267.313454 
L 175.492231 268.432063 
L 178.77157 269.696958 
L 182.050909 269.18039 
L 185.330248 268.782751 
L 188.609587 269.405756 
L 191.888926 268.47821 
L 195.168264 267.654967 
L 198.447603 266.717138 
L 201.726942 267.698844 
L 205.006281 268.018706 
L 208.28562 267.010747 
L 211.564959 266.485232 
L 214.844298 266.883038 
L 218.123636 267.791629 
L 221.402975 267.952508 
L 224.682314 268.047948 
L 227.961653 268.775338 
L 231.240992 269.145993 
L 234.520331 269.543803 
L 237.799669 269.575428 
L 241.079008 268.708575 
L 244.358347 269.843738 
L 247.637686 270.46513 
L 250.917025 270.389067 
L 254.196364 270.623253 
L 257.475702 269.891149 
L 260.755041 269.253847 
L 264.03438 268.790661 
L 267.313719 268.701945 
L 270.593058 269.796505 
L 273.872397 269.89222 
L 277.151736 270.333157 
L 280.431074 270.678417 
L 283.710413 269.923498 
L 286.989752 268.71239 
L 290.269091 268.846208 
L 293.54843 269.714674 
L 296.827769 269.49164 
L 300.107107 269.248312 
L 303.386446 269.36336 
L 306.665785 270.189989 
L 309.945124 269.529259 
L 313.224463 269.545869 
L 316.503802 270.226372 
L 319.78314 270.918787 
L 323.062479 270.237546 
L 326.341818 270.383496 
L 329.621157 270.157819 
L 332.900496 269.814377 
L 336.179835 270.001139 
L 339.459174 269.338229 
L 342.738512 269.512046 
L 346.017851 269.831653 
L 349.29719 269.498645 
L 352.576529 270.053351 
L 355.855868 269.906872 
L 359.135207 270.867719 
L 362.414545 270.192991 
L 365.693884 270.912365 
L 368.973223 269.629637 
L 372.252562 270.241295 
L 375.531901 271.203029 
L 378.81124 270.193473 
L 382.090579 268.92761 
L 385.369917 267.925662 
L 388.649256 268.036261 
L 391.928595 268.288458 
L 395.207934 268.742283 
L 398.487273 268.842626 
" clip-path="url(#p0bc958659f)" style="fill: none; stroke: #0000ff; stroke-width: 1.5; stroke-linecap: square"/>
   </g>
   <g id="line2d_24">
    <path d="M 73.832727 53.568 
L 77.112066 81.660274 
L 80.391405 120.27652 
L 83.670744 140.596853 
L 86.950083 143.922484 
L 90.229421 149.34216 
L 93.50876 152.325388 
L 96.788099 157.660286 
L 100.067438 162.87222 
L 103.346777 170.972216 
L 106.626116 178.861047 
L 109.905455 188.518534 
L 113.184793 196.156703 
L 116.464132 205.891701 
L 119.743471 213.94259 
L 123.02281 222.124834 
L 126.302149 229.441149 
L 129.581488 236.679684 
L 132.860826 241.208131 
L 136.140165 245.964117 
L 139.419504 249.987999 
L 142.698843 255.25803 
L 145.978182 259.006685 
L 149.257521 263.011571 
L 152.53686 265.381684 
L 155.816198 266.132813 
L 159.095537 266.11468 
L 162.374876 265.798654 
L 165.654215 267.470648 
L 168.933554 268.239112 
L 172.212893 268.545899 
L 175.492231 269.464544 
L 178.77157 270.584405 
L 182.050909 270.047027 
L 185.330248 269.757027 
L 188.609587 270.435351 
L 191.888926 269.372447 
L 195.168264 268.481269 
L 198.447603 267.387832 
L 201.726942 268.139217 
L 205.006281 268.378925 
L 208.28562 267.392964 
L 211.564959 266.920612 
L 214.844298 267.271628 
L 218.123636 268.127967 
L 221.402975 268.27717 
L 224.682314 268.33292 
L 227.961653 269.037022 
L 231.240992 269.395752 
L 234.520331 269.764426 
L 237.799669 269.805694 
L 241.079008 268.915015 
L 244.358347 270.028827 
L 247.637686 270.627862 
L 250.917025 270.532282 
L 254.196364 270.809697 
L 257.475702 270.063056 
L 260.755041 269.434804 
L 264.03438 268.953786 
L 267.313719 268.846512 
L 270.593058 269.923607 
L 273.872397 270.004298 
L 277.151736 270.432336 
L 280.431074 270.774614 
L 283.710413 270.009832 
L 286.989752 268.823158 
L 290.269091 268.947747 
L 293.54843 269.804864 
L 296.827769 269.571895 
L 300.107107 269.319454 
L 303.386446 269.426256 
L 306.665785 270.245474 
L 309.945124 269.589073 
L 313.224463 269.599787 
L 316.503802 270.273817 
L 319.78314 270.96064 
L 323.062479 270.274697 
L 326.341818 270.416546 
L 329.621157 270.18736 
L 332.900496 269.840713 
L 336.179835 270.024577 
L 339.459174 269.324384 
L 342.738512 269.495809 
L 346.017851 269.816682 
L 349.29719 269.485145 
L 352.576529 270.04119 
L 355.855868 269.862835 
L 359.135207 270.824698 
L 362.414545 270.136229 
L 365.693884 270.859794 
L 368.973223 269.582661 
L 372.252562 270.199414 
L 375.531901 271.165834 
L 378.81124 270.160344 
L 382.090579 268.89803 
L 385.369917 267.899271 
L 388.649256 268.01275 
L 391.928595 268.267577 
L 395.207934 268.723728 
L 398.487273 268.826165 
" clip-path="url(#p0bc958659f)" style="fill: none; stroke-dasharray: 5.55,2.4; stroke-dashoffset: 0; stroke: #000000; stroke-width: 1.5"/>
   </g>
   <g id="line2d_25">
    <path d="M 73.832727 53.568 
L 77.112066 77.916884 
L 80.391405 112.538819 
L 83.670744 134.302523 
L 86.950083 143.107288 
L 90.229421 151.125236 
L 93.50876 158.58386 
L 96.788099 168.498942 
L 100.067438 179.963611 
L 103.346777 195.359118 
L 106.626116 212.778158 
L 109.905455 233.071607 
L 113.184793 253.232759 
L 116.464132 258.092003 
L 119.743471 262.058291 
L 123.02281 265.239666 
L 126.302149 268.424486 
L 129.581488 270.794221 
L 132.860826 271.496813 
L 136.140165 272.217068 
L 139.419504 273.341913 
L 142.698843 275.802011 
L 145.978182 277.803751 
L 149.257521 280.348176 
L 152.53686 282.352027 
L 155.816198 282.88201 
L 159.095537 283.396373 
L 162.374876 283.572166 
L 165.654215 285.69258 
L 168.933554 286.963747 
L 172.212893 287.819507 
L 175.492231 289.508735 
L 178.77157 291.422049 
L 182.050909 291.585526 
L 185.330248 291.924127 
L 188.609587 293.203878 
L 191.888926 292.796327 
L 195.168264 292.501048 
L 198.447603 292.018472 
L 201.726942 293.466334 
L 205.006281 294.086356 
L 208.28562 293.488186 
L 211.564959 293.389232 
L 214.844298 294.158626 
L 218.123636 295.261001 
L 221.402975 295.488 
L 224.682314 292.605475 
L 227.961653 290.400197 
L 231.240992 287.992894 
L 234.520331 285.848703 
L 237.799669 283.596119 
L 241.079008 280.609197 
L 244.358347 279.816971 
L 247.637686 278.506583 
L 250.917025 276.732659 
L 254.196364 275.47606 
L 257.475702 273.334315 
L 260.755041 271.424908 
L 264.03438 269.689778 
L 267.313719 268.328155 
L 270.593058 268.142253 
L 273.872397 266.952451 
L 277.151736 266.236548 
L 280.431074 265.434646 
L 283.710413 263.592401 
L 286.989752 261.358763 
L 290.269091 260.436361 
L 293.54843 260.120658 
L 296.827769 258.696916 
L 300.107107 257.39124 
L 303.386446 256.463768 
L 306.665785 256.273052 
L 309.945124 254.601784 
L 313.224463 253.787236 
L 316.503802 253.663221 
L 319.78314 253.534926 
L 323.062479 252.071635 
L 326.341818 251.524072 
L 329.621157 250.523522 
L 332.900496 249.523161 
L 336.179835 249.112791 
L 339.459174 247.914902 
L 342.738512 247.655287 
L 346.017851 247.457123 
L 349.29719 246.616773 
L 352.576529 246.761089 
L 355.855868 246.313592 
L 359.135207 247.121744 
L 362.414545 246.242947 
L 365.693884 247.035021 
L 368.973223 245.77896 
L 372.252562 246.536549 
L 375.531901 247.591256 
L 378.81124 246.656964 
L 382.090579 245.584951 
L 385.369917 244.771093 
L 388.649256 245.036625 
L 391.928595 245.418381 
L 395.207934 246.011653 
L 398.487273 246.302947 
" clip-path="url(#p0bc958659f)" style="fill: none; stroke: #ff0000; stroke-width: 1.5; stroke-linecap: square"/>
   </g>
   <g id="patch_3">
    <path d="M 57.6 307.584 
L 57.6 41.472 
" style="fill: none; stroke: #000000; stroke-width: 0.8; stroke-linejoin: miter; stroke-linecap: square"/>
   </g>
   <g id="patch_4">
    <path d="M 414.72 307.584 
L 414.72 41.472 
" style="fill: none; stroke: #000000; stroke-width: 0.8; stroke-linejoin: miter; stroke-linecap: square"/>
   </g>
   <g id="patch_5">
    <path d="M 57.6 307.584 
L 414.72 307.584 
" style="fill: none; stroke: #000000; stroke-width: 0.8; stroke-linejoin: miter; stroke-linecap: square"/>
   </g>
   <g id="patch_6">
    <path d="M 57.6 41.472 
L 414.72 41.472 
" style="fill: none; stroke: #000000; stroke-width: 0.8; stroke-linejoin: miter; stroke-linecap: square"/>
   </g>
   <g id="legend_1">
    <g id="patch_7">
     <path d="M 392.72 67.472 
L 400.72 67.472 
Q 404.72 67.472 404.72 63.472 
L 404.72 55.472 
Q 404.72 51.472 400.72 51.472 
L 392.72 51.472 
Q 388.72 51.472 388.72 55.472 
L 388.72 63.472 
Q 388.72 67.472 392.72 67.472 
z
" style="fill: #ffffff; opacity: 0.8; stroke: #cccccc; stroke-linejoin: miter"/>
    </g>
   </g>
  </g>
 </g>
 <defs>
  <clipPath id="p0bc958659f">
   <rect x="57.6" y="41.472" width="357.12" height="266.112"/>
  </clipPath>
 </defs>
</svg>
