<?xml version="1.0" encoding="utf-8" standalone="no"?>
<!DOCTYPE svg PUBLIC "-//W3C//DTD SVG 1.1//EN"
  "http://www.w3.org/Graphics/SVG/1.1/DTD/svg11.dtd">
<svg xmlns:xlink="http://www.w3.org/1999/xlink" width="460.8pt" height="345.6pt" viewBox="0 0 460.8 345.6" xmlns="http://www.w3.org/2000/svg" version="1.1">
 <metadata>
  <rdf:RDF xmlns:dc="http://purl.org/dc/elements/1.1/" xmlns:cc="http://creativecommons.org/ns#" xmlns:rdf="http://www.w3.org/1999/02/22-rdf-syntax-ns#">
   <cc:Work>
    <dc:type rdf:resource="http://purl.org/dc/dcmitype/StillImage"/>
    <dc:date>2024-05-21T18:18:41.025113</dc:date>
    <dc:format>image/svg+xml</dc:format>
    <dc:creator>
     <cc:Agent>
      <dc:title>Matplotlib v3.7.1, https://matplotlib.org/</dc:title>
     </cc:Agent>
    </dc:creator>
   </cc:Work>
  </rdf:RDF>
 </metadata>
 <defs>
  <style type="text/css">*{stroke-linejoin: round; stroke-linecap: butt}</style>
 </defs>
 <g id="figure_1">
  <g id="patch_1">
   <path d="M 0 345.6 
L 460.8 345.6 
L 460.8 0 
L 0 0 
z
" style="fill: #ffffff"/>
  </g>
  <g id="axes_1">
   <g id="patch_2">
    <path d="M 57.6 307.584 
L 414.72 307.584 
L 414.72 41.472 
L 57.6 41.472 
z
" style="fill: #ffffff"/>
   </g>
   <g id="matplotlib.axis_1">
    <g id="xtick_1">
     <g id="line2d_1">
      <path d="M 73.832727 307.584 
L 73.832727 41.472 
" clip-path="url(#pb64d5e4555)" style="fill: none; stroke: #b0b0b0; stroke-width: 0.8; stroke-linecap: square"/>
     </g>
     <g id="line2d_2">
      <defs>
       <path id="me1c93d264f" d="M 0 0 
L 0 3.5 
" style="stroke: #000000; stroke-width: 0.8"/>
      </defs>
      <g>
       <use xlink:href="#me1c93d264f" x="73.832727" y="307.584" style="stroke: #000000; stroke-width: 0.8"/>
      </g>
     </g>
     <g id="text_1">
      <!-- 0 -->
      <g transform="translate(70.651477 322.182437) scale(0.1 -0.1)">
       <defs>
        <path id="DejaVuSans-30" d="M 2034 4250 
Q 1547 4250 1301 3770 
Q 1056 3291 1056 2328 
Q 1056 1369 1301 889 
Q 1547 409 2034 409 
Q 2525 409 2770 889 
Q 3016 1369 3016 2328 
Q 3016 3291 2770 3770 
Q 2525 4250 2034 4250 
z
M 2034 4750 
Q 2819 4750 3233 4129 
Q 3647 3509 3647 2328 
Q 3647 1150 3233 529 
Q 2819 -91 2034 -91 
Q 1250 -91 836 529 
Q 422 1150 422 2328 
Q 422 3509 836 4129 
Q 1250 4750 2034 4750 
z
" transform="scale(0.015625)"/>
       </defs>
       <use xlink:href="#DejaVuSans-30"/>
      </g>
     </g>
    </g>
    <g id="xtick_2">
     <g id="line2d_3">
      <path d="M 139.419504 307.584 
L 139.419504 41.472 
" clip-path="url(#pb64d5e4555)" style="fill: none; stroke: #b0b0b0; stroke-width: 0.8; stroke-linecap: square"/>
     </g>
     <g id="line2d_4">
      <g>
       <use xlink:href="#me1c93d264f" x="139.419504" y="307.584" style="stroke: #000000; stroke-width: 0.8"/>
      </g>
     </g>
     <g id="text_2">
      <!-- 20 -->
      <g transform="translate(133.057004 322.182437) scale(0.1 -0.1)">
       <defs>
        <path id="DejaVuSans-32" d="M 1228 531 
L 3431 531 
L 3431 0 
L 469 0 
L 469 531 
Q 828 903 1448 1529 
Q 2069 2156 2228 2338 
Q 2531 2678 2651 2914 
Q 2772 3150 2772 3378 
Q 2772 3750 2511 3984 
Q 2250 4219 1831 4219 
Q 1534 4219 1204 4116 
Q 875 4013 500 3803 
L 500 4441 
Q 881 4594 1212 4672 
Q 1544 4750 1819 4750 
Q 2544 4750 2975 4387 
Q 3406 4025 3406 3419 
Q 3406 3131 3298 2873 
Q 3191 2616 2906 2266 
Q 2828 2175 2409 1742 
Q 1991 1309 1228 531 
z
" transform="scale(0.015625)"/>
       </defs>
       <use xlink:href="#DejaVuSans-32"/>
       <use xlink:href="#DejaVuSans-30" x="63.623047"/>
      </g>
     </g>
    </g>
    <g id="xtick_3">
     <g id="line2d_5">
      <path d="M 205.006281 307.584 
L 205.006281 41.472 
" clip-path="url(#pb64d5e4555)" style="fill: none; stroke: #b0b0b0; stroke-width: 0.8; stroke-linecap: square"/>
     </g>
     <g id="line2d_6">
      <g>
       <use xlink:href="#me1c93d264f" x="205.006281" y="307.584" style="stroke: #000000; stroke-width: 0.8"/>
      </g>
     </g>
     <g id="text_3">
      <!-- 40 -->
      <g transform="translate(198.643781 322.182437) scale(0.1 -0.1)">
       <defs>
        <path id="DejaVuSans-34" d="M 2419 4116 
L 825 1625 
L 2419 1625 
L 2419 4116 
z
M 2253 4666 
L 3047 4666 
L 3047 1625 
L 3713 1625 
L 3713 1100 
L 3047 1100 
L 3047 0 
L 2419 0 
L 2419 1100 
L 313 1100 
L 313 1709 
L 2253 4666 
z
" transform="scale(0.015625)"/>
       </defs>
       <use xlink:href="#DejaVuSans-34"/>
       <use xlink:href="#DejaVuSans-30" x="63.623047"/>
      </g>
     </g>
    </g>
    <g id="xtick_4">
     <g id="line2d_7">
      <path d="M 270.593058 307.584 
L 270.593058 41.472 
" clip-path="url(#pb64d5e4555)" style="fill: none; stroke: #b0b0b0; stroke-width: 0.8; stroke-linecap: square"/>
     </g>
     <g id="line2d_8">
      <g>
       <use xlink:href="#me1c93d264f" x="270.593058" y="307.584" style="stroke: #000000; stroke-width: 0.8"/>
      </g>
     </g>
     <g id="text_4">
      <!-- 60 -->
      <g transform="translate(264.230558 322.182437) scale(0.1 -0.1)">
       <defs>
        <path id="DejaVuSans-36" d="M 2113 2584 
Q 1688 2584 1439 2293 
Q 1191 2003 1191 1497 
Q 1191 994 1439 701 
Q 1688 409 2113 409 
Q 2538 409 2786 701 
Q 3034 994 3034 1497 
Q 3034 2003 2786 2293 
Q 2538 2584 2113 2584 
z
M 3366 4563 
L 3366 3988 
Q 3128 4100 2886 4159 
Q 2644 4219 2406 4219 
Q 1781 4219 1451 3797 
Q 1122 3375 1075 2522 
Q 1259 2794 1537 2939 
Q 1816 3084 2150 3084 
Q 2853 3084 3261 2657 
Q 3669 2231 3669 1497 
Q 3669 778 3244 343 
Q 2819 -91 2113 -91 
Q 1303 -91 875 529 
Q 447 1150 447 2328 
Q 447 3434 972 4092 
Q 1497 4750 2381 4750 
Q 2619 4750 2861 4703 
Q 3103 4656 3366 4563 
z
" transform="scale(0.015625)"/>
       </defs>
       <use xlink:href="#DejaVuSans-36"/>
       <use xlink:href="#DejaVuSans-30" x="63.623047"/>
      </g>
     </g>
    </g>
    <g id="xtick_5">
     <g id="line2d_9">
      <path d="M 336.179835 307.584 
L 336.179835 41.472 
" clip-path="url(#pb64d5e4555)" style="fill: none; stroke: #b0b0b0; stroke-width: 0.8; stroke-linecap: square"/>
     </g>
     <g id="line2d_10">
      <g>
       <use xlink:href="#me1c93d264f" x="336.179835" y="307.584" style="stroke: #000000; stroke-width: 0.8"/>
      </g>
     </g>
     <g id="text_5">
      <!-- 80 -->
      <g transform="translate(329.817335 322.182437) scale(0.1 -0.1)">
       <defs>
        <path id="DejaVuSans-38" d="M 2034 2216 
Q 1584 2216 1326 1975 
Q 1069 1734 1069 1313 
Q 1069 891 1326 650 
Q 1584 409 2034 409 
Q 2484 409 2743 651 
Q 3003 894 3003 1313 
Q 3003 1734 2745 1975 
Q 2488 2216 2034 2216 
z
M 1403 2484 
Q 997 2584 770 2862 
Q 544 3141 544 3541 
Q 544 4100 942 4425 
Q 1341 4750 2034 4750 
Q 2731 4750 3128 4425 
Q 3525 4100 3525 3541 
Q 3525 3141 3298 2862 
Q 3072 2584 2669 2484 
Q 3125 2378 3379 2068 
Q 3634 1759 3634 1313 
Q 3634 634 3220 271 
Q 2806 -91 2034 -91 
Q 1263 -91 848 271 
Q 434 634 434 1313 
Q 434 1759 690 2068 
Q 947 2378 1403 2484 
z
M 1172 3481 
Q 1172 3119 1398 2916 
Q 1625 2713 2034 2713 
Q 2441 2713 2670 2916 
Q 2900 3119 2900 3481 
Q 2900 3844 2670 4047 
Q 2441 4250 2034 4250 
Q 1625 4250 1398 4047 
Q 1172 3844 1172 3481 
z
" transform="scale(0.015625)"/>
       </defs>
       <use xlink:href="#DejaVuSans-38"/>
       <use xlink:href="#DejaVuSans-30" x="63.623047"/>
      </g>
     </g>
    </g>
    <g id="xtick_6">
     <g id="line2d_11">
      <path d="M 401.766612 307.584 
L 401.766612 41.472 
" clip-path="url(#pb64d5e4555)" style="fill: none; stroke: #b0b0b0; stroke-width: 0.8; stroke-linecap: square"/>
     </g>
     <g id="line2d_12">
      <g>
       <use xlink:href="#me1c93d264f" x="401.766612" y="307.584" style="stroke: #000000; stroke-width: 0.8"/>
      </g>
     </g>
     <g id="text_6">
      <!-- 100 -->
      <g transform="translate(392.222862 322.182437) scale(0.1 -0.1)">
       <defs>
        <path id="DejaVuSans-31" d="M 794 531 
L 1825 531 
L 1825 4091 
L 703 3866 
L 703 4441 
L 1819 4666 
L 2450 4666 
L 2450 531 
L 3481 531 
L 3481 0 
L 794 0 
L 794 531 
z
" transform="scale(0.015625)"/>
       </defs>
       <use xlink:href="#DejaVuSans-31"/>
       <use xlink:href="#DejaVuSans-30" x="63.623047"/>
       <use xlink:href="#DejaVuSans-30" x="127.246094"/>
      </g>
     </g>
    </g>
    <g id="text_7">
     <!-- T -->
     <g transform="translate(233.106094 335.860562) scale(0.1 -0.1)">
      <defs>
       <path id="DejaVuSans-54" d="M -19 4666 
L 3928 4666 
L 3928 4134 
L 2272 4134 
L 2272 0 
L 1638 0 
L 1638 4134 
L -19 4134 
L -19 4666 
z
" transform="scale(0.015625)"/>
      </defs>
      <use xlink:href="#DejaVuSans-54"/>
     </g>
    </g>
   </g>
   <g id="matplotlib.axis_2">
    <g id="ytick_1">
     <g id="line2d_13">
      <path d="M 57.6 291.995029 
L 414.72 291.995029 
" clip-path="url(#pb64d5e4555)" style="fill: none; stroke: #b0b0b0; stroke-width: 0.8; stroke-linecap: square"/>
     </g>
     <g id="line2d_14">
      <defs>
       <path id="m20a6b0c489" d="M 0 0 
L -3.5 0 
" style="stroke: #000000; stroke-width: 0.8"/>
      </defs>
      <g>
       <use xlink:href="#m20a6b0c489" x="57.6" y="291.995029" style="stroke: #000000; stroke-width: 0.8"/>
      </g>
     </g>
     <g id="text_8">
      <!-- 0 -->
      <g transform="translate(44.2375 295.794247) scale(0.1 -0.1)">
       <use xlink:href="#DejaVuSans-30"/>
      </g>
     </g>
    </g>
    <g id="ytick_2">
     <g id="line2d_15">
      <path d="M 57.6 257.934024 
L 414.72 257.934024 
" clip-path="url(#pb64d5e4555)" style="fill: none; stroke: #b0b0b0; stroke-width: 0.8; stroke-linecap: square"/>
     </g>
     <g id="line2d_16">
      <g>
       <use xlink:href="#m20a6b0c489" x="57.6" y="257.934024" style="stroke: #000000; stroke-width: 0.8"/>
      </g>
     </g>
     <g id="text_9">
      <!-- 1 -->
      <g transform="translate(44.2375 261.733243) scale(0.1 -0.1)">
       <use xlink:href="#DejaVuSans-31"/>
      </g>
     </g>
    </g>
    <g id="ytick_3">
     <g id="line2d_17">
      <path d="M 57.6 223.87302 
L 414.72 223.87302 
" clip-path="url(#pb64d5e4555)" style="fill: none; stroke: #b0b0b0; stroke-width: 0.8; stroke-linecap: square"/>
     </g>
     <g id="line2d_18">
      <g>
       <use xlink:href="#m20a6b0c489" x="57.6" y="223.87302" style="stroke: #000000; stroke-width: 0.8"/>
      </g>
     </g>
     <g id="text_10">
      <!-- 2 -->
      <g transform="translate(44.2375 227.672239) scale(0.1 -0.1)">
       <use xlink:href="#DejaVuSans-32"/>
      </g>
     </g>
    </g>
    <g id="ytick_4">
     <g id="line2d_19">
      <path d="M 57.6 189.812016 
L 414.72 189.812016 
" clip-path="url(#pb64d5e4555)" style="fill: none; stroke: #b0b0b0; stroke-width: 0.8; stroke-linecap: square"/>
     </g>
     <g id="line2d_20">
      <g>
       <use xlink:href="#m20a6b0c489" x="57.6" y="189.812016" style="stroke: #000000; stroke-width: 0.8"/>
      </g>
     </g>
     <g id="text_11">
      <!-- 3 -->
      <g transform="translate(44.2375 193.611235) scale(0.1 -0.1)">
       <defs>
        <path id="DejaVuSans-33" d="M 2597 2516 
Q 3050 2419 3304 2112 
Q 3559 1806 3559 1356 
Q 3559 666 3084 287 
Q 2609 -91 1734 -91 
Q 1441 -91 1130 -33 
Q 819 25 488 141 
L 488 750 
Q 750 597 1062 519 
Q 1375 441 1716 441 
Q 2309 441 2620 675 
Q 2931 909 2931 1356 
Q 2931 1769 2642 2001 
Q 2353 2234 1838 2234 
L 1294 2234 
L 1294 2753 
L 1863 2753 
Q 2328 2753 2575 2939 
Q 2822 3125 2822 3475 
Q 2822 3834 2567 4026 
Q 2313 4219 1838 4219 
Q 1578 4219 1281 4162 
Q 984 4106 628 3988 
L 628 4550 
Q 988 4650 1302 4700 
Q 1616 4750 1894 4750 
Q 2613 4750 3031 4423 
Q 3450 4097 3450 3541 
Q 3450 3153 3228 2886 
Q 3006 2619 2597 2516 
z
" transform="scale(0.015625)"/>
       </defs>
       <use xlink:href="#DejaVuSans-33"/>
      </g>
     </g>
    </g>
    <g id="ytick_5">
     <g id="line2d_21">
      <path d="M 57.6 155.751012 
L 414.72 155.751012 
" clip-path="url(#pb64d5e4555)" style="fill: none; stroke: #b0b0b0; stroke-width: 0.8; stroke-linecap: square"/>
     </g>
     <g id="line2d_22">
      <g>
       <use xlink:href="#m20a6b0c489" x="57.6" y="155.751012" style="stroke: #000000; stroke-width: 0.8"/>
      </g>
     </g>
     <g id="text_12">
      <!-- 4 -->
      <g transform="translate(44.2375 159.550231) scale(0.1 -0.1)">
       <use xlink:href="#DejaVuSans-34"/>
      </g>
     </g>
    </g>
    <g id="ytick_6">
     <g id="line2d_23">
      <path d="M 57.6 121.690008 
L 414.72 121.690008 
" clip-path="url(#pb64d5e4555)" style="fill: none; stroke: #b0b0b0; stroke-width: 0.8; stroke-linecap: square"/>
     </g>
     <g id="line2d_24">
      <g>
       <use xlink:href="#m20a6b0c489" x="57.6" y="121.690008" style="stroke: #000000; stroke-width: 0.8"/>
      </g>
     </g>
     <g id="text_13">
      <!-- 5 -->
      <g transform="translate(44.2375 125.489227) scale(0.1 -0.1)">
       <defs>
        <path id="DejaVuSans-35" d="M 691 4666 
L 3169 4666 
L 3169 4134 
L 1269 4134 
L 1269 2991 
Q 1406 3038 1543 3061 
Q 1681 3084 1819 3084 
Q 2600 3084 3056 2656 
Q 3513 2228 3513 1497 
Q 3513 744 3044 326 
Q 2575 -91 1722 -91 
Q 1428 -91 1123 -41 
Q 819 9 494 109 
L 494 744 
Q 775 591 1075 516 
Q 1375 441 1709 441 
Q 2250 441 2565 725 
Q 2881 1009 2881 1497 
Q 2881 1984 2565 2268 
Q 2250 2553 1709 2553 
Q 1456 2553 1204 2497 
Q 953 2441 691 2322 
L 691 4666 
z
" transform="scale(0.015625)"/>
       </defs>
       <use xlink:href="#DejaVuSans-35"/>
      </g>
     </g>
    </g>
    <g id="ytick_7">
     <g id="line2d_25">
      <path d="M 57.6 87.629004 
L 414.72 87.629004 
" clip-path="url(#pb64d5e4555)" style="fill: none; stroke: #b0b0b0; stroke-width: 0.8; stroke-linecap: square"/>
     </g>
     <g id="line2d_26">
      <g>
       <use xlink:href="#m20a6b0c489" x="57.6" y="87.629004" style="stroke: #000000; stroke-width: 0.8"/>
      </g>
     </g>
     <g id="text_14">
      <!-- 6 -->
      <g transform="translate(44.2375 91.428223) scale(0.1 -0.1)">
       <use xlink:href="#DejaVuSans-36"/>
      </g>
     </g>
    </g>
    <g id="ytick_8">
     <g id="line2d_27">
      <path d="M 57.6 53.568 
L 414.72 53.568 
" clip-path="url(#pb64d5e4555)" style="fill: none; stroke: #b0b0b0; stroke-width: 0.8; stroke-linecap: square"/>
     </g>
     <g id="line2d_28">
      <g>
       <use xlink:href="#m20a6b0c489" x="57.6" y="53.568" style="stroke: #000000; stroke-width: 0.8"/>
      </g>
     </g>
     <g id="text_15">
      <!-- 7 -->
      <g transform="translate(44.2375 57.367219) scale(0.1 -0.1)">
       <defs>
        <path id="DejaVuSans-37" d="M 525 4666 
L 3525 4666 
L 3525 4397 
L 1831 0 
L 1172 0 
L 2766 4134 
L 525 4134 
L 525 4666 
z
" transform="scale(0.015625)"/>
       </defs>
       <use xlink:href="#DejaVuSans-37"/>
      </g>
     </g>
    </g>
    <g id="text_16">
     <!-- X -->
     <g transform="translate(38.157812 177.953) rotate(-90) scale(0.1 -0.1)">
      <defs>
       <path id="DejaVuSans-58" d="M 403 4666 
L 1081 4666 
L 2241 2931 
L 3406 4666 
L 4084 4666 
L 2584 2425 
L 4184 0 
L 3506 0 
L 2194 1984 
L 872 0 
L 191 0 
L 1856 2491 
L 403 4666 
z
" transform="scale(0.015625)"/>
      </defs>
      <use xlink:href="#DejaVuSans-58"/>
     </g>
    </g>
   </g>
   <g id="line2d_29">
    <path d="M 73.832727 53.568 
L 77.112066 64.62211 
L 80.391405 60.351528 
L 83.670744 83.729861 
L 86.950083 118.26656 
L 90.229421 150.226595 
L 93.50876 181.170455 
L 96.788099 209.582966 
L 100.067438 232.713906 
L 103.346777 252.824513 
L 106.626116 268.778331 
L 109.905455 281.761823 
L 113.184793 287.085815 
L 116.464132 288.938558 
L 119.743471 285.794745 
L 123.02281 281.141773 
L 126.302149 277.244425 
L 129.581488 272.357666 
L 132.860826 267.521329 
L 136.140165 263.642658 
L 139.419504 261.477112 
L 142.698843 260.32787 
L 145.978182 261.936187 
L 149.257521 262.369172 
L 152.53686 264.293908 
L 155.816198 267.051815 
L 159.095537 267.688243 
L 162.374876 268.326902 
L 165.654215 270.311426 
L 168.933554 272.748293 
L 172.212893 273.306156 
L 175.492231 275.667359 
L 178.77157 276.075595 
L 182.050909 277.216871 
L 185.330248 278.899149 
L 188.609587 279.242717 
L 191.888926 280.2781 
L 195.168264 282.15278 
L 198.447603 284.743659 
L 201.726942 285.012553 
L 205.006281 286.517097 
L 208.28562 287.273823 
L 211.564959 288.792828 
L 214.844298 288.008079 
L 218.123636 286.763213 
L 221.402975 288.114642 
L 224.682314 287.648163 
L 227.961653 288.470473 
L 231.240992 289.001892 
L 234.520331 290.656797 
L 237.799669 289.860484 
L 241.079008 289.452566 
L 244.358347 289.063965 
L 247.637686 289.390997 
L 250.917025 290.652588 
L 254.196364 291.097041 
L 257.475702 292.030923 
L 260.755041 291.341522 
L 264.03438 291.940459 
L 267.313719 290.298991 
L 270.593058 290.704702 
L 273.872397 291.596652 
L 277.151736 292.358783 
L 280.431074 291.76337 
L 283.710413 291.471476 
L 286.989752 290.903703 
L 290.269091 291.771077 
L 293.54843 293.056122 
L 296.827769 291.97182 
L 300.107107 291.477747 
L 303.386446 290.876551 
L 306.665785 291.606325 
L 309.945124 290.347457 
L 313.224463 289.22743 
L 316.503802 290.528863 
L 319.78314 291.913352 
L 323.062479 292.731739 
L 326.341818 293.999047 
L 329.621157 293.176112 
L 332.900496 292.946453 
L 336.179835 292.328467 
L 339.459174 292.361058 
L 342.738512 293.963578 
L 346.017851 295.217013 
L 349.29719 295.478998 
L 352.576529 293.924125 
L 355.855868 293.486573 
L 359.135207 294.528084 
L 362.414545 292.65411 
L 365.693884 292.587636 
L 368.973223 293.098315 
L 372.252562 292.086845 
L 375.531901 293.216801 
L 378.81124 293.741831 
L 382.090579 293.266808 
L 385.369917 292.770667 
L 388.649256 291.959793 
L 391.928595 292.31589 
L 395.207934 291.861085 
L 398.487273 293.54465 
" clip-path="url(#pb64d5e4555)" style="fill: none; stroke: #0000ff; stroke-width: 1.5; stroke-linecap: square"/>
   </g>
   <g id="line2d_30">
    <path d="M 73.832727 53.568 
L 77.112066 64.62211 
L 80.391405 60.351528 
L 83.670744 83.729861 
L 86.950083 119.485009 
L 90.229421 151.822627 
L 93.50876 183.059519 
L 96.788099 211.398282 
L 100.067438 234.055195 
L 103.346777 253.40752 
L 106.626116 268.100553 
L 109.905455 279.712653 
L 113.184793 283.447656 
L 116.464132 284.188444 
L 119.743471 280.278613 
L 123.02281 275.536403 
L 126.302149 272.052264 
L 129.581488 268.059302 
L 132.860826 264.494353 
L 136.140165 261.891068 
L 139.419504 260.997444 
L 142.698843 260.856926 
L 145.978182 263.205084 
L 149.257521 264.045345 
L 152.53686 266.162231 
L 155.816198 268.939508 
L 159.095537 269.553529 
L 162.374876 270.135316 
L 165.654215 272.049617 
L 168.933554 274.374434 
L 172.212893 274.808319 
L 175.492231 277.05271 
L 178.77157 277.33798 
L 182.050909 278.353845 
L 185.330248 279.928657 
L 188.609587 280.180253 
L 191.888926 281.125535 
L 195.168264 282.929199 
L 198.447603 285.463488 
L 201.726942 285.685476 
L 205.006281 287.134722 
L 208.28562 287.838309 
L 211.564959 289.314491 
L 214.844298 288.495627 
L 218.123636 287.216424 
L 221.402975 288.53153 
L 224.682314 288.031456 
L 227.961653 288.822287 
L 231.240992 289.322602 
L 234.520331 290.948247 
L 237.799669 290.12427 
L 241.079008 289.691419 
L 244.358347 289.28238 
L 247.637686 289.588193 
L 250.917025 290.829431 
L 254.196364 291.255789 
L 257.475702 292.172696 
L 260.755041 291.469613 
L 264.03438 292.057619 
L 267.313719 290.407043 
L 270.593058 290.804427 
L 273.872397 291.686946 
L 277.151736 292.440409 
L 280.431074 291.836641 
L 283.710413 291.53684 
L 286.989752 290.96279 
L 290.269091 291.826162 
L 293.54843 293.107292 
L 296.827769 292.018365 
L 300.107107 291.520292 
L 303.386446 290.915632 
L 306.665785 291.642113 
L 309.945124 290.379668 
L 313.224463 289.256889 
L 316.503802 290.555789 
L 319.78314 291.937568 
L 323.062479 292.753176 
L 326.341818 294.018324 
L 329.621157 293.193391 
L 332.900496 292.96202 
L 336.179835 292.3426 
L 339.459174 292.373835 
L 342.738512 293.974931 
L 346.017851 295.227093 
L 349.29719 295.488 
L 352.576529 293.93211 
L 355.855868 293.493735 
L 359.135207 294.534355 
L 362.414545 292.660074 
L 365.693884 292.592967 
L 368.973223 293.103529 
L 372.252562 292.091195 
L 375.531901 293.220717 
L 378.81124 293.745781 
L 382.090579 293.270346 
L 385.369917 292.773393 
L 388.649256 291.961526 
L 391.928595 292.316838 
L 395.207934 291.861458 
L 398.487273 293.544659 
" clip-path="url(#pb64d5e4555)" style="fill: none; stroke-dasharray: 5.55,2.4; stroke-dashoffset: 0; stroke: #000000; stroke-width: 1.5"/>
   </g>
   <g id="line2d_31">
    <path d="M 73.832727 53.568 
L 77.112066 64.62211 
L 80.391405 60.249322 
L 83.670744 76.515363 
L 86.950083 109.922552 
L 90.229421 142.976841 
L 93.50876 175.231518 
L 96.788099 203.821004 
L 100.067438 224.171197 
L 103.346777 237.190319 
L 106.626116 241.442693 
L 109.905455 242.083313 
L 113.184793 241.183194 
L 116.464132 245.075186 
L 119.743471 248.251128 
L 123.02281 252.008873 
L 126.302149 256.920984 
L 129.581488 260.167428 
L 132.860826 262.088805 
L 136.140165 263.577598 
L 139.419504 265.417381 
L 142.698843 266.928525 
L 145.978182 269.730492 
L 149.257521 270.301885 
L 152.53686 271.505757 
L 155.816198 273.04951 
L 159.095537 272.44282 
L 162.374876 271.855415 
L 165.654215 272.708349 
L 168.933554 273.68724 
L 172.212893 272.680618 
L 175.492231 273.476197 
L 178.77157 272.144422 
L 182.050909 271.346445 
L 185.330248 271.257119 
L 188.609587 269.947465 
L 191.888926 269.239446 
L 195.168264 269.638293 
L 198.447603 270.979022 
L 201.726942 270.249213 
L 205.006281 270.539713 
L 208.28562 270.073457 
L 211.564959 270.641151 
L 214.844298 269.04105 
L 218.123636 266.895142 
L 221.402975 267.187471 
L 224.682314 265.718481 
L 227.961653 266.200975 
L 231.240992 266.829692 
L 234.520331 269.000397 
L 237.799669 269.022708 
L 241.079008 269.692866 
L 244.358347 270.672668 
L 247.637686 272.307188 
L 250.917025 274.877772 
L 254.196364 276.651045 
L 257.475702 278.867712 
L 260.755041 279.437812 
L 264.03438 281.224025 
L 267.313719 280.664649 
L 270.593058 282.026241 
L 273.872397 283.761512 
L 277.151736 285.244613 
L 280.431074 285.266931 
L 283.710413 285.490889 
L 286.989752 285.264223 
L 290.269091 286.253377 
L 293.54843 287.548732 
L 296.827769 286.428874 
L 300.107107 285.733922 
L 303.386446 284.781597 
L 306.665785 285.062413 
L 309.945124 283.36718 
L 313.224463 281.600188 
L 316.503802 282.186595 
L 319.78314 282.904286 
L 323.062479 283.104059 
L 326.341818 283.560441 
L 329.621157 281.910656 
L 332.900496 280.7552 
L 336.179835 279.118993 
L 339.459174 278.157071 
L 342.738512 278.639656 
L 346.017851 278.833294 
L 349.29719 278.100941 
L 352.576529 275.489399 
L 355.855868 274.126177 
L 359.135207 274.247283 
L 362.414545 271.70502 
L 365.693884 270.862559 
L 368.973223 270.832817 
L 372.252562 269.087765 
L 375.531901 269.704352 
L 378.81124 269.978801 
L 382.090579 269.090398 
L 385.369917 268.02136 
L 388.649256 266.555436 
L 391.928595 266.371536 
L 395.207934 265.499979 
L 398.487273 266.916223 
" clip-path="url(#pb64d5e4555)" style="fill: none; stroke: #ff0000; stroke-width: 1.5; stroke-linecap: square"/>
   </g>
   <g id="patch_3">
    <path d="M 57.6 307.584 
L 57.6 41.472 
" style="fill: none; stroke: #000000; stroke-width: 0.8; stroke-linejoin: miter; stroke-linecap: square"/>
   </g>
   <g id="patch_4">
    <path d="M 414.72 307.584 
L 414.72 41.472 
" style="fill: none; stroke: #000000; stroke-width: 0.8; stroke-linejoin: miter; stroke-linecap: square"/>
   </g>
   <g id="patch_5">
    <path d="M 57.6 307.584 
L 414.72 307.584 
" style="fill: none; stroke: #000000; stroke-width: 0.8; stroke-linejoin: miter; stroke-linecap: square"/>
   </g>
   <g id="patch_6">
    <path d="M 57.6 41.472 
L 414.72 41.472 
" style="fill: none; stroke: #000000; stroke-width: 0.8; stroke-linejoin: miter; stroke-linecap: square"/>
   </g>
   <g id="legend_1">
    <g id="patch_7">
     <path d="M 392.72 67.472 
L 400.72 67.472 
Q 404.72 67.472 404.72 63.472 
L 404.72 55.472 
Q 404.72 51.472 400.72 51.472 
L 392.72 51.472 
Q 388.72 51.472 388.72 55.472 
L 388.72 63.472 
Q 388.72 67.472 392.72 67.472 
z
" style="fill: #ffffff; opacity: 0.8; stroke: #cccccc; stroke-linejoin: miter"/>
    </g>
   </g>
  </g>
 </g>
 <defs>
  <clipPath id="pb64d5e4555">
   <rect x="57.6" y="41.472" width="357.12" height="266.112"/>
  </clipPath>
 </defs>
</svg>
