<?xml version="1.0" encoding="utf-8" standalone="no"?>
<!DOCTYPE svg PUBLIC "-//W3C//DTD SVG 1.1//EN"
  "http://www.w3.org/Graphics/SVG/1.1/DTD/svg11.dtd">
<svg xmlns:xlink="http://www.w3.org/1999/xlink" width="460.8pt" height="345.6pt" viewBox="0 0 460.8 345.6" xmlns="http://www.w3.org/2000/svg" version="1.1">
 <metadata>
  <rdf:RDF xmlns:dc="http://purl.org/dc/elements/1.1/" xmlns:cc="http://creativecommons.org/ns#" xmlns:rdf="http://www.w3.org/1999/02/22-rdf-syntax-ns#">
   <cc:Work>
    <dc:type rdf:resource="http://purl.org/dc/dcmitype/StillImage"/>
    <dc:date>2024-05-21T18:18:42.207317</dc:date>
    <dc:format>image/svg+xml</dc:format>
    <dc:creator>
     <cc:Agent>
      <dc:title>Matplotlib v3.7.1, https://matplotlib.org/</dc:title>
     </cc:Agent>
    </dc:creator>
   </cc:Work>
  </rdf:RDF>
 </metadata>
 <defs>
  <style type="text/css">*{stroke-linejoin: round; stroke-linecap: butt}</style>
 </defs>
 <g id="figure_1">
  <g id="patch_1">
   <path d="M 0 345.6 
L 460.8 345.6 
L 460.8 0 
L 0 0 
z
" style="fill: #ffffff"/>
  </g>
  <g id="axes_1">
   <g id="patch_2">
    <path d="M 57.6 307.584 
L 414.72 307.584 
L 414.72 41.472 
L 57.6 41.472 
z
" style="fill: #ffffff"/>
   </g>
   <g id="matplotlib.axis_1">
    <g id="xtick_1">
     <g id="line2d_1">
      <path d="M 73.832727 307.584 
L 73.832727 41.472 
" clip-path="url(#p342943de73)" style="fill: none; stroke: #b0b0b0; stroke-width: 0.8; stroke-linecap: square"/>
     </g>
     <g id="line2d_2">
      <defs>
       <path id="m0c5199a2ab" d="M 0 0 
L 0 3.5 
" style="stroke: #000000; stroke-width: 0.8"/>
      </defs>
      <g>
       <use xlink:href="#m0c5199a2ab" x="73.832727" y="307.584" style="stroke: #000000; stroke-width: 0.8"/>
      </g>
     </g>
     <g id="text_1">
      <!-- 0 -->
      <g transform="translate(70.651477 322.182437) scale(0.1 -0.1)">
       <defs>
        <path id="DejaVuSans-30" d="M 2034 4250 
Q 1547 4250 1301 3770 
Q 1056 3291 1056 2328 
Q 1056 1369 1301 889 
Q 1547 409 2034 409 
Q 2525 409 2770 889 
Q 3016 1369 3016 2328 
Q 3016 3291 2770 3770 
Q 2525 4250 2034 4250 
z
M 2034 4750 
Q 2819 4750 3233 4129 
Q 3647 3509 3647 2328 
Q 3647 1150 3233 529 
Q 2819 -91 2034 -91 
Q 1250 -91 836 529 
Q 422 1150 422 2328 
Q 422 3509 836 4129 
Q 1250 4750 2034 4750 
z
" transform="scale(0.015625)"/>
       </defs>
       <use xlink:href="#DejaVuSans-30"/>
      </g>
     </g>
    </g>
    <g id="xtick_2">
     <g id="line2d_3">
      <path d="M 139.419504 307.584 
L 139.419504 41.472 
" clip-path="url(#p342943de73)" style="fill: none; stroke: #b0b0b0; stroke-width: 0.8; stroke-linecap: square"/>
     </g>
     <g id="line2d_4">
      <g>
       <use xlink:href="#m0c5199a2ab" x="139.419504" y="307.584" style="stroke: #000000; stroke-width: 0.8"/>
      </g>
     </g>
     <g id="text_2">
      <!-- 20 -->
      <g transform="translate(133.057004 322.182437) scale(0.1 -0.1)">
       <defs>
        <path id="DejaVuSans-32" d="M 1228 531 
L 3431 531 
L 3431 0 
L 469 0 
L 469 531 
Q 828 903 1448 1529 
Q 2069 2156 2228 2338 
Q 2531 2678 2651 2914 
Q 2772 3150 2772 3378 
Q 2772 3750 2511 3984 
Q 2250 4219 1831 4219 
Q 1534 4219 1204 4116 
Q 875 4013 500 3803 
L 500 4441 
Q 881 4594 1212 4672 
Q 1544 4750 1819 4750 
Q 2544 4750 2975 4387 
Q 3406 4025 3406 3419 
Q 3406 3131 3298 2873 
Q 3191 2616 2906 2266 
Q 2828 2175 2409 1742 
Q 1991 1309 1228 531 
z
" transform="scale(0.015625)"/>
       </defs>
       <use xlink:href="#DejaVuSans-32"/>
       <use xlink:href="#DejaVuSans-30" x="63.623047"/>
      </g>
     </g>
    </g>
    <g id="xtick_3">
     <g id="line2d_5">
      <path d="M 205.006281 307.584 
L 205.006281 41.472 
" clip-path="url(#p342943de73)" style="fill: none; stroke: #b0b0b0; stroke-width: 0.8; stroke-linecap: square"/>
     </g>
     <g id="line2d_6">
      <g>
       <use xlink:href="#m0c5199a2ab" x="205.006281" y="307.584" style="stroke: #000000; stroke-width: 0.8"/>
      </g>
     </g>
     <g id="text_3">
      <!-- 40 -->
      <g transform="translate(198.643781 322.182437) scale(0.1 -0.1)">
       <defs>
        <path id="DejaVuSans-34" d="M 2419 4116 
L 825 1625 
L 2419 1625 
L 2419 4116 
z
M 2253 4666 
L 3047 4666 
L 3047 1625 
L 3713 1625 
L 3713 1100 
L 3047 1100 
L 3047 0 
L 2419 0 
L 2419 1100 
L 313 1100 
L 313 1709 
L 2253 4666 
z
" transform="scale(0.015625)"/>
       </defs>
       <use xlink:href="#DejaVuSans-34"/>
       <use xlink:href="#DejaVuSans-30" x="63.623047"/>
      </g>
     </g>
    </g>
    <g id="xtick_4">
     <g id="line2d_7">
      <path d="M 270.593058 307.584 
L 270.593058 41.472 
" clip-path="url(#p342943de73)" style="fill: none; stroke: #b0b0b0; stroke-width: 0.8; stroke-linecap: square"/>
     </g>
     <g id="line2d_8">
      <g>
       <use xlink:href="#m0c5199a2ab" x="270.593058" y="307.584" style="stroke: #000000; stroke-width: 0.8"/>
      </g>
     </g>
     <g id="text_4">
      <!-- 60 -->
      <g transform="translate(264.230558 322.182437) scale(0.1 -0.1)">
       <defs>
        <path id="DejaVuSans-36" d="M 2113 2584 
Q 1688 2584 1439 2293 
Q 1191 2003 1191 1497 
Q 1191 994 1439 701 
Q 1688 409 2113 409 
Q 2538 409 2786 701 
Q 3034 994 3034 1497 
Q 3034 2003 2786 2293 
Q 2538 2584 2113 2584 
z
M 3366 4563 
L 3366 3988 
Q 3128 4100 2886 4159 
Q 2644 4219 2406 4219 
Q 1781 4219 1451 3797 
Q 1122 3375 1075 2522 
Q 1259 2794 1537 2939 
Q 1816 3084 2150 3084 
Q 2853 3084 3261 2657 
Q 3669 2231 3669 1497 
Q 3669 778 3244 343 
Q 2819 -91 2113 -91 
Q 1303 -91 875 529 
Q 447 1150 447 2328 
Q 447 3434 972 4092 
Q 1497 4750 2381 4750 
Q 2619 4750 2861 4703 
Q 3103 4656 3366 4563 
z
" transform="scale(0.015625)"/>
       </defs>
       <use xlink:href="#DejaVuSans-36"/>
       <use xlink:href="#DejaVuSans-30" x="63.623047"/>
      </g>
     </g>
    </g>
    <g id="xtick_5">
     <g id="line2d_9">
      <path d="M 336.179835 307.584 
L 336.179835 41.472 
" clip-path="url(#p342943de73)" style="fill: none; stroke: #b0b0b0; stroke-width: 0.8; stroke-linecap: square"/>
     </g>
     <g id="line2d_10">
      <g>
       <use xlink:href="#m0c5199a2ab" x="336.179835" y="307.584" style="stroke: #000000; stroke-width: 0.8"/>
      </g>
     </g>
     <g id="text_5">
      <!-- 80 -->
      <g transform="translate(329.817335 322.182437) scale(0.1 -0.1)">
       <defs>
        <path id="DejaVuSans-38" d="M 2034 2216 
Q 1584 2216 1326 1975 
Q 1069 1734 1069 1313 
Q 1069 891 1326 650 
Q 1584 409 2034 409 
Q 2484 409 2743 651 
Q 3003 894 3003 1313 
Q 3003 1734 2745 1975 
Q 2488 2216 2034 2216 
z
M 1403 2484 
Q 997 2584 770 2862 
Q 544 3141 544 3541 
Q 544 4100 942 4425 
Q 1341 4750 2034 4750 
Q 2731 4750 3128 4425 
Q 3525 4100 3525 3541 
Q 3525 3141 3298 2862 
Q 3072 2584 2669 2484 
Q 3125 2378 3379 2068 
Q 3634 1759 3634 1313 
Q 3634 634 3220 271 
Q 2806 -91 2034 -91 
Q 1263 -91 848 271 
Q 434 634 434 1313 
Q 434 1759 690 2068 
Q 947 2378 1403 2484 
z
M 1172 3481 
Q 1172 3119 1398 2916 
Q 1625 2713 2034 2713 
Q 2441 2713 2670 2916 
Q 2900 3119 2900 3481 
Q 2900 3844 2670 4047 
Q 2441 4250 2034 4250 
Q 1625 4250 1398 4047 
Q 1172 3844 1172 3481 
z
" transform="scale(0.015625)"/>
       </defs>
       <use xlink:href="#DejaVuSans-38"/>
       <use xlink:href="#DejaVuSans-30" x="63.623047"/>
      </g>
     </g>
    </g>
    <g id="xtick_6">
     <g id="line2d_11">
      <path d="M 401.766612 307.584 
L 401.766612 41.472 
" clip-path="url(#p342943de73)" style="fill: none; stroke: #b0b0b0; stroke-width: 0.8; stroke-linecap: square"/>
     </g>
     <g id="line2d_12">
      <g>
       <use xlink:href="#m0c5199a2ab" x="401.766612" y="307.584" style="stroke: #000000; stroke-width: 0.8"/>
      </g>
     </g>
     <g id="text_6">
      <!-- 100 -->
      <g transform="translate(392.222862 322.182437) scale(0.1 -0.1)">
       <defs>
        <path id="DejaVuSans-31" d="M 794 531 
L 1825 531 
L 1825 4091 
L 703 3866 
L 703 4441 
L 1819 4666 
L 2450 4666 
L 2450 531 
L 3481 531 
L 3481 0 
L 794 0 
L 794 531 
z
" transform="scale(0.015625)"/>
       </defs>
       <use xlink:href="#DejaVuSans-31"/>
       <use xlink:href="#DejaVuSans-30" x="63.623047"/>
       <use xlink:href="#DejaVuSans-30" x="127.246094"/>
      </g>
     </g>
    </g>
    <g id="text_7">
     <!-- T -->
     <g transform="translate(233.106094 335.860562) scale(0.1 -0.1)">
      <defs>
       <path id="DejaVuSans-54" d="M -19 4666 
L 3928 4666 
L 3928 4134 
L 2272 4134 
L 2272 0 
L 1638 0 
L 1638 4134 
L -19 4134 
L -19 4666 
z
" transform="scale(0.015625)"/>
      </defs>
      <use xlink:href="#DejaVuSans-54"/>
     </g>
    </g>
   </g>
   <g id="matplotlib.axis_2">
    <g id="ytick_1">
     <g id="line2d_13">
      <path d="M 57.6 291.587006 
L 414.72 291.587006 
" clip-path="url(#p342943de73)" style="fill: none; stroke: #b0b0b0; stroke-width: 0.8; stroke-linecap: square"/>
     </g>
     <g id="line2d_14">
      <defs>
       <path id="m1ad5c0f4f8" d="M 0 0 
L -3.5 0 
" style="stroke: #000000; stroke-width: 0.8"/>
      </defs>
      <g>
       <use xlink:href="#m1ad5c0f4f8" x="57.6" y="291.587006" style="stroke: #000000; stroke-width: 0.8"/>
      </g>
     </g>
     <g id="text_8">
      <!-- 0 -->
      <g transform="translate(44.2375 295.386225) scale(0.1 -0.1)">
       <use xlink:href="#DejaVuSans-30"/>
      </g>
     </g>
    </g>
    <g id="ytick_2">
     <g id="line2d_15">
      <path d="M 57.6 257.584291 
L 414.72 257.584291 
" clip-path="url(#p342943de73)" style="fill: none; stroke: #b0b0b0; stroke-width: 0.8; stroke-linecap: square"/>
     </g>
     <g id="line2d_16">
      <g>
       <use xlink:href="#m1ad5c0f4f8" x="57.6" y="257.584291" style="stroke: #000000; stroke-width: 0.8"/>
      </g>
     </g>
     <g id="text_9">
      <!-- 1 -->
      <g transform="translate(44.2375 261.38351) scale(0.1 -0.1)">
       <use xlink:href="#DejaVuSans-31"/>
      </g>
     </g>
    </g>
    <g id="ytick_3">
     <g id="line2d_17">
      <path d="M 57.6 223.581576 
L 414.72 223.581576 
" clip-path="url(#p342943de73)" style="fill: none; stroke: #b0b0b0; stroke-width: 0.8; stroke-linecap: square"/>
     </g>
     <g id="line2d_18">
      <g>
       <use xlink:href="#m1ad5c0f4f8" x="57.6" y="223.581576" style="stroke: #000000; stroke-width: 0.8"/>
      </g>
     </g>
     <g id="text_10">
      <!-- 2 -->
      <g transform="translate(44.2375 227.380795) scale(0.1 -0.1)">
       <use xlink:href="#DejaVuSans-32"/>
      </g>
     </g>
    </g>
    <g id="ytick_4">
     <g id="line2d_19">
      <path d="M 57.6 189.578861 
L 414.72 189.578861 
" clip-path="url(#p342943de73)" style="fill: none; stroke: #b0b0b0; stroke-width: 0.8; stroke-linecap: square"/>
     </g>
     <g id="line2d_20">
      <g>
       <use xlink:href="#m1ad5c0f4f8" x="57.6" y="189.578861" style="stroke: #000000; stroke-width: 0.8"/>
      </g>
     </g>
     <g id="text_11">
      <!-- 3 -->
      <g transform="translate(44.2375 193.37808) scale(0.1 -0.1)">
       <defs>
        <path id="DejaVuSans-33" d="M 2597 2516 
Q 3050 2419 3304 2112 
Q 3559 1806 3559 1356 
Q 3559 666 3084 287 
Q 2609 -91 1734 -91 
Q 1441 -91 1130 -33 
Q 819 25 488 141 
L 488 750 
Q 750 597 1062 519 
Q 1375 441 1716 441 
Q 2309 441 2620 675 
Q 2931 909 2931 1356 
Q 2931 1769 2642 2001 
Q 2353 2234 1838 2234 
L 1294 2234 
L 1294 2753 
L 1863 2753 
Q 2328 2753 2575 2939 
Q 2822 3125 2822 3475 
Q 2822 3834 2567 4026 
Q 2313 4219 1838 4219 
Q 1578 4219 1281 4162 
Q 984 4106 628 3988 
L 628 4550 
Q 988 4650 1302 4700 
Q 1616 4750 1894 4750 
Q 2613 4750 3031 4423 
Q 3450 4097 3450 3541 
Q 3450 3153 3228 2886 
Q 3006 2619 2597 2516 
z
" transform="scale(0.015625)"/>
       </defs>
       <use xlink:href="#DejaVuSans-33"/>
      </g>
     </g>
    </g>
    <g id="ytick_5">
     <g id="line2d_21">
      <path d="M 57.6 155.576146 
L 414.72 155.576146 
" clip-path="url(#p342943de73)" style="fill: none; stroke: #b0b0b0; stroke-width: 0.8; stroke-linecap: square"/>
     </g>
     <g id="line2d_22">
      <g>
       <use xlink:href="#m1ad5c0f4f8" x="57.6" y="155.576146" style="stroke: #000000; stroke-width: 0.8"/>
      </g>
     </g>
     <g id="text_12">
      <!-- 4 -->
      <g transform="translate(44.2375 159.375364) scale(0.1 -0.1)">
       <use xlink:href="#DejaVuSans-34"/>
      </g>
     </g>
    </g>
    <g id="ytick_6">
     <g id="line2d_23">
      <path d="M 57.6 121.57343 
L 414.72 121.57343 
" clip-path="url(#p342943de73)" style="fill: none; stroke: #b0b0b0; stroke-width: 0.8; stroke-linecap: square"/>
     </g>
     <g id="line2d_24">
      <g>
       <use xlink:href="#m1ad5c0f4f8" x="57.6" y="121.57343" style="stroke: #000000; stroke-width: 0.8"/>
      </g>
     </g>
     <g id="text_13">
      <!-- 5 -->
      <g transform="translate(44.2375 125.372649) scale(0.1 -0.1)">
       <defs>
        <path id="DejaVuSans-35" d="M 691 4666 
L 3169 4666 
L 3169 4134 
L 1269 4134 
L 1269 2991 
Q 1406 3038 1543 3061 
Q 1681 3084 1819 3084 
Q 2600 3084 3056 2656 
Q 3513 2228 3513 1497 
Q 3513 744 3044 326 
Q 2575 -91 1722 -91 
Q 1428 -91 1123 -41 
Q 819 9 494 109 
L 494 744 
Q 775 591 1075 516 
Q 1375 441 1709 441 
Q 2250 441 2565 725 
Q 2881 1009 2881 1497 
Q 2881 1984 2565 2268 
Q 2250 2553 1709 2553 
Q 1456 2553 1204 2497 
Q 953 2441 691 2322 
L 691 4666 
z
" transform="scale(0.015625)"/>
       </defs>
       <use xlink:href="#DejaVuSans-35"/>
      </g>
     </g>
    </g>
    <g id="ytick_7">
     <g id="line2d_25">
      <path d="M 57.6 87.570715 
L 414.72 87.570715 
" clip-path="url(#p342943de73)" style="fill: none; stroke: #b0b0b0; stroke-width: 0.8; stroke-linecap: square"/>
     </g>
     <g id="line2d_26">
      <g>
       <use xlink:href="#m1ad5c0f4f8" x="57.6" y="87.570715" style="stroke: #000000; stroke-width: 0.8"/>
      </g>
     </g>
     <g id="text_14">
      <!-- 6 -->
      <g transform="translate(44.2375 91.369934) scale(0.1 -0.1)">
       <use xlink:href="#DejaVuSans-36"/>
      </g>
     </g>
    </g>
    <g id="ytick_8">
     <g id="line2d_27">
      <path d="M 57.6 53.568 
L 414.72 53.568 
" clip-path="url(#p342943de73)" style="fill: none; stroke: #b0b0b0; stroke-width: 0.8; stroke-linecap: square"/>
     </g>
     <g id="line2d_28">
      <g>
       <use xlink:href="#m1ad5c0f4f8" x="57.6" y="53.568" style="stroke: #000000; stroke-width: 0.8"/>
      </g>
     </g>
     <g id="text_15">
      <!-- 7 -->
      <g transform="translate(44.2375 57.367219) scale(0.1 -0.1)">
       <defs>
        <path id="DejaVuSans-37" d="M 525 4666 
L 3525 4666 
L 3525 4397 
L 1831 0 
L 1172 0 
L 2766 4134 
L 525 4134 
L 525 4666 
z
" transform="scale(0.015625)"/>
       </defs>
       <use xlink:href="#DejaVuSans-37"/>
      </g>
     </g>
    </g>
    <g id="text_16">
     <!-- X -->
     <g transform="translate(38.157812 177.953) rotate(-90) scale(0.1 -0.1)">
      <defs>
       <path id="DejaVuSans-58" d="M 403 4666 
L 1081 4666 
L 2241 2931 
L 3406 4666 
L 4084 4666 
L 2584 2425 
L 4184 0 
L 3506 0 
L 2194 1984 
L 872 0 
L 191 0 
L 1856 2491 
L 403 4666 
z
" transform="scale(0.015625)"/>
      </defs>
      <use xlink:href="#DejaVuSans-58"/>
     </g>
    </g>
   </g>
   <g id="line2d_29">
    <path d="M 73.832727 53.568 
L 77.112066 66.578845 
L 80.391405 62.740642 
L 83.670744 86.381295 
L 86.950083 121.659585 
L 90.229421 153.047003 
L 93.50876 184.378301 
L 96.788099 211.84281 
L 100.067438 236.510216 
L 103.346777 255.726737 
L 106.626116 270.484312 
L 109.905455 278.699951 
L 113.184793 282.123444 
L 116.464132 282.101399 
L 119.743471 278.887738 
L 123.02281 273.866822 
L 126.302149 269.88547 
L 129.581488 266.125657 
L 132.860826 262.234561 
L 136.140165 260.847319 
L 139.419504 261.167417 
L 142.698843 262.223426 
L 145.978182 264.518399 
L 149.257521 264.702197 
L 152.53686 267.39035 
L 155.816198 268.907669 
L 159.095537 271.948749 
L 162.374876 272.943089 
L 165.654215 274.263673 
L 168.933554 275.151588 
L 172.212893 277.775824 
L 175.492231 280.325778 
L 178.77157 281.393478 
L 182.050909 282.230327 
L 185.330248 284.596241 
L 188.609587 284.214324 
L 191.888926 283.599912 
L 195.168264 285.323016 
L 198.447603 286.62774 
L 201.726942 286.933348 
L 205.006281 287.696427 
L 208.28562 286.860498 
L 211.564959 286.152404 
L 214.844298 285.504281 
L 218.123636 286.346207 
L 221.402975 287.000756 
L 224.682314 286.079598 
L 227.961653 286.985509 
L 231.240992 286.248425 
L 234.520331 286.949965 
L 237.799669 286.49836 
L 241.079008 285.563879 
L 244.358347 284.806835 
L 247.637686 285.530051 
L 250.917025 284.812454 
L 254.196364 286.130329 
L 257.475702 286.186342 
L 260.755041 285.667084 
L 264.03438 286.519379 
L 267.313719 287.558028 
L 270.593058 289.564348 
L 273.872397 288.9398 
L 277.151736 287.860875 
L 280.431074 288.08396 
L 283.710413 287.354525 
L 286.989752 288.142535 
L 290.269091 289.596817 
L 293.54843 291.180228 
L 296.827769 292.859904 
L 300.107107 291.295331 
L 303.386446 292.862934 
L 306.665785 291.462812 
L 309.945124 290.251381 
L 313.224463 290.211755 
L 316.503802 291.56175 
L 319.78314 292.393784 
L 323.062479 291.823107 
L 326.341818 291.903208 
L 329.621157 290.547182 
L 332.900496 289.591112 
L 336.179835 288.120458 
L 339.459174 288.440991 
L 342.738512 287.986845 
L 346.017851 289.183727 
L 349.29719 290.821772 
L 352.576529 291.172939 
L 355.855868 292.450358 
L 359.135207 293.089875 
L 362.414545 293.809455 
L 365.693884 291.862695 
L 368.973223 292.194689 
L 372.252562 292.180078 
L 375.531901 293.661887 
L 378.81124 294.379872 
L 382.090579 294.090498 
L 385.369917 295.488 
L 388.649256 295.320015 
L 391.928595 293.750213 
L 395.207934 293.774725 
L 398.487273 294.074014 
" clip-path="url(#p342943de73)" style="fill: none; stroke: #0000ff; stroke-width: 1.5; stroke-linecap: square"/>
   </g>
   <g id="line2d_30">
    <path d="M 73.832727 53.568 
L 77.112066 66.578845 
L 80.391405 62.740642 
L 83.670744 86.381295 
L 86.950083 122.794271 
L 90.229421 154.512331 
L 93.50876 186.079233 
L 96.788099 213.333144 
L 100.067438 237.303044 
L 103.346777 255.499295 
L 106.626116 268.726471 
L 109.905455 275.43088 
L 113.184793 277.316821 
L 116.464132 276.350283 
L 119.743471 272.70908 
L 123.02281 267.902004 
L 126.302149 264.611621 
L 129.581488 262.033679 
L 132.860826 259.586712 
L 136.140165 259.582984 
L 139.419504 261.128396 
L 142.698843 263.049076 
L 145.978182 265.959736 
L 149.257521 266.493151 
L 152.53686 269.362905 
L 155.816198 270.969083 
L 159.095537 273.96832 
L 162.374876 274.878376 
L 165.654215 276.075855 
L 168.933554 276.81382 
L 172.212893 279.272858 
L 175.492231 281.64666 
L 178.77157 282.55867 
L 182.050909 283.252078 
L 185.330248 285.489258 
L 188.609587 285.009436 
L 191.888926 284.324336 
L 195.168264 285.987198 
L 198.447603 287.233072 
L 201.726942 287.48459 
L 205.006281 288.193888 
L 208.28562 287.308273 
L 211.564959 286.549114 
L 214.844298 285.851554 
L 218.123636 286.653949 
L 221.402975 287.276204 
L 224.682314 286.328259 
L 227.961653 287.209839 
L 231.240992 286.450751 
L 234.520331 287.132064 
L 237.799669 286.662707 
L 241.079008 285.712439 
L 244.358347 284.938336 
L 247.637686 285.646151 
L 250.917025 284.911485 
L 254.196364 286.209753 
L 257.475702 286.243817 
L 260.755041 285.707952 
L 264.03438 286.544132 
L 267.313719 287.573567 
L 270.593058 289.573519 
L 273.872397 288.944343 
L 277.151736 287.864213 
L 280.431074 288.08543 
L 283.710413 287.355262 
L 286.989752 288.143409 
L 290.269091 289.597873 
L 293.54843 291.181285 
L 296.827769 292.86065 
L 300.107107 291.296723 
L 303.386446 292.864483 
L 306.665785 291.463935 
L 309.945124 290.252626 
L 313.224463 290.213599 
L 316.503802 291.564394 
L 319.78314 292.39698 
L 323.062479 291.826665 
L 326.341818 291.90707 
L 329.621157 290.550983 
L 332.900496 289.594501 
L 336.179835 288.123412 
L 339.459174 288.443501 
L 342.738512 287.988927 
L 346.017851 289.185412 
L 349.29719 290.823125 
L 352.576529 291.169296 
L 355.855868 292.437238 
L 359.135207 293.071008 
L 362.414545 293.782552 
L 365.693884 291.831239 
L 368.973223 292.1605 
L 372.252562 292.142357 
L 375.531901 293.622769 
L 378.81124 294.341284 
L 382.090579 294.054054 
L 385.369917 295.455137 
L 388.649256 295.289918 
L 391.928595 293.723373 
L 395.207934 293.751687 
L 398.487273 294.053279 
" clip-path="url(#p342943de73)" style="fill: none; stroke-dasharray: 5.55,2.4; stroke-dashoffset: 0; stroke: #000000; stroke-width: 1.5"/>
   </g>
   <g id="line2d_31">
    <path d="M 73.832727 53.568 
L 77.112066 66.578845 
L 80.391405 62.626195 
L 83.670744 79.130234 
L 86.950083 113.339159 
L 90.229421 145.716799 
L 93.50876 178.221146 
L 96.788099 205.387646 
L 100.067438 226.356108 
L 103.346777 237.234343 
L 106.626116 239.979852 
L 109.905455 237.945214 
L 113.184793 239.024922 
L 116.464132 243.972225 
L 119.743471 248.663505 
L 123.02281 252.312289 
L 126.302149 256.621282 
L 129.581488 260.096696 
L 132.860826 262.028986 
L 136.140165 264.68163 
L 139.419504 267.743421 
L 142.698843 270.278886 
L 145.978182 273.296671 
L 149.257521 273.601523 
L 152.53686 275.956287 
L 155.816198 276.874205 
L 159.095537 278.908558 
L 162.374876 278.815026 
L 165.654215 278.813841 
L 168.933554 278.224938 
L 172.212893 279.203043 
L 175.492231 279.953033 
L 178.77157 279.236457 
L 182.050909 278.244616 
L 185.330248 278.745777 
L 188.609587 276.717054 
L 191.888926 274.716601 
L 195.168264 275.148192 
L 198.447603 275.164684 
L 201.726942 274.36369 
L 205.006281 274.301464 
L 208.28562 272.715131 
L 211.564959 271.357091 
L 214.844298 269.86307 
L 218.123636 269.685539 
L 221.402975 269.322968 
L 224.682314 267.239727 
L 227.961653 267.019918 
L 231.240992 265.240664 
L 234.520331 265.191898 
L 237.799669 264.168224 
L 241.079008 262.998035 
L 244.358347 262.28735 
L 247.637686 263.094919 
L 250.917025 262.492149 
L 254.196364 264.055359 
L 257.475702 264.47949 
L 260.755041 264.233621 
L 264.03438 265.437921 
L 267.313719 266.603734 
L 270.593058 268.666318 
L 273.872397 268.065172 
L 277.151736 266.808426 
L 280.431074 266.980418 
L 283.710413 266.077082 
L 286.989752 266.58632 
L 290.269091 267.672112 
L 293.54843 268.969102 
L 296.827769 270.401835 
L 300.107107 268.834145 
L 303.386446 270.219248 
L 306.665785 268.452235 
L 309.945124 267.064064 
L 313.224463 267.066703 
L 316.503802 268.633366 
L 319.78314 269.630885 
L 323.062479 269.18208 
L 326.341818 269.405986 
L 329.621157 267.940663 
L 332.900496 266.833777 
L 336.179835 265.36718 
L 339.459174 265.939587 
L 342.738512 265.968236 
L 346.017851 267.810013 
L 349.29719 270.039739 
L 352.576529 271.013042 
L 355.855868 272.975339 
L 359.135207 273.919698 
L 362.414545 274.976279 
L 365.693884 273.079799 
L 368.973223 273.220547 
L 372.252562 273.184292 
L 375.531901 274.475035 
L 378.81124 274.831921 
L 382.090579 273.980283 
L 385.369917 274.58364 
L 388.649256 273.722572 
L 391.928595 271.304485 
L 395.207934 270.321735 
L 398.487273 269.909724 
" clip-path="url(#p342943de73)" style="fill: none; stroke: #ff0000; stroke-width: 1.5; stroke-linecap: square"/>
   </g>
   <g id="patch_3">
    <path d="M 57.6 307.584 
L 57.6 41.472 
" style="fill: none; stroke: #000000; stroke-width: 0.8; stroke-linejoin: miter; stroke-linecap: square"/>
   </g>
   <g id="patch_4">
    <path d="M 414.72 307.584 
L 414.72 41.472 
" style="fill: none; stroke: #000000; stroke-width: 0.8; stroke-linejoin: miter; stroke-linecap: square"/>
   </g>
   <g id="patch_5">
    <path d="M 57.6 307.584 
L 414.72 307.584 
" style="fill: none; stroke: #000000; stroke-width: 0.8; stroke-linejoin: miter; stroke-linecap: square"/>
   </g>
   <g id="patch_6">
    <path d="M 57.6 41.472 
L 414.72 41.472 
" style="fill: none; stroke: #000000; stroke-width: 0.8; stroke-linejoin: miter; stroke-linecap: square"/>
   </g>
   <g id="legend_1">
    <g id="patch_7">
     <path d="M 392.72 67.472 
L 400.72 67.472 
Q 404.72 67.472 404.72 63.472 
L 404.72 55.472 
Q 404.72 51.472 400.72 51.472 
L 392.72 51.472 
Q 388.72 51.472 388.72 55.472 
L 388.72 63.472 
Q 388.72 67.472 392.72 67.472 
z
" style="fill: #ffffff; opacity: 0.8; stroke: #cccccc; stroke-linejoin: miter"/>
    </g>
   </g>
  </g>
 </g>
 <defs>
  <clipPath id="p342943de73">
   <rect x="57.6" y="41.472" width="357.12" height="266.112"/>
  </clipPath>
 </defs>
</svg>
