<?xml version="1.0" encoding="utf-8" standalone="no"?>
<!DOCTYPE svg PUBLIC "-//W3C//DTD SVG 1.1//EN"
  "http://www.w3.org/Graphics/SVG/1.1/DTD/svg11.dtd">
<svg xmlns:xlink="http://www.w3.org/1999/xlink" width="460.8pt" height="345.6pt" viewBox="0 0 460.8 345.6" xmlns="http://www.w3.org/2000/svg" version="1.1">
 <metadata>
  <rdf:RDF xmlns:dc="http://purl.org/dc/elements/1.1/" xmlns:cc="http://creativecommons.org/ns#" xmlns:rdf="http://www.w3.org/1999/02/22-rdf-syntax-ns#">
   <cc:Work>
    <dc:type rdf:resource="http://purl.org/dc/dcmitype/StillImage"/>
    <dc:date>2024-05-21T18:18:42.277928</dc:date>
    <dc:format>image/svg+xml</dc:format>
    <dc:creator>
     <cc:Agent>
      <dc:title>Matplotlib v3.7.1, https://matplotlib.org/</dc:title>
     </cc:Agent>
    </dc:creator>
   </cc:Work>
  </rdf:RDF>
 </metadata>
 <defs>
  <style type="text/css">*{stroke-linejoin: round; stroke-linecap: butt}</style>
 </defs>
 <g id="figure_1">
  <g id="patch_1">
   <path d="M 0 345.6 
L 460.8 345.6 
L 460.8 0 
L 0 0 
z
" style="fill: #ffffff"/>
  </g>
  <g id="axes_1">
   <g id="patch_2">
    <path d="M 57.6 307.584 
L 414.72 307.584 
L 414.72 41.472 
L 57.6 41.472 
z
" style="fill: #ffffff"/>
   </g>
   <g id="matplotlib.axis_1">
    <g id="xtick_1">
     <g id="line2d_1">
      <path d="M 73.832727 307.584 
L 73.832727 41.472 
" clip-path="url(#p2bc99debaf)" style="fill: none; stroke: #b0b0b0; stroke-width: 0.8; stroke-linecap: square"/>
     </g>
     <g id="line2d_2">
      <defs>
       <path id="mfaf9bc6327" d="M 0 0 
L 0 3.5 
" style="stroke: #000000; stroke-width: 0.8"/>
      </defs>
      <g>
       <use xlink:href="#mfaf9bc6327" x="73.832727" y="307.584" style="stroke: #000000; stroke-width: 0.8"/>
      </g>
     </g>
     <g id="text_1">
      <!-- 0 -->
      <g transform="translate(70.651477 322.182437) scale(0.1 -0.1)">
       <defs>
        <path id="DejaVuSans-30" d="M 2034 4250 
Q 1547 4250 1301 3770 
Q 1056 3291 1056 2328 
Q 1056 1369 1301 889 
Q 1547 409 2034 409 
Q 2525 409 2770 889 
Q 3016 1369 3016 2328 
Q 3016 3291 2770 3770 
Q 2525 4250 2034 4250 
z
M 2034 4750 
Q 2819 4750 3233 4129 
Q 3647 3509 3647 2328 
Q 3647 1150 3233 529 
Q 2819 -91 2034 -91 
Q 1250 -91 836 529 
Q 422 1150 422 2328 
Q 422 3509 836 4129 
Q 1250 4750 2034 4750 
z
" transform="scale(0.015625)"/>
       </defs>
       <use xlink:href="#DejaVuSans-30"/>
      </g>
     </g>
    </g>
    <g id="xtick_2">
     <g id="line2d_3">
      <path d="M 139.419504 307.584 
L 139.419504 41.472 
" clip-path="url(#p2bc99debaf)" style="fill: none; stroke: #b0b0b0; stroke-width: 0.8; stroke-linecap: square"/>
     </g>
     <g id="line2d_4">
      <g>
       <use xlink:href="#mfaf9bc6327" x="139.419504" y="307.584" style="stroke: #000000; stroke-width: 0.8"/>
      </g>
     </g>
     <g id="text_2">
      <!-- 20 -->
      <g transform="translate(133.057004 322.182437) scale(0.1 -0.1)">
       <defs>
        <path id="DejaVuSans-32" d="M 1228 531 
L 3431 531 
L 3431 0 
L 469 0 
L 469 531 
Q 828 903 1448 1529 
Q 2069 2156 2228 2338 
Q 2531 2678 2651 2914 
Q 2772 3150 2772 3378 
Q 2772 3750 2511 3984 
Q 2250 4219 1831 4219 
Q 1534 4219 1204 4116 
Q 875 4013 500 3803 
L 500 4441 
Q 881 4594 1212 4672 
Q 1544 4750 1819 4750 
Q 2544 4750 2975 4387 
Q 3406 4025 3406 3419 
Q 3406 3131 3298 2873 
Q 3191 2616 2906 2266 
Q 2828 2175 2409 1742 
Q 1991 1309 1228 531 
z
" transform="scale(0.015625)"/>
       </defs>
       <use xlink:href="#DejaVuSans-32"/>
       <use xlink:href="#DejaVuSans-30" x="63.623047"/>
      </g>
     </g>
    </g>
    <g id="xtick_3">
     <g id="line2d_5">
      <path d="M 205.006281 307.584 
L 205.006281 41.472 
" clip-path="url(#p2bc99debaf)" style="fill: none; stroke: #b0b0b0; stroke-width: 0.8; stroke-linecap: square"/>
     </g>
     <g id="line2d_6">
      <g>
       <use xlink:href="#mfaf9bc6327" x="205.006281" y="307.584" style="stroke: #000000; stroke-width: 0.8"/>
      </g>
     </g>
     <g id="text_3">
      <!-- 40 -->
      <g transform="translate(198.643781 322.182437) scale(0.1 -0.1)">
       <defs>
        <path id="DejaVuSans-34" d="M 2419 4116 
L 825 1625 
L 2419 1625 
L 2419 4116 
z
M 2253 4666 
L 3047 4666 
L 3047 1625 
L 3713 1625 
L 3713 1100 
L 3047 1100 
L 3047 0 
L 2419 0 
L 2419 1100 
L 313 1100 
L 313 1709 
L 2253 4666 
z
" transform="scale(0.015625)"/>
       </defs>
       <use xlink:href="#DejaVuSans-34"/>
       <use xlink:href="#DejaVuSans-30" x="63.623047"/>
      </g>
     </g>
    </g>
    <g id="xtick_4">
     <g id="line2d_7">
      <path d="M 270.593058 307.584 
L 270.593058 41.472 
" clip-path="url(#p2bc99debaf)" style="fill: none; stroke: #b0b0b0; stroke-width: 0.8; stroke-linecap: square"/>
     </g>
     <g id="line2d_8">
      <g>
       <use xlink:href="#mfaf9bc6327" x="270.593058" y="307.584" style="stroke: #000000; stroke-width: 0.8"/>
      </g>
     </g>
     <g id="text_4">
      <!-- 60 -->
      <g transform="translate(264.230558 322.182437) scale(0.1 -0.1)">
       <defs>
        <path id="DejaVuSans-36" d="M 2113 2584 
Q 1688 2584 1439 2293 
Q 1191 2003 1191 1497 
Q 1191 994 1439 701 
Q 1688 409 2113 409 
Q 2538 409 2786 701 
Q 3034 994 3034 1497 
Q 3034 2003 2786 2293 
Q 2538 2584 2113 2584 
z
M 3366 4563 
L 3366 3988 
Q 3128 4100 2886 4159 
Q 2644 4219 2406 4219 
Q 1781 4219 1451 3797 
Q 1122 3375 1075 2522 
Q 1259 2794 1537 2939 
Q 1816 3084 2150 3084 
Q 2853 3084 3261 2657 
Q 3669 2231 3669 1497 
Q 3669 778 3244 343 
Q 2819 -91 2113 -91 
Q 1303 -91 875 529 
Q 447 1150 447 2328 
Q 447 3434 972 4092 
Q 1497 4750 2381 4750 
Q 2619 4750 2861 4703 
Q 3103 4656 3366 4563 
z
" transform="scale(0.015625)"/>
       </defs>
       <use xlink:href="#DejaVuSans-36"/>
       <use xlink:href="#DejaVuSans-30" x="63.623047"/>
      </g>
     </g>
    </g>
    <g id="xtick_5">
     <g id="line2d_9">
      <path d="M 336.179835 307.584 
L 336.179835 41.472 
" clip-path="url(#p2bc99debaf)" style="fill: none; stroke: #b0b0b0; stroke-width: 0.8; stroke-linecap: square"/>
     </g>
     <g id="line2d_10">
      <g>
       <use xlink:href="#mfaf9bc6327" x="336.179835" y="307.584" style="stroke: #000000; stroke-width: 0.8"/>
      </g>
     </g>
     <g id="text_5">
      <!-- 80 -->
      <g transform="translate(329.817335 322.182437) scale(0.1 -0.1)">
       <defs>
        <path id="DejaVuSans-38" d="M 2034 2216 
Q 1584 2216 1326 1975 
Q 1069 1734 1069 1313 
Q 1069 891 1326 650 
Q 1584 409 2034 409 
Q 2484 409 2743 651 
Q 3003 894 3003 1313 
Q 3003 1734 2745 1975 
Q 2488 2216 2034 2216 
z
M 1403 2484 
Q 997 2584 770 2862 
Q 544 3141 544 3541 
Q 544 4100 942 4425 
Q 1341 4750 2034 4750 
Q 2731 4750 3128 4425 
Q 3525 4100 3525 3541 
Q 3525 3141 3298 2862 
Q 3072 2584 2669 2484 
Q 3125 2378 3379 2068 
Q 3634 1759 3634 1313 
Q 3634 634 3220 271 
Q 2806 -91 2034 -91 
Q 1263 -91 848 271 
Q 434 634 434 1313 
Q 434 1759 690 2068 
Q 947 2378 1403 2484 
z
M 1172 3481 
Q 1172 3119 1398 2916 
Q 1625 2713 2034 2713 
Q 2441 2713 2670 2916 
Q 2900 3119 2900 3481 
Q 2900 3844 2670 4047 
Q 2441 4250 2034 4250 
Q 1625 4250 1398 4047 
Q 1172 3844 1172 3481 
z
" transform="scale(0.015625)"/>
       </defs>
       <use xlink:href="#DejaVuSans-38"/>
       <use xlink:href="#DejaVuSans-30" x="63.623047"/>
      </g>
     </g>
    </g>
    <g id="xtick_6">
     <g id="line2d_11">
      <path d="M 401.766612 307.584 
L 401.766612 41.472 
" clip-path="url(#p2bc99debaf)" style="fill: none; stroke: #b0b0b0; stroke-width: 0.8; stroke-linecap: square"/>
     </g>
     <g id="line2d_12">
      <g>
       <use xlink:href="#mfaf9bc6327" x="401.766612" y="307.584" style="stroke: #000000; stroke-width: 0.8"/>
      </g>
     </g>
     <g id="text_6">
      <!-- 100 -->
      <g transform="translate(392.222862 322.182437) scale(0.1 -0.1)">
       <defs>
        <path id="DejaVuSans-31" d="M 794 531 
L 1825 531 
L 1825 4091 
L 703 3866 
L 703 4441 
L 1819 4666 
L 2450 4666 
L 2450 531 
L 3481 531 
L 3481 0 
L 794 0 
L 794 531 
z
" transform="scale(0.015625)"/>
       </defs>
       <use xlink:href="#DejaVuSans-31"/>
       <use xlink:href="#DejaVuSans-30" x="63.623047"/>
       <use xlink:href="#DejaVuSans-30" x="127.246094"/>
      </g>
     </g>
    </g>
    <g id="text_7">
     <!-- T -->
     <g transform="translate(233.106094 335.860562) scale(0.1 -0.1)">
      <defs>
       <path id="DejaVuSans-54" d="M -19 4666 
L 3928 4666 
L 3928 4134 
L 2272 4134 
L 2272 0 
L 1638 0 
L 1638 4134 
L -19 4134 
L -19 4666 
z
" transform="scale(0.015625)"/>
      </defs>
      <use xlink:href="#DejaVuSans-54"/>
     </g>
    </g>
   </g>
   <g id="matplotlib.axis_2">
    <g id="ytick_1">
     <g id="line2d_13">
      <path d="M 57.6 268.390044 
L 414.72 268.390044 
" clip-path="url(#p2bc99debaf)" style="fill: none; stroke: #b0b0b0; stroke-width: 0.8; stroke-linecap: square"/>
     </g>
     <g id="line2d_14">
      <defs>
       <path id="m3a2c660aed" d="M 0 0 
L -3.5 0 
" style="stroke: #000000; stroke-width: 0.8"/>
      </defs>
      <g>
       <use xlink:href="#m3a2c660aed" x="57.6" y="268.390044" style="stroke: #000000; stroke-width: 0.8"/>
      </g>
     </g>
     <g id="text_8">
      <!-- 0 -->
      <g transform="translate(44.2375 272.189263) scale(0.1 -0.1)">
       <use xlink:href="#DejaVuSans-30"/>
      </g>
     </g>
    </g>
    <g id="ytick_2">
     <g id="line2d_15">
      <path d="M 57.6 220.651812 
L 414.72 220.651812 
" clip-path="url(#p2bc99debaf)" style="fill: none; stroke: #b0b0b0; stroke-width: 0.8; stroke-linecap: square"/>
     </g>
     <g id="line2d_16">
      <g>
       <use xlink:href="#m3a2c660aed" x="57.6" y="220.651812" style="stroke: #000000; stroke-width: 0.8"/>
      </g>
     </g>
     <g id="text_9">
      <!-- 2 -->
      <g transform="translate(44.2375 224.451031) scale(0.1 -0.1)">
       <use xlink:href="#DejaVuSans-32"/>
      </g>
     </g>
    </g>
    <g id="ytick_3">
     <g id="line2d_17">
      <path d="M 57.6 172.91358 
L 414.72 172.91358 
" clip-path="url(#p2bc99debaf)" style="fill: none; stroke: #b0b0b0; stroke-width: 0.8; stroke-linecap: square"/>
     </g>
     <g id="line2d_18">
      <g>
       <use xlink:href="#m3a2c660aed" x="57.6" y="172.91358" style="stroke: #000000; stroke-width: 0.8"/>
      </g>
     </g>
     <g id="text_10">
      <!-- 4 -->
      <g transform="translate(44.2375 176.712799) scale(0.1 -0.1)">
       <use xlink:href="#DejaVuSans-34"/>
      </g>
     </g>
    </g>
    <g id="ytick_4">
     <g id="line2d_19">
      <path d="M 57.6 125.175348 
L 414.72 125.175348 
" clip-path="url(#p2bc99debaf)" style="fill: none; stroke: #b0b0b0; stroke-width: 0.8; stroke-linecap: square"/>
     </g>
     <g id="line2d_20">
      <g>
       <use xlink:href="#m3a2c660aed" x="57.6" y="125.175348" style="stroke: #000000; stroke-width: 0.8"/>
      </g>
     </g>
     <g id="text_11">
      <!-- 6 -->
      <g transform="translate(44.2375 128.974567) scale(0.1 -0.1)">
       <use xlink:href="#DejaVuSans-36"/>
      </g>
     </g>
    </g>
    <g id="ytick_5">
     <g id="line2d_21">
      <path d="M 57.6 77.437116 
L 414.72 77.437116 
" clip-path="url(#p2bc99debaf)" style="fill: none; stroke: #b0b0b0; stroke-width: 0.8; stroke-linecap: square"/>
     </g>
     <g id="line2d_22">
      <g>
       <use xlink:href="#m3a2c660aed" x="57.6" y="77.437116" style="stroke: #000000; stroke-width: 0.8"/>
      </g>
     </g>
     <g id="text_12">
      <!-- 8 -->
      <g transform="translate(44.2375 81.236335) scale(0.1 -0.1)">
       <use xlink:href="#DejaVuSans-38"/>
      </g>
     </g>
    </g>
    <g id="text_13">
     <!-- X -->
     <g transform="translate(38.157812 177.953) rotate(-90) scale(0.1 -0.1)">
      <defs>
       <path id="DejaVuSans-58" d="M 403 4666 
L 1081 4666 
L 2241 2931 
L 3406 4666 
L 4084 4666 
L 2584 2425 
L 4184 0 
L 3506 0 
L 2194 1984 
L 872 0 
L 191 0 
L 1856 2491 
L 403 4666 
z
" transform="scale(0.015625)"/>
      </defs>
      <use xlink:href="#DejaVuSans-58"/>
     </g>
    </g>
   </g>
   <g id="line2d_23">
    <path d="M 73.832727 53.568 
L 77.112066 81.64664 
L 80.391405 118.957436 
L 83.670744 138.478531 
L 86.950083 143.358785 
L 90.229421 147.019231 
L 93.50876 151.423066 
L 96.788099 157.355169 
L 100.067438 163.667283 
L 103.346777 171.634633 
L 106.626116 180.360192 
L 109.905455 189.276523 
L 113.184793 197.128575 
L 116.464132 206.260876 
L 119.743471 213.628586 
L 123.02281 219.587617 
L 126.302149 227.146527 
L 129.581488 232.834774 
L 132.860826 239.507446 
L 136.140165 244.062352 
L 139.419504 248.88544 
L 142.698843 252.176154 
L 145.978182 255.181067 
L 149.257521 257.844717 
L 152.53686 259.842179 
L 155.816198 262.682218 
L 159.095537 263.90407 
L 162.374876 265.786126 
L 165.654215 267.239858 
L 168.933554 268.67015 
L 172.212893 269.961109 
L 175.492231 270.115451 
L 178.77157 270.429776 
L 182.050909 270.735417 
L 185.330248 269.683276 
L 188.609587 268.342196 
L 191.888926 267.965129 
L 195.168264 268.220225 
L 198.447603 267.635766 
L 201.726942 266.508928 
L 205.006281 266.289115 
L 208.28562 266.020374 
L 211.564959 267.120123 
L 214.844298 268.376112 
L 218.123636 268.914192 
L 221.402975 270.11453 
L 224.682314 270.477604 
L 227.961653 270.586034 
L 231.240992 269.54294 
L 234.520331 269.035914 
L 237.799669 267.790309 
L 241.079008 266.7524 
L 244.358347 266.83 
L 247.637686 267.038236 
L 250.917025 266.70675 
L 254.196364 266.331574 
L 257.475702 266.821592 
L 260.755041 266.567792 
L 264.03438 267.667136 
L 267.313719 268.149335 
L 270.593058 268.331193 
L 273.872397 269.241806 
L 277.151736 268.632988 
L 280.431074 269.194316 
L 283.710413 269.814645 
L 286.989752 270.444245 
L 290.269091 270.124948 
L 293.54843 269.862022 
L 296.827769 268.505634 
L 300.107107 269.081215 
L 303.386446 270.051236 
L 306.665785 269.087588 
L 309.945124 267.911572 
L 313.224463 267.015597 
L 316.503802 267.167336 
L 319.78314 267.311499 
L 323.062479 267.111813 
L 326.341818 268.203691 
L 329.621157 268.472658 
L 332.900496 267.801233 
L 336.179835 266.657446 
L 339.459174 265.605081 
L 342.738512 264.798302 
L 346.017851 264.911834 
L 349.29719 264.658988 
L 352.576529 264.13451 
L 355.855868 265.487999 
L 359.135207 265.194725 
L 362.414545 266.155099 
L 365.693884 267.071453 
L 368.973223 266.264787 
L 372.252562 266.819987 
L 375.531901 267.56117 
L 378.81124 268.458167 
L 382.090579 269.588169 
L 385.369917 269.182745 
L 388.649256 269.864795 
L 391.928595 270.815008 
L 395.207934 269.576771 
L 398.487273 268.314998 
" clip-path="url(#p2bc99debaf)" style="fill: none; stroke: #0000ff; stroke-width: 1.5; stroke-linecap: square"/>
   </g>
   <g id="line2d_24">
    <path d="M 73.832727 53.568 
L 77.112066 81.64664 
L 80.391405 118.957436 
L 83.670744 141.286395 
L 86.950083 145.048555 
L 90.229421 150.296594 
L 93.50876 154.168026 
L 96.788099 160.260462 
L 100.067438 166.450316 
L 103.346777 174.935142 
L 106.626116 183.588738 
L 109.905455 193.14141 
L 113.184793 200.801422 
L 116.464132 210.689567 
L 119.743471 218.044975 
L 123.02281 225.014227 
L 126.302149 232.644252 
L 129.581488 238.888852 
L 132.860826 245.216192 
L 136.140165 249.743541 
L 139.419504 253.763455 
L 142.698843 256.626328 
L 145.978182 258.80494 
L 149.257521 261.016795 
L 152.53686 262.883683 
L 155.816198 265.164667 
L 159.095537 266.08163 
L 162.374876 267.986161 
L 165.654215 269.093288 
L 168.933554 270.397221 
L 172.212893 271.724552 
L 175.492231 271.644115 
L 178.77157 271.872298 
L 182.050909 271.989773 
L 185.330248 270.789012 
L 188.609587 269.337511 
L 191.888926 268.827736 
L 195.168264 268.816313 
L 198.447603 267.937003 
L 201.726942 266.54598 
L 205.006281 266.290632 
L 208.28562 265.874265 
L 211.564959 266.806369 
L 214.844298 268.07872 
L 218.123636 268.74516 
L 221.402975 269.977081 
L 224.682314 270.425875 
L 227.961653 270.549502 
L 231.240992 269.557591 
L 234.520331 269.111215 
L 237.799669 267.820917 
L 241.079008 266.687583 
L 244.358347 266.762 
L 247.637686 266.863643 
L 250.917025 266.435228 
L 254.196364 265.986235 
L 257.475702 266.508051 
L 260.755041 266.248308 
L 264.03438 267.3914 
L 267.313719 267.890788 
L 270.593058 268.103198 
L 273.872397 269.090919 
L 277.151736 268.506067 
L 280.431074 269.083863 
L 283.710413 269.718019 
L 286.989752 270.417646 
L 290.269091 270.108283 
L 293.54843 269.918079 
L 296.827769 268.563291 
L 300.107107 269.13348 
L 303.386446 270.097689 
L 306.665785 269.128991 
L 309.945124 267.948313 
L 313.224463 267.048048 
L 316.503802 267.195968 
L 319.78314 267.336866 
L 323.062479 267.134355 
L 326.341818 268.223686 
L 329.621157 268.470151 
L 332.900496 267.796722 
L 336.179835 266.653194 
L 339.459174 265.601298 
L 342.738512 264.794949 
L 346.017851 264.908865 
L 349.29719 264.575717 
L 352.576529 263.982456 
L 355.855868 265.344512 
L 359.135207 265.006921 
L 362.414545 265.981081 
L 365.693884 266.881616 
L 368.973223 266.092448 
L 372.252562 266.666676 
L 375.531901 267.42515 
L 378.81124 268.3369 
L 382.090579 269.479651 
L 385.369917 269.085566 
L 388.649256 269.777402 
L 391.928595 270.736356 
L 395.207934 269.575452 
L 398.487273 268.321536 
" clip-path="url(#p2bc99debaf)" style="fill: none; stroke-dasharray: 5.55,2.4; stroke-dashoffset: 0; stroke: #000000; stroke-width: 1.5"/>
   </g>
   <g id="line2d_25">
    <path d="M 73.832727 53.568 
L 77.112066 77.914235 
L 80.391405 111.251695 
L 83.670744 134.920855 
L 86.950083 143.920838 
L 90.229421 151.692798 
L 93.50876 160.236108 
L 96.788099 171.205342 
L 100.067438 184.142616 
L 103.346777 200.534543 
L 106.626116 219.540828 
L 109.905455 240.495286 
L 113.184793 261.02702 
L 116.464132 264.796711 
L 119.743471 266.71641 
L 123.02281 267.510913 
L 126.302149 270.081037 
L 129.581488 270.672744 
L 132.860826 272.659614 
L 136.140165 272.756539 
L 139.419504 273.874934 
L 142.698843 274.131233 
L 145.978182 274.854684 
L 149.257521 275.863112 
L 152.53686 276.645727 
L 155.816198 278.762664 
L 159.095537 279.613763 
L 162.374876 281.562372 
L 165.654215 283.254205 
L 168.933554 285.144287 
L 172.212893 287.032318 
L 175.492231 287.974918 
L 178.77157 289.22044 
L 182.050909 290.413824 
L 185.330248 290.205194 
L 188.609587 289.740595 
L 191.888926 290.010945 
L 195.168264 290.654481 
L 198.447603 290.436432 
L 201.726942 289.705857 
L 205.006281 289.791368 
L 208.28562 289.713508 
L 211.564959 290.889884 
L 214.844298 292.089278 
L 218.123636 292.570273 
L 221.402975 293.822374 
L 224.682314 294.242594 
L 227.961653 294.395673 
L 231.240992 293.413741 
L 234.520331 292.896757 
L 237.799669 291.549273 
L 241.079008 290.343228 
L 244.358347 290.102975 
L 247.637686 289.86014 
L 250.917025 289.151153 
L 254.196364 288.416335 
L 257.475702 288.64014 
L 260.755041 288.099475 
L 264.03438 288.970698 
L 267.313719 289.235447 
L 270.593058 289.36741 
L 273.872397 290.386 
L 277.151736 289.830562 
L 280.431074 290.487494 
L 283.710413 291.127068 
L 286.989752 291.76003 
L 290.269091 291.511677 
L 293.54843 291.448663 
L 296.827769 290.332305 
L 300.107107 291.248676 
L 303.386446 292.296711 
L 306.665785 291.504529 
L 309.945124 290.529579 
L 313.224463 289.698326 
L 316.503802 289.83261 
L 319.78314 289.955951 
L 323.062479 289.803435 
L 326.341818 290.936128 
L 329.621157 291.18971 
L 332.900496 290.51626 
L 336.179835 289.360004 
L 339.459174 288.188242 
L 342.738512 287.231698 
L 346.017851 287.130203 
L 349.29719 286.691496 
L 352.576529 286.14002 
L 355.855868 287.515914 
L 359.135207 287.241082 
L 362.414545 288.419901 
L 365.693884 289.536851 
L 368.973223 288.870296 
L 372.252562 289.692944 
L 375.531901 290.58778 
L 378.81124 291.73973 
L 382.090579 293.179936 
L 385.369917 293.074461 
L 388.649256 294.212361 
L 391.928595 295.488 
L 395.207934 294.455758 
L 398.487273 293.473221 
" clip-path="url(#p2bc99debaf)" style="fill: none; stroke: #ff0000; stroke-width: 1.5; stroke-linecap: square"/>
   </g>
   <g id="patch_3">
    <path d="M 57.6 307.584 
L 57.6 41.472 
" style="fill: none; stroke: #000000; stroke-width: 0.8; stroke-linejoin: miter; stroke-linecap: square"/>
   </g>
   <g id="patch_4">
    <path d="M 414.72 307.584 
L 414.72 41.472 
" style="fill: none; stroke: #000000; stroke-width: 0.8; stroke-linejoin: miter; stroke-linecap: square"/>
   </g>
   <g id="patch_5">
    <path d="M 57.6 307.584 
L 414.72 307.584 
" style="fill: none; stroke: #000000; stroke-width: 0.8; stroke-linejoin: miter; stroke-linecap: square"/>
   </g>
   <g id="patch_6">
    <path d="M 57.6 41.472 
L 414.72 41.472 
" style="fill: none; stroke: #000000; stroke-width: 0.8; stroke-linejoin: miter; stroke-linecap: square"/>
   </g>
   <g id="legend_1">
    <g id="patch_7">
     <path d="M 392.72 67.472 
L 400.72 67.472 
Q 404.72 67.472 404.72 63.472 
L 404.72 55.472 
Q 404.72 51.472 400.72 51.472 
L 392.72 51.472 
Q 388.72 51.472 388.72 55.472 
L 388.72 63.472 
Q 388.72 67.472 392.72 67.472 
z
" style="fill: #ffffff; opacity: 0.8; stroke: #cccccc; stroke-linejoin: miter"/>
    </g>
   </g>
  </g>
 </g>
 <defs>
  <clipPath id="p2bc99debaf">
   <rect x="57.6" y="41.472" width="357.12" height="266.112"/>
  </clipPath>
 </defs>
</svg>
